<svg width="31" height="32" viewBox="0 0 31 32" fill="none" xmlns="http://www.w3.org/2000/svg">
<path d="M29.7961 1.71117C29.0195 0.935286 27.9861 0.507812 26.886 0.507812C25.7849 0.507812 24.7512 0.935286 23.975 1.71117L19.1022 6.58142L6.24249 3.30262C5.83888 3.19981 5.40489 3.31825 5.11075 3.61316L1.75974 6.962C1.48546 7.23556 1.36245 7.62636 1.43042 8.00754C1.49869 8.38811 1.74862 8.71248 2.0993 8.87511L9.00522 12.1034C9.29274 12.2366 9.61455 12.2495 9.9126 12.1401C10.21 12.031 10.447 11.813 10.5794 11.5265C10.7126 11.2391 10.7261 10.9175 10.617 10.6202C10.5081 10.3229 10.2897 10.0857 10.0025 9.95281L4.63646 7.43847L6.30986 5.76616L19.1698 9.04495C19.5728 9.14867 20.0062 9.02902 20.3016 8.73442L25.652 3.3871C26.332 2.70741 27.4388 2.70711 28.1191 3.3871C28.4481 3.71567 28.6295 4.15396 28.6295 4.62021C28.6295 5.08677 28.4481 5.52476 28.1191 5.85363L22.7774 11.1928C22.5533 11.4168 22.43 11.7144 22.43 12.031C22.43 12.3475 22.553 12.6451 22.7777 12.8694C23.009 13.0999 23.3124 13.2154 23.6159 13.2154C23.9193 13.2154 24.2228 13.0999 24.4538 12.8691L29.7961 7.52956C30.5726 6.75337 31 5.72016 31 4.62021C31 3.51997 30.5723 2.48706 29.7961 1.71117Z" fill="#0061FF"/>
<path d="M25.9551 16.419C25.8776 16.1121 25.6845 15.8539 25.4117 15.6921C25.1398 15.5301 24.8204 15.4841 24.5142 15.5629C24.2075 15.6407 23.9494 15.8331 23.7873 16.1055C23.6258 16.3775 23.5795 16.6962 23.6574 17.0031L25.7395 25.1852L24.0658 26.8585L19.4083 16.8128C19.2459 16.4626 18.9214 16.2125 18.54 16.1443C18.159 16.0769 17.768 16.1993 17.494 16.4731L13.0059 20.9589C12.725 21.24 12.6041 21.6401 12.6822 22.0294L13.6257 26.7451L12.1003 28.2698L9.4726 22.6021C9.3556 22.3477 9.15049 22.1427 8.89515 22.0243L3.22412 19.3978L4.74955 17.8734L9.46387 18.8197C9.85305 18.8979 10.254 18.7767 10.5352 18.4957L14.8549 14.1779C15.0787 13.9543 15.2023 13.6567 15.2023 13.3401C15.2023 13.0239 15.0787 12.7263 14.8549 12.5026C14.4074 12.0544 13.6257 12.055 13.1779 12.5023L9.30748 16.3709L4.59315 15.4243C4.20428 15.3467 3.80337 15.4676 3.52187 15.7487L0.347401 18.9213C0.0734133 19.1955 -0.0495952 19.5863 0.0183753 19.9666C0.086045 20.3471 0.335672 20.6715 0.686953 20.8347L7.50416 23.9921L10.6627 30.8055C10.8254 31.1566 11.1502 31.4061 11.5313 31.4744C11.6004 31.4867 11.6702 31.4927 11.7394 31.4927C12.0507 31.4927 12.3529 31.3698 12.5773 31.1458L15.7514 27.9728C16.0324 27.6921 16.1536 27.2916 16.0754 26.9023L15.1313 22.1869L17.9707 19.3491L22.6279 29.3947C22.7903 29.7456 23.1148 29.9954 23.4962 30.0639C23.8766 30.1309 24.2685 30.0083 24.5419 29.7344L27.8926 26.3856C28.187 26.0919 28.3061 25.6587 28.2039 25.2553L25.9551 16.419Z" fill="#0061FF"/>
</svg>
