<svg width="36" height="36" viewBox="0 0 36 36" fill="none" xmlns="http://www.w3.org/2000/svg">
<g clip-path="url(#clip0_2385_3102)">
<path fill-rule="evenodd" clip-rule="evenodd" d="M30.6887 5.33403L30.5544 5.19964H30.5439C29.9993 4.7567 29.1952 4.78951 28.6887 5.29599C28.1476 5.83702 28.1477 6.71768 28.6898 7.26007C31.557 10.1289 33.1359 13.9434 33.1359 18.0008C33.1359 22.0582 31.5565 25.8723 28.6893 28.7415C28.1487 29.2825 28.1487 30.1631 28.6893 30.7042L28.6898 30.7045C28.9598 30.975 29.3152 31.1101 29.6704 31.1101C30.0258 31.1101 30.3809 30.975 30.6516 30.7045C34.0428 27.311 35.9106 22.7996 35.9106 18.0005C35.9106 13.2188 34.056 8.72307 30.6887 5.33386V5.33403ZM14.7644 14.8088C13.8926 15.6804 13.4122 16.8392 13.4116 18.0717C13.4112 19.3048 13.8908 20.4641 14.7619 21.336C15.3026 21.8771 16.1829 21.8774 16.7236 21.3363C17.2646 20.7953 17.2646 19.9147 16.7239 19.3733C16.3771 19.026 16.1863 18.5642 16.1866 18.0731C16.1866 17.5816 16.3782 17.1195 16.7257 16.7721C17.4429 16.0553 18.6091 16.0553 19.326 16.7718C19.6727 17.1191 19.8635 17.5809 19.8635 18.072C19.8632 18.5635 19.6716 19.0253 19.3242 19.373C19.0619 19.6351 18.9175 19.9834 18.9175 20.3545C18.9175 20.7252 19.0619 21.0738 19.3239 21.336C19.5942 21.6069 19.9493 21.7419 20.3049 21.7419C20.66 21.7419 21.0151 21.6069 21.2855 21.3363C22.1569 20.4647 22.6373 19.3056 22.638 18.0731C22.6386 16.8402 22.159 15.681 21.2876 14.8084C19.4896 13.0097 16.5638 13.0094 14.7644 14.8088ZM7.22127 7.25982C4.35406 10.1287 2.77516 13.9431 2.77516 18.0005C2.77516 22.0886 4.37675 25.926 7.28578 28.8057C7.82928 29.3496 7.83207 30.2274 7.29728 30.7688C7.03704 31.0323 6.68959 31.1789 6.31876 31.181H6.31038C5.94305 31.181 5.59699 31.039 5.33536 30.7803L5.25756 30.7028C1.86742 27.3107 0.000416185 22.8 0 18.0008C0.000348846 13.2021 1.86805 8.69056 5.25923 5.29678C5.80029 4.75611 6.68039 4.75575 7.22112 5.29714C7.48311 5.55927 7.62754 5.90763 7.62754 6.27867C7.62754 6.64935 7.48311 6.99806 7.22112 7.2602L7.22127 7.25982ZM25.7446 9.65913C25.4746 9.40502 25.1257 9.26958 24.7514 9.28354C24.3809 9.29506 24.0373 9.45039 23.7837 9.72056C23.5291 9.99212 23.3958 10.3464 23.4079 10.7185C23.4202 11.0888 23.5758 11.4316 23.8455 11.6825C25.6036 13.335 26.5721 15.5734 26.5724 17.9854C26.5721 20.285 25.68 22.449 24.0603 24.0795C23.5224 24.6205 23.5234 25.4998 24.0628 26.0398L24.0513 26.031L24.0659 26.0426C24.3276 26.3029 24.675 26.4461 25.0438 26.4461H25.0479C25.4187 26.445 25.7666 26.2995 26.0278 26.0366C28.1681 23.8826 29.3468 21.0236 29.3471 17.9858C29.3471 14.8461 28.0337 11.8113 25.7446 9.65913ZM9.44577 17.9854C9.44543 20.3052 10.3458 22.477 11.9812 24.1032L12.0046 24.1267C12.5363 24.6585 12.5376 25.5375 12 26.0789C11.7387 26.342 11.3909 26.4876 11.0201 26.4883H11.0159C10.6472 26.4883 10.2997 26.3452 10.0381 26.0848L10.0133 26.06C7.85781 23.9033 6.67064 21.0358 6.67096 17.9854C6.6706 14.9605 7.84096 12.1098 9.9662 9.95826C10.2268 9.69473 10.5742 9.54813 10.9447 9.54603C11.3166 9.53312 11.6647 9.686 11.9282 9.94674C12.4667 10.493 12.4703 11.3723 11.9396 11.9099C10.3315 13.5382 9.44546 15.696 9.44577 17.9854Z" fill="#0061FF"/>
</g>
<defs>
<clipPath id="clip0_2385_3102">
<rect width="36" height="36" fill="white"/>
</clipPath>
</defs>
</svg>
