<svg width="36" height="24" viewBox="0 0 36 24" fill="none" xmlns="http://www.w3.org/2000/svg">
<g id="f_3" clip-path="url(#clip0_1166_50624)">
<g id="Group">
<path id="Vector" d="M17.582 16.291C15.5163 16.291 13.8359 14.6107 13.8359 12.5449C13.8359 10.4792 15.5163 8.79883 17.582 8.79883C19.6477 8.79883 21.3281 10.4792 21.3281 12.5449C21.3281 14.6107 19.648 16.291 17.582 16.291ZM17.582 11.4139C16.9584 11.4139 16.451 11.9214 16.451 12.5449C16.451 13.1685 16.9584 13.6758 17.582 13.6758C18.2055 13.6758 18.713 13.1685 18.713 12.5449C18.7133 11.9214 18.2059 11.4139 17.582 11.4139Z" fill="#0061FF"/>
<path id="Vector_2" d="M15.0458 19.8583C14.8758 19.8583 14.7034 19.8255 14.5366 19.7551C11.6337 18.5266 9.75781 15.6968 9.75781 12.5445C9.75781 11.8224 10.3436 11.2373 11.0657 11.2373C11.7879 11.2373 12.373 11.8224 12.373 12.5445C12.373 14.6431 13.6224 16.5284 15.5556 17.3464C16.2208 17.6275 16.5321 18.3948 16.2505 19.0599C16.0396 19.559 15.5553 19.8583 15.0458 19.8583Z" fill="#0061FF"/>
<path id="Vector_3" d="M20.7461 19.5535C20.2866 19.5535 19.8411 19.3108 19.6022 18.8807C19.2519 18.249 19.4784 17.4535 20.1103 17.1027C21.0147 16.5998 21.7435 15.8483 22.2177 14.9289C22.5485 14.2868 23.3378 14.0355 23.9795 14.3666C24.6212 14.6978 24.8731 15.4863 24.5415 16.1281C23.8306 17.5066 22.737 18.6348 21.3798 19.3884C21.1794 19.5003 20.9616 19.5535 20.7461 19.5535Z" fill="#0061FF"/>
<path id="Vector_4" d="M23.7164 11.6401C23.181 11.6401 22.6788 11.3089 22.4861 10.776C21.7431 8.71763 19.7727 7.33449 17.5832 7.33449C16.3089 7.33449 15.0825 7.79961 14.1299 8.64381C13.5893 9.12293 12.7629 9.0729 12.2841 8.5326C11.805 7.99195 11.855 7.16559 12.3954 6.68648C13.8267 5.41809 15.6689 4.71973 17.5832 4.71973C20.8716 4.71973 23.8304 6.79664 24.946 9.88806C25.1912 10.5676 24.839 11.317 24.1599 11.5621C24.0133 11.615 23.863 11.6401 23.7164 11.6401Z" fill="#0061FF"/>
<path id="Vector_5" d="M17.9821 23.9596C11.0274 23.9596 4.54664 19.9926 0.200121 13.075C-0.066707 12.6501 -0.066707 12.1095 0.200121 11.6839C1.25799 10.0004 2.46413 8.46515 3.78568 7.12157C4.2917 6.6061 5.11982 6.59946 5.63459 7.10584C6.14971 7.61222 6.1567 8.43998 5.65032 8.95474C4.64456 9.97802 3.71049 11.1275 2.86734 12.3798C6.70854 18.0888 12.178 21.3442 17.9821 21.3442C20.8532 21.3442 23.6281 20.5647 26.2289 19.0284C26.8503 18.6613 27.6526 18.8673 28.0197 19.489C28.3873 20.1105 28.181 20.9123 27.5595 21.2799C24.5496 23.0582 21.3274 23.9596 17.9821 23.9596Z" fill="#0061FF"/>
<path id="Vector_6" d="M31.1386 18.1376C30.8046 18.1376 30.471 18.0107 30.2153 17.7568C29.7037 17.2469 29.7023 16.4188 30.2118 15.9076C31.2567 14.8581 32.2254 13.6739 33.0969 12.3797C29.2557 6.67036 23.7866 3.41492 17.9822 3.41492C15.0649 3.41492 12.2494 4.2182 9.61433 5.80308C8.99571 6.17482 8.19205 5.97514 7.81997 5.35616C7.44787 4.73752 7.64791 3.93389 8.26657 3.5618C11.3146 1.72898 14.5834 0.799805 17.9822 0.799805C24.9368 0.799805 31.4176 4.76691 35.7641 11.6841C36.0317 12.1094 36.0317 12.65 35.7641 13.0752C34.6762 14.8073 33.4315 16.381 32.0649 17.7533C31.8097 18.0093 31.4739 18.1376 31.1386 18.1376Z" fill="#0061FF"/>
</g>
</g>
<defs>
<clipPath id="clip0_1166_50624">
<rect width="36" height="23.2" fill="white" transform="translate(0 0.800781)"/>
</clipPath>
</defs>
</svg>
