<svg width="36" height="35" viewBox="0 0 36 35" fill="none" xmlns="http://www.w3.org/2000/svg">
<g id="f_4" clip-path="url(#clip0_1166_50632)">
<path id="Vector" d="M31.57 0.591797H4.37657C1.97634 0.591797 0.023786 2.54125 0.023786 4.93688V21.3697L0.0234375 21.3714C0.0234375 21.3714 0.023786 21.3724 0.023786 21.3731V22.8305C0.023786 25.2265 1.97634 27.1756 4.37657 27.1756H13.0449V29.5337C13.0449 29.573 13.0537 29.6098 13.0567 29.6484H13.0404C13.0404 30.5825 12.2797 31.3417 11.3444 31.3425H11.1063C10.3373 31.3425 9.71382 31.9647 9.71382 32.7324C9.71382 33.5001 10.3373 34.1223 11.1063 34.1223H11.3433H11.3454H24.754H24.7557H24.7567H24.7923C25.5613 34.1223 26.1847 33.5001 26.1847 32.7324C26.1847 31.9647 25.5613 31.3425 24.7923 31.3425H24.7547C23.8197 31.3417 23.0587 30.5825 23.0587 29.6484C23.0587 28.8807 22.4353 28.2583 21.6662 28.2583C20.8973 28.2583 20.2738 28.8807 20.2738 29.6484C20.2738 30.2482 20.3946 30.8194 20.6098 31.3425H15.4893C15.7045 30.8194 15.8253 30.2482 15.8253 29.6484H15.8183C15.8214 29.6098 15.8298 29.573 15.8298 29.5337V27.1756H31.57C33.9702 27.1756 35.9228 25.2265 35.9228 22.8305V4.93688C35.9228 2.54125 33.9702 0.591797 31.57 0.591797ZM33.1379 22.8305C33.1379 23.6933 32.4343 24.3956 31.57 24.3956H4.37657C3.51186 24.3956 2.80868 23.6933 2.80868 22.8305V22.4139H29.5478C30.3169 22.4139 30.9406 21.7915 30.9406 21.0238C30.9406 20.2563 30.3169 19.6339 29.5478 19.6339H2.80868V4.93688C2.80868 4.07405 3.51186 3.37176 4.37657 3.37176H31.57C32.4343 3.37176 33.1379 4.07405 33.1379 4.93688V22.8305Z" fill="#0061FF"/>
<path id="Vector_2" d="M23.705 10.4181L15.1588 5.49272C14.7283 5.24461 14.1974 5.24461 13.7665 5.49272C13.3355 5.74084 13.0703 6.19988 13.0703 6.69645L13.0706 16.547C13.0706 17.0432 13.3359 17.5025 13.7668 17.7506C13.9819 17.8747 14.2225 17.9369 14.4631 17.9369C14.7032 17.9369 14.9438 17.8747 15.1593 17.7506L17.3632 16.4802C18.0291 16.0966 18.2575 15.2466 17.8731 14.5815C17.4884 13.917 16.637 13.6881 15.9707 14.0731L15.8554 14.1394L15.8551 9.10424L20.2235 11.6219L20.124 11.6792C19.4577 12.0629 19.2297 12.9131 19.614 13.5779C19.9987 14.2426 20.8502 14.4713 21.5161 14.0866L23.7047 12.8256C24.1353 12.5775 24.4009 12.1187 24.4009 11.6219C24.4012 11.1253 24.1356 10.6666 23.705 10.4181Z" fill="#0061FF"/>
</g>
<defs>
<clipPath id="clip0_1166_50632">
<rect width="36" height="33.8" fill="white" transform="translate(0 0.5)"/>
</clipPath>
</defs>
</svg>
