<svg width="37" height="37" viewBox="0 0 37 37" fill="none" xmlns="http://www.w3.org/2000/svg">
<g clip-path="url(#clip0_1166_50639)">
<path d="M35.7067 0.791949C35.3808 0.472891 34.9181 0.337387 34.4701 0.427954C33.198 0.687209 21.7673 3.2331 12.3104 12.6896C7.27905 17.7209 4.76151 22.2306 4.82753 26.0935C4.85173 27.5181 5.23163 28.5747 5.61739 29.2882L1.09045 33.8152C0.574016 34.3316 0.574016 35.1724 1.09045 35.6888C1.34072 35.9391 1.67291 36.0764 2.02689 36.0764C2.38051 36.0764 2.71304 35.9391 2.96297 35.6888L19.3531 19.2983C19.6037 19.048 19.7413 18.7158 19.7413 18.3618C19.7413 18.0082 19.6037 17.6756 19.3531 17.4254C18.8373 16.9094 17.997 16.9087 17.4806 17.4254L7.64547 27.2605C7.55248 26.9266 7.48369 26.5246 7.47573 26.0482C7.4391 23.905 8.57325 20.1725 14.1831 14.5625C21.2163 7.52946 29.425 4.55355 33.0432 3.51517C32.6778 4.93933 32.0303 7.2149 30.919 10.5092L26.8946 10.6005C26.4536 10.6101 26.0415 10.8334 25.7916 11.1967C25.5416 11.5597 25.4808 12.0232 25.6285 12.4356L27.1542 16.7451C26.2797 18.0414 23.1725 22.0924 15.9945 26.5215C15.373 26.9048 15.1794 27.7223 15.5628 28.3439C15.9458 28.965 16.7637 29.1583 17.3855 28.7752C26.4308 23.194 29.4451 18.133 29.7586 17.5751C29.9559 17.2249 29.9912 16.8109 29.856 16.441L28.7118 13.2086L31.8655 13.1374C32.4368 13.1256 32.9484 12.7522 33.1389 12.2071C35.4022 5.61305 36.0009 2.56318 36.0977 2.01944C36.1789 1.56937 36.0327 1.11101 35.7067 0.791949Z" fill="#0061FF"/>
</g>
<defs>
<clipPath id="clip0_1166_50639">
<rect width="35.6044" height="36" fill="white" transform="translate(0.703125 0.400391)"/>
</clipPath>
</defs>
</svg>
