<svg width="37" height="32" viewBox="0 0 37 32" fill="none" xmlns="http://www.w3.org/2000/svg">
<g id="f_8" clip-path="url(#clip0_1166_50641)">
<path id="Vector" d="M35.9194 10.243L28.4426 1.43747C28.1934 1.143 27.8285 0.973633 27.442 0.973633C27.1328 0.973633 26.8321 1.0841 26.5947 1.28413L22.9046 4.41736C22.3623 4.88328 22.2985 5.7071 22.7627 6.25421L29.9172 14.6795L29.9157 14.7315C29.8631 16.5787 27.1614 19.4566 25.4701 20.8369L15.616 29.2002C15.3965 29.3876 14.9841 29.3082 14.752 29.0346C14.5784 28.83 14.56 28.6228 14.5649 28.5179C14.5715 28.3693 14.63 28.2408 14.7287 28.1564L20.8449 22.9647C21.0972 22.7507 21.2508 22.4511 21.2777 22.1214C21.3045 21.7917 21.2018 21.4714 20.9874 21.2188C20.7514 20.9414 20.4071 20.7822 20.0429 20.7822C19.7498 20.7822 19.4658 20.8867 19.2427 21.0763L11.4073 27.7278C11.3073 27.8128 11.1703 27.8495 11.0198 27.8313C10.917 27.8191 10.718 27.7679 10.5437 27.5626C10.3 27.2754 10.2889 26.8813 10.5193 26.6851L16.6364 21.4914C16.8888 21.2767 17.0421 20.9777 17.069 20.6487C17.0962 20.3191 16.9933 19.9984 16.779 19.7464C16.5438 19.4691 16.1995 19.3098 15.8342 19.3098C15.5414 19.3098 15.2571 19.4144 15.0333 19.6043L7.97959 25.5923C7.87469 25.6822 7.71994 25.7171 7.55614 25.6853C7.38955 25.6551 7.22889 25.5606 7.11596 25.4275C6.87165 25.1392 6.8612 24.7448 7.09261 24.5485L13.2085 19.3566C13.4607 19.1422 13.6145 18.8429 13.6409 18.5135C13.6682 18.1839 13.565 17.8633 13.351 17.611C13.115 17.3336 12.7707 17.1747 12.4061 17.1747C12.113 17.1747 11.829 17.2789 11.6059 17.4681L6.42868 21.8639C6.34469 21.9353 6.23979 21.9716 6.1178 21.9716C6.09097 21.9716 6.06587 21.9694 6.04462 21.9677C5.94041 21.9551 5.73931 21.9039 5.56471 21.6976C5.32074 21.4102 5.31028 21.016 5.5417 20.8195L9.82152 17.1861C10.0738 16.9722 10.2279 16.6725 10.2544 16.3425C10.2812 16.0135 10.1784 15.6933 9.96402 15.4406C9.72809 15.1632 9.38377 15.0039 9.01957 15.0039C8.72716 15.0039 8.44277 15.1085 8.21937 15.2981L3.93956 18.9313C2.66676 20.0117 2.54897 21.9716 3.67712 23.3007C3.90784 23.5721 4.18387 23.8052 4.49754 23.9934L4.58432 24.045L4.55818 24.143C4.29156 25.1424 4.54215 26.222 5.22838 27.0301C5.84631 27.7578 6.73643 28.1749 7.67045 28.1749C7.75793 28.1749 7.85587 28.1693 7.96949 28.1581L8.0702 28.1491L8.10715 28.2436C8.24098 28.5844 8.42569 28.8942 8.65606 29.1657C9.19174 29.7961 9.9299 30.1958 10.735 30.2909C11.2916 30.3582 11.8262 30.2762 12.3249 30.0498L12.4371 29.9988L12.4971 30.1069C12.6048 30.2996 12.7281 30.4776 12.8648 30.6384C13.4824 31.366 14.3725 31.7834 15.3069 31.7834C16.022 31.7834 16.6832 31.543 17.2188 31.0886L27.0161 22.7713C27.9243 22.0335 32.4505 18.1696 32.3864 14.5645L32.385 14.553L32.3909 14.5262L32.3906 14.5199C32.3529 13.9212 32.0968 13.4214 31.8695 13.1538L25.4059 5.54226L27.3078 3.92809L34.0318 11.8477C34.2685 12.1248 34.6124 12.2837 34.9762 12.2837C35.2694 12.2837 35.5537 12.1795 35.7764 11.9899C36.0288 11.7752 36.1825 11.4756 36.2096 11.1459C36.2369 10.8166 36.1337 10.4963 35.9194 10.243Z" fill="#0061FF"/>
<path id="Vector_2" d="M10.4168 5.20625L5.59712 12.7983C5.22629 13.3719 5.39045 14.14 5.96341 14.5104C6.16486 14.6412 6.39697 14.7101 6.63501 14.7101C7.05742 14.7101 7.44672 14.4989 7.6757 14.1445L12.5623 6.44825L12.6603 6.48066C13.1827 6.65525 13.7274 6.74376 14.2798 6.74376C15.1097 6.74376 15.814 6.5413 16.2587 6.37123L16.3211 6.34719L18.5314 7.74914L20.7696 9.25424L19.9042 10.4983L19.7794 10.6973L16.6093 8.84129L16.5229 8.8026C15.9603 8.53462 15.2636 8.7357 14.9361 9.26435L14.8932 9.35008C14.5283 9.96306 13.9215 10.4046 13.2276 10.56C12.9031 10.6332 12.5756 10.6433 12.2542 10.5914C12.1908 10.5809 12.1246 10.5757 12.0569 10.5757C11.4457 10.5757 10.9323 11.0145 10.8357 11.619C10.7838 11.9453 10.8622 12.2721 11.0563 12.5405C11.2512 12.8081 11.5377 12.9848 11.8638 13.0367C12.4978 13.1381 13.1391 13.1179 13.7692 12.976C14.6983 12.768 15.5529 12.2955 16.2406 11.61L16.3137 11.5368L18.9939 13.1068C19.4999 13.4197 19.9959 13.5193 20.4681 13.4012C21.2003 13.2169 21.5405 12.6123 21.7893 12.17C21.8451 12.0707 21.8964 11.9798 21.9597 11.8784L23.3427 9.89231L23.3737 9.84562C23.594 9.49818 23.6647 9.08209 23.5734 8.67367C23.4842 8.27431 23.2472 7.9307 22.9067 7.70767L19.9014 5.68611L17.1143 3.91826C16.6968 3.65515 16.1507 3.64714 15.7227 3.897C15.5746 3.98342 15.0344 4.26674 14.3077 4.26674C13.8368 4.26674 13.3792 4.14756 12.9523 3.91581L12.9188 3.89212C12.8529 3.8294 12.7829 3.77433 12.7107 3.72903L8.68885 1.17812C8.47974 1.04535 8.23681 0.974609 7.98656 0.974609C7.51641 0.974609 7.08076 1.21297 6.82217 1.61199L0.51676 11.3486C0.145936 11.9215 0.310087 12.6893 0.882705 13.0604C1.0838 13.1911 1.31626 13.2601 1.55499 13.2601C1.9774 13.2601 2.366 13.0489 2.59532 12.6952L8.31034 3.86982L10.4168 5.20625Z" fill="#0061FF"/>
</g>
<defs>
<clipPath id="clip0_1166_50641">
<rect width="36" height="31" fill="white" transform="translate(0.306641 0.900391)"/>
</clipPath>
</defs>
</svg>
