<svg width="37" height="35" viewBox="0 0 37 35" fill="none" xmlns="http://www.w3.org/2000/svg">
<g id="f_pti" clip-path="url(#clip0_1166_50654)">
<g id="Group">
<path id="Vector" d="M6.81011 28.0145V16.7267L17.4601 23.312L17.4996 23.3372C17.732 23.4836 18.0023 23.5619 18.2787 23.5619H18.2808C18.5551 23.5619 18.8211 23.4867 19.0494 23.3444L30.0855 16.4991V22.8168C30.0855 23.4973 29.9592 24.174 29.6935 24.8026C28.7832 26.954 25.9126 30.9113 17.1086 30.9113L16.6866 30.912C16.4116 30.912 16.4116 30.9127 16.1665 30.9L15.6276 30.8742C14.867 30.8398 14.2461 31.313 14.1508 31.9994C14.1004 32.3626 14.2056 32.7341 14.4383 33.0194C14.6582 33.2881 14.9665 33.4507 15.3061 33.4775C15.9721 33.5298 16.1288 33.54 16.3603 33.54C16.4199 33.54 16.4849 33.5393 16.5648 33.5383C16.6898 33.537 16.8531 33.5352 17.1086 33.5352H17.1216C28.7923 33.5352 31.8134 27.0787 32.5338 24.66C32.6752 24.1854 32.7429 23.6942 32.7433 23.199L32.7502 14.9819C32.7502 14.9382 32.7415 14.897 32.7373 14.8543L35.5714 13.0965C35.9668 12.8511 36.2572 12.45 36.3002 11.9919C36.3515 11.4486 36.0938 10.9393 35.6334 10.654L19.0477 0.366604C18.5806 0.0775764 17.9778 0.0786074 17.5118 0.367978L0.928508 10.654C0.306838 11.0399 0.119743 11.8518 0.511385 12.4631C0.700923 12.7601 0.996574 12.9666 1.34388 13.0439C1.69084 13.1219 2.04828 13.0614 2.34882 12.8742L18.2808 2.9919L32.5712 11.8558L18.2808 20.7201L6.18984 13.2415C5.88826 13.0549 5.53117 12.9944 5.18421 13.0721C4.83724 13.1494 4.5416 13.3556 4.35206 13.6522C4.17822 13.9237 4.11295 14.245 4.16601 14.5623C4.15205 14.6393 4.14506 14.7152 4.14506 14.7891V29.8833C4.14506 30.2253 4.25048 30.5662 4.47387 30.8275C4.84807 31.2646 5.41703 31.4368 5.95877 31.2959L7.54069 30.8821L9.92304 34.051C10.1928 34.4109 10.6245 34.6257 11.0776 34.6257C11.3153 34.6257 11.5503 34.5669 11.7646 34.4538C12.2428 34.2022 12.5151 33.685 12.5151 33.151V23.4186C12.5151 22.7925 12.085 22.2226 11.4619 22.0972C10.6057 21.9247 9.85003 22.5677 9.85003 23.3812V30.2315L8.09115 27.755L6.81011 28.0145Z" fill="#0061FF"/>
</g>
</g>
<defs>
<clipPath id="clip0_1166_50654">
<rect width="36" height="34.5" fill="white" transform="translate(0.306641 0.150391)"/>
</clipPath>
</defs>
</svg>
