<svg width="37" height="31" viewBox="0 0 37 31" fill="none" xmlns="http://www.w3.org/2000/svg">
<g clip-path="url(#clip0_1166_50660)">
<path d="M36.2408 15.2935C36.2408 11.1572 29.6808 8.91621 23.5416 8.1978C22.8009 8.11209 22.132 8.64132 22.0454 9.38099C21.9589 10.1207 22.4885 10.7903 23.228 10.877C30.2653 11.7 33.544 13.9988 33.544 15.2935C33.544 17.208 27.6118 19.9883 18.3159 19.9883C17.4564 19.9883 16.6262 19.9646 15.8264 19.9196C15.3735 19.3384 14.9206 18.7288 14.4698 18.0853C13.8441 17.1916 13.2613 16.29 12.7254 15.3917C13.2483 14.5158 13.8277 13.6163 14.4698 12.6992C16.4538 9.86562 18.6588 7.40099 20.8458 5.57115C23.9747 2.95392 26.2558 2.36163 27.0506 2.91699C27.6034 3.30441 27.8142 4.46915 27.6138 6.03315C27.5191 6.77211 28.0413 7.44767 28.7799 7.54245C29.5181 7.63756 30.1943 7.1153 30.2887 6.37632C30.7245 2.97517 29.6094 1.41639 28.5974 0.707731C26.4419 -0.801918 23.0745 0.190696 19.1154 3.50266C16.7492 5.48162 14.3784 8.12742 12.2603 11.152C11.9112 11.6509 11.5726 12.1575 11.2437 12.6682C10.4226 10.9983 9.79275 9.38099 9.3949 7.89259C8.58943 4.88027 8.99182 3.3295 9.58128 2.91699C10.2216 2.46894 11.6618 2.81072 13.34 3.80822C13.9796 4.18798 14.8073 3.97788 15.1882 3.33787C15.5685 2.69784 15.3582 1.87037 14.7181 1.48957C11.2309 -0.583466 9.15869 -0.0803665 8.03447 0.707731C6.74615 1.60941 5.48467 3.70927 6.78935 8.58941C6.8646 8.87093 6.94995 9.15766 7.03949 9.44649C2.74325 10.8046 0.390625 12.8592 0.390625 15.2935C0.390625 17.9668 3.12995 19.9367 7.07677 21.168C5.80134 25.1342 5.83304 28.5354 8.03447 30.0771C8.57098 30.4526 9.3193 30.7614 10.3296 30.7614C11.482 30.7614 12.9752 30.3593 14.8826 29.1956C15.5184 28.8075 15.7194 27.978 15.3313 27.3421C14.9436 26.7066 14.1144 26.5059 13.4779 26.8933C11.7353 27.9567 10.2418 28.3292 9.58093 27.8675C8.71451 27.2606 8.6727 25.0158 9.70669 21.8453C11.2072 22.1596 12.8111 22.3864 14.4589 22.5244C18.3256 27.2167 22.8623 30.7774 26.2796 30.7771C27.1306 30.7771 27.9127 30.5562 28.5969 30.0768C29.4676 29.4674 30.4835 28.1713 30.3782 25.46C30.3493 24.7155 29.7131 24.1298 28.9788 24.1646C28.2343 24.1939 27.6546 24.8207 27.6832 25.5649C27.7278 26.7149 27.4971 27.5546 27.0501 27.8675C25.8469 28.71 22.2188 26.9787 18.186 22.6849C18.2291 22.6849 18.2723 22.686 18.3159 22.686C27.224 22.686 36.2408 20.1467 36.2408 15.2935ZM3.08779 15.2935C3.08779 14.3963 4.6252 13.0232 7.96897 11.9818C8.43684 13.0957 8.99042 14.2392 9.62099 15.3925C9.02735 16.4759 8.49607 17.5613 8.03725 18.6278C4.88197 17.6577 3.08779 16.3453 3.08779 15.2935ZM11.2423 18.1152C11.5517 18.5957 11.8729 19.0751 12.205 19.5517C11.6824 19.473 11.1772 19.3862 10.6937 19.2908C10.864 18.9068 11.0459 18.5152 11.2423 18.1152Z" fill="#0061FF"/>
<path d="M14.6094 15.4805C14.6094 17.5239 16.2716 19.1865 18.3148 19.1865C20.3578 19.1865 22.0202 17.5239 22.0202 15.4805C22.0202 13.4371 20.3578 11.7744 18.3148 11.7744C16.2716 11.7744 14.6094 13.4371 14.6094 15.4805ZM19.323 15.4805C19.323 16.0366 18.8709 16.4888 18.3148 16.4888C17.7588 16.4888 17.3063 16.0366 17.3063 15.4805C17.3063 14.9244 17.7588 14.4721 18.3148 14.4721C18.8709 14.4721 19.323 14.9244 19.323 15.4805Z" fill="#0061FF"/>
</g>
<defs>
<clipPath id="clip0_1166_50660">
<rect width="36" height="30.8" fill="white" transform="translate(0.306641)"/>
</clipPath>
</defs>
</svg>
