<svg width="37" height="35" viewBox="0 0 37 35" fill="none" xmlns="http://www.w3.org/2000/svg">
<g clip-path="url(#clip0_1166_50664)">
<path d="M8.38072 34.3583C8.09515 34.3583 7.80953 34.2697 7.56688 34.0935C7.08227 33.7415 6.87911 33.1174 7.06326 32.5476L10.6217 21.5392L7.83761 19.5094C7.21938 19.059 7.08368 18.193 7.53403 17.5751C7.98472 16.9568 8.85077 16.8215 9.46865 17.2718L13.0631 19.8922C13.5467 20.245 13.7492 20.8677 13.565 21.4371L11.0021 29.3658L17.7511 24.4784C18.2353 24.1274 18.8906 24.1267 19.3752 24.4784L26.1239 29.3658L23.5609 21.4371C23.3771 20.8677 23.5796 20.245 24.0632 19.8922L27.6577 17.2722C28.2755 16.8208 29.1416 16.9572 29.592 17.5755C30.0427 18.1933 29.907 19.0594 29.2887 19.5097L26.5046 21.5396L30.0631 32.548C30.2472 33.1177 30.044 33.7419 29.5594 34.0939C29.0748 34.4463 28.4185 34.4473 27.9332 34.0949L18.5632 27.3093L9.1928 34.0949C8.95049 34.2701 8.66561 34.3583 8.38072 34.3583Z" fill="#0061FF"/>
<path d="M35.0384 14.9902H35.0364L22.4644 14.9712C21.8659 14.9702 21.3359 14.5852 21.1501 14.0165L18.5633 6.09544L15.9761 14.0165C15.7902 14.5852 15.2603 14.9702 14.6618 14.9712L2.08982 14.9902H2.08775C1.32413 14.9902 0.704165 14.3717 0.703126 13.6077C0.702088 12.843 1.32101 12.222 2.08567 12.221L13.6551 12.2033L17.2472 1.20567C17.4331 0.636246 17.9641 0.250977 18.5633 0.250977C19.1621 0.250977 19.6934 0.636246 19.8793 1.20567L23.471 12.2033L35.0405 12.221C35.8052 12.222 36.4241 12.843 36.4231 13.6077C36.422 14.3713 35.8024 14.9902 35.0384 14.9902Z" fill="#0061FF"/>
</g>
<defs>
<clipPath id="clip0_1166_50664">
<rect width="36" height="34.3" fill="white" transform="translate(0.703125 0.25)"/>
</clipPath>
</defs>
</svg>
