<svg width="45" height="44" viewBox="0 0 45 44" fill="none" xmlns="http://www.w3.org/2000/svg">
<path d="M36.1074 12.4356L28.1044 10.3056C27.3638 10.1085 26.6033 10.5401 26.3984 11.274C26.1898 12.0206 26.6351 12.7946 27.3886 12.9952L31.1679 14.001C31.5912 14.1137 31.6775 14.674 31.3071 14.9054L8.40484 29.2172C7.76921 29.6144 7.56438 30.4415 7.94113 31.0896C8.33858 31.7734 9.22644 31.9935 9.89702 31.5745L32.5215 17.4363C32.9073 17.1952 33.3913 17.5514 33.2731 17.9894L32.328 21.493C32.1261 22.2415 32.5783 23.0116 33.3335 23.2055C34.0758 23.3961 34.8324 22.9577 35.0308 22.2221L37.1753 14.2727C37.3909 13.4733 36.9122 12.6498 36.1074 12.4356Z" fill="#0061FF" stroke="#0061FF"/>
</svg>
