<?xml version="1.0" encoding="UTF-8"?>
<svg class="my-auto mx-2 big-icon" fill="none" viewBox="0 0 125 109" xmlns="http://www.w3.org/2000/svg">
<mask id="b" x="11" y="2" width="104" height="104" fill="#D9D9D9" stroke="#000" stroke-width="1.3" style="mask-type:alpha" maskUnits="userSpaceOnUse">
<path d="m108.17 76.818c-0.721-0.4562-1.564-0.1695-2.113 0.0897l-0.044 0.0209-0.04 0.0273-3.926 2.6373-4.5648-1.5598-0.0298-0.0102-0.0307-0.0073c-0.6903-0.1633-1.4771-0.0303-1.9486 0.4166-0.5487 0.5192-0.8106 1.2898-0.5723 1.9676l1e-4 2e-4 1.5024 4.2674-2.8824 3.5587-0.0135 0.0167-0.0124 0.0176c-0.3651 0.5172-0.5978 1.2946-0.1785 2.0869l0.019 0.0358 0.0233 0.0333c0.3043 0.4338 0.8797 1.0458 1.7492 1.0458h4.8059l2.6441 3.6938c0 6e-4 1e-3 0.0013 1e-3 0.0019 0.431 0.6082 1.07 0.7853 1.612 0.7853h0.211l0.074-0.0175c0.645-0.1527 1.322-0.5104 1.554-1.3345l1.504-4.2725 4.521-1.3071c0.414-0.083 0.784-0.2494 1.065-0.4916 0.267-0.2292 0.482-0.5554 0.511-0.9467 0.174-0.8027-0.255-1.543-0.828-1.9121l-3.758-2.6095 0.125-4.5135v-9e-3 -9e-3c0-0.7806-0.427-1.354-0.98-1.7025zm0 0-0.347 0.5495 0.347-0.5498v3e-4zm-2.654 10.031-0.027 6e-3 -0.025 0.0082c-0.476 0.15-1.128 0.4982-1.365 1.1723l-3e-3 0.0085-0.538 1.6007-0.884-1.2555c-0.43-0.6111-1.072-0.7881-1.614-0.7881h-1.7361l1.0201-1.2425 0.015-0.0183 0.014-0.0194c0.316-0.4482 0.591-1.0596 0.355-1.7377l-0.517-1.5387 1.576 0.5681 0.012 0.0044 0.013 4e-3c0.274 0.0866 0.593 0.1308 0.902 0.1084 0.281-0.0205 0.631-0.103 0.912-0.3435l1.324-0.905-0.075 1.6434-1e-3 0.0149v0.0149c0 0.5452 0.202 1.1633 0.833 1.5668l1.194 0.8157-1.385 0.3124z"/>
<path d="m40.427 4.5901c-0.7218-0.45623-1.5641-0.16953-2.1129 0.08971l-0.0443 0.0209-0.0406 0.02729-3.9254 2.6372-4.565-1.5598-0.0298-0.01019-0.0307-0.00726c-0.6902-0.16331-1.477-0.0303-1.9486 0.41659-0.5487 0.51916-0.8105 1.2898-0.5722 1.9675l1e-4 2.7e-4 1.5023 4.2673-2.8823 3.5587-0.0136 0.0168-0.0124 0.0176c-0.365 0.5172-0.5978 1.2945-0.1784 2.0868l0.019 0.0359 0.0233 0.0333c0.3042 0.4337 0.8797 1.0457 1.7492 1.0457h4.8059l2.644 3.6938c5e-4 7e-4 9e-4 0.0013 0.0014 2e-3 0.4303 0.6082 1.0698 0.7852 1.6117 0.7852h0.2108l0.0738-0.0174c0.6455-0.1527 1.3228-0.5104 1.5542-1.3345l1.5042-4.2726 4.5209-1.307c0.4137-0.0831 0.7838-0.2494 1.0655-0.4917 0.2664-0.2292 0.4813-0.5553 0.5103-0.9467 0.1741-0.8027-0.2544-1.5429-0.8272-1.9121l-3.759-2.6094 0.1252-4.5135 3e-4 -0.00901v-0.00902c0-0.78058-0.4274-1.354-0.9797-1.7024zm0 0-0.3473 0.54944 0.3467-0.54983 6e-4 3.9e-4zm-2.6544 10.031-0.0265 6e-3 -0.0259 0.0081c-0.4758 0.15-1.1277 0.4982-1.3647 1.1724l-1e-4 -1e-4 -0.0028 0.0085-0.5382 1.6008-0.884-1.2555c-0.4297-0.6112-1.0721-0.7882-1.6137-0.7882h-1.7361l1.0204-1.2424 0.0151-0.0184 0.0137-0.0194c0.3163-0.4482 0.5908-1.0596 0.3547-1.7376l-0.5172-1.5387 1.576 0.568 0.0124 0.0045 0.0125 4e-3c0.2746 0.0865 0.5936 0.1308 0.9022 0.1083 0.2811-0.0204 0.6315-0.103 0.9119-0.3434l1.3244-0.9051-0.0753 1.6435-7e-4 0.0149v0.0148c0 0.5453 0.2023 1.1633 0.8332 1.5668l1.1936 0.8157-1.3849 0.3125z"/>
<path d="m33.259 54.564 0.0084 0.0022 0.0085 2e-3c0.6922 0.1638 1.5553 0.0368 2.0337-0.6423l1e-4 -1e-4c0.3398-0.4826 0.5826-1.2163 0.3521-1.8706l-0.0082-0.0233-0.01-0.0226-1.2085-2.7454 1.6907-2.5148c0.4417-0.633 0.3904-1.4141 0.0388-2.0799l-0.0194-0.0368-0.024-0.034c-0.3774-0.5356-0.9716-0.9158-1.7488-0.9158h-0.0354l-0.0351 0.0038-3.1734 0.3466-1.9249-2.2776c-0.4687-0.6377-1.2909-0.7616-1.8653-0.7616h-0.0758l-0.0738 0.0174c-0.7352 0.174-1.3299 0.7003-1.5457 1.313l-0.0097 0.0277-0.0072 0.0284-0.7263 2.8644-2.8897 1.0256c-0.8656 0.2254-1.2737 1.0344-1.2737 1.6475 0 0.3057 0.0388 0.6506 0.2106 0.9758 0.1741 0.3296 0.4497 0.5738 0.8062 0.7488l2.6503 1.5964 0.1206 2.9674c0.0025 0.3721 0.1048 0.7245 0.3214 1.032 0.2002 0.2844 0.4755 0.4985 0.7904 0.6583 0.1904 0.1374 0.3984 0.1827 0.5189 0.2017 0.1526 0.0241 0.2968 0.024 0.3645 0.024h0.0074c0.2214 0 0.4587-0.0492 0.6521-0.1102 0.1627-0.0513 0.4029-0.1443 0.5812-0.3009l2.435-1.9592 3.064 0.8121zm-5.8443-5.9155-0.163-0.1029 0.0439-0.0185c0.6636-0.2245 1.0318-0.8209 1.1969-1.2897l0.0063-0.0178 0.0052-0.0182 0.0866-0.3005 0.1379 0.1492c0.4438 0.5989 1.0921 0.7494 1.721 0.7494h0.0279l0.0278-0.0024 0.0969-0.0083-0.0076 0.0107c-0.4183 0.5938-0.4053 1.208-0.217 1.7426l0.0066 0.0188 0.0078 0.0183 0.0134 0.0319-0.0408-0.0117c-0.3304-0.1018-0.6813-0.094-0.9836-0.0279-0.3019 0.0659-0.623 0.2048-0.8662 0.435l-0.1238 0.1172c-0.0418-0.6422-0.486-1.1658-0.9762-1.4752z"/>
<path d="m37.47 100.41 0.0278 6e-3 0.0282 4e-3 3.1828 0.464 1.3357 2.643 0.0214 0.042 0.0273 0.039c0.3042 0.432 0.8795 1.044 1.7488 1.044 0.3772 0 0.7374-0.091 1.057-0.292 0.3172-0.2 0.5577-0.487 0.7352-0.822h1e-4l0.0054-0.011 1.3356-2.643 3.1829-0.464 0.0282-4e-3 0.0278-6e-3c0.6527-0.155 1.338-0.5191 1.5609-1.3643 0.1796-0.68 0.0357-1.5027-0.6361-1.9618l-2.2677-2.0337 0.4771-2.8221c0.2016-0.8249-0.2399-1.5911-0.8309-1.9639-0.5363-0.3383-1.316-0.5428-2.1128-0.1658v-1e-4l-0.0097 0.0048-2.8235 1.394-2.7971-1.3809c-0.7148-0.427-1.5395-0.1455-2.0801 0.1102l-0.0355 0.0168-0.0333 0.021c-0.591 0.3728-1.0324 1.139-0.8308 1.9639l0.4789 2.8333-2.183 2.0665-0.1141 0.108-0.0522 0.1482c-0.0724 0.2056-0.1636 0.4951-0.1872 0.8069-0.0217 0.2875 0.0114 0.6348 0.2031 0.9612 0.2505 0.7697 0.905 1.1098 1.5298 1.2578zm4.6261-3.2086 0.0146-0.0122 0.0138-0.0131c0.2438-0.2308 0.39-0.5356 0.4758-0.7998 0.0884-0.2723 0.1332-0.5642 0.1332-0.8253v-0.0619l-0.0117-0.0608-0.0288-0.1499 0.1623 0.0768c0.2781 0.168 0.5871 0.2698 0.9191 0.2698s0.641-0.1018 0.9192-0.2698l0.1622-0.0768-0.0213 0.1109c-0.1156 0.3828-0.0307 0.7597 0.0792 1.0307 0.1189 0.2927 0.3066 0.563 0.5107 0.7561v1e-4l0.1389 0.1314-0.1629 0.028c-0.3702 0.0184-0.6821 0.1902-0.8954 0.3369-0.2279 0.1569-0.4277 0.3459-0.5581 0.4694l-0.0105 0.0099-0.078 0.0738-0.0501 0.0949-0.1015 0.1923-0.0822-0.1557c-0.2594-0.6614-0.9213-1.0036-1.6162-1.0223l-0.0588-0.0101 0.1465-0.1233z"/>
<path d="m17.734 70.187c-2.8951 0-5.3845 2.3066-5.3845 5.1316 0 2.8253 2.4895 5.131 5.3845 5.131 2.8949 0 5.3844-2.3057 5.3844-5.131 0-2.825-2.4894-5.1316-5.3844-5.1316zm0 6.4016c-0.7575 0-1.3791-0.6384-1.3791-1.27 0-0.632 0.6219-1.2708 1.3791-1.2708 0.757 0 1.379 0.6388 1.379 1.2708 0 0.6317-0.6216 1.27-1.379 1.27z"/>
<path d="m101.31 10.786c0-2.8248-2.4895-5.1314-5.3845-5.1314s-5.384 2.3066-5.384 5.1314c0 2.8249 2.489 5.1315 5.384 5.1315s5.3845-2.3066 5.3845-5.1315zm-6.7635 0c0-0.6321 0.6219-1.2706 1.379-1.2706s1.379 0.63851 1.379 1.2706c0 0.6322-0.6219 1.2707-1.379 1.2707s-1.379-0.6385-1.379-1.2707z"/>
<path d="m77.414 95.421c0 2.8251 2.4894 5.1321 5.3845 5.1321 2.8955 0 5.3845-2.307 5.3845-5.1321 0-2.8241-2.4891-5.131-5.3845-5.131-2.895 0-5.3845 2.3069-5.3845 5.131zm6.7631 0c0 0.6332-0.6212 1.271-1.3786 1.271s-1.3791-0.6381-1.3791-1.271c0-0.6316 0.6215-1.27 1.3791-1.27 0.8637 0 1.3786 0.6101 1.3786 1.27z"/>
<path d="m72.885 29.776v1e-4c-0.812 0.7686-0.812 1.968-1e-4 2.7366 0.4026 0.3812 0.9734 0.5621 1.3938 0.5621 0.4205 0 0.9911-0.181 1.3937-0.562l7.034-6.6581c0.812-0.7686 0.812-1.9681 1e-4 -2.7367-0.7917-0.7495-1.9958-0.7495-2.7875 0l-7.034 6.658z"/>
<path d="m29.732 89.619 1e-4 1e-4c0.4026 0.3808 0.9731 0.5618 1.3936 0.5618s0.9911-0.1809 1.3937-0.5619v-1e-4l35.441-33.546v-1e-4c0.812-0.7685 0.812-1.9681 0-2.7366-0.7917-0.7494-1.9957-0.7494-2.7875 0l-35.441 33.547c-0.8119 0.7684-0.8119 1.9678 0 2.7362z"/>
<path d="m59.492 78.864v1e-4c0.4026 0.3808 0.9732 0.5618 1.3936 0.5618s0.9912-0.1809 1.3937-0.5619l1e-4 -1e-4 47.48-44.942-0.447-0.472 0.447 0.472c0.812-0.7685 0.812-1.9681 0-2.7366v-1e-4c-0.792-0.7493-1.996-0.7493-2.788 0l-47.48 44.942c-0.8121 0.7685-0.8121 1.9689 0 2.7373z"/>
<path d="m41.906 37.331c-0.812 0.7686-0.812 1.9681 0 2.7367 0.4025 0.3811 0.9732 0.5621 1.3937 0.5621 0.4204 0 0.9911-0.181 1.3936-0.5621h1e-4l35.305-33.419-0.4455-0.47064 0.4455 0.47063c0.812-0.76861 0.812-1.9681 0-2.7367-0.7916-0.74936-1.9957-0.74936-2.7873 0l-35.306 33.419z"/>
<path d="m64.902 37.331-26.107 24.712c-0.8119 0.7686-0.812 1.9682 1e-4 2.7367 0.4026 0.3811 0.9732 0.562 1.3937 0.562s0.9912-0.1809 1.3937-0.5621l26.107-24.712c0.812-0.7686 0.8119-1.9682 0-2.7367-0.7916-0.7494-1.9957-0.7494-2.7874 0z"/>
<path d="m73.425 81.505-1e-4 1e-4 -7.0339 6.6579-1e-4 1e-4c-0.812 0.7684-0.812 1.9687 1e-4 2.7371 0.4025 0.381 0.9731 0.5619 1.3936 0.5619s0.9911-0.1809 1.3937-0.5619l7.0341-6.658 4e-4 -4e-4c0.8112-0.7691 0.8119-1.9681-5e-4 -2.7368-0.7917-0.7492-1.9956-0.7492-2.7873 0z"/>
<path d="m110.3 49.238v4e-4c0.812 0.7685 0.812 1.968 0 2.7366l-26.107 24.711 26.107-27.448zc-0.792-0.7488-1.996-0.7493-2.787 4e-4m2.787-4e-4 -2.787 4e-4m0 0-26.108 24.712c-0.812 0.7685-0.812 1.9678 0 2.7362 0.4025 0.381 0.9732 0.5619 1.3937 0.5619 0.4201 0 0.991-0.1807 1.3933-0.5619l23.321-27.448z"/>
<path d="m76.618 48.39 1e-4 -1e-4 23.401-22.151-0.4442-0.4696 0.4442 0.4696c0.812-0.7685 0.812-1.9681 0-2.7366-0.7913-0.7494-1.9957-0.7494-2.7874 1e-4l-23.402 22.151c-0.4077 0.386-0.609 0.9123-0.609 1.4164 0 0.4895 0.1937 1.0123 0.642 1.3508 0.4003 0.3603 0.9516 0.5316 1.3607 0.5316 0.4205 0 0.9911-0.181 1.3937-0.562z"/>
</mask>
<g mask="url(#b)">
<rect x="4.5" y="-3.5" width="117" height="116" fill="url(#a)"/>
</g>
<defs>
<linearGradient id="a" x1="74.38" x2="-32.453" y1="23.159" y2="117.93" gradientUnits="userSpaceOnUse">
<stop stop-color="#0061FF" offset="0"/>
<stop stop-color="#0061FF" offset=".9964"/>
</linearGradient>
</defs>
</svg>
