<svg width="44" height="44" viewBox="0 0 44 44" fill="none" xmlns="http://www.w3.org/2000/svg">
<path d="M22 11.7899C22.7689 11.7899 23.3922 12.4132 23.3922 13.182V24.7825C23.3922 25.5514 22.7689 26.1746 22 26.1746C21.2311 26.1746 20.6078 25.5514 20.6078 24.7825V13.182C20.6078 12.4132 21.2311 11.7899 22 11.7899Z" fill="#0061FF"/>
<path d="M22 32.2028C23.0252 32.2028 23.8563 31.3718 23.8563 30.3467C23.8563 29.3216 23.0252 28.4907 22 28.4907C20.9748 28.4907 20.1438 29.3216 20.1438 30.3467C20.1438 31.3718 20.9748 32.2028 22 32.2028Z" fill="#0061FF"/>
<path d="M22 40.5593C32.2518 40.5593 40.5625 32.2493 40.5625 21.9984C40.5625 18.1805 39.4096 14.6318 37.433 11.6814C36.9613 10.9772 35.9922 10.8655 35.3229 11.3855C34.7777 11.8091 34.6888 12.5944 35.0758 13.1662C36.7818 15.6864 37.7781 18.726 37.7781 21.9984C37.7781 30.7117 30.714 37.7752 22 37.7752C19.2754 37.7752 16.6541 37.085 14.3283 35.7882L13.828 35.5093L6.42784 37.5736L8.49333 30.1787L8.21369 29.6779C6.91384 27.3502 6.22188 24.7261 6.22188 21.9984C6.22188 13.2851 13.286 6.22164 22 6.22164C24.8078 6.22164 27.4444 6.95502 29.7285 8.24066C30.2879 8.55553 31.003 8.44539 31.4008 7.9416C31.9559 7.23869 31.8003 6.2068 31.0178 5.7711C28.3479 4.28444 25.2729 3.4375 22 3.4375C11.7482 3.4375 3.4375 11.7475 3.4375 21.9984C3.4375 25.0058 4.15469 27.9119 5.5065 30.522L3.52465 37.6175C3.41057 38.0256 3.41052 38.4574 3.52457 38.8658C3.86923 40.1 5.14919 40.8211 6.38345 40.4764L13.4851 38.4954C16.0931 39.8439 18.996 40.5593 22 40.5593Z" fill="#0061FF"/>
</svg>
