<?xml version="1.0" encoding="UTF-8"?>
<svg class="my-auto mx-2 big-icon" fill="none" viewBox="0 0 125 108" xmlns="http://www.w3.org/2000/svg">
<path d="m79.292 10h-33.583l-0.5258 0.0354c-1.8914 0.2571-3.3492 1.8815-3.3492 3.847v10.804c0 2.1434 1.7349 3.881 3.875 3.881s3.875-1.7376 3.875-3.881v-6.9219h25.833v12.941h-42.625c-9.2738 0-16.792 7.5321-16.792 16.824v33.647c0 9.2914 7.5179 16.824 16.792 16.824h59.417c9.2737 0 16.792-7.5321 16.792-16.824v-10.163c0-2.1434-1.735-3.881-3.875-3.881s-3.875 1.7376-3.875 3.881v10.163c0 5.003-4.0481 9.0588-9.0417 9.0588h-59.417c-4.9936 0-9.0417-4.0558-9.0417-9.0588v-33.647c0-5.003 4.0481-9.0588 9.0417-9.0588h59.417c4.9936 0 9.0417 4.0558 9.0417 9.0588v7.328c0 2.1435 1.735 3.8811 3.875 3.8811s3.875-1.7376 3.875-3.8811v-7.328c0-9.2914-7.518-16.824-16.792-16.824h-9.0416v-16.824l-0.0354-0.5269c-0.2566-1.8949-1.8779-3.3555-3.8396-3.3555z" fill="#0061FF"/>
</svg>
