<svg width="109" height="108" viewBox="0 0 109 108" fill="none" xmlns="http://www.w3.org/2000/svg">
<path fill-rule="evenodd" clip-rule="evenodd" d="M40.998 19.5469H36.4642C34.5862 19.5469 33.0638 18.0044 33.0638 16.1016C33.0638 14.1988 34.5862 12.6562 36.4642 12.6562H72.7353C74.6133 12.6562 76.1357 14.1988 76.1357 16.1016C76.1357 18.0044 74.6133 19.5469 72.7353 19.5469H68.2013V26.7773C68.2013 28.6843 66.6788 30.2302 64.8008 30.2302C62.9229 30.2302 61.4004 28.6843 61.4004 26.7773V19.5469H47.7988V48.2038C47.7988 51.0744 47.0908 53.8996 45.739 56.4225L42.1144 63.1876H67.0849L63.4602 56.4225C62.1085 53.8996 61.4004 51.0744 61.4004 48.2038V42.6698C61.4004 40.7628 62.9229 39.217 64.8008 39.217C66.6788 39.217 68.2013 40.7629 68.2013 42.6698V48.2038C68.2013 49.9262 68.6261 51.6213 69.4371 53.135L85.6897 83.4693C88.5597 88.8259 84.7323 95.3438 78.7167 95.3438H30.4826C24.467 95.3438 20.6395 88.8259 23.5095 83.4693L39.7621 53.135C40.5731 51.6213 40.998 49.9262 40.998 48.2038V19.5469ZM29.4864 86.7567L38.4225 70.0783H70.7768L79.7128 86.7567C80.1228 87.522 79.576 88.4531 78.7167 88.4531H30.4826C29.6232 88.4531 29.0764 87.522 29.4864 86.7567Z" fill="#0061FF"/>
</svg>
