<svg width="42" height="42" viewBox="0 0 42 42" fill="none" xmlns="http://www.w3.org/2000/svg">
<path d="M10.4394 21.7936L21.0615 11.1775C23.2126 9.02773 26.7001 9.02773 28.8511 11.1775C31.0021 13.3273 31.0021 16.8128 28.8511 18.9626L16.1045 31.7019C15.1268 32.6791 13.5416 32.6791 12.5638 31.7019C11.5861 30.7248 11.5861 29.1404 12.5638 28.1632L23.8941 16.8394C24.4807 16.2531 24.4807 15.3025 23.8941 14.7162C23.3075 14.1299 22.3563 14.1299 21.7697 14.7162L10.4394 26.04C8.28838 28.1898 8.28838 31.6753 10.4394 33.8251C12.5904 35.9749 16.0779 35.9749 18.229 33.8251L30.9755 21.0859C34.2998 17.7634 34.2998 12.3767 30.9755 9.05432C27.6512 5.7319 22.2614 5.7319 18.9371 9.05432L8.31498 19.6704C7.72834 20.2567 7.72834 21.2073 8.31498 21.7936C8.90163 22.3799 9.85276 22.3799 10.4394 21.7936Z" fill="#0061FF"/>
</svg>
