<svg width="90" height="90" viewBox="0 0 90 90" fill="none" xmlns="http://www.w3.org/2000/svg">
<path d="M30.8778 23.9135C26.5052 22.1711 22.1703 26.5061 23.9128 30.8787L30.7977 48.1555C32.8014 53.1833 36.7233 57.2072 41.698 59.3393L60.25 67.2901C64.6984 69.1966 69.1962 64.6988 67.2897 60.2504L59.339 41.6986C57.2069 36.7237 53.1828 32.8017 48.1548 30.7982L30.8778 23.9135ZM36.7742 45.7738L30.8122 30.8129L45.7733 36.7747C49.2135 38.1456 51.9668 40.8291 53.4256 44.2329L60.3204 60.3207L44.2323 53.4259C40.8286 51.9671 38.1451 49.2139 36.7742 45.7738Z" fill="#0061FF"/>
<path d="M8.79261 40.7109H11.7594C13.536 40.7109 14.9762 42.1512 14.9762 43.9277C14.9762 45.7043 13.536 47.1445 11.7594 47.1445H8.605C9.63208 64.8508 23.2954 79.1664 40.7109 81.2074V78.2402C40.7109 76.4637 42.1512 75.0234 43.9277 75.0234C45.7043 75.0234 47.1445 76.4637 47.1445 78.2402V81.395C65.5714 80.3261 80.3261 65.5714 81.395 47.1445H78.2402C76.4637 47.1445 75.0234 45.7043 75.0234 43.9277C75.0234 42.1512 76.4637 40.7109 78.2402 40.7109H81.2074C80.5072 34.7361 78.3623 29.2029 75.1313 24.4701C74.3064 23.2618 74.4035 21.62 75.4529 20.6005C76.9519 19.1443 79.3885 19.2782 80.5589 21.0096C85.1876 27.8569 87.8906 36.1128 87.8906 45C87.8906 68.6878 68.6878 87.8906 45 87.8906C21.3122 87.8906 2.10938 68.6878 2.10938 45C2.10938 21.3122 21.3122 2.10938 45 2.10938C53.6078 2.10938 61.6234 4.64508 68.3405 9.01027C70.0048 10.0918 70.2734 12.3672 69.0439 13.9254C68.0724 15.1566 66.2962 15.3648 64.9853 14.504C59.806 11.1029 53.7082 8.98574 47.1445 8.605V11.7598C47.1445 13.5364 45.7043 14.9766 43.9277 14.9766C42.1512 14.9766 40.7109 13.5364 40.7109 11.7598V8.79261C24.0043 10.7505 10.7505 24.0043 8.79261 40.7109Z" fill="#0061FF"/>
</svg>
