<svg width="294" height="96" viewBox="0 0 294 96" fill="none" xmlns="http://www.w3.org/2000/svg">
<path d="M84.8909 9.12899C82.7784 7.01833 79.9673 5.85547 76.9745 5.85547C73.9792 5.85547 71.1673 7.01833 69.0556 9.12899L55.8 22.3776L20.8175 13.4583C19.7196 13.1786 18.539 13.5008 17.7388 14.303L8.62301 23.4129C7.87686 24.1571 7.54224 25.2202 7.72714 26.2571C7.91286 27.2924 8.59274 28.1748 9.5467 28.6172L28.333 37.3992C29.1152 37.7615 29.9906 37.7966 30.8014 37.499C31.6106 37.2021 32.2553 36.6093 32.6152 35.8299C32.9777 35.0481 33.0145 34.1731 32.7175 33.3643C32.4213 32.5556 31.8274 31.9104 31.046 31.5489L16.4486 24.7091L21.0008 20.1599L55.984 29.0792C57.0804 29.3614 58.2593 29.0359 59.0627 28.2345L73.6176 13.688C75.4674 11.8391 78.4782 11.8383 80.3289 13.688C81.224 14.5819 81.7173 15.7742 81.7173 17.0425C81.7173 18.3117 81.224 19.5032 80.3289 20.3978L65.7977 34.9222C65.1882 35.5314 64.8528 36.341 64.8528 37.2021C64.8528 38.0632 65.1874 38.8728 65.7986 39.4829C66.4277 40.1101 67.2532 40.4241 68.0787 40.4241C68.9043 40.4241 69.7298 40.1101 70.3581 39.4821L84.8909 24.9569C87.0034 22.8454 88.1659 20.0347 88.1659 17.0425C88.1659 14.0495 87.0025 11.2396 84.8909 9.12899Z" fill="#0061FF"/>
<path d="M74.4423 49.1391C74.2312 48.3041 73.706 47.6017 72.9639 47.1617C72.2243 46.721 71.3554 46.5958 70.5226 46.8101C69.688 47.0219 68.9861 47.5453 68.5451 48.2862C68.1058 49.0262 67.9797 49.8931 68.1916 50.728L73.8557 72.986L69.3027 77.5377L56.6328 50.2104C56.191 49.2577 55.3083 48.5773 54.2708 48.3916C53.2342 48.2085 52.1707 48.5413 51.4253 49.2863L39.2161 61.489C38.4519 62.2536 38.123 63.3421 38.3357 64.4011L40.9023 77.2294L36.7526 81.3771L29.6045 65.9589C29.2862 65.2671 28.7282 64.7094 28.0336 64.3872L12.6066 57.2423L16.7562 53.0954L29.5807 55.6698C30.6394 55.8824 31.73 55.5528 32.495 54.7882L44.2461 43.0426C44.8548 42.4342 45.191 41.6246 45.191 40.7635C45.191 39.9032 44.8548 39.0936 44.2461 38.4852C43.0286 37.2659 40.9023 37.2676 39.6841 38.4844L29.1553 49.0082L16.3308 46.4331C15.2729 46.2221 14.1823 46.5509 13.4165 47.3155L4.78098 55.9462C4.03565 56.692 3.70102 57.7551 3.88592 58.7896C4.07001 59.8248 4.74907 60.7072 5.70467 61.1513L24.2497 69.7403L32.8419 88.275C33.2845 89.2301 34.1681 89.9089 35.2047 90.0945C35.3929 90.128 35.5827 90.1444 35.7708 90.1444C36.6176 90.1444 37.4399 89.8099 38.0502 89.2007L46.685 80.5692C47.4491 79.8054 47.7788 78.7161 47.5661 77.6571L44.9979 64.8296L52.7221 57.1099L65.3911 84.4372C65.8329 85.3915 66.7157 86.0711 67.7531 86.2575C68.7881 86.4399 69.8541 86.1063 70.5978 85.3613L79.7128 76.2514C80.5138 75.4524 80.8378 74.274 80.5596 73.1765L74.4423 49.1391Z" fill="#0061FF"/>
<path d="M121.613 15.7383L128.615 4.78125H130.5V19H128.615V8.0332L121.613 19H119.738V4.78125H121.613V15.7383ZM141.222 13.0137V14.4785H135.636V13.0137H141.222ZM136.017 8.43359V19H134.211V8.43359H136.017ZM142.687 8.43359V19H140.871V8.43359H142.687ZM150.226 17.7109C150.655 17.7109 151.053 17.623 151.417 17.4473C151.782 17.2715 152.081 17.0306 152.316 16.7246C152.55 16.4121 152.683 16.0573 152.716 15.6602H154.435C154.402 16.2852 154.191 16.8678 153.8 17.4082C153.416 17.9421 152.911 18.375 152.286 18.707C151.661 19.0326 150.974 19.1953 150.226 19.1953C149.432 19.1953 148.738 19.0553 148.146 18.7754C147.56 18.4954 147.071 18.1113 146.681 17.623C146.297 17.1348 146.007 16.5749 145.812 15.9434C145.623 15.3053 145.529 14.6315 145.529 13.9219V13.5117C145.529 12.8021 145.623 12.1315 145.812 11.5C146.007 10.862 146.297 10.2988 146.681 9.81055C147.071 9.32227 147.56 8.93815 148.146 8.6582C148.738 8.37826 149.432 8.23828 150.226 8.23828C151.053 8.23828 151.775 8.40755 152.394 8.74609C153.012 9.07812 153.497 9.53385 153.849 10.1133C154.207 10.6862 154.402 11.3372 154.435 12.0664H152.716C152.683 11.6302 152.56 11.2363 152.345 10.8848C152.137 10.5332 151.85 10.2533 151.486 10.0449C151.127 9.83008 150.708 9.72266 150.226 9.72266C149.672 9.72266 149.207 9.83333 148.829 10.0547C148.458 10.2695 148.162 10.5625 147.941 10.9336C147.726 11.2982 147.57 11.7051 147.472 12.1543C147.381 12.597 147.335 13.0495 147.335 13.5117V13.9219C147.335 14.3841 147.381 14.8398 147.472 15.2891C147.563 15.7383 147.716 16.1452 147.931 16.5098C148.152 16.8743 148.448 17.1673 148.82 17.3887C149.197 17.6035 149.666 17.7109 150.226 17.7109ZM161.173 8.43359V19H159.356V8.43359H161.173ZM164.718 8.43359V9.89844H155.88V8.43359H164.718ZM168.848 16.1387L173.721 8.43359H175.537V19H173.721V11.2949L168.848 19H167.051V8.43359H168.848V16.1387ZM183.145 8.43359V19H181.328V8.43359H183.145ZM186.689 8.43359V9.89844H177.852V8.43359H186.689ZM191.953 17.9062L194.892 8.43359H196.826L192.588 20.6309C192.49 20.8913 192.36 21.1712 192.197 21.4707C192.041 21.7767 191.839 22.0664 191.591 22.3398C191.344 22.6133 191.045 22.8346 190.693 23.0039C190.348 23.1797 189.935 23.2676 189.453 23.2676C189.31 23.2676 189.127 23.248 188.906 23.209C188.685 23.1699 188.528 23.1374 188.437 23.1113L188.427 21.6465C188.479 21.653 188.561 21.6595 188.671 21.666C188.789 21.679 188.87 21.6855 188.916 21.6855C189.326 21.6855 189.674 21.6302 189.961 21.5195C190.247 21.4154 190.488 21.2363 190.683 20.9824C190.885 20.735 191.058 20.3932 191.201 19.957L191.953 17.9062ZM189.795 8.43359L192.539 16.6367L193.007 18.541L191.709 19.2051L187.822 8.43359H189.795ZM203.163 8.43359V19H201.347V8.43359H203.163ZM206.708 8.43359V9.89844H197.87V8.43359H206.708ZM125.607 41.1934V35.7539C125.607 35.3372 125.523 34.9759 125.354 34.6699C125.191 34.3574 124.943 34.1165 124.611 33.9473C124.279 33.778 123.869 33.6934 123.381 33.6934C122.925 33.6934 122.525 33.7715 122.18 33.9277C121.841 34.084 121.574 34.2891 121.379 34.543C121.19 34.7969 121.096 35.0703 121.096 35.3633H119.289C119.289 34.9857 119.387 34.6113 119.582 34.2402C119.777 33.8691 120.057 33.5339 120.422 33.2344C120.793 32.9284 121.236 32.6875 121.75 32.5117C122.271 32.3294 122.85 32.2383 123.488 32.2383C124.257 32.2383 124.934 32.3685 125.52 32.6289C126.112 32.8893 126.574 33.2832 126.906 33.8105C127.245 34.3314 127.414 34.9857 127.414 35.7734V40.6953C127.414 41.0469 127.443 41.4212 127.502 41.8184C127.567 42.2155 127.661 42.5573 127.785 42.8438V43H125.9C125.809 42.7917 125.738 42.515 125.686 42.1699C125.633 41.8184 125.607 41.4928 125.607 41.1934ZM125.92 36.5938L125.939 37.8633H124.113C123.599 37.8633 123.14 37.9056 122.736 37.9902C122.333 38.0684 121.994 38.1888 121.721 38.3516C121.447 38.5143 121.239 38.7194 121.096 38.9668C120.952 39.2077 120.881 39.4909 120.881 39.8164C120.881 40.1484 120.956 40.4512 121.105 40.7246C121.255 40.998 121.48 41.2161 121.779 41.3789C122.085 41.5352 122.46 41.6133 122.902 41.6133C123.456 41.6133 123.944 41.4961 124.367 41.2617C124.79 41.0273 125.126 40.7409 125.373 40.4023C125.627 40.0638 125.764 39.735 125.783 39.416L126.555 40.2852C126.509 40.5586 126.385 40.8613 126.184 41.1934C125.982 41.5254 125.712 41.8444 125.373 42.1504C125.041 42.4499 124.644 42.7005 124.182 42.9023C123.726 43.0977 123.212 43.1953 122.639 43.1953C121.923 43.1953 121.294 43.0553 120.754 42.7754C120.22 42.4954 119.803 42.1211 119.504 41.6523C119.211 41.1771 119.064 40.6465 119.064 40.0605C119.064 39.4941 119.175 38.9961 119.396 38.5664C119.618 38.1302 119.937 37.7689 120.354 37.4824C120.77 37.1895 121.271 36.9681 121.857 36.8184C122.443 36.6686 123.098 36.5938 123.82 36.5938H125.92ZM134.357 33.7227C133.96 33.7227 133.579 33.8105 133.214 33.9863C132.856 34.1621 132.56 34.4062 132.326 34.7188C132.098 35.0247 131.984 35.3796 131.984 35.7832H130.255C130.255 35.1517 130.451 34.569 130.841 34.0352C131.232 33.4948 131.74 33.0618 132.365 32.7363C132.99 32.4043 133.654 32.2383 134.357 32.2383C135.099 32.2383 135.757 32.3783 136.33 32.6582C136.903 32.9382 137.384 33.3223 137.775 33.8105C138.172 34.2988 138.472 34.862 138.673 35.5C138.875 36.1315 138.976 36.8021 138.976 37.5117V37.9219C138.976 38.6315 138.872 39.3053 138.664 39.9434C138.462 40.5749 138.162 41.138 137.765 41.6328C137.375 42.1211 136.893 42.5052 136.32 42.7852C135.754 43.0651 135.102 43.2051 134.367 43.2051C133.579 43.2051 132.873 43.0358 132.248 42.6973C131.629 42.3587 131.141 41.903 130.783 41.3301C130.431 40.7507 130.255 40.0996 130.255 39.377H131.984C131.984 39.8132 132.088 40.2103 132.296 40.5684C132.511 40.9199 132.798 41.1999 133.156 41.4082C133.514 41.6165 133.918 41.7207 134.367 41.7207C134.855 41.7207 135.275 41.61 135.627 41.3887C135.985 41.1673 136.278 40.8743 136.505 40.5098C136.733 40.1452 136.899 39.7383 137.004 39.2891C137.114 38.8333 137.17 38.3776 137.17 37.9219V37.5117C137.17 37.0495 137.114 36.5938 137.004 36.1445C136.899 35.6953 136.733 35.2884 136.505 34.9238C136.284 34.5592 135.994 34.2695 135.636 34.0547C135.285 33.8333 134.858 33.7227 134.357 33.7227ZM138.048 36.877V38.3516H133.175V36.877H138.048ZM143.624 34.4648V47.0625H141.808V32.4336H143.468L143.624 34.4648ZM150.743 37.6289V37.834C150.743 38.6022 150.652 39.3151 150.47 39.9727C150.288 40.6237 150.021 41.1901 149.669 41.6719C149.324 42.1536 148.898 42.528 148.39 42.7949C147.882 43.0618 147.299 43.1953 146.642 43.1953C145.971 43.1953 145.379 43.0846 144.864 42.8633C144.35 42.6419 143.914 42.3197 143.556 41.8965C143.198 41.4733 142.911 40.9655 142.696 40.373C142.488 39.7806 142.345 39.1133 142.267 38.3711V37.2773C142.345 36.4961 142.491 35.7962 142.706 35.1777C142.921 34.5592 143.204 34.0319 143.556 33.5957C143.914 33.153 144.347 32.8177 144.855 32.5898C145.362 32.3555 145.948 32.2383 146.612 32.2383C147.277 32.2383 147.866 32.3685 148.38 32.6289C148.894 32.8828 149.327 33.2474 149.679 33.7227C150.03 34.1979 150.294 34.7676 150.47 35.4316C150.652 36.0892 150.743 36.8216 150.743 37.6289ZM148.927 37.834V37.6289C148.927 37.1016 148.872 36.6068 148.761 36.1445C148.65 35.6758 148.478 35.2656 148.243 34.9141C148.015 34.556 147.723 34.276 147.364 34.0742C147.006 33.8659 146.58 33.7617 146.085 33.7617C145.629 33.7617 145.232 33.8398 144.894 33.9961C144.562 34.1523 144.279 34.3639 144.044 34.6309C143.81 34.8913 143.618 35.1908 143.468 35.5293C143.325 35.8613 143.217 36.2064 143.146 36.5645V39.0938C143.276 39.5495 143.458 39.9792 143.693 40.3828C143.927 40.7799 144.239 41.1022 144.63 41.3496C145.021 41.5905 145.512 41.7109 146.105 41.7109C146.593 41.7109 147.013 41.61 147.364 41.4082C147.723 41.1999 148.015 40.9167 148.243 40.5586C148.478 40.2005 148.65 39.7904 148.761 39.3281C148.872 38.8594 148.927 38.3613 148.927 37.834ZM152.97 37.834V37.6094C152.97 36.8477 153.08 36.1413 153.302 35.4902C153.523 34.8327 153.842 34.263 154.259 33.7812C154.675 33.293 155.18 32.9154 155.772 32.6484C156.365 32.375 157.029 32.2383 157.764 32.2383C158.507 32.2383 159.174 32.375 159.766 32.6484C160.365 32.9154 160.873 33.293 161.29 33.7812C161.713 34.263 162.035 34.8327 162.257 35.4902C162.478 36.1413 162.589 36.8477 162.589 37.6094V37.834C162.589 38.5957 162.478 39.3021 162.257 39.9531C162.035 40.6042 161.713 41.1738 161.29 41.6621C160.873 42.1439 160.369 42.5215 159.776 42.7949C159.19 43.0618 158.526 43.1953 157.784 43.1953C157.042 43.1953 156.374 43.0618 155.782 42.7949C155.19 42.5215 154.682 42.1439 154.259 41.6621C153.842 41.1738 153.523 40.6042 153.302 39.9531C153.08 39.3021 152.97 38.5957 152.97 37.834ZM154.776 37.6094V37.834C154.776 38.3613 154.838 38.8594 154.962 39.3281C155.085 39.7904 155.271 40.2005 155.518 40.5586C155.772 40.9167 156.088 41.1999 156.466 41.4082C156.843 41.61 157.283 41.7109 157.784 41.7109C158.279 41.7109 158.712 41.61 159.083 41.4082C159.46 41.1999 159.773 40.9167 160.02 40.5586C160.268 40.2005 160.453 39.7904 160.577 39.3281C160.707 38.8594 160.772 38.3613 160.772 37.834V37.6094C160.772 37.0885 160.707 36.597 160.577 36.1348C160.453 35.666 160.264 35.2526 160.011 34.8945C159.763 34.5299 159.451 34.2435 159.073 34.0352C158.702 33.8268 158.266 33.7227 157.764 33.7227C157.27 33.7227 156.833 33.8268 156.456 34.0352C156.085 34.2435 155.772 34.5299 155.518 34.8945C155.271 35.2526 155.085 35.666 154.962 36.1348C154.838 36.597 154.776 37.0885 154.776 37.6094ZM167.217 32.4336V43H165.411V32.4336H167.217ZM174.151 32.4336L169.141 38.4883H166.612L166.338 36.9062H168.409L171.954 32.4336H174.151ZM172.207 43L168.321 38.2148L169.483 36.9062L174.502 43H172.207ZM175.781 37.834V37.6094C175.781 36.8477 175.892 36.1413 176.113 35.4902C176.335 34.8327 176.654 34.263 177.07 33.7812C177.487 33.293 177.992 32.9154 178.584 32.6484C179.176 32.375 179.84 32.2383 180.576 32.2383C181.318 32.2383 181.986 32.375 182.578 32.6484C183.177 32.9154 183.685 33.293 184.102 33.7812C184.525 34.263 184.847 34.8327 185.068 35.4902C185.29 36.1413 185.4 36.8477 185.4 37.6094V37.834C185.4 38.5957 185.29 39.3021 185.068 39.9531C184.847 40.6042 184.525 41.1738 184.102 41.6621C183.685 42.1439 183.18 42.5215 182.588 42.7949C182.002 43.0618 181.338 43.1953 180.596 43.1953C179.854 43.1953 179.186 43.0618 178.594 42.7949C178.001 42.5215 177.493 42.1439 177.07 41.6621C176.654 41.1738 176.335 40.6042 176.113 39.9531C175.892 39.3021 175.781 38.5957 175.781 37.834ZM177.588 37.6094V37.834C177.588 38.3613 177.65 38.8594 177.773 39.3281C177.897 39.7904 178.083 40.2005 178.33 40.5586C178.584 40.9167 178.9 41.1999 179.277 41.4082C179.655 41.61 180.094 41.7109 180.596 41.7109C181.09 41.7109 181.523 41.61 181.895 41.4082C182.272 41.1999 182.585 40.9167 182.832 40.5586C183.079 40.2005 183.265 39.7904 183.389 39.3281C183.519 38.8594 183.584 38.3613 183.584 37.834V37.6094C183.584 37.0885 183.519 36.597 183.389 36.1348C183.265 35.666 183.076 35.2526 182.822 34.8945C182.575 34.5299 182.262 34.2435 181.885 34.0352C181.514 33.8268 181.077 33.7227 180.576 33.7227C180.081 33.7227 179.645 33.8268 179.268 34.0352C178.896 34.2435 178.584 34.5299 178.33 34.8945C178.083 35.2526 177.897 35.666 177.773 36.1348C177.65 36.597 177.588 37.0885 177.588 37.6094ZM192.295 41.7109C192.724 41.7109 193.121 41.623 193.486 41.4473C193.851 41.2715 194.15 41.0306 194.384 40.7246C194.619 40.4121 194.752 40.0573 194.785 39.6602H196.504C196.471 40.2852 196.259 40.8678 195.869 41.4082C195.485 41.9421 194.98 42.375 194.355 42.707C193.73 43.0326 193.043 43.1953 192.295 43.1953C191.5 43.1953 190.807 43.0553 190.214 42.7754C189.629 42.4954 189.14 42.1113 188.75 41.623C188.365 41.1348 188.076 40.5749 187.88 39.9434C187.692 39.3053 187.597 38.6315 187.597 37.9219V37.5117C187.597 36.8021 187.692 36.1315 187.88 35.5C188.076 34.862 188.365 34.2988 188.75 33.8105C189.14 33.3223 189.629 32.9382 190.214 32.6582C190.807 32.3783 191.5 32.2383 192.295 32.2383C193.121 32.2383 193.844 32.4076 194.463 32.7461C195.081 33.0781 195.566 33.5339 195.918 34.1133C196.276 34.6862 196.471 35.3372 196.504 36.0664H194.785C194.752 35.6302 194.629 35.2363 194.414 34.8848C194.205 34.5332 193.919 34.2533 193.554 34.0449C193.196 33.8301 192.776 33.7227 192.295 33.7227C191.741 33.7227 191.276 33.8333 190.898 34.0547C190.527 34.2695 190.231 34.5625 190.009 34.9336C189.795 35.2982 189.638 35.7051 189.541 36.1543C189.449 36.597 189.404 37.0495 189.404 37.5117V37.9219C189.404 38.3841 189.449 38.8398 189.541 39.2891C189.632 39.7383 189.785 40.1452 190 40.5098C190.221 40.8743 190.517 41.1673 190.888 41.3887C191.266 41.6035 191.735 41.7109 192.295 41.7109ZM205.009 40.5977L208.603 32.4336H210.341L205.634 43H204.384L199.696 32.4336H201.435L205.009 40.5977ZM200.907 32.4336V43H199.101V32.4336H200.907ZM209.052 43V32.4336H210.868V43H209.052ZM216.132 40.1387L221.005 32.4336H222.821V43H221.005V35.2949L216.132 43H214.335V32.4336H216.132V40.1387ZM234.09 32.4336V43H232.284V32.4336H234.09ZM233.475 37.2871V38.7715C233.11 38.9082 232.739 39.0319 232.362 39.1426C231.991 39.2467 231.597 39.3314 231.18 39.3965C230.77 39.4551 230.324 39.4844 229.842 39.4844C229.009 39.4844 228.286 39.3411 227.674 39.0547C227.062 38.7617 226.59 38.3223 226.258 37.7363C225.926 37.1439 225.76 36.3984 225.76 35.5V32.4141H227.567V35.5C227.567 36.0859 227.655 36.5612 227.83 36.9258C228.006 37.2904 228.263 37.5605 228.602 37.7363C228.94 37.9056 229.354 37.9902 229.842 37.9902C230.311 37.9902 230.75 37.9609 231.161 37.9023C231.577 37.8372 231.974 37.7526 232.352 37.6484C232.736 37.5443 233.11 37.4238 233.475 37.2871ZM241.785 43.1953C241.049 43.1953 240.382 43.0716 239.783 42.8242C239.191 42.5703 238.68 42.2155 238.25 41.7598C237.827 41.304 237.501 40.7637 237.273 40.1387C237.046 39.5137 236.932 38.8301 236.932 38.0879V37.6777C236.932 36.8184 237.059 36.0534 237.312 35.3828C237.566 34.7057 237.911 34.1328 238.348 33.6641C238.784 33.1953 239.279 32.8405 239.832 32.5996C240.385 32.3587 240.958 32.2383 241.551 32.2383C242.306 32.2383 242.957 32.3685 243.504 32.6289C244.057 32.8893 244.51 33.2539 244.861 33.7227C245.213 34.1849 245.473 34.7318 245.643 35.3633C245.812 35.9883 245.896 36.6719 245.896 37.4141V38.2246H238.006V36.75H244.09V36.6133C244.064 36.1445 243.966 35.6888 243.797 35.2461C243.634 34.8034 243.374 34.4388 243.016 34.1523C242.658 33.8659 242.169 33.7227 241.551 33.7227C241.141 33.7227 240.763 33.8105 240.418 33.9863C240.073 34.1556 239.777 34.4095 239.529 34.748C239.282 35.0866 239.09 35.5 238.953 35.9883C238.816 36.4766 238.748 37.0397 238.748 37.6777V38.0879C238.748 38.5892 238.816 39.0612 238.953 39.5039C239.096 39.9401 239.301 40.3242 239.568 40.6562C239.842 40.9883 240.171 41.2487 240.555 41.4375C240.945 41.6263 241.388 41.7207 241.883 41.7207C242.521 41.7207 243.061 41.5905 243.504 41.3301C243.947 41.0697 244.334 40.7214 244.666 40.2852L245.76 41.1543C245.532 41.4993 245.242 41.8281 244.891 42.1406C244.539 42.4531 244.106 42.707 243.592 42.9023C243.084 43.0977 242.482 43.1953 241.785 43.1953ZM252.634 41.7109C253.064 41.7109 253.461 41.623 253.826 41.4473C254.19 41.2715 254.49 41.0306 254.724 40.7246C254.959 40.4121 255.092 40.0573 255.125 39.6602H256.843C256.811 40.2852 256.599 40.8678 256.209 41.4082C255.824 41.9421 255.32 42.375 254.695 42.707C254.07 43.0326 253.383 43.1953 252.634 43.1953C251.84 43.1953 251.147 43.0553 250.554 42.7754C249.968 42.4954 249.48 42.1113 249.089 41.623C248.705 41.1348 248.416 40.5749 248.22 39.9434C248.032 39.3053 247.937 38.6315 247.937 37.9219V37.5117C247.937 36.8021 248.032 36.1315 248.22 35.5C248.416 34.862 248.705 34.2988 249.089 33.8105C249.48 33.3223 249.968 32.9382 250.554 32.6582C251.147 32.3783 251.84 32.2383 252.634 32.2383C253.461 32.2383 254.184 32.4076 254.802 32.7461C255.421 33.0781 255.906 33.5339 256.257 34.1133C256.615 34.6862 256.811 35.3372 256.843 36.0664H255.125C255.092 35.6302 254.968 35.2363 254.754 34.8848C254.545 34.5332 254.259 34.2533 253.894 34.0449C253.536 33.8301 253.116 33.7227 252.634 33.7227C252.081 33.7227 251.615 33.8333 251.238 34.0547C250.867 34.2695 250.571 34.5625 250.349 34.9336C250.134 35.2982 249.978 35.7051 249.88 36.1543C249.789 36.597 249.744 37.0495 249.744 37.5117V37.9219C249.744 38.3841 249.789 38.8398 249.88 39.2891C249.972 39.7383 250.125 40.1452 250.339 40.5098C250.561 40.8743 250.857 41.1673 251.228 41.3887C251.606 41.6035 252.074 41.7109 252.634 41.7109ZM261.238 32.4336V43H259.431V32.4336H261.238ZM268.171 32.4336L263.161 38.4883H260.632L260.359 36.9062H262.429L265.974 32.4336H268.171ZM266.228 43L262.341 38.2148L263.503 36.9062L268.523 43H266.228ZM272.448 40.1387L277.321 32.4336H279.137V43H277.321V35.2949L272.448 43H270.651V32.4336H272.448V40.1387ZM283.659 32.4336L285.973 36.2812L288.317 32.4336H290.436L286.979 37.6484L290.543 43H288.454L286.012 39.0352L283.571 43H281.471L285.026 37.6484L281.579 32.4336H283.659ZM126.418 56.4336V57.9277H121.076V56.4336H126.418ZM121.34 56.4336V67H119.533V56.4336H121.34ZM128.02 56.4336V67H126.203V56.4336H128.02ZM133.127 58.4648V71.0625H131.31V56.4336H132.97L133.127 58.4648ZM140.246 61.6289V61.834C140.246 62.6022 140.155 63.3151 139.972 63.9727C139.79 64.6237 139.523 65.1901 139.171 65.6719C138.826 66.1536 138.4 66.528 137.892 66.7949C137.384 67.0618 136.802 67.1953 136.144 67.1953C135.474 67.1953 134.881 67.0846 134.367 66.8633C133.852 66.6419 133.416 66.3197 133.058 65.8965C132.7 65.4733 132.414 64.9655 132.199 64.373C131.99 63.7806 131.847 63.1133 131.769 62.3711V61.2773C131.847 60.4961 131.994 59.7962 132.209 59.1777C132.423 58.5592 132.707 58.0319 133.058 57.5957C133.416 57.153 133.849 56.8177 134.357 56.5898C134.865 56.3555 135.451 56.2383 136.115 56.2383C136.779 56.2383 137.368 56.3685 137.882 56.6289C138.397 56.8828 138.83 57.2474 139.181 57.7227C139.533 58.1979 139.796 58.7676 139.972 59.4316C140.155 60.0892 140.246 60.8216 140.246 61.6289ZM138.429 61.834V61.6289C138.429 61.1016 138.374 60.6068 138.263 60.1445C138.153 59.6758 137.98 59.2656 137.746 58.9141C137.518 58.556 137.225 58.276 136.867 58.0742C136.509 57.8659 136.082 57.7617 135.587 57.7617C135.132 57.7617 134.735 57.8398 134.396 57.9961C134.064 58.1523 133.781 58.3639 133.546 58.6309C133.312 58.8913 133.12 59.1908 132.97 59.5293C132.827 59.8613 132.72 60.2064 132.648 60.5645V63.0938C132.778 63.5495 132.961 63.9792 133.195 64.3828C133.429 64.7799 133.742 65.1022 134.132 65.3496C134.523 65.5905 135.015 65.7109 135.607 65.7109C136.095 65.7109 136.515 65.61 136.867 65.4082C137.225 65.1999 137.518 64.9167 137.746 64.5586C137.98 64.2005 138.153 63.7904 138.263 63.3281C138.374 62.8594 138.429 62.3613 138.429 61.834ZM144.904 64.1387L149.777 56.4336H151.593V67H149.777V59.2949L144.904 67H143.107V56.4336H144.904V64.1387ZM161.671 51.834H163.155C163.155 52.472 163.057 52.9798 162.862 53.3574C162.667 53.7285 162.4 54.015 162.061 54.2168C161.729 54.4186 161.352 54.5716 160.929 54.6758C160.512 54.7799 160.079 54.8809 159.63 54.9785C159.07 55.0957 158.549 55.2812 158.067 55.5352C157.592 55.7826 157.182 56.1341 156.837 56.5898C156.498 57.0456 156.248 57.638 156.085 58.3672C155.929 59.0964 155.886 59.998 155.958 61.0723V61.9707H154.473V61.0723C154.473 59.8678 154.587 58.8164 154.815 57.918C155.05 57.0195 155.378 56.2611 155.802 55.6426C156.225 55.0241 156.726 54.5326 157.305 54.168C157.891 53.8034 158.536 53.5527 159.239 53.416C159.747 53.3184 160.183 53.2142 160.548 53.1035C160.912 52.9863 161.189 52.8301 161.378 52.6348C161.573 52.4395 161.671 52.1725 161.671 51.834ZM159.532 57.0391C160.222 57.0391 160.837 57.1595 161.378 57.4004C161.918 57.6413 162.377 57.9766 162.755 58.4062C163.132 58.8359 163.419 59.3438 163.614 59.9297C163.816 60.5091 163.917 61.1406 163.917 61.8242V62.0391C163.917 62.7747 163.809 63.4583 163.595 64.0898C163.386 64.7148 163.077 65.2617 162.667 65.7305C162.263 66.1927 161.768 66.554 161.182 66.8145C160.603 67.0749 159.942 67.2051 159.2 67.2051C158.458 67.2051 157.794 67.0749 157.208 66.8145C156.628 66.554 156.134 66.1927 155.723 65.7305C155.313 65.2617 155.001 64.7148 154.786 64.0898C154.578 63.4583 154.473 62.7747 154.473 62.0391V61.8242C154.473 61.6615 154.503 61.502 154.561 61.3457C154.62 61.1895 154.692 61.0299 154.776 60.8672C154.867 60.7044 154.949 60.5319 155.02 60.3496C155.261 59.7637 155.59 59.2201 156.007 58.7188C156.43 58.2174 156.934 57.8138 157.52 57.5078C158.113 57.1953 158.783 57.0391 159.532 57.0391ZM159.18 58.5137C158.516 58.5137 157.97 58.6667 157.54 58.9727C157.117 59.2786 156.801 59.6855 156.593 60.1934C156.384 60.6947 156.28 61.2383 156.28 61.8242V62.0391C156.28 62.5339 156.339 63.0026 156.456 63.4453C156.573 63.888 156.749 64.2819 156.983 64.627C157.224 64.9655 157.527 65.2324 157.891 65.4277C158.263 65.623 158.699 65.7207 159.2 65.7207C159.701 65.7207 160.134 65.623 160.499 65.4277C160.863 65.2324 161.163 64.9655 161.397 64.627C161.632 64.2819 161.807 63.888 161.925 63.4453C162.042 63.0026 162.1 62.5339 162.1 62.0391V61.8242C162.1 61.3815 162.042 60.9616 161.925 60.5645C161.807 60.1673 161.628 59.8158 161.388 59.5098C161.153 59.2038 160.85 58.9629 160.479 58.7871C160.115 58.6048 159.682 58.5137 159.18 58.5137ZM165.889 61.834V61.6094C165.889 60.8477 166 60.1413 166.221 59.4902C166.442 58.8327 166.761 58.263 167.178 57.7812C167.595 57.293 168.099 56.9154 168.692 56.6484C169.284 56.375 169.948 56.2383 170.684 56.2383C171.426 56.2383 172.093 56.375 172.686 56.6484C173.285 56.9154 173.793 57.293 174.209 57.7812C174.633 58.263 174.955 58.8327 175.176 59.4902C175.398 60.1413 175.508 60.8477 175.508 61.6094V61.834C175.508 62.5957 175.398 63.3021 175.176 63.9531C174.955 64.6042 174.633 65.1738 174.209 65.6621C173.793 66.1439 173.288 66.5215 172.696 66.7949C172.11 67.0618 171.446 67.1953 170.704 67.1953C169.961 67.1953 169.294 67.0618 168.702 66.7949C168.109 66.5215 167.601 66.1439 167.178 65.6621C166.761 65.1738 166.442 64.6042 166.221 63.9531C166 63.3021 165.889 62.5957 165.889 61.834ZM167.696 61.6094V61.834C167.696 62.3613 167.758 62.8594 167.881 63.3281C168.005 63.7904 168.19 64.2005 168.438 64.5586C168.692 64.9167 169.008 65.1999 169.385 65.4082C169.763 65.61 170.202 65.7109 170.704 65.7109C171.198 65.7109 171.631 65.61 172.002 65.4082C172.38 65.1999 172.692 64.9167 172.94 64.5586C173.187 64.2005 173.373 63.7904 173.496 63.3281C173.627 62.8594 173.692 62.3613 173.692 61.834V61.6094C173.692 61.0885 173.627 60.597 173.496 60.1348C173.373 59.666 173.184 59.2526 172.93 58.8945C172.683 58.5299 172.37 58.2435 171.993 58.0352C171.621 57.8268 171.185 57.7227 170.684 57.7227C170.189 57.7227 169.753 57.8268 169.375 58.0352C169.004 58.2435 168.692 58.5299 168.438 58.8945C168.19 59.2526 168.005 59.666 167.881 60.1348C167.758 60.597 167.696 61.0885 167.696 61.6094ZM179.98 58.4648V71.0625H178.164V56.4336H179.824L179.98 58.4648ZM187.1 61.6289V61.834C187.1 62.6022 187.008 63.3151 186.826 63.9727C186.644 64.6237 186.377 65.1901 186.025 65.6719C185.68 66.1536 185.254 66.528 184.746 66.7949C184.238 67.0618 183.656 67.1953 182.998 67.1953C182.327 67.1953 181.735 67.0846 181.221 66.8633C180.706 66.6419 180.27 66.3197 179.912 65.8965C179.554 65.4733 179.268 64.9655 179.053 64.373C178.844 63.7806 178.701 63.1133 178.623 62.3711V61.2773C178.701 60.4961 178.848 59.7962 179.062 59.1777C179.277 58.5592 179.561 58.0319 179.912 57.5957C180.27 57.153 180.703 56.8177 181.211 56.5898C181.719 56.3555 182.305 56.2383 182.969 56.2383C183.633 56.2383 184.222 56.3685 184.736 56.6289C185.251 56.8828 185.684 57.2474 186.035 57.7227C186.387 58.1979 186.65 58.7676 186.826 59.4316C187.008 60.0892 187.1 60.8216 187.1 61.6289ZM185.283 61.834V61.6289C185.283 61.1016 185.228 60.6068 185.117 60.1445C185.007 59.6758 184.834 59.2656 184.6 58.9141C184.372 58.556 184.079 58.276 183.721 58.0742C183.363 57.8659 182.936 57.7617 182.441 57.7617C181.986 57.7617 181.589 57.8398 181.25 57.9961C180.918 58.1523 180.635 58.3639 180.4 58.6309C180.166 58.8913 179.974 59.1908 179.824 59.5293C179.681 59.8613 179.574 60.2064 179.502 60.5645V63.0938C179.632 63.5495 179.814 63.9792 180.049 64.3828C180.283 64.7799 180.596 65.1022 180.986 65.3496C181.377 65.5905 181.868 65.7109 182.461 65.7109C182.949 65.7109 183.369 65.61 183.721 65.4082C184.079 65.1999 184.372 64.9167 184.6 64.5586C184.834 64.2005 185.007 63.7904 185.117 63.3281C185.228 62.8594 185.283 62.3613 185.283 61.834ZM189.326 61.834V61.6094C189.326 60.8477 189.436 60.1413 189.658 59.4902C189.879 58.8327 190.198 58.263 190.615 57.7812C191.032 57.293 191.536 56.9154 192.129 56.6484C192.721 56.375 193.385 56.2383 194.121 56.2383C194.863 56.2383 195.53 56.375 196.123 56.6484C196.722 56.9154 197.229 57.293 197.646 57.7812C198.069 58.263 198.392 58.8327 198.613 59.4902C198.834 60.1413 198.945 60.8477 198.945 61.6094V61.834C198.945 62.5957 198.834 63.3021 198.613 63.9531C198.392 64.6042 198.069 65.1738 197.646 65.6621C197.229 66.1439 196.725 66.5215 196.132 66.7949C195.546 67.0618 194.882 67.1953 194.14 67.1953C193.398 67.1953 192.731 67.0618 192.138 66.7949C191.546 66.5215 191.038 66.1439 190.615 65.6621C190.198 65.1738 189.879 64.6042 189.658 63.9531C189.436 63.3021 189.326 62.5957 189.326 61.834ZM191.132 61.6094V61.834C191.132 62.3613 191.194 62.8594 191.318 63.3281C191.442 63.7904 191.627 64.2005 191.875 64.5586C192.129 64.9167 192.444 65.1999 192.822 65.4082C193.199 65.61 193.639 65.7109 194.14 65.7109C194.635 65.7109 195.068 65.61 195.439 65.4082C195.817 65.1999 196.129 64.9167 196.377 64.5586C196.624 64.2005 196.81 63.7904 196.933 63.3281C197.063 62.8594 197.129 62.3613 197.129 61.834V61.6094C197.129 61.0885 197.063 60.597 196.933 60.1348C196.81 59.666 196.621 59.2526 196.367 58.8945C196.119 58.5299 195.807 58.2435 195.429 58.0352C195.058 57.8268 194.622 57.7227 194.121 57.7227C193.626 57.7227 193.19 57.8268 192.812 58.0352C192.441 58.2435 192.129 58.5299 191.875 58.8945C191.627 59.2526 191.442 59.666 191.318 60.1348C191.194 60.597 191.132 61.0885 191.132 61.6094ZM206.571 62.3516H203.105L203.085 60.9062H205.917C206.477 60.9062 206.943 60.8509 207.314 60.7402C207.691 60.6296 207.974 60.4635 208.163 60.2422C208.352 60.0208 208.446 59.7474 208.446 59.4219C208.446 59.168 208.391 58.9466 208.28 58.7578C208.176 58.5625 208.017 58.403 207.802 58.2793C207.587 58.1491 207.32 58.0547 207.001 57.9961C206.689 57.931 206.321 57.8984 205.898 57.8984H203.583V67H201.777V56.4336H205.898C206.568 56.4336 207.17 56.4922 207.704 56.6094C208.245 56.7266 208.704 56.9056 209.081 57.1465C209.465 57.3809 209.758 57.6803 209.96 58.0449C210.162 58.4095 210.263 58.8392 210.263 59.334C210.263 59.653 210.198 59.9557 210.068 60.2422C209.937 60.5286 209.745 60.7826 209.491 61.0039C209.238 61.2253 208.925 61.4076 208.554 61.5508C208.183 61.6875 207.756 61.7754 207.275 61.8145L206.571 62.3516ZM206.571 67H202.45L203.349 65.5352H206.571C207.073 65.5352 207.489 65.4733 207.821 65.3496C208.154 65.2194 208.401 65.0371 208.564 64.8027C208.733 64.5618 208.818 64.2754 208.818 63.9434C208.818 63.6113 208.733 63.3281 208.564 63.0938C208.401 62.8529 208.154 62.6706 207.821 62.5469C207.489 62.4167 207.073 62.3516 206.571 62.3516H203.827L203.847 60.9062H207.275L207.929 61.4531C208.508 61.4987 209 61.6419 209.404 61.8828C209.807 62.1237 210.113 62.4297 210.321 62.8008C210.53 63.1654 210.634 63.5625 210.634 63.9922C210.634 64.487 210.54 64.9232 210.351 65.3008C210.168 65.6784 209.902 65.9941 209.55 66.248C209.198 66.4954 208.772 66.6842 208.271 66.8145C207.769 66.9382 207.203 67 206.571 67ZM121.33 88.1387L126.203 80.4336H128.02V91H126.203V83.2949L121.33 91H119.533V80.4336H121.33V88.1387ZM140.909 89.7109C141.339 89.7109 141.736 89.623 142.101 89.4473C142.465 89.2715 142.765 89.0306 142.999 88.7246C143.234 88.4121 143.367 88.0573 143.4 87.6602H145.118C145.086 88.2852 144.874 88.8678 144.484 89.4082C144.099 89.9421 143.595 90.375 142.97 90.707C142.345 91.0326 141.658 91.1953 140.909 91.1953C140.115 91.1953 139.422 91.0553 138.829 90.7754C138.243 90.4954 137.755 90.1113 137.364 89.623C136.98 89.1348 136.691 88.5749 136.495 87.9434C136.307 87.3053 136.212 86.6315 136.212 85.9219V85.5117C136.212 84.8021 136.307 84.1315 136.495 83.5C136.691 82.862 136.98 82.2988 137.364 81.8105C137.755 81.3223 138.243 80.9382 138.829 80.6582C139.422 80.3783 140.115 80.2383 140.909 80.2383C141.736 80.2383 142.459 80.4076 143.077 80.7461C143.696 81.0781 144.181 81.5339 144.532 82.1133C144.89 82.6862 145.086 83.3372 145.118 84.0664H143.4C143.367 83.6302 143.243 83.2363 143.029 82.8848C142.82 82.5332 142.534 82.2533 142.169 82.0449C141.811 81.8301 141.391 81.7227 140.909 81.7227C140.356 81.7227 139.89 81.8333 139.513 82.0547C139.142 82.2695 138.846 82.5625 138.624 82.9336C138.409 83.2982 138.253 83.7051 138.155 84.1543C138.064 84.597 138.019 85.0495 138.019 85.5117V85.9219C138.019 86.3841 138.064 86.8398 138.155 87.2891C138.247 87.7383 138.4 88.1452 138.614 88.5098C138.836 88.8743 139.132 89.1673 139.503 89.3887C139.881 89.6035 140.349 89.7109 140.909 89.7109ZM149.503 88.1387L154.376 80.4336H156.192V91H154.376V83.2949L149.503 91H147.706V80.4336H149.503V88.1387ZM163.721 89.7109C164.151 89.7109 164.548 89.623 164.912 89.4473C165.277 89.2715 165.577 89.0306 165.811 88.7246C166.045 88.4121 166.179 88.0573 166.211 87.6602H167.93C167.898 88.2852 167.686 88.8678 167.295 89.4082C166.911 89.9421 166.407 90.375 165.782 90.707C165.157 91.0326 164.47 91.1953 163.721 91.1953C162.927 91.1953 162.233 91.0553 161.641 90.7754C161.055 90.4954 160.567 90.1113 160.176 89.623C159.792 89.1348 159.502 88.5749 159.307 87.9434C159.118 87.3053 159.024 86.6315 159.024 85.9219V85.5117C159.024 84.8021 159.118 84.1315 159.307 83.5C159.502 82.862 159.792 82.2988 160.176 81.8105C160.567 81.3223 161.055 80.9382 161.641 80.6582C162.233 80.3783 162.927 80.2383 163.721 80.2383C164.548 80.2383 165.271 80.4076 165.889 80.7461C166.508 81.0781 166.993 81.5339 167.344 82.1133C167.702 82.6862 167.898 83.3372 167.93 84.0664H166.211C166.179 83.6302 166.055 83.2363 165.84 82.8848C165.632 82.5332 165.345 82.2533 164.981 82.0449C164.623 81.8301 164.203 81.7227 163.721 81.7227C163.168 81.7227 162.702 81.8333 162.325 82.0547C161.954 82.2695 161.657 82.5625 161.436 82.9336C161.221 83.2982 161.065 83.7051 160.967 84.1543C160.876 84.597 160.83 85.0495 160.83 85.5117V85.9219C160.83 86.3841 160.876 86.8398 160.967 87.2891C161.058 87.7383 161.211 88.1452 161.426 88.5098C161.648 88.8743 161.944 89.1673 162.315 89.3887C162.692 89.6035 163.161 89.7109 163.721 89.7109ZM174.668 80.4336V91H172.852V80.4336H174.668ZM178.213 80.4336V81.8984H169.375V80.4336H178.213ZM183.994 91.1953C183.258 91.1953 182.591 91.0716 181.992 90.8242C181.399 90.5703 180.888 90.2155 180.459 89.7598C180.035 89.304 179.71 88.7637 179.482 88.1387C179.254 87.5137 179.14 86.8301 179.14 86.0879V85.6777C179.14 84.8184 179.267 84.0534 179.521 83.3828C179.775 82.7057 180.12 82.1328 180.556 81.6641C180.992 81.1953 181.487 80.8405 182.041 80.5996C182.594 80.3587 183.167 80.2383 183.759 80.2383C184.515 80.2383 185.166 80.3685 185.713 80.6289C186.266 80.8893 186.718 81.2539 187.07 81.7227C187.421 82.1849 187.682 82.7318 187.851 83.3633C188.02 83.9883 188.105 84.6719 188.105 85.4141V86.2246H180.214V84.75H186.298V84.6133C186.272 84.1445 186.175 83.6888 186.005 83.2461C185.843 82.8034 185.582 82.4388 185.224 82.1523C184.866 81.8659 184.378 81.7227 183.759 81.7227C183.349 81.7227 182.972 81.8105 182.627 81.9863C182.282 82.1556 181.985 82.4095 181.738 82.748C181.49 83.0866 181.298 83.5 181.162 83.9883C181.025 84.4766 180.957 85.0397 180.957 85.6777V86.0879C180.957 86.5892 181.025 87.0612 181.162 87.5039C181.305 87.9401 181.51 88.3242 181.777 88.6562C182.05 88.9883 182.379 89.2487 182.763 89.4375C183.154 89.6263 183.597 89.7207 184.091 89.7207C184.729 89.7207 185.27 89.5905 185.713 89.3301C186.155 89.0697 186.543 88.7214 186.875 88.2852L187.968 89.1543C187.74 89.4993 187.451 89.8281 187.099 90.1406C186.748 90.4531 186.315 90.707 185.8 90.9023C185.293 91.0977 184.69 91.1953 183.994 91.1953ZM196.689 88.5977L200.282 80.4336H202.021L197.314 91H196.064L191.376 80.4336H193.114L196.689 88.5977ZM192.587 80.4336V91H190.78V80.4336H192.587ZM200.732 91V80.4336H202.548V91H200.732Z" fill="#0061FF"/>
</svg>
