<svg width="384" height="96" viewBox="0 0 384 96" fill="none" xmlns="http://www.w3.org/2000/svg">
<path d="M38.5911 40.506C36.5665 42.5302 35.4508 45.2216 35.4492 48.084C35.4484 50.948 36.5624 53.6402 38.5854 55.6652C39.8412 56.9217 41.8853 56.9225 43.1411 55.666C44.3977 54.4095 44.3977 52.3642 43.1419 51.1069C42.3366 50.3003 41.8934 49.2278 41.8942 48.0873C41.8942 46.9459 42.339 45.8726 43.146 45.066C44.8117 43.4009 47.5201 43.4009 49.1851 45.0651C49.9904 45.8717 50.4336 46.9442 50.4336 48.0848C50.4327 49.2262 49.988 50.2987 49.181 51.1061C48.5718 51.7149 48.2363 52.5239 48.2363 53.3857C48.2363 54.2466 48.5718 55.0564 49.1802 55.6652C49.8081 56.2943 50.6329 56.608 51.4584 56.608C52.2832 56.608 53.108 56.2943 53.7359 55.666C55.7597 53.6418 56.8753 50.9497 56.8769 48.0873C56.8786 45.224 55.7646 42.5319 53.7407 40.5052C49.565 36.328 42.77 36.3271 38.5911 40.506Z" fill="#0061FF"/>
<path d="M75.5752 18.5021L75.2633 18.19H75.239C73.9743 17.1613 72.1068 17.2375 70.9304 18.4138C69.6738 19.6703 69.6738 21.7155 70.9329 22.9753C77.5917 29.638 81.2586 38.4968 81.2586 47.919C81.2586 57.342 77.5909 66.2 70.932 72.8635C69.6763 74.12 69.6763 76.1653 70.932 77.4218L70.9329 77.4226C71.5599 78.0509 72.3855 78.3646 73.2103 78.3646C74.0359 78.3646 74.8606 78.0509 75.4893 77.4226C83.3651 69.5415 87.7028 59.0638 87.7028 47.919C87.7028 36.8139 83.3959 26.3727 75.5752 18.5021Z" fill="#0061FF"/>
<path d="M10.7458 47.9183C10.7458 38.4961 14.4127 29.6373 21.0716 22.9745C21.68 22.3657 22.0154 21.5559 22.0154 20.695C22.0154 19.8333 21.68 19.0242 21.0716 18.4154C19.8158 17.1581 17.7717 17.1589 16.5151 18.4146C8.63931 26.2958 4.30159 36.7734 4.30078 47.9183C4.30159 59.0639 8.63769 69.5399 16.511 77.4178L16.6917 77.5978C17.2994 78.1985 18.1031 78.5284 18.9562 78.5284H18.9756C19.8368 78.5236 20.6438 78.1831 21.2482 77.571C22.4902 76.3137 22.4837 74.2749 21.2214 73.0119C14.4653 66.3249 10.7458 57.4126 10.7458 47.9183Z" fill="#0061FF"/>
<path d="M64.0925 28.5464C63.4654 27.9563 62.6552 27.6417 61.7859 27.6742C60.9255 27.7009 60.1274 28.0616 59.5384 28.6891C58.947 29.3198 58.6375 30.1426 58.6659 31.0067C58.6942 31.8668 59.0556 32.6629 59.6818 33.2458C63.7651 37.0834 66.0142 42.2821 66.015 47.8837C66.0142 53.2242 63.9426 58.2503 60.1809 62.0368C58.9316 63.2933 58.934 65.3353 60.1866 66.5894L60.1598 66.5692L60.1939 66.5959C60.8015 67.2007 61.6084 67.533 62.4648 67.533H62.4745C63.3357 67.5306 64.1435 67.1925 64.7503 66.5821C69.7208 61.5796 72.4584 54.9396 72.4592 47.8845C72.4592 40.5927 69.4089 33.5449 64.0925 28.5464Z" fill="#0061FF"/>
<path d="M32.1256 62.0917C28.3274 58.3149 26.2364 53.271 26.2372 47.8834C26.2364 42.5663 28.2942 37.5549 32.0292 33.7732C33.2614 32.5248 33.2533 30.4828 32.0024 29.2141C31.3907 28.6086 30.5822 28.2535 29.7185 28.2835C28.8581 28.2884 28.0512 28.6288 27.446 29.2409C22.5103 34.2377 19.7922 40.8583 19.793 47.8834C19.7922 54.9677 22.5492 61.6272 27.5553 66.6362L27.6129 66.6937C28.2205 67.2985 29.0274 67.6308 29.8838 67.6308H29.8935C30.7547 67.6292 31.5625 67.2912 32.1693 66.68C33.4178 65.4226 33.4146 63.3814 32.1799 62.146L32.1256 62.0917Z" fill="#0061FF"/>
<path d="M121.613 15.7383L128.615 4.78125H130.5V19H128.615V8.0332L121.613 19H119.738V4.78125H121.613V15.7383ZM141.222 13.0137V14.4785H135.636V13.0137H141.222ZM136.017 8.43359V19H134.211V8.43359H136.017ZM142.687 8.43359V19H140.871V8.43359H142.687ZM150.226 17.7109C150.655 17.7109 151.053 17.623 151.417 17.4473C151.782 17.2715 152.081 17.0306 152.316 16.7246C152.55 16.4121 152.683 16.0573 152.716 15.6602H154.435C154.402 16.2852 154.191 16.8678 153.8 17.4082C153.416 17.9421 152.911 18.375 152.286 18.707C151.661 19.0326 150.974 19.1953 150.226 19.1953C149.432 19.1953 148.738 19.0553 148.146 18.7754C147.56 18.4954 147.071 18.1113 146.681 17.623C146.297 17.1348 146.007 16.5749 145.812 15.9434C145.623 15.3053 145.529 14.6315 145.529 13.9219V13.5117C145.529 12.8021 145.623 12.1315 145.812 11.5C146.007 10.862 146.297 10.2988 146.681 9.81055C147.071 9.32227 147.56 8.93815 148.146 8.6582C148.738 8.37826 149.432 8.23828 150.226 8.23828C151.053 8.23828 151.775 8.40755 152.394 8.74609C153.012 9.07812 153.497 9.53385 153.849 10.1133C154.207 10.6862 154.402 11.3372 154.435 12.0664H152.716C152.683 11.6302 152.56 11.2363 152.345 10.8848C152.137 10.5332 151.85 10.2533 151.486 10.0449C151.127 9.83008 150.708 9.72266 150.226 9.72266C149.672 9.72266 149.207 9.83333 148.829 10.0547C148.458 10.2695 148.162 10.5625 147.941 10.9336C147.726 11.2982 147.57 11.7051 147.472 12.1543C147.381 12.597 147.335 13.0495 147.335 13.5117V13.9219C147.335 14.3841 147.381 14.8398 147.472 15.2891C147.563 15.7383 147.716 16.1452 147.931 16.5098C148.152 16.8743 148.448 17.1673 148.82 17.3887C149.197 17.6035 149.666 17.7109 150.226 17.7109ZM161.173 8.43359V19H159.356V8.43359H161.173ZM164.718 8.43359V9.89844H155.88V8.43359H164.718ZM168.848 16.1387L173.721 8.43359H175.537V19H173.721V11.2949L168.848 19H167.051V8.43359H168.848V16.1387ZM183.145 8.43359V19H181.328V8.43359H183.145ZM186.689 8.43359V9.89844H177.852V8.43359H186.689ZM191.953 17.9062L194.892 8.43359H196.826L192.588 20.6309C192.49 20.8913 192.36 21.1712 192.197 21.4707C192.041 21.7767 191.839 22.0664 191.591 22.3398C191.344 22.6133 191.045 22.8346 190.693 23.0039C190.348 23.1797 189.935 23.2676 189.453 23.2676C189.31 23.2676 189.127 23.248 188.906 23.209C188.685 23.1699 188.528 23.1374 188.437 23.1113L188.427 21.6465C188.479 21.653 188.561 21.6595 188.671 21.666C188.789 21.679 188.87 21.6855 188.916 21.6855C189.326 21.6855 189.674 21.6302 189.961 21.5195C190.247 21.4154 190.488 21.2363 190.683 20.9824C190.885 20.735 191.058 20.3932 191.201 19.957L191.953 17.9062ZM189.795 8.43359L192.539 16.6367L193.007 18.541L191.709 19.2051L187.822 8.43359H189.795ZM203.163 8.43359V19H201.347V8.43359H203.163ZM206.708 8.43359V9.89844H197.87V8.43359H206.708ZM121.184 34.4648V47.0625H119.367V32.4336H121.027L121.184 34.4648ZM128.303 37.6289V37.834C128.303 38.6022 128.212 39.3151 128.029 39.9727C127.847 40.6237 127.58 41.1901 127.229 41.6719C126.883 42.1536 126.457 42.528 125.949 42.7949C125.441 43.0618 124.859 43.1953 124.201 43.1953C123.531 43.1953 122.938 43.0846 122.424 42.8633C121.91 42.6419 121.473 42.3197 121.115 41.8965C120.757 41.4733 120.471 40.9655 120.256 40.373C120.048 39.7806 119.904 39.1133 119.826 38.3711V37.2773C119.904 36.4961 120.051 35.7962 120.266 35.1777C120.48 34.5592 120.764 34.0319 121.115 33.5957C121.473 33.153 121.906 32.8177 122.414 32.5898C122.922 32.3555 123.508 32.2383 124.172 32.2383C124.836 32.2383 125.425 32.3685 125.939 32.6289C126.454 32.8828 126.887 33.2474 127.238 33.7227C127.59 34.1979 127.854 34.7676 128.029 35.4316C128.212 36.0892 128.303 36.8216 128.303 37.6289ZM126.486 37.834V37.6289C126.486 37.1016 126.431 36.6068 126.32 36.1445C126.21 35.6758 126.037 35.2656 125.803 34.9141C125.575 34.556 125.282 34.276 124.924 34.0742C124.566 33.8659 124.139 33.7617 123.645 33.7617C123.189 33.7617 122.792 33.8398 122.453 33.9961C122.121 34.1523 121.838 34.3639 121.604 34.6309C121.369 34.8913 121.177 35.1908 121.027 35.5293C120.884 35.8613 120.777 36.2064 120.705 36.5645V39.0938C120.835 39.5495 121.018 39.9792 121.252 40.3828C121.486 40.7799 121.799 41.1022 122.189 41.3496C122.58 41.5905 123.072 41.7109 123.664 41.7109C124.152 41.7109 124.572 41.61 124.924 41.4082C125.282 41.1999 125.575 40.9167 125.803 40.5586C126.037 40.2005 126.21 39.7904 126.32 39.3281C126.431 38.8594 126.486 38.3613 126.486 37.834ZM137.238 41.1934V35.7539C137.238 35.3372 137.153 34.9759 136.984 34.6699C136.821 34.3574 136.574 34.1165 136.242 33.9473C135.91 33.778 135.5 33.6934 135.011 33.6934C134.556 33.6934 134.155 33.7715 133.81 33.9277C133.472 34.084 133.205 34.2891 133.009 34.543C132.821 34.7969 132.726 35.0703 132.726 35.3633H130.92C130.92 34.9857 131.017 34.6113 131.212 34.2402C131.408 33.8691 131.688 33.5339 132.052 33.2344C132.423 32.9284 132.866 32.6875 133.38 32.5117C133.901 32.3294 134.481 32.2383 135.119 32.2383C135.887 32.2383 136.564 32.3685 137.15 32.6289C137.742 32.8893 138.205 33.2832 138.537 33.8105C138.875 34.3314 139.045 34.9857 139.045 35.7734V40.6953C139.045 41.0469 139.074 41.4212 139.132 41.8184C139.198 42.2155 139.292 42.5573 139.416 42.8438V43H137.531C137.44 42.7917 137.368 42.515 137.316 42.1699C137.264 41.8184 137.238 41.4928 137.238 41.1934ZM137.55 36.5938L137.57 37.8633H135.744C135.229 37.8633 134.77 37.9056 134.367 37.9902C133.963 38.0684 133.625 38.1888 133.351 38.3516C133.078 38.5143 132.869 38.7194 132.726 38.9668C132.583 39.2077 132.511 39.4909 132.511 39.8164C132.511 40.1484 132.586 40.4512 132.736 40.7246C132.886 40.998 133.11 41.2161 133.41 41.3789C133.716 41.5352 134.09 41.6133 134.533 41.6133C135.086 41.6133 135.574 41.4961 135.998 41.2617C136.421 41.0273 136.756 40.7409 137.004 40.4023C137.257 40.0638 137.394 39.735 137.414 39.416L138.185 40.2852C138.14 40.5586 138.016 40.8613 137.814 41.1934C137.612 41.5254 137.342 41.8444 137.004 42.1504C136.671 42.4499 136.274 42.7005 135.812 42.9023C135.356 43.0977 134.842 43.1953 134.269 43.1953C133.553 43.1953 132.925 43.0553 132.384 42.7754C131.851 42.4954 131.434 42.1211 131.134 41.6523C130.841 41.1771 130.695 40.6465 130.695 40.0605C130.695 39.4941 130.806 38.9961 131.027 38.5664C131.248 38.1302 131.567 37.7689 131.984 37.4824C132.401 37.1895 132.902 36.9681 133.488 36.8184C134.074 36.6686 134.728 36.5938 135.451 36.5938H137.55ZM144.191 32.4336H145.997L145.841 36.3887C145.802 37.3913 145.688 38.2572 145.499 38.9863C145.31 39.7155 145.07 40.3372 144.777 40.8516C144.484 41.3594 144.155 41.7858 143.79 42.1309C143.432 42.4759 143.061 42.7656 142.677 43H141.779L141.827 41.5254L142.198 41.5156C142.413 41.2617 142.622 41.0013 142.823 40.7344C143.025 40.4609 143.211 40.1387 143.38 39.7676C143.549 39.39 143.689 38.931 143.8 38.3906C143.917 37.8438 143.992 37.1764 144.025 36.3887L144.191 32.4336ZM144.64 32.4336H150.997V43H149.191V34.1035H144.64V32.4336ZM141.368 41.5156H152.355V46.1152H150.548V43H143.175V46.1152H141.359L141.368 41.5156ZM156.71 40.1387L161.583 32.4336H163.399V43H161.583V35.2949L156.71 43H154.913V32.4336H156.71V40.1387ZM166.221 37.834V37.6094C166.221 36.8477 166.332 36.1413 166.553 35.4902C166.774 34.8327 167.093 34.263 167.51 33.7812C167.927 33.293 168.431 32.9154 169.024 32.6484C169.616 32.375 170.28 32.2383 171.016 32.2383C171.758 32.2383 172.426 32.375 173.018 32.6484C173.617 32.9154 174.125 33.293 174.541 33.7812C174.965 34.263 175.287 34.8327 175.508 35.4902C175.73 36.1413 175.84 36.8477 175.84 37.6094V37.834C175.84 38.5957 175.73 39.3021 175.508 39.9531C175.287 40.6042 174.965 41.1738 174.541 41.6621C174.125 42.1439 173.62 42.5215 173.028 42.7949C172.442 43.0618 171.778 43.1953 171.036 43.1953C170.293 43.1953 169.626 43.0618 169.034 42.7949C168.441 42.5215 167.933 42.1439 167.51 41.6621C167.093 41.1738 166.774 40.6042 166.553 39.9531C166.332 39.3021 166.221 38.5957 166.221 37.834ZM168.028 37.6094V37.834C168.028 38.3613 168.09 38.8594 168.213 39.3281C168.337 39.7904 168.523 40.2005 168.77 40.5586C169.024 40.9167 169.34 41.1999 169.717 41.4082C170.095 41.61 170.534 41.7109 171.036 41.7109C171.53 41.7109 171.963 41.61 172.334 41.4082C172.712 41.1999 173.024 40.9167 173.272 40.5586C173.519 40.2005 173.705 39.7904 173.829 39.3281C173.959 38.8594 174.024 38.3613 174.024 37.834V37.6094C174.024 37.0885 173.959 36.597 173.829 36.1348C173.705 35.666 173.516 35.2526 173.262 34.8945C173.015 34.5299 172.702 34.2435 172.325 34.0352C171.954 33.8268 171.517 33.7227 171.016 33.7227C170.521 33.7227 170.085 33.8268 169.707 34.0352C169.336 34.2435 169.024 34.5299 168.77 34.8945C168.523 35.2526 168.337 35.666 168.213 36.1348C168.09 36.597 168.028 37.0885 168.028 37.6094ZM182.598 32.4336V43H180.781V32.4336H182.598ZM186.143 32.4336V33.8984H177.305V32.4336H186.143ZM191.923 43.1953C191.188 43.1953 190.52 43.0716 189.921 42.8242C189.329 42.5703 188.818 42.2155 188.388 41.7598C187.965 41.304 187.64 40.7637 187.412 40.1387C187.184 39.5137 187.07 38.8301 187.07 38.0879V37.6777C187.07 36.8184 187.197 36.0534 187.451 35.3828C187.705 34.7057 188.05 34.1328 188.486 33.6641C188.922 33.1953 189.417 32.8405 189.97 32.5996C190.524 32.3587 191.097 32.2383 191.689 32.2383C192.444 32.2383 193.095 32.3685 193.642 32.6289C194.196 32.8893 194.648 33.2539 195 33.7227C195.351 34.1849 195.612 34.7318 195.781 35.3633C195.95 35.9883 196.035 36.6719 196.035 37.4141V38.2246H188.144V36.75H194.228V36.6133C194.202 36.1445 194.104 35.6888 193.935 35.2461C193.772 34.8034 193.512 34.4388 193.154 34.1523C192.796 33.8659 192.308 33.7227 191.689 33.7227C191.279 33.7227 190.901 33.8105 190.556 33.9863C190.211 34.1556 189.915 34.4095 189.668 34.748C189.42 35.0866 189.228 35.5 189.091 35.9883C188.955 36.4766 188.886 37.0397 188.886 37.6777V38.0879C188.886 38.5892 188.955 39.0612 189.091 39.5039C189.235 39.9401 189.44 40.3242 189.707 40.6562C189.98 40.9883 190.309 41.2487 190.693 41.4375C191.084 41.6263 191.526 41.7207 192.021 41.7207C192.659 41.7207 193.199 41.5905 193.642 41.3301C194.085 41.0697 194.472 40.7214 194.804 40.2852L195.898 41.1543C195.67 41.4993 195.38 41.8281 195.029 42.1406C194.677 42.4531 194.244 42.707 193.73 42.9023C193.222 43.0977 192.62 43.1953 191.923 43.1953ZM199.765 32.4336L202.079 36.2812L204.423 32.4336H206.542L203.085 37.6484L206.65 43H204.56L202.118 39.0352L199.677 43H197.577L201.132 37.6484L197.685 32.4336H199.765ZM216.034 37.0137V38.4785H210.448V37.0137H216.034ZM210.829 32.4336V43H209.022V32.4336H210.829ZM217.499 32.4336V43H215.682V32.4336H217.499ZM222.762 40.1387L227.635 32.4336H229.452V43H227.635V35.2949L222.762 43H220.965V32.4336H222.762V40.1387ZM234.715 32.4336V43H232.908V32.4336H234.715ZM241.648 32.4336L236.639 38.4883H234.109L233.836 36.9062H235.906L239.451 32.4336H241.648ZM239.705 43L235.818 38.2148L236.98 36.9062L242 43H239.705ZM245.925 40.1387L250.798 32.4336H252.615V43H250.798V35.2949L245.925 43H244.129V32.4336H245.925V40.1387ZM121.33 64.1387L126.203 56.4336H128.02V67H126.203V59.2949L121.33 67H119.533V56.4336H121.33V64.1387ZM138.634 64.1387L143.507 56.4336H145.323V67H143.507V59.2949L138.634 67H136.837V56.4336H138.634V64.1387ZM155.792 61.0137V62.4785H150.206V61.0137H155.792ZM150.587 56.4336V67H148.78V56.4336H150.587ZM157.257 56.4336V67H155.44V56.4336H157.257ZM172.715 61.9023V62.1074C172.715 62.8496 172.634 63.5332 172.471 64.1582C172.308 64.7767 172.064 65.3138 171.739 65.7695C171.42 66.2253 171.023 66.5801 170.547 66.834C170.072 67.0814 169.522 67.2051 168.897 67.2051C168.383 67.2051 167.93 67.1367 167.539 67C167.149 66.8568 166.817 66.6517 166.543 66.3848C166.276 66.1178 166.062 65.7988 165.899 65.4277C165.743 65.0501 165.635 64.627 165.577 64.1582V59.4707C165.635 58.9694 165.743 58.5202 165.899 58.123C166.062 57.7259 166.276 57.3874 166.543 57.1074C166.817 56.8275 167.146 56.6126 167.53 56.4629C167.914 56.3132 168.363 56.2383 168.877 56.2383C169.385 56.2383 169.841 56.3294 170.245 56.5117C170.655 56.6875 171.013 56.9414 171.319 57.2734C171.631 57.6055 171.888 58.0059 172.09 58.4746C172.299 58.9368 172.455 59.4577 172.559 60.0371C172.663 60.6165 172.715 61.2383 172.715 61.9023ZM170.909 62.1074V61.9023C170.909 61.4466 170.876 61.0137 170.811 60.6035C170.752 60.1868 170.658 59.806 170.528 59.4609C170.404 59.1094 170.241 58.8034 170.039 58.543C169.838 58.2826 169.593 58.0807 169.307 57.9375C169.027 57.7943 168.705 57.7227 168.34 57.7227C167.95 57.7227 167.624 57.7715 167.364 57.8691C167.11 57.9668 166.911 58.097 166.768 58.2598C166.625 58.416 166.521 58.582 166.455 58.7578V64.8809C166.534 65.0241 166.648 65.1608 166.797 65.291C166.947 65.4147 167.149 65.5189 167.403 65.6035C167.657 65.6816 167.976 65.7207 168.36 65.7207C168.815 65.7207 169.203 65.6296 169.522 65.4473C169.847 65.2585 170.111 64.998 170.313 64.666C170.521 64.334 170.671 63.9499 170.762 63.5137C170.86 63.0775 170.909 62.6087 170.909 62.1074ZM160.166 62.1074V61.9023C160.166 61.2383 160.218 60.6165 160.323 60.0371C160.427 59.4577 160.583 58.9368 160.791 58.4746C161 58.0059 161.257 57.6055 161.563 57.2734C161.875 56.9414 162.233 56.6875 162.637 56.5117C163.047 56.3294 163.506 56.2383 164.014 56.2383C164.515 56.2383 164.952 56.3132 165.323 56.4629C165.7 56.6126 166.019 56.8275 166.28 57.1074C166.54 57.3874 166.748 57.7259 166.905 58.123C167.061 58.5202 167.172 58.9694 167.237 59.4707V63.9727C167.178 64.4674 167.071 64.9134 166.914 65.3105C166.758 65.7077 166.55 66.0495 166.289 66.3359C166.029 66.6159 165.707 66.8307 165.323 66.9805C164.945 67.1302 164.502 67.2051 163.995 67.2051C163.37 67.2051 162.819 67.0814 162.344 66.834C161.869 66.5801 161.468 66.2253 161.143 65.7695C160.824 65.3138 160.58 64.7767 160.411 64.1582C160.248 63.5332 160.166 62.8496 160.166 62.1074ZM161.983 61.9023V62.1074C161.983 62.6087 162.025 63.0775 162.11 63.5137C162.201 63.9499 162.341 64.334 162.53 64.666C162.725 64.998 162.979 65.2585 163.291 65.4473C163.604 65.6296 163.988 65.7207 164.444 65.7207C164.834 65.7207 165.157 65.6719 165.411 65.5742C165.664 65.4766 165.866 65.3496 166.016 65.1934C166.166 65.0371 166.28 64.8743 166.358 64.7051V58.7578C166.293 58.582 166.185 58.416 166.036 58.2598C165.892 58.097 165.694 57.9668 165.44 57.8691C165.186 57.7715 164.86 57.7227 164.463 57.7227C164.008 57.7227 163.62 57.8333 163.301 58.0547C162.982 58.276 162.725 58.5788 162.53 58.9629C162.341 59.347 162.201 59.793 162.11 60.3008C162.025 60.8021 161.983 61.3359 161.983 61.9023ZM165.459 71.0625V52H167.276V71.0625H165.459ZM175 61.834V61.6094C175 60.8477 175.111 60.1413 175.332 59.4902C175.553 58.8327 175.872 58.263 176.289 57.7812C176.706 57.293 177.21 56.9154 177.803 56.6484C178.395 56.375 179.059 56.2383 179.795 56.2383C180.537 56.2383 181.204 56.375 181.797 56.6484C182.396 56.9154 182.904 57.293 183.32 57.7812C183.743 58.263 184.066 58.8327 184.287 59.4902C184.508 60.1413 184.619 60.8477 184.619 61.6094V61.834C184.619 62.5957 184.508 63.3021 184.287 63.9531C184.066 64.6042 183.743 65.1738 183.32 65.6621C182.904 66.1439 182.399 66.5215 181.807 66.7949C181.221 67.0618 180.557 67.1953 179.814 67.1953C179.072 67.1953 178.405 67.0618 177.812 66.7949C177.22 66.5215 176.712 66.1439 176.289 65.6621C175.872 65.1738 175.553 64.6042 175.332 63.9531C175.111 63.3021 175 62.5957 175 61.834ZM176.807 61.6094V61.834C176.807 62.3613 176.868 62.8594 176.992 63.3281C177.116 63.7904 177.301 64.2005 177.549 64.5586C177.803 64.9167 178.118 65.1999 178.496 65.4082C178.874 65.61 179.313 65.7109 179.814 65.7109C180.309 65.7109 180.742 65.61 181.113 65.4082C181.491 65.1999 181.803 64.9167 182.051 64.5586C182.298 64.2005 182.484 63.7904 182.607 63.3281C182.738 62.8594 182.803 62.3613 182.803 61.834V61.6094C182.803 61.0885 182.738 60.597 182.607 60.1348C182.484 59.666 182.295 59.2526 182.041 58.8945C181.794 58.5299 181.481 58.2435 181.104 58.0352C180.732 57.8268 180.296 57.7227 179.795 57.7227C179.3 57.7227 178.864 57.8268 178.486 58.0352C178.115 58.2435 177.803 58.5299 177.549 58.8945C177.301 59.2526 177.116 59.666 176.992 60.1348C176.868 60.597 176.807 61.0885 176.807 61.6094ZM189.248 56.4336V67H187.441V56.4336H189.248ZM196.181 56.4336L191.171 62.4883H188.642L188.369 60.9062H190.439L193.984 56.4336H196.181ZM194.238 67L190.351 62.2148L191.513 60.9062L196.533 67H194.238ZM197.812 61.834V61.6094C197.812 60.8477 197.922 60.1413 198.144 59.4902C198.365 58.8327 198.684 58.263 199.101 57.7812C199.517 57.293 200.022 56.9154 200.614 56.6484C201.207 56.375 201.871 56.2383 202.607 56.2383C203.349 56.2383 204.016 56.375 204.609 56.6484C205.208 56.9154 205.715 57.293 206.132 57.7812C206.555 58.263 206.877 58.8327 207.099 59.4902C207.32 60.1413 207.431 60.8477 207.431 61.6094V61.834C207.431 62.5957 207.32 63.3021 207.099 63.9531C206.877 64.6042 206.555 65.1738 206.132 65.6621C205.715 66.1439 205.211 66.5215 204.618 66.7949C204.032 67.0618 203.368 67.1953 202.626 67.1953C201.884 67.1953 201.217 67.0618 200.624 66.7949C200.032 66.5215 199.524 66.1439 199.101 65.6621C198.684 65.1738 198.365 64.6042 198.144 63.9531C197.922 63.3021 197.812 62.5957 197.812 61.834ZM199.618 61.6094V61.834C199.618 62.3613 199.68 62.8594 199.804 63.3281C199.928 63.7904 200.113 64.2005 200.361 64.5586C200.614 64.9167 200.93 65.1999 201.308 65.4082C201.685 65.61 202.125 65.7109 202.626 65.7109C203.121 65.7109 203.554 65.61 203.925 65.4082C204.303 65.1999 204.615 64.9167 204.863 64.5586C205.11 64.2005 205.295 63.7904 205.419 63.3281C205.549 62.8594 205.614 62.3613 205.614 61.834V61.6094C205.614 61.0885 205.549 60.597 205.419 60.1348C205.295 59.666 205.107 59.2526 204.853 58.8945C204.605 58.5299 204.293 58.2435 203.915 58.0352C203.544 57.8268 203.108 57.7227 202.607 57.7227C202.112 57.7227 201.676 57.8268 201.298 58.0352C200.927 58.2435 200.614 58.5299 200.361 58.8945C200.113 59.2526 199.928 59.666 199.804 60.1348C199.68 60.597 199.618 61.0885 199.618 61.6094ZM216.171 64.5977L219.764 56.4336H221.503L216.796 67H215.546L210.858 56.4336H212.596L216.171 64.5977ZM212.069 56.4336V67H210.262V56.4336H212.069ZM220.214 67V56.4336H222.03V67H220.214ZM231.414 64.5977L235.008 56.4336H236.746L232.039 67H230.789L226.102 56.4336H227.84L231.414 64.5977ZM227.313 56.4336V67H225.506V56.4336H227.313ZM235.457 67V56.4336H237.274V67H235.457ZM243.553 65.9062L246.492 56.4336H248.426L244.188 68.6309C244.09 68.8913 243.96 69.1712 243.797 69.4707C243.641 69.7767 243.439 70.0664 243.191 70.3398C242.944 70.6133 242.645 70.8346 242.293 71.0039C241.948 71.1797 241.535 71.2676 241.053 71.2676C240.91 71.2676 240.727 71.248 240.506 71.209C240.285 71.1699 240.128 71.1374 240.037 71.1113L240.027 69.6465C240.079 69.653 240.161 69.6595 240.271 69.666C240.389 69.679 240.47 69.6855 240.516 69.6855C240.926 69.6855 241.274 69.6302 241.561 69.5195C241.847 69.4154 242.088 69.2363 242.283 68.9824C242.485 68.735 242.658 68.3932 242.801 67.957L243.553 65.9062ZM241.395 56.4336L244.139 64.6367L244.607 66.541L243.309 67.2051L239.422 56.4336H241.395ZM257.625 61.0137V62.4785H252.039V61.0137H257.625ZM252.42 56.4336V67H250.613V56.4336H252.42ZM259.089 56.4336V67H257.273V56.4336H259.089ZM264.353 64.1387L269.226 56.4336H271.042V67H269.226V59.2949L264.353 67H262.556V56.4336H264.353V64.1387ZM276.305 56.4336V67H274.499V56.4336H276.305ZM283.239 56.4336L278.229 62.4883H275.7L275.427 60.9062H277.497L281.042 56.4336H283.239ZM281.296 67L277.409 62.2148L278.571 60.9062L283.591 67H281.296ZM291.793 65.1934V59.7539C291.793 59.3372 291.709 58.9759 291.539 58.6699C291.377 58.3574 291.129 58.1165 290.797 57.9473C290.465 57.778 290.055 57.6934 289.567 57.6934C289.111 57.6934 288.711 57.7715 288.366 57.9277C288.027 58.084 287.76 58.2891 287.565 58.543C287.376 58.7969 287.282 59.0703 287.282 59.3633H285.475C285.475 58.9857 285.573 58.6113 285.768 58.2402C285.963 57.8691 286.243 57.5339 286.608 57.2344C286.979 56.9284 287.422 56.6875 287.936 56.5117C288.457 56.3294 289.036 56.2383 289.674 56.2383C290.442 56.2383 291.12 56.3685 291.705 56.6289C292.298 56.8893 292.76 57.2832 293.092 57.8105C293.431 58.3314 293.6 58.9857 293.6 59.7734V64.6953C293.6 65.0469 293.629 65.4212 293.688 65.8184C293.753 66.2155 293.847 66.5573 293.971 66.8438V67H292.086C291.995 66.7917 291.924 66.515 291.871 66.1699C291.819 65.8184 291.793 65.4928 291.793 65.1934ZM292.106 60.5938L292.125 61.8633H290.299C289.785 61.8633 289.326 61.9056 288.922 61.9902C288.519 62.0684 288.18 62.1888 287.907 62.3516C287.633 62.5143 287.425 62.7194 287.282 62.9668C287.138 63.2077 287.067 63.4909 287.067 63.8164C287.067 64.1484 287.142 64.4512 287.291 64.7246C287.441 64.998 287.666 65.2161 287.965 65.3789C288.271 65.5352 288.646 65.6133 289.088 65.6133C289.642 65.6133 290.13 65.4961 290.553 65.2617C290.976 65.0273 291.312 64.7409 291.559 64.4023C291.813 64.0638 291.95 63.735 291.969 63.416L292.741 64.2852C292.695 64.5586 292.571 64.8613 292.37 65.1934C292.168 65.5254 291.898 65.8444 291.559 66.1504C291.227 66.4499 290.83 66.7005 290.368 66.9023C289.912 67.0977 289.398 67.1953 288.825 67.1953C288.108 67.1953 287.48 67.0553 286.94 66.7754C286.406 66.4954 285.989 66.1211 285.69 65.6523C285.397 65.1771 285.25 64.6465 285.25 64.0605C285.25 63.4941 285.361 62.9961 285.582 62.5664C285.804 62.1302 286.123 61.7689 286.539 61.4824C286.956 61.1895 287.457 60.9681 288.043 60.8184C288.629 60.6686 289.284 60.5938 290.006 60.5938H292.106ZM296.998 67V56.4336H298.805V65.5156H303.668V56.4336H305.484V67H296.998ZM306.734 65.5156L306.559 70.1348H304.947V67H303.57V65.5156H306.734ZM311.05 64.1387L315.923 56.4336H317.74V67H315.923V59.2949L311.05 67H309.254V56.4336H311.05V64.1387ZM320.562 61.834V61.6094C320.562 60.8477 320.672 60.1413 320.894 59.4902C321.115 58.8327 321.434 58.263 321.851 57.7812C322.267 57.293 322.772 56.9154 323.364 56.6484C323.957 56.375 324.621 56.2383 325.357 56.2383C326.099 56.2383 326.766 56.375 327.359 56.6484C327.958 56.9154 328.465 57.293 328.882 57.7812C329.305 58.263 329.627 58.8327 329.849 59.4902C330.07 60.1413 330.181 60.8477 330.181 61.6094V61.834C330.181 62.5957 330.07 63.3021 329.849 63.9531C329.627 64.6042 329.305 65.1738 328.882 65.6621C328.465 66.1439 327.961 66.5215 327.368 66.7949C326.782 67.0618 326.118 67.1953 325.376 67.1953C324.634 67.1953 323.967 67.0618 323.374 66.7949C322.782 66.5215 322.274 66.1439 321.851 65.6621C321.434 65.1738 321.115 64.6042 320.894 63.9531C320.672 63.3021 320.562 62.5957 320.562 61.834ZM322.368 61.6094V61.834C322.368 62.3613 322.43 62.8594 322.554 63.3281C322.678 63.7904 322.863 64.2005 323.111 64.5586C323.364 64.9167 323.68 65.1999 324.058 65.4082C324.435 65.61 324.875 65.7109 325.376 65.7109C325.871 65.7109 326.304 65.61 326.675 65.4082C327.053 65.1999 327.365 64.9167 327.613 64.5586C327.86 64.2005 328.045 63.7904 328.169 63.3281C328.299 62.8594 328.364 62.3613 328.364 61.834V61.6094C328.364 61.0885 328.299 60.597 328.169 60.1348C328.045 59.666 327.857 59.2526 327.603 58.8945C327.355 58.5299 327.043 58.2435 326.665 58.0352C326.294 57.8268 325.858 57.7227 325.357 57.7227C324.862 57.7227 324.426 57.8268 324.048 58.0352C323.677 58.2435 323.364 58.5299 323.111 58.8945C322.863 59.2526 322.678 59.666 322.554 60.1348C322.43 60.597 322.368 61.0885 322.368 61.6094ZM340.014 61.0137V62.4785H334.429V61.0137H340.014ZM334.809 56.4336V67H333.003V56.4336H334.809ZM341.479 56.4336V67H339.663V56.4336H341.479ZM351.957 61.0137V62.4785H346.371V61.0137H351.957ZM346.752 56.4336V67H344.946V56.4336H346.752ZM353.422 56.4336V67H351.606V56.4336H353.422ZM358.217 60.0664H361.391C362.243 60.0664 362.963 60.2161 363.549 60.5156C364.135 60.8086 364.577 61.2155 364.877 61.7363C365.183 62.2507 365.336 62.8366 365.336 63.4941C365.336 63.9824 365.251 64.4414 365.082 64.8711C364.913 65.2943 364.659 65.6654 364.32 65.9844C363.988 66.3034 363.575 66.554 363.08 66.7363C362.592 66.9121 362.029 67 361.391 67H356.898V56.4336H358.705V65.5156H361.391C361.911 65.5156 362.328 65.4212 362.641 65.2324C362.953 65.0436 363.178 64.7995 363.314 64.5C363.451 64.2005 363.52 63.888 363.52 63.5625C363.52 63.2435 363.451 62.931 363.314 62.625C363.178 62.319 362.953 62.0651 362.641 61.8633C362.328 61.6549 361.911 61.5508 361.391 61.5508H358.217V60.0664ZM369.096 56.4336V67H367.289V56.4336H369.096ZM373.88 56.4336L376.195 60.2812L378.539 56.4336H380.658L377.201 61.6484L380.765 67H378.675L376.234 63.0352L373.793 67H371.693L375.248 61.6484L371.8 56.4336H373.88ZM123.684 80.4336V91H121.867V80.4336H123.684ZM127.229 80.4336V81.8984H118.391V80.4336H127.229ZM133.009 91.1953C132.274 91.1953 131.606 91.0716 131.007 90.8242C130.415 90.5703 129.904 90.2155 129.474 89.7598C129.051 89.304 128.726 88.7637 128.498 88.1387C128.27 87.5137 128.156 86.8301 128.156 86.0879V85.6777C128.156 84.8184 128.283 84.0534 128.537 83.3828C128.791 82.7057 129.136 82.1328 129.572 81.6641C130.008 81.1953 130.503 80.8405 131.056 80.5996C131.61 80.3587 132.183 80.2383 132.775 80.2383C133.53 80.2383 134.181 80.3685 134.728 80.6289C135.282 80.8893 135.734 81.2539 136.086 81.7227C136.437 82.1849 136.698 82.7318 136.867 83.3633C137.036 83.9883 137.121 84.6719 137.121 85.4141V86.2246H129.23V84.75H135.314V84.6133C135.288 84.1445 135.19 83.6888 135.021 83.2461C134.858 82.8034 134.598 82.4388 134.24 82.1523C133.882 81.8659 133.393 81.7227 132.775 81.7227C132.365 81.7227 131.987 81.8105 131.642 81.9863C131.297 82.1556 131.001 82.4095 130.754 82.748C130.506 83.0866 130.314 83.5 130.177 83.9883C130.041 84.4766 129.972 85.0397 129.972 85.6777V86.0879C129.972 86.5892 130.041 87.0612 130.177 87.5039C130.321 87.9401 130.526 88.3242 130.793 88.6562C131.066 88.9883 131.395 89.2487 131.779 89.4375C132.17 89.6263 132.612 89.7207 133.107 89.7207C133.745 89.7207 134.285 89.5905 134.728 89.3301C135.171 89.0697 135.558 88.7214 135.89 88.2852L136.984 89.1543C136.756 89.4993 136.466 89.8281 136.115 90.1406C135.763 90.4531 135.33 90.707 134.816 90.9023C134.308 91.0977 133.706 91.1953 133.009 91.1953ZM140.851 80.4336L143.165 84.2812L145.509 80.4336H147.628L144.171 85.6484L147.736 91H145.646L143.204 87.0352L140.763 91H138.663L142.218 85.6484L138.771 80.4336H140.851ZM157.12 85.0137V86.4785H151.534V85.0137H157.12ZM151.915 80.4336V91H150.108V80.4336H151.915ZM158.585 80.4336V91H156.768V80.4336H158.585ZM161.416 85.834V85.6094C161.416 84.8477 161.527 84.1413 161.748 83.4902C161.97 82.8327 162.289 82.263 162.705 81.7812C163.122 81.293 163.627 80.9154 164.219 80.6484C164.812 80.375 165.476 80.2383 166.211 80.2383C166.954 80.2383 167.621 80.375 168.213 80.6484C168.812 80.9154 169.32 81.293 169.737 81.7812C170.16 82.263 170.482 82.8327 170.704 83.4902C170.925 84.1413 171.036 84.8477 171.036 85.6094V85.834C171.036 86.5957 170.925 87.3021 170.704 87.9531C170.482 88.6042 170.16 89.1738 169.737 89.6621C169.32 90.1439 168.815 90.5215 168.223 90.7949C167.637 91.0618 166.973 91.1953 166.231 91.1953C165.489 91.1953 164.821 91.0618 164.229 90.7949C163.636 90.5215 163.129 90.1439 162.705 89.6621C162.289 89.1738 161.97 88.6042 161.748 87.9531C161.527 87.3021 161.416 86.5957 161.416 85.834ZM163.223 85.6094V85.834C163.223 86.3613 163.285 86.8594 163.409 87.3281C163.532 87.7904 163.718 88.2005 163.965 88.5586C164.219 88.9167 164.535 89.1999 164.912 89.4082C165.29 89.61 165.73 89.7109 166.231 89.7109C166.726 89.7109 167.159 89.61 167.53 89.4082C167.907 89.1999 168.22 88.9167 168.467 88.5586C168.715 88.2005 168.9 87.7904 169.024 87.3281C169.154 86.8594 169.219 86.3613 169.219 85.834V85.6094C169.219 85.0885 169.154 84.597 169.024 84.1348C168.9 83.666 168.711 83.2526 168.457 82.8945C168.21 82.5299 167.898 82.2435 167.52 82.0352C167.149 81.8268 166.713 81.7227 166.211 81.7227C165.717 81.7227 165.28 81.8268 164.903 82.0352C164.532 82.2435 164.219 82.5299 163.965 82.8945C163.718 83.2526 163.532 83.666 163.409 84.1348C163.285 84.597 163.223 85.0885 163.223 85.6094ZM180.605 80.4336V81.9277H175.498V80.4336H180.605ZM182.197 80.4336V91H180.391V80.4336H182.197ZM175.059 80.4336H176.875L176.602 85.5312C176.556 86.319 176.481 87.0156 176.377 87.6211C176.279 88.2201 176.143 88.7344 175.967 89.1641C175.798 89.5938 175.583 89.9453 175.322 90.2188C175.068 90.4857 174.762 90.6842 174.404 90.8145C174.046 90.9382 173.633 91 173.164 91H172.598V89.4082L172.988 89.3789C173.268 89.3594 173.506 89.2943 173.701 89.1836C173.903 89.0729 174.072 88.9102 174.209 88.6953C174.346 88.474 174.456 88.1908 174.541 87.8457C174.632 87.5007 174.701 87.0905 174.746 86.6152C174.798 86.14 174.837 85.5866 174.863 84.9551L175.059 80.4336ZM185.029 85.834V85.6094C185.029 84.8477 185.14 84.1413 185.361 83.4902C185.582 82.8327 185.901 82.263 186.318 81.7812C186.735 81.293 187.239 80.9154 187.832 80.6484C188.424 80.375 189.088 80.2383 189.824 80.2383C190.566 80.2383 191.233 80.375 191.826 80.6484C192.425 80.9154 192.933 81.293 193.349 81.7812C193.772 82.263 194.095 82.8327 194.316 83.4902C194.537 84.1413 194.648 84.8477 194.648 85.6094V85.834C194.648 86.5957 194.537 87.3021 194.316 87.9531C194.095 88.6042 193.772 89.1738 193.349 89.6621C192.933 90.1439 192.428 90.5215 191.836 90.7949C191.25 91.0618 190.586 91.1953 189.843 91.1953C189.101 91.1953 188.434 91.0618 187.841 90.7949C187.249 90.5215 186.741 90.1439 186.318 89.6621C185.901 89.1738 185.582 88.6042 185.361 87.9531C185.14 87.3021 185.029 86.5957 185.029 85.834ZM186.836 85.6094V85.834C186.836 86.3613 186.897 86.8594 187.021 87.3281C187.145 87.7904 187.33 88.2005 187.578 88.5586C187.832 88.9167 188.147 89.1999 188.525 89.4082C188.903 89.61 189.342 89.7109 189.843 89.7109C190.338 89.7109 190.771 89.61 191.142 89.4082C191.52 89.1999 191.832 88.9167 192.08 88.5586C192.327 88.2005 192.513 87.7904 192.636 87.3281C192.767 86.8594 192.832 86.3613 192.832 85.834V85.6094C192.832 85.0885 192.767 84.597 192.636 84.1348C192.513 83.666 192.324 83.2526 192.07 82.8945C191.823 82.5299 191.51 82.2435 191.132 82.0352C190.761 81.8268 190.325 81.7227 189.824 81.7227C189.329 81.7227 188.893 81.8268 188.515 82.0352C188.144 82.2435 187.832 82.5299 187.578 82.8945C187.33 83.2526 187.145 83.666 187.021 84.1348C186.897 84.597 186.836 85.0885 186.836 85.6094ZM204.14 80.4336V81.9277H199.257V91H197.45V80.4336H204.14ZM208.065 88.1387L212.938 80.4336H214.755V91H212.938V83.2949L208.065 91H206.268V80.4336H208.065V88.1387ZM220.008 88.1387L224.881 80.4336H226.698V91H224.881V83.2949L220.008 91H218.211V80.4336H220.008V88.1387ZM223.895 76.6055H225.36C225.36 77.1133 225.243 77.5658 225.008 77.9629C224.774 78.3535 224.439 78.6595 224.002 78.8809C223.566 79.1022 223.049 79.2129 222.45 79.2129C221.545 79.2129 220.829 78.972 220.301 78.4902C219.78 78.002 219.52 77.3737 219.52 76.6055H220.985C220.985 76.9896 221.095 77.3281 221.317 77.6211C221.538 77.9141 221.916 78.0605 222.45 78.0605C222.97 78.0605 223.342 77.9141 223.563 77.6211C223.784 77.3281 223.895 76.9896 223.895 76.6055Z" fill="#0061FF"/>
</svg>
