<svg width="297" height="92" viewBox="0 0 297 92" fill="none" xmlns="http://www.w3.org/2000/svg">
<path d="M45.0658 55.1269C40.2421 55.1269 36.3184 51.2052 36.3184 46.3842C36.3184 41.5632 40.2421 37.6416 45.0658 37.6416C49.8895 37.6416 53.8133 41.5632 53.8133 46.3842C53.8133 51.2052 49.8903 55.1269 45.0658 55.1269ZM45.0658 43.7448C43.6098 43.7448 42.4249 44.929 42.4249 46.3842C42.4249 47.8394 43.6098 49.0237 45.0658 49.0237C46.5218 49.0237 47.7067 47.8394 47.7067 46.3842C47.7067 44.929 46.5227 43.7448 45.0658 43.7448Z" fill="#0061FF"/>
<path d="M39.1389 63.4518C38.742 63.4518 38.3394 63.3743 37.9499 63.2103C31.1713 60.3439 26.791 53.7388 26.791 46.3828C26.791 44.6975 28.1588 43.332 29.8451 43.332C31.5314 43.332 32.8976 44.6975 32.8976 46.3828C32.8976 51.2814 35.8153 55.6804 40.3295 57.5894C41.8827 58.2456 42.6095 60.0362 41.9521 61.5886C41.4597 62.7532 40.3287 63.4518 39.1389 63.4518Z" fill="#0061FF"/>
<path d="M52.4471 62.7407C51.3741 62.7407 50.3337 62.1743 49.7752 61.1704C48.9569 59.6972 49.4869 57.8397 50.9617 57.0211C53.0743 55.8474 54.7761 54.0935 55.8834 51.9479C56.6567 50.4502 58.499 49.8634 59.9974 50.6355C61.4959 51.4076 62.0839 53.2488 61.3105 54.7464C59.6496 57.9645 57.096 60.5966 53.9276 62.3563C53.4581 62.6166 52.9493 62.7407 52.4471 62.7407Z" fill="#0061FF"/>
<path d="M59.389 44.271C58.1387 44.271 56.9661 43.4981 56.517 42.2543C54.7817 37.4504 50.1809 34.2225 45.0682 34.2225C42.0925 34.2225 39.2286 35.308 37.0042 37.2782C35.7417 38.3963 33.8121 38.2796 32.6942 37.0186C31.5754 35.7569 31.6922 33.8283 32.9538 32.7102C36.2962 29.75 40.5981 28.1201 45.0682 28.1201C52.7459 28.1201 59.6552 32.9672 62.261 40.182C62.8334 41.7678 62.0111 43.5168 60.4252 44.089C60.0831 44.2122 59.7327 44.271 59.389 44.271Z" fill="#0061FF"/>
<path d="M45.9978 73.0229C29.758 73.0229 14.6247 63.7644 4.47511 47.6209C3.85205 46.6285 3.85205 45.3667 4.47511 44.3743C6.94534 40.4453 9.76181 36.8624 12.8478 33.7267C14.0294 32.5237 15.9631 32.5082 17.1651 33.69C18.368 34.8718 18.3843 36.8036 17.2019 38.005C14.8533 40.3931 12.6722 43.0758 10.7034 45.9984C19.6729 59.3221 32.4446 66.9197 45.9978 66.9197C52.7029 66.9197 59.1819 65.1013 65.2549 61.5151C66.706 60.6582 68.5793 61.1389 69.4368 62.59C70.2942 64.0411 69.8132 65.9126 68.3613 66.7695C61.3344 70.9188 53.8094 73.0229 45.9978 73.0229Z" fill="#0061FF"/>
<path d="M76.7174 59.4359C75.9376 59.4359 75.1585 59.1396 74.5624 58.5471C73.3677 57.3572 73.3645 55.4245 74.5542 54.2313C76.9943 51.782 79.2554 49.0185 81.2912 45.9979C72.3208 32.6734 59.55 25.0759 45.9968 25.0759C39.1847 25.0759 32.6102 26.9506 26.4571 30.6494C25.0125 31.5169 23.136 31.0509 22.2671 29.6063C21.3982 28.1625 21.8653 26.287 23.3099 25.4186C30.4274 21.1412 38.0602 18.9727 45.9968 18.9727C62.2358 18.9727 77.3699 28.2311 87.5195 44.3746C88.1433 45.3671 88.1433 46.6288 87.5195 47.6213C84.9782 51.6637 82.0719 55.3364 78.8806 58.5381C78.2845 59.1364 77.5005 59.4359 76.7174 59.4359Z" fill="#0061FF"/>
<path d="M121.613 25.7383L128.615 14.7812H130.5V29H128.615V18.0332L121.613 29H119.738V14.7812H121.613V25.7383ZM141.222 23.0137V24.4785H135.636V23.0137H141.222ZM136.017 18.4336V29H134.211V18.4336H136.017ZM142.687 18.4336V29H140.871V18.4336H142.687ZM150.226 27.7109C150.655 27.7109 151.053 27.623 151.417 27.4473C151.782 27.2715 152.081 27.0306 152.316 26.7246C152.55 26.4121 152.683 26.0573 152.716 25.6602H154.435C154.402 26.2852 154.191 26.8678 153.8 27.4082C153.416 27.9421 152.911 28.375 152.286 28.707C151.661 29.0326 150.974 29.1953 150.226 29.1953C149.432 29.1953 148.738 29.0553 148.146 28.7754C147.56 28.4954 147.071 28.1113 146.681 27.623C146.297 27.1348 146.007 26.5749 145.812 25.9434C145.623 25.3053 145.529 24.6315 145.529 23.9219V23.5117C145.529 22.8021 145.623 22.1315 145.812 21.5C146.007 20.862 146.297 20.2988 146.681 19.8105C147.071 19.3223 147.56 18.9382 148.146 18.6582C148.738 18.3783 149.432 18.2383 150.226 18.2383C151.053 18.2383 151.775 18.4076 152.394 18.7461C153.012 19.0781 153.497 19.5339 153.849 20.1133C154.207 20.6862 154.402 21.3372 154.435 22.0664H152.716C152.683 21.6302 152.56 21.2363 152.345 20.8848C152.137 20.5332 151.85 20.2533 151.486 20.0449C151.127 19.8301 150.708 19.7227 150.226 19.7227C149.672 19.7227 149.207 19.8333 148.829 20.0547C148.458 20.2695 148.162 20.5625 147.941 20.9336C147.726 21.2982 147.57 21.7051 147.472 22.1543C147.381 22.597 147.335 23.0495 147.335 23.5117V23.9219C147.335 24.3841 147.381 24.8398 147.472 25.2891C147.563 25.7383 147.716 26.1452 147.931 26.5098C148.152 26.8743 148.448 27.1673 148.82 27.3887C149.197 27.6035 149.666 27.7109 150.226 27.7109ZM161.173 18.4336V29H159.356V18.4336H161.173ZM164.718 18.4336V19.8984H155.88V18.4336H164.718ZM168.848 26.1387L173.721 18.4336H175.537V29H173.721V21.2949L168.848 29H167.051V18.4336H168.848V26.1387ZM183.145 18.4336V29H181.328V18.4336H183.145ZM186.689 18.4336V19.8984H177.852V18.4336H186.689ZM191.953 27.9062L194.892 18.4336H196.826L192.588 30.6309C192.49 30.8913 192.36 31.1712 192.197 31.4707C192.041 31.7767 191.839 32.0664 191.591 32.3398C191.344 32.6133 191.045 32.8346 190.693 33.0039C190.348 33.1797 189.935 33.2676 189.453 33.2676C189.31 33.2676 189.127 33.248 188.906 33.209C188.685 33.1699 188.528 33.1374 188.437 33.1113L188.427 31.6465C188.479 31.653 188.561 31.6595 188.671 31.666C188.789 31.679 188.87 31.6855 188.916 31.6855C189.326 31.6855 189.674 31.6302 189.961 31.5195C190.247 31.4154 190.488 31.2363 190.683 30.9824C190.885 30.735 191.058 30.3932 191.201 29.957L191.953 27.9062ZM189.795 18.4336L192.539 26.6367L193.007 28.541L191.709 29.2051L187.822 18.4336H189.795ZM203.163 18.4336V29H201.347V18.4336H203.163ZM206.708 18.4336V19.8984H197.87V18.4336H206.708ZM121.34 42.4336V53H119.533V42.4336H121.34ZM128.273 42.4336L123.264 48.4883H120.734L120.461 46.9062H122.531L126.076 42.4336H128.273ZM126.33 53L122.443 48.2148L123.605 46.9062L128.625 53H126.33ZM132.55 50.1387L137.423 42.4336H139.24V53H137.423V45.2949L132.55 53H130.754V42.4336H132.55V50.1387ZM149.318 37.834H150.802C150.802 38.472 150.704 38.9798 150.509 39.3574C150.314 39.7285 150.047 40.015 149.708 40.2168C149.376 40.4186 148.999 40.5716 148.575 40.6758C148.159 40.7799 147.726 40.8809 147.277 40.9785C146.717 41.0957 146.196 41.2812 145.714 41.5352C145.239 41.7826 144.829 42.1341 144.484 42.5898C144.145 43.0456 143.894 43.638 143.732 44.3672C143.575 45.0964 143.533 45.998 143.605 47.0723V47.9707H142.12V47.0723C142.12 45.8678 142.234 44.8164 142.462 43.918C142.696 43.0195 143.025 42.2611 143.448 41.6426C143.872 41.0241 144.373 40.5326 144.952 40.168C145.538 39.8034 146.183 39.5527 146.886 39.416C147.394 39.3184 147.83 39.2142 148.195 39.1035C148.559 38.9863 148.836 38.8301 149.025 38.6348C149.22 38.4395 149.318 38.1725 149.318 37.834ZM147.179 43.0391C147.869 43.0391 148.484 43.1595 149.025 43.4004C149.565 43.6413 150.024 43.9766 150.402 44.4062C150.779 44.8359 151.066 45.3438 151.261 45.9297C151.463 46.5091 151.564 47.1406 151.564 47.8242V48.0391C151.564 48.7747 151.456 49.4583 151.241 50.0898C151.033 50.7148 150.724 51.2617 150.314 51.7305C149.91 52.1927 149.415 52.554 148.829 52.8145C148.25 53.0749 147.589 53.2051 146.847 53.2051C146.105 53.2051 145.441 53.0749 144.855 52.8145C144.275 52.554 143.78 52.1927 143.37 51.7305C142.96 51.2617 142.648 50.7148 142.433 50.0898C142.224 49.4583 142.12 48.7747 142.12 48.0391V47.8242C142.12 47.6615 142.15 47.502 142.208 47.3457C142.267 47.1895 142.338 47.0299 142.423 46.8672C142.514 46.7044 142.596 46.5319 142.667 46.3496C142.908 45.7637 143.237 45.2201 143.654 44.7188C144.077 44.2174 144.581 43.8138 145.167 43.5078C145.76 43.1953 146.43 43.0391 147.179 43.0391ZM146.827 44.5137C146.163 44.5137 145.616 44.6667 145.187 44.9727C144.764 45.2786 144.448 45.6855 144.239 46.1934C144.031 46.6947 143.927 47.2383 143.927 47.8242V48.0391C143.927 48.5339 143.986 49.0026 144.103 49.4453C144.22 49.888 144.396 50.2819 144.63 50.627C144.871 50.9655 145.174 51.2324 145.538 51.4277C145.909 51.623 146.346 51.7207 146.847 51.7207C147.348 51.7207 147.781 51.623 148.146 51.4277C148.51 51.2324 148.81 50.9655 149.044 50.627C149.279 50.2819 149.454 49.888 149.571 49.4453C149.689 49.0026 149.747 48.5339 149.747 48.0391V47.8242C149.747 47.3815 149.689 46.9616 149.571 46.5645C149.454 46.1673 149.275 45.8158 149.034 45.5098C148.8 45.2038 148.497 44.9629 148.126 44.7871C147.762 44.6048 147.329 44.5137 146.827 44.5137ZM158.399 53.1953C157.664 53.1953 156.996 53.0716 156.397 52.8242C155.805 52.5703 155.294 52.2155 154.864 51.7598C154.441 51.304 154.115 50.7637 153.888 50.1387C153.66 49.5137 153.546 48.8301 153.546 48.0879V47.6777C153.546 46.8184 153.673 46.0534 153.927 45.3828C154.18 44.7057 154.526 44.1328 154.962 43.6641C155.398 43.1953 155.893 42.8405 156.446 42.5996C156.999 42.3587 157.572 42.2383 158.165 42.2383C158.92 42.2383 159.571 42.3685 160.118 42.6289C160.671 42.8893 161.124 43.2539 161.475 43.7227C161.827 44.1849 162.087 44.7318 162.257 45.3633C162.426 45.9883 162.511 46.6719 162.511 47.4141V48.2246H154.62V46.75H160.704V46.6133C160.678 46.1445 160.58 45.6888 160.411 45.2461C160.248 44.8034 159.988 44.4388 159.63 44.1523C159.272 43.8659 158.783 43.7227 158.165 43.7227C157.755 43.7227 157.377 43.8105 157.032 43.9863C156.687 44.1556 156.391 44.4095 156.143 44.748C155.896 45.0866 155.704 45.5 155.567 45.9883C155.43 46.4766 155.362 47.0397 155.362 47.6777V48.0879C155.362 48.5892 155.43 49.0612 155.567 49.5039C155.71 49.9401 155.915 50.3242 156.182 50.6562C156.456 50.9883 156.785 51.2487 157.169 51.4375C157.559 51.6263 158.002 51.7207 158.497 51.7207C159.135 51.7207 159.675 51.5905 160.118 51.3301C160.561 51.0697 160.948 50.7214 161.28 50.2852L162.374 51.1543C162.146 51.4993 161.856 51.8281 161.505 52.1406C161.153 52.4531 160.72 52.707 160.206 52.9023C159.698 53.0977 159.096 53.1953 158.399 53.1953ZM166.827 44.4648V57.0625H165.01V42.4336H166.67L166.827 44.4648ZM173.946 47.6289V47.834C173.946 48.6022 173.855 49.3151 173.672 49.9727C173.49 50.6237 173.223 51.1901 172.871 51.6719C172.526 52.1536 172.1 52.528 171.592 52.7949C171.084 53.0618 170.502 53.1953 169.844 53.1953C169.174 53.1953 168.581 53.0846 168.067 52.8633C167.552 52.6419 167.116 52.3197 166.758 51.8965C166.4 51.4733 166.114 50.9655 165.899 50.373C165.69 49.7806 165.547 49.1133 165.469 48.3711V47.2773C165.547 46.4961 165.694 45.7962 165.909 45.1777C166.123 44.5592 166.407 44.0319 166.758 43.5957C167.116 43.153 167.549 42.8177 168.057 42.5898C168.565 42.3555 169.151 42.2383 169.815 42.2383C170.479 42.2383 171.068 42.3685 171.582 42.6289C172.097 42.8828 172.53 43.2474 172.881 43.7227C173.233 44.1979 173.496 44.7676 173.672 45.4316C173.855 46.0892 173.946 46.8216 173.946 47.6289ZM172.129 47.834V47.6289C172.129 47.1016 172.074 46.6068 171.963 46.1445C171.853 45.6758 171.68 45.2656 171.446 44.9141C171.218 44.556 170.925 44.276 170.567 44.0742C170.209 43.8659 169.782 43.7617 169.287 43.7617C168.832 43.7617 168.435 43.8398 168.096 43.9961C167.764 44.1523 167.481 44.3639 167.246 44.6309C167.012 44.8913 166.82 45.1908 166.67 45.5293C166.527 45.8613 166.42 46.2064 166.348 46.5645V49.0938C166.478 49.5495 166.661 49.9792 166.895 50.3828C167.129 50.7799 167.442 51.1022 167.832 51.3496C168.223 51.5905 168.715 51.7109 169.307 51.7109C169.795 51.7109 170.215 51.61 170.567 51.4082C170.925 51.1999 171.218 50.9167 171.446 50.5586C171.68 50.2005 171.853 49.7904 171.963 49.3281C172.074 48.8594 172.129 48.3613 172.129 47.834ZM188.799 47.9023V48.1074C188.799 48.8496 188.717 49.5332 188.555 50.1582C188.392 50.7767 188.148 51.3138 187.822 51.7695C187.503 52.2253 187.106 52.5801 186.631 52.834C186.156 53.0814 185.605 53.2051 184.98 53.2051C184.466 53.2051 184.014 53.1367 183.623 53C183.232 52.8568 182.9 52.6517 182.627 52.3848C182.36 52.1178 182.145 51.7988 181.982 51.4277C181.826 51.0501 181.719 50.627 181.66 50.1582V45.4707C181.719 44.9694 181.826 44.5202 181.982 44.123C182.145 43.7259 182.36 43.3874 182.627 43.1074C182.9 42.8275 183.229 42.6126 183.613 42.4629C183.997 42.3132 184.447 42.2383 184.961 42.2383C185.469 42.2383 185.924 42.3294 186.328 42.5117C186.738 42.6875 187.096 42.9414 187.402 43.2734C187.715 43.6055 187.972 44.0059 188.174 44.4746C188.382 44.9368 188.538 45.4577 188.643 46.0371C188.747 46.6165 188.799 47.2383 188.799 47.9023ZM186.992 48.1074V47.9023C186.992 47.4466 186.96 47.0137 186.895 46.6035C186.836 46.1868 186.742 45.806 186.611 45.4609C186.488 45.1094 186.325 44.8034 186.123 44.543C185.921 44.2826 185.677 44.0807 185.391 43.9375C185.111 43.7943 184.788 43.7227 184.424 43.7227C184.033 43.7227 183.708 43.7715 183.447 43.8691C183.193 43.9668 182.995 44.097 182.852 44.2598C182.708 44.416 182.604 44.582 182.539 44.7578V50.8809C182.617 51.0241 182.731 51.1608 182.881 51.291C183.031 51.4147 183.232 51.5189 183.486 51.6035C183.74 51.6816 184.059 51.7207 184.443 51.7207C184.899 51.7207 185.286 51.6296 185.605 51.4473C185.931 51.2585 186.195 50.998 186.396 50.666C186.605 50.334 186.755 49.9499 186.846 49.5137C186.943 49.0775 186.992 48.6087 186.992 48.1074ZM176.25 48.1074V47.9023C176.25 47.2383 176.302 46.6165 176.406 46.0371C176.51 45.4577 176.667 44.9368 176.875 44.4746C177.083 44.0059 177.34 43.6055 177.646 43.2734C177.959 42.9414 178.317 42.6875 178.721 42.5117C179.131 42.3294 179.59 42.2383 180.098 42.2383C180.599 42.2383 181.035 42.3132 181.406 42.4629C181.784 42.6126 182.103 42.8275 182.363 43.1074C182.624 43.3874 182.832 43.7259 182.988 44.123C183.145 44.5202 183.255 44.9694 183.32 45.4707V49.9727C183.262 50.4674 183.154 50.9134 182.998 51.3105C182.842 51.7077 182.633 52.0495 182.373 52.3359C182.113 52.6159 181.79 52.8307 181.406 52.9805C181.029 53.1302 180.586 53.2051 180.078 53.2051C179.453 53.2051 178.903 53.0814 178.428 52.834C177.952 52.5801 177.552 52.2253 177.227 51.7695C176.908 51.3138 176.663 50.7767 176.494 50.1582C176.331 49.5332 176.25 48.8496 176.25 48.1074ZM178.066 47.9023V48.1074C178.066 48.6087 178.109 49.0775 178.193 49.5137C178.285 49.9499 178.424 50.334 178.613 50.666C178.809 50.998 179.062 51.2585 179.375 51.4473C179.688 51.6296 180.072 51.7207 180.527 51.7207C180.918 51.7207 181.24 51.6719 181.494 51.5742C181.748 51.4766 181.95 51.3496 182.1 51.1934C182.249 51.0371 182.363 50.8743 182.441 50.7051V44.7578C182.376 44.582 182.269 44.416 182.119 44.2598C181.976 44.097 181.777 43.9668 181.523 43.8691C181.27 43.7715 180.944 43.7227 180.547 43.7227C180.091 43.7227 179.704 43.8333 179.385 44.0547C179.066 44.276 178.809 44.5788 178.613 44.9629C178.424 45.347 178.285 45.793 178.193 46.3008C178.109 46.8021 178.066 47.3359 178.066 47.9023ZM181.543 57.0625V38H183.359V57.0625H181.543ZM193.515 50.1387L198.388 42.4336H200.205V53H198.388V45.2949L193.515 53H191.718V42.4336H193.515V50.1387ZM207.45 47.9512H205.507V46.8379H207.304C207.805 46.8379 208.202 46.776 208.495 46.6523C208.788 46.5221 208.997 46.3431 209.12 46.1152C209.244 45.8874 209.306 45.6204 209.306 45.3145C209.306 45.041 209.234 44.7839 209.091 44.543C208.954 44.2956 208.733 44.097 208.427 43.9473C208.121 43.791 207.711 43.7129 207.196 43.7129C206.78 43.7129 206.402 43.7878 206.064 43.9375C205.725 44.0807 205.455 44.2793 205.253 44.5332C205.058 44.7806 204.96 45.0605 204.96 45.373H203.154C203.154 44.7285 203.336 44.1751 203.7 43.7129C204.071 43.2441 204.563 42.8828 205.175 42.6289C205.793 42.375 206.467 42.248 207.196 42.248C207.808 42.248 208.355 42.3164 208.837 42.4531C209.325 42.5833 209.739 42.7786 210.077 43.0391C210.416 43.293 210.673 43.612 210.849 43.9961C211.031 44.3737 211.122 44.8132 211.122 45.3145C211.122 45.6725 211.038 46.0111 210.868 46.3301C210.699 46.6491 210.455 46.9323 210.136 47.1797C209.817 47.4206 209.43 47.6094 208.974 47.7461C208.525 47.8828 208.017 47.9512 207.45 47.9512ZM205.507 47.2676H207.45C208.082 47.2676 208.639 47.3294 209.12 47.4531C209.602 47.5703 210.006 47.7461 210.331 47.9805C210.657 48.2148 210.901 48.5046 211.064 48.8496C211.233 49.1882 211.318 49.5788 211.318 50.0215C211.318 50.5163 211.217 50.9622 211.015 51.3594C210.82 51.75 210.54 52.082 210.175 52.3555C209.81 52.6289 209.374 52.8372 208.866 52.9805C208.365 53.1237 207.808 53.1953 207.196 53.1953C206.513 53.1953 205.849 53.0781 205.204 52.8438C204.56 52.6094 204.029 52.248 203.613 51.7598C203.196 51.265 202.988 50.6367 202.988 49.875H204.794C204.794 50.194 204.895 50.4967 205.097 50.7832C205.299 51.0697 205.579 51.3008 205.937 51.4766C206.301 51.6523 206.721 51.7402 207.196 51.7402C207.704 51.7402 208.127 51.6621 208.466 51.5059C208.805 51.3496 209.058 51.1413 209.228 50.8809C209.404 50.6204 209.491 50.3372 209.491 50.0312C209.491 49.6341 209.413 49.3151 209.257 49.0742C209.101 48.8333 208.86 48.6576 208.534 48.5469C208.215 48.4297 207.805 48.3711 207.304 48.3711H205.507V47.2676ZM216.014 50.1387L220.887 42.4336H222.704V53H220.887V45.2949L216.014 53H214.218V42.4336H216.014V50.1387ZM233.973 42.4336V53H232.166V42.4336H233.973ZM233.358 47.2871V48.7715C232.993 48.9082 232.622 49.0319 232.245 49.1426C231.873 49.2467 231.48 49.3314 231.063 49.3965C230.653 49.4551 230.207 49.4844 229.725 49.4844C228.892 49.4844 228.169 49.3411 227.557 49.0547C226.945 48.7617 226.473 48.3223 226.141 47.7363C225.809 47.1439 225.643 46.3984 225.643 45.5V42.4141H227.45V45.5C227.45 46.0859 227.537 46.5612 227.713 46.9258C227.889 47.2904 228.146 47.5605 228.485 47.7363C228.823 47.9056 229.237 47.9902 229.725 47.9902C230.194 47.9902 230.633 47.9609 231.043 47.9023C231.46 47.8372 231.857 47.7526 232.235 47.6484C232.619 47.5443 232.993 47.4238 233.358 47.2871ZM241.668 53.1953C240.932 53.1953 240.265 53.0716 239.666 52.8242C239.074 52.5703 238.562 52.2155 238.133 51.7598C237.71 51.304 237.384 50.7637 237.156 50.1387C236.928 49.5137 236.814 48.8301 236.814 48.0879V47.6777C236.814 46.8184 236.941 46.0534 237.195 45.3828C237.449 44.7057 237.794 44.1328 238.23 43.6641C238.667 43.1953 239.161 42.8405 239.715 42.5996C240.268 42.3587 240.841 42.2383 241.434 42.2383C242.189 42.2383 242.84 42.3685 243.387 42.6289C243.94 42.8893 244.393 43.2539 244.744 43.7227C245.096 44.1849 245.356 44.7318 245.525 45.3633C245.695 45.9883 245.779 46.6719 245.779 47.4141V48.2246H237.889V46.75H243.973V46.6133C243.947 46.1445 243.849 45.6888 243.68 45.2461C243.517 44.8034 243.257 44.4388 242.898 44.1523C242.54 43.8659 242.052 43.7227 241.434 43.7227C241.023 43.7227 240.646 43.8105 240.301 43.9863C239.956 44.1556 239.66 44.4095 239.412 44.748C239.165 45.0866 238.973 45.5 238.836 45.9883C238.699 46.4766 238.631 47.0397 238.631 47.6777V48.0879C238.631 48.5892 238.699 49.0612 238.836 49.5039C238.979 49.9401 239.184 50.3242 239.451 50.6562C239.725 50.9883 240.053 51.2487 240.438 51.4375C240.828 51.6263 241.271 51.7207 241.766 51.7207C242.404 51.7207 242.944 51.5905 243.387 51.3301C243.829 51.0697 244.217 50.7214 244.549 50.2852L245.643 51.1543C245.415 51.4993 245.125 51.8281 244.773 52.1406C244.422 52.4531 243.989 52.707 243.475 52.9023C242.967 53.0977 242.365 53.1953 241.668 53.1953ZM252.517 51.7109C252.947 51.7109 253.344 51.623 253.709 51.4473C254.073 51.2715 254.373 51.0306 254.607 50.7246C254.841 50.4121 254.975 50.0573 255.007 49.6602H256.726C256.694 50.2852 256.482 50.8678 256.091 51.4082C255.707 51.9421 255.203 52.375 254.578 52.707C253.953 53.0326 253.266 53.1953 252.517 53.1953C251.723 53.1953 251.03 53.0553 250.437 52.7754C249.851 52.4954 249.363 52.1113 248.972 51.623C248.588 51.1348 248.298 50.5749 248.103 49.9434C247.914 49.3053 247.82 48.6315 247.82 47.9219V47.5117C247.82 46.8021 247.914 46.1315 248.103 45.5C248.298 44.862 248.588 44.2988 248.972 43.8105C249.363 43.3223 249.851 42.9382 250.437 42.6582C251.03 42.3783 251.723 42.2383 252.517 42.2383C253.344 42.2383 254.067 42.4076 254.685 42.7461C255.304 43.0781 255.789 43.5339 256.14 44.1133C256.498 44.6862 256.694 45.3372 256.726 46.0664H255.007C254.975 45.6302 254.851 45.2363 254.636 44.8848C254.428 44.5332 254.142 44.2533 253.777 44.0449C253.419 43.8301 252.999 43.7227 252.517 43.7227C251.964 43.7227 251.498 43.8333 251.121 44.0547C250.75 44.2695 250.453 44.5625 250.232 44.9336C250.017 45.2982 249.861 45.7051 249.763 46.1543C249.672 46.597 249.627 47.0495 249.627 47.5117V47.9219C249.627 48.3841 249.672 48.8398 249.763 49.2891C249.854 49.7383 250.007 50.1452 250.222 50.5098C250.444 50.8743 250.74 51.1673 251.111 51.3887C251.489 51.6035 251.957 51.7109 252.517 51.7109ZM261.12 42.4336V53H259.314V42.4336H261.12ZM268.054 42.4336L263.044 48.4883H260.515L260.241 46.9062H262.312L265.857 42.4336H268.054ZM266.111 53L262.224 48.2148L263.386 46.9062L268.405 53H266.111ZM272.331 50.1387L277.204 42.4336H279.02V53H277.204V45.2949L272.331 53H270.534V42.4336H272.331V50.1387ZM283.541 42.4336L285.856 46.2812L288.2 42.4336H290.319L286.862 47.6484L290.426 53H288.336L285.895 49.0352L283.454 53H281.354L284.909 47.6484L281.461 42.4336H283.541ZM123.605 75.7109C124.035 75.7109 124.432 75.623 124.797 75.4473C125.161 75.2715 125.461 75.0306 125.695 74.7246C125.93 74.4121 126.063 74.0573 126.096 73.6602H127.814C127.782 74.2852 127.57 74.8678 127.18 75.4082C126.796 75.9421 126.291 76.375 125.666 76.707C125.041 77.0326 124.354 77.1953 123.605 77.1953C122.811 77.1953 122.118 77.0553 121.525 76.7754C120.939 76.4954 120.451 76.1113 120.061 75.623C119.676 75.1348 119.387 74.5749 119.191 73.9434C119.003 73.3053 118.908 72.6315 118.908 71.9219V71.5117C118.908 70.8021 119.003 70.1315 119.191 69.5C119.387 68.862 119.676 68.2988 120.061 67.8105C120.451 67.3223 120.939 66.9382 121.525 66.6582C122.118 66.3783 122.811 66.2383 123.605 66.2383C124.432 66.2383 125.155 66.4076 125.773 66.7461C126.392 67.0781 126.877 67.5339 127.229 68.1133C127.587 68.6862 127.782 69.3372 127.814 70.0664H126.096C126.063 69.6302 125.939 69.2363 125.725 68.8848C125.516 68.5332 125.23 68.2533 124.865 68.0449C124.507 67.8301 124.087 67.7227 123.605 67.7227C123.052 67.7227 122.587 67.8333 122.209 68.0547C121.838 68.2695 121.542 68.5625 121.32 68.9336C121.105 69.2982 120.949 69.7051 120.852 70.1543C120.76 70.597 120.715 71.0495 120.715 71.5117V71.9219C120.715 72.3841 120.76 72.8398 120.852 73.2891C120.943 73.7383 121.096 74.1452 121.311 74.5098C121.532 74.8743 121.828 75.1673 122.199 75.3887C122.577 75.6035 123.046 75.7109 123.605 75.7109ZM132.199 74.1387L137.072 66.4336H138.888V77H137.072V69.2949L132.199 77H130.402V66.4336H132.199V74.1387ZM146.417 75.7109C146.847 75.7109 147.244 75.623 147.609 75.4473C147.973 75.2715 148.273 75.0306 148.507 74.7246C148.741 74.4121 148.875 74.0573 148.907 73.6602H150.626C150.594 74.2852 150.382 74.8678 149.991 75.4082C149.607 75.9421 149.103 76.375 148.478 76.707C147.853 77.0326 147.166 77.1953 146.417 77.1953C145.623 77.1953 144.93 77.0553 144.337 76.7754C143.751 76.4954 143.263 76.1113 142.872 75.623C142.488 75.1348 142.198 74.5749 142.003 73.9434C141.814 73.3053 141.72 72.6315 141.72 71.9219V71.5117C141.72 70.8021 141.814 70.1315 142.003 69.5C142.198 68.862 142.488 68.2988 142.872 67.8105C143.263 67.3223 143.751 66.9382 144.337 66.6582C144.93 66.3783 145.623 66.2383 146.417 66.2383C147.244 66.2383 147.967 66.4076 148.585 66.7461C149.204 67.0781 149.689 67.5339 150.04 68.1133C150.398 68.6862 150.594 69.3372 150.626 70.0664H148.907C148.875 69.6302 148.751 69.2363 148.536 68.8848C148.328 68.5332 148.042 68.2533 147.677 68.0449C147.319 67.8301 146.899 67.7227 146.417 67.7227C145.864 67.7227 145.398 67.8333 145.021 68.0547C144.65 68.2695 144.353 68.5625 144.132 68.9336C143.917 69.2982 143.761 69.7051 143.663 70.1543C143.572 70.597 143.527 71.0495 143.527 71.5117V71.9219C143.527 72.3841 143.572 72.8398 143.663 73.2891C143.754 73.7383 143.907 74.1452 144.122 74.5098C144.344 74.8743 144.64 75.1673 145.011 75.3887C145.389 75.6035 145.857 75.7109 146.417 75.7109ZM157.364 66.4336V77H155.548V66.4336H157.364ZM160.909 66.4336V67.8984H152.071V66.4336H160.909ZM166.69 77.1953C165.954 77.1953 165.287 77.0716 164.688 76.8242C164.095 76.5703 163.584 76.2155 163.155 75.7598C162.732 75.304 162.406 74.7637 162.178 74.1387C161.95 73.5137 161.836 72.8301 161.836 72.0879V71.6777C161.836 70.8184 161.963 70.0534 162.217 69.3828C162.471 68.7057 162.816 68.1328 163.252 67.6641C163.689 67.1953 164.183 66.8405 164.737 66.5996C165.29 66.3587 165.863 66.2383 166.455 66.2383C167.211 66.2383 167.862 66.3685 168.409 66.6289C168.962 66.8893 169.414 67.2539 169.766 67.7227C170.118 68.1849 170.378 68.7318 170.547 69.3633C170.717 69.9883 170.801 70.6719 170.801 71.4141V72.2246H162.911V70.75H168.995V70.6133C168.968 70.1445 168.871 69.6888 168.702 69.2461C168.539 68.8034 168.278 68.4388 167.92 68.1523C167.562 67.8659 167.074 67.7227 166.455 67.7227C166.045 67.7227 165.668 67.8105 165.323 67.9863C164.978 68.1556 164.681 68.4095 164.434 68.748C164.187 69.0866 163.995 69.5 163.858 69.9883C163.721 70.4766 163.653 71.0397 163.653 71.6777V72.0879C163.653 72.5892 163.721 73.0612 163.858 73.5039C164.001 73.9401 164.206 74.3242 164.473 74.6562C164.746 74.9883 165.075 75.2487 165.459 75.4375C165.85 75.6263 166.293 75.7207 166.787 75.7207C167.426 75.7207 167.966 75.5905 168.409 75.3301C168.851 75.0697 169.239 74.7214 169.571 74.2852L170.664 75.1543C170.437 75.4993 170.147 75.8281 169.795 76.1406C169.444 76.4531 169.011 76.707 168.496 76.9023C167.989 77.0977 167.386 77.1953 166.69 77.1953ZM179.385 74.5977L182.979 66.4336H184.717L180.01 77H178.76L174.072 66.4336H175.811L179.385 74.5977ZM175.283 66.4336V77H173.477V66.4336H175.283ZM183.428 77V66.4336H185.244V77H183.428Z" fill="#0061FF"/>
</svg>
