<svg width="327" height="96" viewBox="0 0 327 96" fill="none" xmlns="http://www.w3.org/2000/svg">
<path d="M77.6364 8.99072H14.3632C8.77836 8.99072 4.23519 13.5267 4.23519 19.1008V57.3362L4.23438 57.3402C4.23438 57.3402 4.23519 57.3426 4.23519 57.3443V60.7353C4.23519 66.3102 8.77836 70.8454 14.3632 70.8454H34.5325V76.3322C34.5325 76.4235 34.5527 76.5092 34.56 76.599H34.522C34.522 78.7724 32.7522 80.539 30.5757 80.5407H30.0217C28.2325 80.5407 26.7818 81.9888 26.7818 83.7748C26.7818 85.5609 28.2325 87.009 30.0217 87.009H30.5733H30.5782H61.777H61.781H61.7835H61.8661C63.6553 87.009 65.106 85.5609 65.106 83.7748C65.106 81.9888 63.6553 80.5407 61.8661 80.5407H61.7786C59.603 80.539 57.8324 78.7724 57.8324 76.599C57.8324 74.8129 56.3817 73.3648 54.5925 73.3648C52.8032 73.3648 51.3525 74.8129 51.3525 76.599C51.3525 77.9945 51.6336 79.3238 52.1342 80.5407H40.2202C40.7207 79.3238 41.0018 77.9945 41.0018 76.599H40.9856C40.9929 76.5092 41.0123 76.4235 41.0123 76.3322V70.8454H77.6364C83.2212 70.8454 87.7644 66.3102 87.7644 60.7353V19.1008C87.7644 13.5267 83.2212 8.99072 77.6364 8.99072ZM81.2845 60.7353C81.2845 62.7429 79.6476 64.377 77.6364 64.377H14.3632C12.3512 64.377 10.715 62.7429 10.715 60.7353V59.7659H72.9312C74.7205 59.7659 76.1719 58.3177 76.1719 56.5317C76.1719 54.7456 74.7205 53.2975 72.9312 53.2975H10.715V19.1008C10.715 17.0932 12.3512 15.4591 14.3632 15.4591H77.6364C79.6476 15.4591 81.2845 17.0932 81.2845 19.1008V60.7353V60.7353Z" fill="#0061FF"/>
<path d="M59.3386 31.8547L39.4536 20.3944C38.4517 19.8171 37.2165 19.8171 36.2137 20.3944C35.211 20.9717 34.5938 22.0398 34.5938 23.1952L34.5946 46.1151C34.5946 47.2697 35.2118 48.3386 36.2145 48.9159C36.7151 49.2046 37.2748 49.3493 37.8345 49.3493C38.3934 49.3493 38.9531 49.2046 39.4544 48.9159L44.5824 45.9599C46.1319 45.0672 46.6633 43.0895 45.769 41.542C44.874 39.996 42.8928 39.4632 41.3425 40.359L41.0744 40.5135L41.0736 28.7976L51.238 34.6556L51.0064 34.789C49.4561 35.6816 48.9255 37.6601 49.8198 39.2069C50.7148 40.7536 52.696 41.2856 54.2455 40.3906L59.3378 37.4564C60.3398 36.8791 60.9578 35.8118 60.9578 34.6556C60.9586 33.5001 60.3406 32.4329 59.3386 31.8547Z" fill="#0061FF"/>
<path d="M121.613 15.7383L128.615 4.78125H130.5V19H128.615V8.0332L121.613 19H119.738V4.78125H121.613V15.7383ZM141.222 13.0137V14.4785H135.636V13.0137H141.222ZM136.017 8.43359V19H134.211V8.43359H136.017ZM142.687 8.43359V19H140.871V8.43359H142.687ZM150.226 17.7109C150.655 17.7109 151.053 17.623 151.417 17.4473C151.782 17.2715 152.081 17.0306 152.316 16.7246C152.55 16.4121 152.683 16.0573 152.716 15.6602H154.435C154.402 16.2852 154.191 16.8678 153.8 17.4082C153.416 17.9421 152.911 18.375 152.286 18.707C151.661 19.0326 150.974 19.1953 150.226 19.1953C149.432 19.1953 148.738 19.0553 148.146 18.7754C147.56 18.4954 147.071 18.1113 146.681 17.623C146.297 17.1348 146.007 16.5749 145.812 15.9434C145.623 15.3053 145.529 14.6315 145.529 13.9219V13.5117C145.529 12.8021 145.623 12.1315 145.812 11.5C146.007 10.862 146.297 10.2988 146.681 9.81055C147.071 9.32227 147.56 8.93815 148.146 8.6582C148.738 8.37826 149.432 8.23828 150.226 8.23828C151.053 8.23828 151.775 8.40755 152.394 8.74609C153.012 9.07812 153.497 9.53385 153.849 10.1133C154.207 10.6862 154.402 11.3372 154.435 12.0664H152.716C152.683 11.6302 152.56 11.2363 152.345 10.8848C152.137 10.5332 151.85 10.2533 151.486 10.0449C151.127 9.83008 150.708 9.72266 150.226 9.72266C149.672 9.72266 149.207 9.83333 148.829 10.0547C148.458 10.2695 148.162 10.5625 147.941 10.9336C147.726 11.2982 147.57 11.7051 147.472 12.1543C147.381 12.597 147.335 13.0495 147.335 13.5117V13.9219C147.335 14.3841 147.381 14.8398 147.472 15.2891C147.563 15.7383 147.716 16.1452 147.931 16.5098C148.152 16.8743 148.448 17.1673 148.82 17.3887C149.197 17.6035 149.666 17.7109 150.226 17.7109ZM161.173 8.43359V19H159.356V8.43359H161.173ZM164.718 8.43359V9.89844H155.88V8.43359H164.718ZM168.848 16.1387L173.721 8.43359H175.537V19H173.721V11.2949L168.848 19H167.051V8.43359H168.848V16.1387ZM183.145 8.43359V19H181.328V8.43359H183.145ZM186.689 8.43359V9.89844H177.852V8.43359H186.689ZM191.953 17.9062L194.892 8.43359H196.826L192.588 20.6309C192.49 20.8913 192.36 21.1712 192.197 21.4707C192.041 21.7767 191.839 22.0664 191.591 22.3398C191.344 22.6133 191.045 22.8346 190.693 23.0039C190.348 23.1797 189.935 23.2676 189.453 23.2676C189.31 23.2676 189.127 23.248 188.906 23.209C188.685 23.1699 188.528 23.1374 188.437 23.1113L188.427 21.6465C188.479 21.653 188.561 21.6595 188.671 21.666C188.789 21.679 188.87 21.6855 188.916 21.6855C189.326 21.6855 189.674 21.6302 189.961 21.5195C190.247 21.4154 190.488 21.2363 190.683 20.9824C190.885 20.735 191.058 20.3932 191.201 19.957L191.953 17.9062ZM189.795 8.43359L192.539 16.6367L193.007 18.541L191.709 19.2051L187.822 8.43359H189.795ZM203.163 8.43359V19H201.347V8.43359H203.163ZM206.708 8.43359V9.89844H197.87V8.43359H206.708ZM121.33 40.1387L126.203 32.4336H128.02V43H126.203V35.2949L121.33 43H119.533V32.4336H121.33V40.1387ZM138.488 37.0137V38.4785H132.902V37.0137H138.488ZM133.283 32.4336V43H131.476V32.4336H133.283ZM139.953 32.4336V43H138.136V32.4336H139.953ZM155.411 37.9023V38.1074C155.411 38.8496 155.33 39.5332 155.167 40.1582C155.004 40.7767 154.76 41.3138 154.435 41.7695C154.116 42.2253 153.719 42.5801 153.243 42.834C152.768 43.0814 152.218 43.2051 151.593 43.2051C151.079 43.2051 150.626 43.1367 150.236 43C149.845 42.8568 149.513 42.6517 149.239 42.3848C148.973 42.1178 148.758 41.7988 148.595 41.4277C148.439 41.0501 148.331 40.627 148.273 40.1582V35.4707C148.331 34.9694 148.439 34.5202 148.595 34.123C148.758 33.7259 148.973 33.3874 149.239 33.1074C149.513 32.8275 149.842 32.6126 150.226 32.4629C150.61 32.3132 151.059 32.2383 151.573 32.2383C152.081 32.2383 152.537 32.3294 152.941 32.5117C153.351 32.6875 153.709 32.9414 154.015 33.2734C154.327 33.6055 154.585 34.0059 154.786 34.4746C154.995 34.9368 155.151 35.4577 155.255 36.0371C155.359 36.6165 155.411 37.2383 155.411 37.9023ZM153.605 38.1074V37.9023C153.605 37.4466 153.572 37.0137 153.507 36.6035C153.448 36.1868 153.354 35.806 153.224 35.4609C153.1 35.1094 152.937 34.8034 152.736 34.543C152.534 34.2826 152.29 34.0807 152.003 33.9375C151.723 33.7943 151.401 33.7227 151.036 33.7227C150.646 33.7227 150.32 33.7715 150.06 33.8691C149.806 33.9668 149.607 34.097 149.464 34.2598C149.321 34.416 149.217 34.582 149.152 34.7578V40.8809C149.23 41.0241 149.344 41.1608 149.493 41.291C149.643 41.4147 149.845 41.5189 150.099 41.6035C150.353 41.6816 150.672 41.7207 151.056 41.7207C151.512 41.7207 151.899 41.6296 152.218 41.4473C152.543 41.2585 152.807 40.998 153.009 40.666C153.217 40.334 153.367 39.9499 153.458 39.5137C153.556 39.0775 153.605 38.6087 153.605 38.1074ZM142.862 38.1074V37.9023C142.862 37.2383 142.915 36.6165 143.019 36.0371C143.123 35.4577 143.279 34.9368 143.487 34.4746C143.696 34.0059 143.953 33.6055 144.259 33.2734C144.571 32.9414 144.93 32.6875 145.333 32.5117C145.743 32.3294 146.202 32.2383 146.71 32.2383C147.211 32.2383 147.648 32.3132 148.019 32.4629C148.396 32.6126 148.715 32.8275 148.976 33.1074C149.236 33.3874 149.445 33.7259 149.601 34.123C149.757 34.5202 149.868 34.9694 149.933 35.4707V39.9727C149.874 40.4674 149.767 40.9134 149.611 41.3105C149.454 41.7077 149.246 42.0495 148.986 42.3359C148.725 42.6159 148.403 42.8307 148.019 42.9805C147.641 43.1302 147.198 43.2051 146.691 43.2051C146.066 43.2051 145.515 43.0814 145.04 42.834C144.565 42.5801 144.165 42.2253 143.839 41.7695C143.52 41.3138 143.276 40.7767 143.107 40.1582C142.944 39.5332 142.862 38.8496 142.862 38.1074ZM144.679 37.9023V38.1074C144.679 38.6087 144.721 39.0775 144.806 39.5137C144.897 39.9499 145.037 40.334 145.226 40.666C145.421 40.998 145.675 41.2585 145.987 41.4473C146.3 41.6296 146.684 41.7207 147.14 41.7207C147.53 41.7207 147.853 41.6719 148.107 41.5742C148.361 41.4766 148.562 41.3496 148.712 41.1934C148.862 41.0371 148.976 40.8743 149.054 40.7051V34.7578C148.989 34.582 148.881 34.416 148.732 34.2598C148.588 34.097 148.39 33.9668 148.136 33.8691C147.882 33.7715 147.557 33.7227 147.159 33.7227C146.704 33.7227 146.316 33.8333 145.997 34.0547C145.678 34.276 145.421 34.5788 145.226 34.9629C145.037 35.347 144.897 35.793 144.806 36.3008C144.721 36.8021 144.679 37.3359 144.679 37.9023ZM148.155 47.0625V28H149.972V47.0625H148.155ZM157.696 37.834V37.6094C157.696 36.8477 157.807 36.1413 158.028 35.4902C158.249 34.8327 158.568 34.263 158.985 33.7812C159.402 33.293 159.906 32.9154 160.499 32.6484C161.091 32.375 161.755 32.2383 162.491 32.2383C163.233 32.2383 163.901 32.375 164.493 32.6484C165.092 32.9154 165.6 33.293 166.016 33.7812C166.44 34.263 166.762 34.8327 166.983 35.4902C167.205 36.1413 167.315 36.8477 167.315 37.6094V37.834C167.315 38.5957 167.205 39.3021 166.983 39.9531C166.762 40.6042 166.44 41.1738 166.016 41.6621C165.6 42.1439 165.095 42.5215 164.503 42.7949C163.917 43.0618 163.253 43.1953 162.511 43.1953C161.768 43.1953 161.101 43.0618 160.509 42.7949C159.916 42.5215 159.408 42.1439 158.985 41.6621C158.568 41.1738 158.249 40.6042 158.028 39.9531C157.807 39.3021 157.696 38.5957 157.696 37.834ZM159.503 37.6094V37.834C159.503 38.3613 159.565 38.8594 159.688 39.3281C159.812 39.7904 159.998 40.2005 160.245 40.5586C160.499 40.9167 160.815 41.1999 161.192 41.4082C161.57 41.61 162.009 41.7109 162.511 41.7109C163.005 41.7109 163.438 41.61 163.809 41.4082C164.187 41.1999 164.499 40.9167 164.747 40.5586C164.994 40.2005 165.18 39.7904 165.304 39.3281C165.434 38.8594 165.499 38.3613 165.499 37.834V37.6094C165.499 37.0885 165.434 36.597 165.304 36.1348C165.18 35.666 164.991 35.2526 164.737 34.8945C164.49 34.5299 164.177 34.2435 163.8 34.0352C163.429 33.8268 162.992 33.7227 162.491 33.7227C161.996 33.7227 161.56 33.8268 161.182 34.0352C160.811 34.2435 160.499 34.5299 160.245 34.8945C159.998 35.2526 159.812 35.666 159.688 36.1348C159.565 36.597 159.503 37.0885 159.503 37.6094ZM171.787 34.4648V47.0625H169.971V32.4336H171.631L171.787 34.4648ZM178.907 37.6289V37.834C178.907 38.6022 178.815 39.3151 178.633 39.9727C178.451 40.6237 178.184 41.1901 177.832 41.6719C177.487 42.1536 177.061 42.528 176.553 42.7949C176.045 43.0618 175.463 43.1953 174.805 43.1953C174.135 43.1953 173.542 43.0846 173.028 42.8633C172.513 42.6419 172.077 42.3197 171.719 41.8965C171.361 41.4733 171.075 40.9655 170.86 40.373C170.651 39.7806 170.508 39.1133 170.43 38.3711V37.2773C170.508 36.4961 170.655 35.7962 170.87 35.1777C171.084 34.5592 171.368 34.0319 171.719 33.5957C172.077 33.153 172.51 32.8177 173.018 32.5898C173.526 32.3555 174.112 32.2383 174.776 32.2383C175.44 32.2383 176.029 32.3685 176.543 32.6289C177.058 32.8828 177.491 33.2474 177.842 33.7227C178.194 34.1979 178.457 34.7676 178.633 35.4316C178.815 36.0892 178.907 36.8216 178.907 37.6289ZM177.09 37.834V37.6289C177.09 37.1016 177.035 36.6068 176.924 36.1445C176.814 35.6758 176.641 35.2656 176.407 34.9141C176.179 34.556 175.886 34.276 175.528 34.0742C175.17 33.8659 174.743 33.7617 174.248 33.7617C173.793 33.7617 173.396 33.8398 173.057 33.9961C172.725 34.1523 172.442 34.3639 172.207 34.6309C171.973 34.8913 171.781 35.1908 171.631 35.5293C171.488 35.8613 171.381 36.2064 171.309 36.5645V39.0938C171.439 39.5495 171.621 39.9792 171.856 40.3828C172.09 40.7799 172.403 41.1022 172.793 41.3496C173.184 41.5905 173.676 41.7109 174.268 41.7109C174.756 41.7109 175.176 41.61 175.528 41.4082C175.886 41.1999 176.179 40.9167 176.407 40.5586C176.641 40.2005 176.814 39.7904 176.924 39.3281C177.035 38.8594 177.09 38.3613 177.09 37.834ZM187.686 40.5977L191.279 32.4336H193.018L188.311 43H187.061L182.373 32.4336H184.111L187.686 40.5977ZM183.584 32.4336V43H181.777V32.4336H183.584ZM191.729 43V32.4336H193.545V43H191.729ZM203.086 41.1934V35.7539C203.086 35.3372 203.001 34.9759 202.832 34.6699C202.669 34.3574 202.421 34.1165 202.089 33.9473C201.757 33.778 201.347 33.6934 200.859 33.6934C200.403 33.6934 200.003 33.7715 199.658 33.9277C199.319 34.084 199.052 34.2891 198.857 34.543C198.668 34.7969 198.574 35.0703 198.574 35.3633H196.767C196.767 34.9857 196.865 34.6113 197.06 34.2402C197.255 33.8691 197.535 33.5339 197.9 33.2344C198.271 32.9284 198.714 32.6875 199.228 32.5117C199.749 32.3294 200.328 32.2383 200.966 32.2383C201.735 32.2383 202.412 32.3685 202.998 32.6289C203.59 32.8893 204.052 33.2832 204.384 33.8105C204.723 34.3314 204.892 34.9857 204.892 35.7734V40.6953C204.892 41.0469 204.921 41.4212 204.98 41.8184C205.045 42.2155 205.14 42.5573 205.263 42.8438V43H203.379C203.287 42.7917 203.216 42.515 203.164 42.1699C203.112 41.8184 203.086 41.4928 203.086 41.1934ZM203.398 36.5938L203.418 37.8633H201.591C201.077 37.8633 200.618 37.9056 200.214 37.9902C199.811 38.0684 199.472 38.1888 199.199 38.3516C198.925 38.5143 198.717 38.7194 198.574 38.9668C198.431 39.2077 198.359 39.4909 198.359 39.8164C198.359 40.1484 198.434 40.4512 198.584 40.7246C198.733 40.998 198.958 41.2161 199.257 41.3789C199.563 41.5352 199.938 41.6133 200.38 41.6133C200.934 41.6133 201.422 41.4961 201.845 41.2617C202.268 41.0273 202.604 40.7409 202.851 40.4023C203.105 40.0638 203.242 39.735 203.261 39.416L204.033 40.2852C203.987 40.5586 203.864 40.8613 203.662 41.1934C203.46 41.5254 203.19 41.8444 202.851 42.1504C202.519 42.4499 202.122 42.7005 201.66 42.9023C201.204 43.0977 200.69 43.1953 200.117 43.1953C199.401 43.1953 198.772 43.0553 198.232 42.7754C197.698 42.4954 197.282 42.1211 196.982 41.6523C196.689 41.1771 196.543 40.6465 196.543 40.0605C196.543 39.4941 196.653 38.9961 196.875 38.5664C197.096 38.1302 197.415 37.7689 197.832 37.4824C198.248 37.1895 198.75 36.9681 199.336 36.8184C199.921 36.6686 200.576 36.5938 201.298 36.5938H203.398ZM208.29 43V32.4336H210.097V41.5156H214.96V32.4336H216.777V43H208.29ZM218.027 41.5156L217.851 46.1348H216.239V43H214.863V41.5156H218.027ZM222.343 40.1387L227.216 32.4336H229.032V43H227.216V35.2949L222.343 43H220.546V32.4336H222.343V40.1387ZM231.854 37.834V37.6094C231.854 36.8477 231.965 36.1413 232.186 35.4902C232.407 34.8327 232.726 34.263 233.143 33.7812C233.56 33.293 234.064 32.9154 234.657 32.6484C235.249 32.375 235.913 32.2383 236.649 32.2383C237.391 32.2383 238.058 32.375 238.651 32.6484C239.25 32.9154 239.758 33.293 240.174 33.7812C240.597 34.263 240.92 34.8327 241.141 35.4902C241.362 36.1413 241.473 36.8477 241.473 37.6094V37.834C241.473 38.5957 241.362 39.3021 241.141 39.9531C240.92 40.6042 240.597 41.1738 240.174 41.6621C239.758 42.1439 239.253 42.5215 238.661 42.7949C238.075 43.0618 237.411 43.1953 236.668 43.1953C235.926 43.1953 235.259 43.0618 234.666 42.7949C234.074 42.5215 233.566 42.1439 233.143 41.6621C232.726 41.1738 232.407 40.6042 232.186 39.9531C231.965 39.3021 231.854 38.5957 231.854 37.834ZM233.661 37.6094V37.834C233.661 38.3613 233.722 38.8594 233.846 39.3281C233.97 39.7904 234.155 40.2005 234.403 40.5586C234.657 40.9167 234.972 41.1999 235.35 41.4082C235.728 41.61 236.167 41.7109 236.668 41.7109C237.163 41.7109 237.596 41.61 237.967 41.4082C238.345 41.1999 238.657 40.9167 238.905 40.5586C239.152 40.2005 239.338 39.7904 239.461 39.3281C239.592 38.8594 239.657 38.3613 239.657 37.834V37.6094C239.657 37.0885 239.592 36.597 239.461 36.1348C239.338 35.666 239.149 35.2526 238.895 34.8945C238.648 34.5299 238.335 34.2435 237.957 34.0352C237.586 33.8268 237.15 33.7227 236.649 33.7227C236.154 33.7227 235.718 33.8268 235.34 34.0352C234.969 34.2435 234.657 34.5299 234.403 34.8945C234.155 35.2526 233.97 35.666 233.846 36.1348C233.722 36.597 233.661 37.0885 233.661 37.6094ZM251.307 37.0137V38.4785H245.721V37.0137H251.307ZM246.102 32.4336V43H244.295V32.4336H246.102ZM252.771 32.4336V43H250.955V32.4336H252.771ZM263.25 37.0137V38.4785H257.664V37.0137H263.25ZM258.045 32.4336V43H256.238V32.4336H258.045ZM264.714 32.4336V43H262.898V32.4336H264.714ZM269.509 36.0664H272.683C273.536 36.0664 274.255 36.2161 274.841 36.5156C275.427 36.8086 275.87 37.2155 276.169 37.7363C276.475 38.2507 276.628 38.8366 276.628 39.4941C276.628 39.9824 276.543 40.4414 276.374 40.8711C276.205 41.2943 275.951 41.6654 275.613 41.9844C275.28 42.3034 274.867 42.554 274.372 42.7363C273.884 42.9121 273.321 43 272.683 43H268.191V32.4336H269.997V41.5156H272.683C273.204 41.5156 273.62 41.4212 273.933 41.2324C274.245 41.0436 274.47 40.7995 274.607 40.5C274.743 40.2005 274.812 39.888 274.812 39.5625C274.812 39.2435 274.743 38.931 274.607 38.625C274.47 38.319 274.245 38.0651 273.933 37.8633C273.62 37.6549 273.204 37.5508 272.683 37.5508H269.509V36.0664ZM280.388 32.4336V43H278.581V32.4336H280.388ZM285.173 32.4336L287.487 36.2812L289.831 32.4336H291.95L288.493 37.6484L292.057 43H289.968L287.526 39.0352L285.085 43H282.985L286.54 37.6484L283.093 32.4336H285.173ZM123.684 56.4336V67H121.867V56.4336H123.684ZM127.229 56.4336V57.8984H118.391V56.4336H127.229ZM133.009 67.1953C132.274 67.1953 131.606 67.0716 131.007 66.8242C130.415 66.5703 129.904 66.2155 129.474 65.7598C129.051 65.304 128.726 64.7637 128.498 64.1387C128.27 63.5137 128.156 62.8301 128.156 62.0879V61.6777C128.156 60.8184 128.283 60.0534 128.537 59.3828C128.791 58.7057 129.136 58.1328 129.572 57.6641C130.008 57.1953 130.503 56.8405 131.056 56.5996C131.61 56.3587 132.183 56.2383 132.775 56.2383C133.53 56.2383 134.181 56.3685 134.728 56.6289C135.282 56.8893 135.734 57.2539 136.086 57.7227C136.437 58.1849 136.698 58.7318 136.867 59.3633C137.036 59.9883 137.121 60.6719 137.121 61.4141V62.2246H129.23V60.75H135.314V60.6133C135.288 60.1445 135.19 59.6888 135.021 59.2461C134.858 58.8034 134.598 58.4388 134.24 58.1523C133.882 57.8659 133.393 57.7227 132.775 57.7227C132.365 57.7227 131.987 57.8105 131.642 57.9863C131.297 58.1556 131.001 58.4095 130.754 58.748C130.506 59.0866 130.314 59.5 130.177 59.9883C130.041 60.4766 129.972 61.0397 129.972 61.6777V62.0879C129.972 62.5892 130.041 63.0612 130.177 63.5039C130.321 63.9401 130.526 64.3242 130.793 64.6562C131.066 64.9883 131.395 65.2487 131.779 65.4375C132.17 65.6263 132.612 65.7207 133.107 65.7207C133.745 65.7207 134.285 65.5905 134.728 65.3301C135.171 65.0697 135.558 64.7214 135.89 64.2852L136.984 65.1543C136.756 65.4993 136.466 65.8281 136.115 66.1406C135.763 66.4531 135.33 66.707 134.816 66.9023C134.308 67.0977 133.706 67.1953 133.009 67.1953ZM140.851 56.4336L143.165 60.2812L145.509 56.4336H147.628L144.171 61.6484L147.736 67H145.646L143.204 63.0352L140.763 67H138.663L142.218 61.6484L138.771 56.4336H140.851ZM157.12 61.0137V62.4785H151.534V61.0137H157.12ZM151.915 56.4336V67H150.108V56.4336H151.915ZM158.585 56.4336V67H156.768V56.4336H158.585ZM161.416 61.834V61.6094C161.416 60.8477 161.527 60.1413 161.748 59.4902C161.97 58.8327 162.289 58.263 162.705 57.7812C163.122 57.293 163.627 56.9154 164.219 56.6484C164.812 56.375 165.476 56.2383 166.211 56.2383C166.954 56.2383 167.621 56.375 168.213 56.6484C168.812 56.9154 169.32 57.293 169.737 57.7812C170.16 58.263 170.482 58.8327 170.704 59.4902C170.925 60.1413 171.036 60.8477 171.036 61.6094V61.834C171.036 62.5957 170.925 63.3021 170.704 63.9531C170.482 64.6042 170.16 65.1738 169.737 65.6621C169.32 66.1439 168.815 66.5215 168.223 66.7949C167.637 67.0618 166.973 67.1953 166.231 67.1953C165.489 67.1953 164.821 67.0618 164.229 66.7949C163.636 66.5215 163.129 66.1439 162.705 65.6621C162.289 65.1738 161.97 64.6042 161.748 63.9531C161.527 63.3021 161.416 62.5957 161.416 61.834ZM163.223 61.6094V61.834C163.223 62.3613 163.285 62.8594 163.409 63.3281C163.532 63.7904 163.718 64.2005 163.965 64.5586C164.219 64.9167 164.535 65.1999 164.912 65.4082C165.29 65.61 165.73 65.7109 166.231 65.7109C166.726 65.7109 167.159 65.61 167.53 65.4082C167.907 65.1999 168.22 64.9167 168.467 64.5586C168.715 64.2005 168.9 63.7904 169.024 63.3281C169.154 62.8594 169.219 62.3613 169.219 61.834V61.6094C169.219 61.0885 169.154 60.597 169.024 60.1348C168.9 59.666 168.711 59.2526 168.457 58.8945C168.21 58.5299 167.898 58.2435 167.52 58.0352C167.149 57.8268 166.713 57.7227 166.211 57.7227C165.717 57.7227 165.28 57.8268 164.903 58.0352C164.532 58.2435 164.219 58.5299 163.965 58.8945C163.718 59.2526 163.532 59.666 163.409 60.1348C163.285 60.597 163.223 61.0885 163.223 61.6094ZM180.605 56.4336V57.9277H175.498V56.4336H180.605ZM182.197 56.4336V67H180.391V56.4336H182.197ZM175.059 56.4336H176.875L176.602 61.5312C176.556 62.319 176.481 63.0156 176.377 63.6211C176.279 64.2201 176.143 64.7344 175.967 65.1641C175.798 65.5938 175.583 65.9453 175.322 66.2188C175.068 66.4857 174.762 66.6842 174.404 66.8145C174.046 66.9382 173.633 67 173.164 67H172.598V65.4082L172.988 65.3789C173.268 65.3594 173.506 65.2943 173.701 65.1836C173.903 65.0729 174.072 64.9102 174.209 64.6953C174.346 64.474 174.456 64.1908 174.541 63.8457C174.632 63.5007 174.701 63.0905 174.746 62.6152C174.798 62.14 174.837 61.5866 174.863 60.9551L175.059 56.4336ZM185.029 61.834V61.6094C185.029 60.8477 185.14 60.1413 185.361 59.4902C185.582 58.8327 185.901 58.263 186.318 57.7812C186.735 57.293 187.239 56.9154 187.832 56.6484C188.424 56.375 189.088 56.2383 189.824 56.2383C190.566 56.2383 191.233 56.375 191.826 56.6484C192.425 56.9154 192.933 57.293 193.349 57.7812C193.772 58.263 194.095 58.8327 194.316 59.4902C194.537 60.1413 194.648 60.8477 194.648 61.6094V61.834C194.648 62.5957 194.537 63.3021 194.316 63.9531C194.095 64.6042 193.772 65.1738 193.349 65.6621C192.933 66.1439 192.428 66.5215 191.836 66.7949C191.25 67.0618 190.586 67.1953 189.843 67.1953C189.101 67.1953 188.434 67.0618 187.841 66.7949C187.249 66.5215 186.741 66.1439 186.318 65.6621C185.901 65.1738 185.582 64.6042 185.361 63.9531C185.14 63.3021 185.029 62.5957 185.029 61.834ZM186.836 61.6094V61.834C186.836 62.3613 186.897 62.8594 187.021 63.3281C187.145 63.7904 187.33 64.2005 187.578 64.5586C187.832 64.9167 188.147 65.1999 188.525 65.4082C188.903 65.61 189.342 65.7109 189.843 65.7109C190.338 65.7109 190.771 65.61 191.142 65.4082C191.52 65.1999 191.832 64.9167 192.08 64.5586C192.327 64.2005 192.513 63.7904 192.636 63.3281C192.767 62.8594 192.832 62.3613 192.832 61.834V61.6094C192.832 61.0885 192.767 60.597 192.636 60.1348C192.513 59.666 192.324 59.2526 192.07 58.8945C191.823 58.5299 191.51 58.2435 191.132 58.0352C190.761 57.8268 190.325 57.7227 189.824 57.7227C189.329 57.7227 188.893 57.8268 188.515 58.0352C188.144 58.2435 187.832 58.5299 187.578 58.8945C187.33 59.2526 187.145 59.666 187.021 60.1348C186.897 60.597 186.836 61.0885 186.836 61.6094ZM204.14 56.4336V57.9277H199.257V67H197.45V56.4336H204.14ZM208.065 64.1387L212.938 56.4336H214.755V67H212.938V59.2949L208.065 67H206.268V56.4336H208.065V64.1387ZM220.008 64.1387L224.881 56.4336H226.698V67H224.881V59.2949L220.008 67H218.211V56.4336H220.008V64.1387ZM223.895 52.6055H225.36C225.36 53.1133 225.243 53.5658 225.008 53.9629C224.774 54.3535 224.439 54.6595 224.002 54.8809C223.566 55.1022 223.049 55.2129 222.45 55.2129C221.545 55.2129 220.829 54.972 220.301 54.4902C219.78 54.002 219.52 53.3737 219.52 52.6055H220.985C220.985 52.9896 221.095 53.3281 221.317 53.6211C221.538 53.9141 221.916 54.0605 222.45 54.0605C222.97 54.0605 223.342 53.9141 223.563 53.6211C223.784 53.3281 223.895 52.9896 223.895 52.6055ZM121.33 88.1387L126.203 80.4336H128.02V91H126.203V83.2949L121.33 91H119.533V80.4336H121.33V88.1387ZM143.722 80.4336V81.9277H138.38V80.4336H143.722ZM138.644 80.4336V91H136.837V80.4336H138.644ZM145.323 80.4336V91H143.507V80.4336H145.323ZM150.43 82.4648V95.0625H148.614V80.4336H150.274L150.43 82.4648ZM157.55 85.6289V85.834C157.55 86.6022 157.458 87.3151 157.276 87.9727C157.094 88.6237 156.827 89.1901 156.475 89.6719C156.13 90.1536 155.704 90.528 155.196 90.7949C154.688 91.0618 154.106 91.1953 153.448 91.1953C152.777 91.1953 152.185 91.0846 151.671 90.8633C151.156 90.6419 150.72 90.3197 150.362 89.8965C150.004 89.4733 149.718 88.9655 149.503 88.373C149.294 87.7806 149.151 87.1133 149.073 86.3711V85.2773C149.151 84.4961 149.298 83.7962 149.513 83.1777C149.727 82.5592 150.011 82.0319 150.362 81.5957C150.72 81.153 151.153 80.8177 151.661 80.5898C152.169 80.3555 152.755 80.2383 153.419 80.2383C154.083 80.2383 154.672 80.3685 155.186 80.6289C155.701 80.8828 156.134 81.2474 156.485 81.7227C156.837 82.1979 157.1 82.7676 157.276 83.4316C157.458 84.0892 157.55 84.8216 157.55 85.6289ZM155.733 85.834V85.6289C155.733 85.1016 155.678 84.6068 155.567 84.1445C155.457 83.6758 155.284 83.2656 155.05 82.9141C154.822 82.556 154.529 82.276 154.171 82.0742C153.813 81.8659 153.386 81.7617 152.891 81.7617C152.436 81.7617 152.039 81.8398 151.7 81.9961C151.368 82.1523 151.085 82.3639 150.85 82.6309C150.616 82.8913 150.424 83.1908 150.274 83.5293C150.131 83.8613 150.024 84.2064 149.952 84.5645V87.0938C150.082 87.5495 150.264 87.9792 150.499 88.3828C150.733 88.7799 151.046 89.1022 151.436 89.3496C151.827 89.5905 152.318 89.7109 152.911 89.7109C153.399 89.7109 153.819 89.61 154.171 89.4082C154.529 89.1999 154.822 88.9167 155.05 88.5586C155.284 88.2005 155.457 87.7904 155.567 87.3281C155.678 86.8594 155.733 86.3613 155.733 85.834ZM159.776 85.834V85.6094C159.776 84.8477 159.886 84.1413 160.108 83.4902C160.329 82.8327 160.648 82.263 161.065 81.7812C161.482 81.293 161.986 80.9154 162.579 80.6484C163.171 80.375 163.835 80.2383 164.571 80.2383C165.313 80.2383 165.98 80.375 166.573 80.6484C167.172 80.9154 167.679 81.293 168.096 81.7812C168.519 82.263 168.842 82.8327 169.063 83.4902C169.284 84.1413 169.395 84.8477 169.395 85.6094V85.834C169.395 86.5957 169.284 87.3021 169.063 87.9531C168.842 88.6042 168.519 89.1738 168.096 89.6621C167.679 90.1439 167.175 90.5215 166.582 90.7949C165.996 91.0618 165.332 91.1953 164.59 91.1953C163.848 91.1953 163.181 91.0618 162.588 90.7949C161.996 90.5215 161.488 90.1439 161.065 89.6621C160.648 89.1738 160.329 88.6042 160.108 87.9531C159.886 87.3021 159.776 86.5957 159.776 85.834ZM161.582 85.6094V85.834C161.582 86.3613 161.644 86.8594 161.768 87.3281C161.892 87.7904 162.077 88.2005 162.325 88.5586C162.579 88.9167 162.894 89.1999 163.272 89.4082C163.649 89.61 164.089 89.7109 164.59 89.7109C165.085 89.7109 165.518 89.61 165.889 89.4082C166.267 89.1999 166.579 88.9167 166.827 88.5586C167.074 88.2005 167.26 87.7904 167.383 87.3281C167.513 86.8594 167.579 86.3613 167.579 85.834V85.6094C167.579 85.0885 167.513 84.597 167.383 84.1348C167.26 83.666 167.071 83.2526 166.817 82.8945C166.569 82.5299 166.257 82.2435 165.879 82.0352C165.508 81.8268 165.072 81.7227 164.571 81.7227C164.076 81.7227 163.64 81.8268 163.262 82.0352C162.891 82.2435 162.579 82.5299 162.325 82.8945C162.077 83.2526 161.892 83.666 161.768 84.1348C161.644 84.597 161.582 85.0885 161.582 85.6094ZM178.887 80.4336V81.9277H174.004V91H172.197V80.4336H178.887ZM182.666 82.4648V95.0625H180.849V80.4336H182.509L182.666 82.4648ZM189.785 85.6289V85.834C189.785 86.6022 189.694 87.3151 189.511 87.9727C189.329 88.6237 189.062 89.1901 188.711 89.6719C188.365 90.1536 187.939 90.528 187.431 90.7949C186.923 91.0618 186.341 91.1953 185.683 91.1953C185.013 91.1953 184.42 91.0846 183.906 90.8633C183.392 90.6419 182.955 90.3197 182.597 89.8965C182.239 89.4733 181.953 88.9655 181.738 88.373C181.53 87.7806 181.386 87.1133 181.308 86.3711V85.2773C181.386 84.4961 181.533 83.7962 181.748 83.1777C181.963 82.5592 182.246 82.0319 182.597 81.5957C182.955 81.153 183.388 80.8177 183.896 80.5898C184.404 80.3555 184.99 80.2383 185.654 80.2383C186.318 80.2383 186.907 80.3685 187.421 80.6289C187.936 80.8828 188.369 81.2474 188.72 81.7227C189.072 82.1979 189.336 82.7676 189.511 83.4316C189.694 84.0892 189.785 84.8216 189.785 85.6289ZM187.968 85.834V85.6289C187.968 85.1016 187.913 84.6068 187.802 84.1445C187.692 83.6758 187.519 83.2656 187.285 82.9141C187.057 82.556 186.764 82.276 186.406 82.0742C186.048 81.8659 185.621 81.7617 185.127 81.7617C184.671 81.7617 184.274 81.8398 183.935 81.9961C183.603 82.1523 183.32 82.3639 183.086 82.6309C182.851 82.8913 182.659 83.1908 182.509 83.5293C182.366 83.8613 182.259 84.2064 182.187 84.5645V87.0938C182.317 87.5495 182.5 87.9792 182.734 88.3828C182.968 88.7799 183.281 89.1022 183.671 89.3496C184.062 89.5905 184.554 89.7109 185.146 89.7109C185.634 89.7109 186.054 89.61 186.406 89.4082C186.764 89.1999 187.057 88.9167 187.285 88.5586C187.519 88.2005 187.692 87.7904 187.802 87.3281C187.913 86.8594 187.968 86.3613 187.968 85.834ZM198.72 89.1934V83.7539C198.72 83.3372 198.635 82.9759 198.466 82.6699C198.303 82.3574 198.056 82.1165 197.724 81.9473C197.392 81.778 196.982 81.6934 196.493 81.6934C196.038 81.6934 195.637 81.7715 195.292 81.9277C194.954 82.084 194.687 82.2891 194.491 82.543C194.303 82.7969 194.208 83.0703 194.208 83.3633H192.402C192.402 82.9857 192.499 82.6113 192.695 82.2402C192.89 81.8691 193.17 81.5339 193.534 81.2344C193.905 80.9284 194.348 80.6875 194.863 80.5117C195.383 80.3294 195.963 80.2383 196.601 80.2383C197.369 80.2383 198.046 80.3685 198.632 80.6289C199.224 80.8893 199.687 81.2832 200.019 81.8105C200.357 82.3314 200.527 82.9857 200.527 83.7734V88.6953C200.527 89.0469 200.556 89.4212 200.614 89.8184C200.68 90.2155 200.774 90.5573 200.898 90.8438V91H199.013C198.922 90.7917 198.85 90.515 198.798 90.1699C198.746 89.8184 198.72 89.4928 198.72 89.1934ZM199.032 84.5938L199.052 85.8633H197.226C196.711 85.8633 196.252 85.9056 195.849 85.9902C195.445 86.0684 195.107 86.1888 194.833 86.3516C194.56 86.5143 194.351 86.7194 194.208 86.9668C194.065 87.2077 193.993 87.4909 193.993 87.8164C193.993 88.1484 194.068 88.4512 194.218 88.7246C194.368 88.998 194.592 89.2161 194.892 89.3789C195.198 89.5352 195.572 89.6133 196.015 89.6133C196.568 89.6133 197.057 89.4961 197.48 89.2617C197.903 89.0273 198.238 88.7409 198.486 88.4023C198.739 88.0638 198.876 87.735 198.896 87.416L199.667 88.2852C199.622 88.5586 199.498 88.8613 199.296 89.1934C199.094 89.5254 198.824 89.8444 198.486 90.1504C198.154 90.4499 197.756 90.7005 197.294 90.9023C196.838 91.0977 196.324 91.1953 195.751 91.1953C195.035 91.1953 194.407 91.0553 193.866 90.7754C193.333 90.4954 192.916 90.1211 192.616 89.6523C192.323 89.1771 192.177 88.6465 192.177 88.0605C192.177 87.4941 192.288 86.9961 192.509 86.5664C192.73 86.1302 193.049 85.7689 193.466 85.4824C193.883 85.1895 194.384 84.9681 194.97 84.8184C195.556 84.6686 196.21 84.5938 196.933 84.5938H199.032ZM209.843 88.5977L213.436 80.4336H215.175L210.468 91H209.218L204.53 80.4336H206.268L209.843 88.5977ZM205.741 80.4336V91H203.934V80.4336H205.741ZM213.886 91V80.4336H215.702V91H213.886ZM225.086 88.5977L228.68 80.4336H230.418L225.711 91H224.461L219.774 80.4336H221.512L225.086 88.5977ZM220.985 80.4336V91H219.178V80.4336H220.985ZM229.129 91V80.4336H230.946V91H229.129ZM236.209 88.1387L241.082 80.4336H242.898V91H241.082V83.2949L236.209 91H234.412V80.4336H236.209V88.1387ZM248.005 82.4648V95.0625H246.189V80.4336H247.849L248.005 82.4648ZM255.125 85.6289V85.834C255.125 86.6022 255.033 87.3151 254.851 87.9727C254.669 88.6237 254.402 89.1901 254.05 89.6719C253.705 90.1536 253.279 90.528 252.771 90.7949C252.263 91.0618 251.681 91.1953 251.023 91.1953C250.352 91.1953 249.76 91.0846 249.246 90.8633C248.731 90.6419 248.295 90.3197 247.937 89.8965C247.579 89.4733 247.293 88.9655 247.078 88.373C246.869 87.7806 246.726 87.1133 246.648 86.3711V85.2773C246.726 84.4961 246.873 83.7962 247.088 83.1777C247.302 82.5592 247.586 82.0319 247.937 81.5957C248.295 81.153 248.728 80.8177 249.236 80.5898C249.744 80.3555 250.33 80.2383 250.994 80.2383C251.658 80.2383 252.247 80.3685 252.761 80.6289C253.276 80.8828 253.709 81.2474 254.06 81.7227C254.412 82.1979 254.675 82.7676 254.851 83.4316C255.033 84.0892 255.125 84.8216 255.125 85.6289ZM253.308 85.834V85.6289C253.308 85.1016 253.253 84.6068 253.142 84.1445C253.032 83.6758 252.859 83.2656 252.625 82.9141C252.397 82.556 252.104 82.276 251.746 82.0742C251.388 81.8659 250.961 81.7617 250.466 81.7617C250.011 81.7617 249.614 81.8398 249.275 81.9961C248.943 82.1523 248.66 82.3639 248.425 82.6309C248.191 82.8913 247.999 83.1908 247.849 83.5293C247.706 83.8613 247.599 84.2064 247.527 84.5645V87.0938C247.657 87.5495 247.839 87.9792 248.074 88.3828C248.308 88.7799 248.621 89.1022 249.011 89.3496C249.402 89.5905 249.893 89.7109 250.486 89.7109C250.974 89.7109 251.394 89.61 251.746 89.4082C252.104 89.1999 252.397 88.9167 252.625 88.5586C252.859 88.2005 253.032 87.7904 253.142 87.3281C253.253 86.8594 253.308 86.3613 253.308 85.834ZM257.351 85.834V85.6094C257.351 84.8477 257.461 84.1413 257.683 83.4902C257.904 82.8327 258.223 82.263 258.64 81.7812C259.057 81.293 259.561 80.9154 260.154 80.6484C260.746 80.375 261.41 80.2383 262.146 80.2383C262.888 80.2383 263.555 80.375 264.148 80.6484C264.747 80.9154 265.254 81.293 265.671 81.7812C266.094 82.263 266.417 82.8327 266.638 83.4902C266.859 84.1413 266.97 84.8477 266.97 85.6094V85.834C266.97 86.5957 266.859 87.3021 266.638 87.9531C266.417 88.6042 266.094 89.1738 265.671 89.6621C265.254 90.1439 264.75 90.5215 264.157 90.7949C263.571 91.0618 262.907 91.1953 262.165 91.1953C261.423 91.1953 260.756 91.0618 260.163 90.7949C259.571 90.5215 259.063 90.1439 258.64 89.6621C258.223 89.1738 257.904 88.6042 257.683 87.9531C257.461 87.3021 257.351 86.5957 257.351 85.834ZM259.157 85.6094V85.834C259.157 86.3613 259.219 86.8594 259.343 87.3281C259.467 87.7904 259.652 88.2005 259.9 88.5586C260.154 88.9167 260.469 89.1999 260.847 89.4082C261.224 89.61 261.664 89.7109 262.165 89.7109C262.66 89.7109 263.093 89.61 263.464 89.4082C263.842 89.1999 264.154 88.9167 264.402 88.5586C264.649 88.2005 264.835 87.7904 264.958 87.3281C265.088 86.8594 265.154 86.3613 265.154 85.834V85.6094C265.154 85.0885 265.088 84.597 264.958 84.1348C264.835 83.666 264.646 83.2526 264.392 82.8945C264.144 82.5299 263.832 82.2435 263.454 82.0352C263.083 81.8268 262.647 81.7227 262.146 81.7227C261.651 81.7227 261.215 81.8268 260.837 82.0352C260.466 82.2435 260.154 82.5299 259.9 82.8945C259.652 83.2526 259.467 83.666 259.343 84.1348C259.219 84.597 259.157 85.0885 259.157 85.6094ZM274.596 86.3516H271.13L271.11 84.9062H273.942C274.502 84.9062 274.968 84.8509 275.339 84.7402C275.716 84.6296 275.999 84.4635 276.188 84.2422C276.377 84.0208 276.471 83.7474 276.471 83.4219C276.471 83.168 276.416 82.9466 276.305 82.7578C276.201 82.5625 276.042 82.403 275.827 82.2793C275.612 82.1491 275.345 82.0547 275.026 81.9961C274.714 81.931 274.346 81.8984 273.923 81.8984H271.608V91H269.802V80.4336H273.923C274.593 80.4336 275.195 80.4922 275.729 80.6094C276.27 80.7266 276.729 80.9056 277.106 81.1465C277.49 81.3809 277.783 81.6803 277.985 82.0449C278.187 82.4095 278.288 82.8392 278.288 83.334C278.288 83.653 278.223 83.9557 278.093 84.2422C277.962 84.5286 277.77 84.7826 277.516 85.0039C277.262 85.2253 276.95 85.4076 276.579 85.5508C276.208 85.6875 275.781 85.7754 275.3 85.8145L274.596 86.3516ZM274.596 91H270.475L271.374 89.5352H274.596C275.098 89.5352 275.514 89.4733 275.846 89.3496C276.179 89.2194 276.426 89.0371 276.589 88.8027C276.758 88.5618 276.843 88.2754 276.843 87.9434C276.843 87.6113 276.758 87.3281 276.589 87.0938C276.426 86.8529 276.179 86.6706 275.846 86.5469C275.514 86.4167 275.098 86.3516 274.596 86.3516H271.852L271.872 84.9062H275.3L275.954 85.4531C276.533 85.4987 277.025 85.6419 277.429 85.8828C277.832 86.1237 278.138 86.4297 278.346 86.8008C278.555 87.1654 278.659 87.5625 278.659 87.9922C278.659 88.487 278.565 88.9232 278.376 89.3008C278.193 89.6784 277.927 89.9941 277.575 90.248C277.223 90.4954 276.797 90.6842 276.296 90.8145C275.794 90.9382 275.228 91 274.596 91ZM287.711 89.1934V83.7539C287.711 83.3372 287.627 82.9759 287.457 82.6699C287.295 82.3574 287.047 82.1165 286.715 81.9473C286.383 81.778 285.973 81.6934 285.485 81.6934C285.029 81.6934 284.629 81.7715 284.284 81.9277C283.945 82.084 283.678 82.2891 283.483 82.543C283.294 82.7969 283.2 83.0703 283.2 83.3633H281.393C281.393 82.9857 281.491 82.6113 281.686 82.2402C281.881 81.8691 282.161 81.5339 282.526 81.2344C282.897 80.9284 283.34 80.6875 283.854 80.5117C284.375 80.3294 284.954 80.2383 285.592 80.2383C286.36 80.2383 287.038 80.3685 287.623 80.6289C288.216 80.8893 288.678 81.2832 289.01 81.8105C289.349 82.3314 289.518 82.9857 289.518 83.7734V88.6953C289.518 89.0469 289.547 89.4212 289.606 89.8184C289.671 90.2155 289.765 90.5573 289.889 90.8438V91H288.004C287.913 90.7917 287.842 90.515 287.789 90.1699C287.737 89.8184 287.711 89.4928 287.711 89.1934ZM288.024 84.5938L288.043 85.8633H286.217C285.703 85.8633 285.244 85.9056 284.84 85.9902C284.437 86.0684 284.098 86.1888 283.825 86.3516C283.551 86.5143 283.343 86.7194 283.2 86.9668C283.056 87.2077 282.985 87.4909 282.985 87.8164C282.985 88.1484 283.06 88.4512 283.209 88.7246C283.359 88.998 283.584 89.2161 283.883 89.3789C284.189 89.5352 284.564 89.6133 285.006 89.6133C285.56 89.6133 286.048 89.4961 286.471 89.2617C286.894 89.0273 287.23 88.7409 287.477 88.4023C287.731 88.0638 287.868 87.735 287.887 87.416L288.659 88.2852C288.613 88.5586 288.489 88.8613 288.288 89.1934C288.086 89.5254 287.816 89.8444 287.477 90.1504C287.145 90.4499 286.748 90.7005 286.286 90.9023C285.83 91.0977 285.316 91.1953 284.743 91.1953C284.026 91.1953 283.398 91.0553 282.858 90.7754C282.324 90.4954 281.907 90.1211 281.608 89.6523C281.315 89.1771 281.168 88.6465 281.168 88.0605C281.168 87.4941 281.279 86.9961 281.5 86.5664C281.722 86.1302 282.041 85.7689 282.457 85.4824C282.874 85.1895 283.375 84.9681 283.961 84.8184C284.547 84.6686 285.202 84.5938 285.924 84.5938H288.024ZM299.928 85.0137V86.4785H294.342V85.0137H299.928ZM294.723 80.4336V91H292.916V80.4336H294.723ZM301.393 80.4336V91H299.576V80.4336H301.393ZM306.656 88.1387L311.529 80.4336H313.345V91H311.529V83.2949L306.656 91H304.859V80.4336H306.656V88.1387ZM318.784 85.9609H320.738L317.681 91H315.728L318.784 85.9609ZM320.298 80.4336H324.712V91H322.905V81.8984H320.298C319.784 81.8984 319.364 81.9863 319.038 82.1621C318.713 82.3314 318.475 82.5527 318.325 82.8262C318.176 83.0996 318.101 83.3828 318.101 83.6758C318.101 83.9622 318.169 84.2389 318.306 84.5059C318.443 84.7663 318.657 84.9811 318.95 85.1504C319.243 85.3197 319.621 85.4043 320.083 85.4043H323.394V86.8887H320.083C319.478 86.8887 318.941 86.8073 318.472 86.6445C318.003 86.4818 317.606 86.2572 317.28 85.9707C316.955 85.6777 316.708 85.3359 316.538 84.9453C316.369 84.5482 316.284 84.1185 316.284 83.6562C316.284 83.194 316.372 82.7676 316.548 82.377C316.73 81.9863 316.991 81.6445 317.329 81.3516C317.674 81.0586 318.094 80.834 318.589 80.6777C319.09 80.515 319.66 80.4336 320.298 80.4336Z" fill="#0061FF"/>
</svg>
