<svg width="261" height="92" viewBox="0 0 261 92" fill="none" xmlns="http://www.w3.org/2000/svg">
<path d="M86.9098 4.42819C86.1377 3.67186 85.0422 3.35065 83.9811 3.56534C80.968 4.1799 53.8929 10.2149 31.493 32.6318C19.5759 44.5584 13.6128 55.2486 13.7691 64.4056C13.8265 67.7824 14.7263 70.2874 15.64 71.9786L4.91743 82.7098C3.69419 83.934 3.69419 85.9268 4.91743 87.151C5.51022 87.7443 6.29706 88.0696 7.13548 88.0696C7.97308 88.0696 8.76073 87.7443 9.3527 87.151L48.1746 48.2974C48.7682 47.7042 49.0941 46.9167 49.0941 46.0776C49.0941 45.2394 48.7682 44.4511 48.1746 43.8578C46.953 42.6344 44.9626 42.6328 43.7394 43.8578L20.4437 67.1719C20.2235 66.3804 20.0606 65.4274 20.0417 64.2982C19.9549 59.2178 22.6413 50.3697 35.9291 37.0714C52.5878 20.3995 72.0311 13.3451 80.6012 10.8836C79.7357 14.2596 78.2022 19.6538 75.5698 27.4629L66.0377 27.6792C64.993 27.7021 64.017 28.2315 63.425 29.0927C62.8331 29.9531 62.689 31.0519 63.0386 32.0295L66.6526 42.2452C64.5811 45.318 57.2212 54.9208 40.2195 65.42C38.7473 66.3288 38.2888 68.2667 39.1968 69.74C40.104 71.2125 42.0412 71.6705 43.5142 70.7626C64.9389 57.5323 72.0786 45.5352 72.8212 44.2126C73.2887 43.3826 73.3723 42.4009 73.0521 41.5241L70.342 33.8617L77.8116 33.6929C79.165 33.6651 80.3768 32.7801 80.828 31.4879C86.1884 15.8566 87.6066 8.62689 87.8358 7.33794C88.0282 6.27106 87.6819 5.18451 86.9098 4.42819Z" fill="#0061FF"/>
<path d="M128.469 26.7812V28.3242H121.613V41H119.738V26.7812H128.469ZM132.492 39.9062L135.431 30.4336H137.365L133.127 42.6309C133.029 42.8913 132.899 43.1712 132.736 43.4707C132.58 43.7767 132.378 44.0664 132.13 44.3398C131.883 44.6133 131.584 44.8346 131.232 45.0039C130.887 45.1797 130.474 45.2676 129.992 45.2676C129.849 45.2676 129.666 45.248 129.445 45.209C129.224 45.1699 129.067 45.1374 128.976 45.1113L128.966 43.6465C129.018 43.653 129.1 43.6595 129.211 43.666C129.328 43.679 129.409 43.6855 129.455 43.6855C129.865 43.6855 130.213 43.6302 130.5 43.5195C130.786 43.4154 131.027 43.2363 131.222 42.9824C131.424 42.735 131.597 42.3932 131.74 41.957L132.492 39.9062ZM130.334 30.4336L133.078 38.6367L133.546 40.541L132.248 41.2051L128.361 30.4336H130.334ZM145.47 38.5977L149.064 30.4336H150.802L146.095 41H144.845L140.157 30.4336H141.896L145.47 38.5977ZM141.368 30.4336V41H139.562V30.4336H141.368ZM149.513 41V30.4336H151.329V41H149.513ZM160.87 39.1934V33.7539C160.87 33.3372 160.785 32.9759 160.616 32.6699C160.453 32.3574 160.206 32.1165 159.874 31.9473C159.542 31.778 159.132 31.6934 158.643 31.6934C158.188 31.6934 157.787 31.7715 157.442 31.9277C157.104 32.084 156.837 32.2891 156.641 32.543C156.453 32.7969 156.358 33.0703 156.358 33.3633H154.552C154.552 32.9857 154.649 32.6113 154.845 32.2402C155.04 31.8691 155.32 31.5339 155.684 31.2344C156.055 30.9284 156.498 30.6875 157.013 30.5117C157.533 30.3294 158.113 30.2383 158.751 30.2383C159.519 30.2383 160.196 30.3685 160.782 30.6289C161.374 30.8893 161.837 31.2832 162.169 31.8105C162.507 32.3314 162.677 32.9857 162.677 33.7734V38.6953C162.677 39.0469 162.706 39.4212 162.764 39.8184C162.83 40.2155 162.924 40.5573 163.048 40.8438V41H161.163C161.072 40.7917 161 40.515 160.948 40.1699C160.896 39.8184 160.87 39.4928 160.87 39.1934ZM161.182 34.5938L161.202 35.8633H159.376C158.861 35.8633 158.402 35.9056 157.999 35.9902C157.595 36.0684 157.257 36.1888 156.983 36.3516C156.71 36.5143 156.501 36.7194 156.358 36.9668C156.215 37.2077 156.143 37.4909 156.143 37.8164C156.143 38.1484 156.218 38.4512 156.368 38.7246C156.518 38.998 156.742 39.2161 157.042 39.3789C157.348 39.5352 157.722 39.6133 158.165 39.6133C158.718 39.6133 159.207 39.4961 159.63 39.2617C160.053 39.0273 160.388 38.7409 160.636 38.4023C160.889 38.0638 161.026 37.735 161.046 37.416L161.817 38.2852C161.772 38.5586 161.648 38.8613 161.446 39.1934C161.244 39.5254 160.974 39.8444 160.636 40.1504C160.304 40.4499 159.906 40.7005 159.444 40.9023C158.988 41.0977 158.474 41.1953 157.901 41.1953C157.185 41.1953 156.557 41.0553 156.016 40.7754C155.483 40.4954 155.066 40.1211 154.766 39.6523C154.473 39.1771 154.327 38.6465 154.327 38.0605C154.327 37.4941 154.438 36.9961 154.659 36.5664C154.88 36.1302 155.199 35.7689 155.616 35.4824C156.033 35.1895 156.534 34.9681 157.12 34.8184C157.706 34.6686 158.36 34.5938 159.083 34.5938H161.182ZM173.086 35.0137V36.4785H167.5V35.0137H173.086ZM167.881 30.4336V41H166.075V30.4336H167.881ZM174.551 30.4336V41H172.735V30.4336H174.551ZM179.814 38.1387L184.688 30.4336H186.504V41H184.688V33.2949L179.814 41H178.018V30.4336H179.814V38.1387ZM194.111 30.4336V41H192.295V30.4336H194.111ZM197.656 30.4336V31.8984H188.818V30.4336H197.656ZM205.907 39.1934V33.7539C205.907 33.3372 205.823 32.9759 205.654 32.6699C205.491 32.3574 205.243 32.1165 204.911 31.9473C204.579 31.778 204.169 31.6934 203.681 31.6934C203.225 31.6934 202.825 31.7715 202.48 31.9277C202.141 32.084 201.874 32.2891 201.679 32.543C201.49 32.7969 201.396 33.0703 201.396 33.3633H199.589C199.589 32.9857 199.687 32.6113 199.882 32.2402C200.077 31.8691 200.357 31.5339 200.722 31.2344C201.093 30.9284 201.536 30.6875 202.05 30.5117C202.571 30.3294 203.15 30.2383 203.788 30.2383C204.557 30.2383 205.234 30.3685 205.82 30.6289C206.412 30.8893 206.874 31.2832 207.206 31.8105C207.545 32.3314 207.714 32.9857 207.714 33.7734V38.6953C207.714 39.0469 207.743 39.4212 207.802 39.8184C207.867 40.2155 207.961 40.5573 208.085 40.8438V41H206.2C206.109 40.7917 206.038 40.515 205.986 40.1699C205.933 39.8184 205.907 39.4928 205.907 39.1934ZM206.22 34.5938L206.239 35.8633H204.413C203.899 35.8633 203.44 35.9056 203.036 35.9902C202.633 36.0684 202.294 36.1888 202.021 36.3516C201.747 36.5143 201.539 36.7194 201.396 36.9668C201.252 37.2077 201.181 37.4909 201.181 37.8164C201.181 38.1484 201.256 38.4512 201.405 38.7246C201.555 38.998 201.78 39.2161 202.079 39.3789C202.385 39.5352 202.76 39.6133 203.202 39.6133C203.756 39.6133 204.244 39.4961 204.667 39.2617C205.09 39.0273 205.426 38.7409 205.673 38.4023C205.927 38.0638 206.064 37.735 206.083 37.416L206.855 38.2852C206.809 38.5586 206.685 38.8613 206.484 39.1934C206.282 39.5254 206.012 39.8444 205.673 40.1504C205.341 40.4499 204.944 40.7005 204.482 40.9023C204.026 41.0977 203.512 41.1953 202.939 41.1953C202.223 41.1953 201.594 41.0553 201.054 40.7754C200.52 40.4954 200.103 40.1211 199.804 39.6523C199.511 39.1771 199.364 38.6465 199.364 38.0605C199.364 37.4941 199.475 36.9961 199.696 36.5664C199.918 36.1302 200.237 35.7689 200.654 35.4824C201.07 35.1895 201.571 34.9681 202.157 34.8184C202.743 34.6686 203.398 34.5938 204.12 34.5938H206.22ZM212.762 32.4648V45.0625H210.946V30.4336H212.606L212.762 32.4648ZM219.882 35.6289V35.834C219.882 36.6022 219.79 37.3151 219.608 37.9727C219.426 38.6237 219.159 39.1901 218.807 39.6719C218.462 40.1536 218.036 40.528 217.528 40.7949C217.02 41.0618 216.438 41.1953 215.78 41.1953C215.11 41.1953 214.517 41.0846 214.003 40.8633C213.488 40.6419 213.052 40.3197 212.694 39.8965C212.336 39.4733 212.05 38.9655 211.835 38.373C211.626 37.7806 211.483 37.1133 211.405 36.3711V35.2773C211.483 34.4961 211.63 33.7962 211.845 33.1777C212.059 32.5592 212.343 32.0319 212.694 31.5957C213.052 31.153 213.485 30.8177 213.993 30.5898C214.501 30.3555 215.087 30.2383 215.751 30.2383C216.415 30.2383 217.004 30.3685 217.518 30.6289C218.033 30.8828 218.466 31.2474 218.817 31.7227C219.169 32.1979 219.432 32.7676 219.608 33.4316C219.79 34.0892 219.882 34.8216 219.882 35.6289ZM218.065 35.834V35.6289C218.065 35.1016 218.01 34.6068 217.899 34.1445C217.789 33.6758 217.616 33.2656 217.382 32.9141C217.154 32.556 216.861 32.276 216.503 32.0742C216.145 31.8659 215.718 31.7617 215.223 31.7617C214.768 31.7617 214.371 31.8398 214.032 31.9961C213.7 32.1523 213.417 32.3639 213.182 32.6309C212.948 32.8913 212.756 33.1908 212.606 33.5293C212.463 33.8613 212.356 34.2064 212.284 34.5645V37.0938C212.414 37.5495 212.596 37.9792 212.831 38.3828C213.065 38.7799 213.378 39.1022 213.768 39.3496C214.159 39.5905 214.651 39.7109 215.243 39.7109C215.731 39.7109 216.151 39.61 216.503 39.4082C216.861 39.1999 217.154 38.9167 217.382 38.5586C217.616 38.2005 217.789 37.7904 217.899 37.3281C218.01 36.8594 218.065 36.3613 218.065 35.834ZM229.754 35.0137V36.4785H224.168V35.0137H229.754ZM224.549 30.4336V41H222.743V30.4336H224.549ZM231.219 30.4336V41H229.403V30.4336H231.219ZM236.014 34.0664H239.188C240.04 34.0664 240.76 34.2161 241.346 34.5156C241.932 34.8086 242.374 35.2155 242.674 35.7363C242.98 36.2507 243.133 36.8366 243.133 37.4941C243.133 37.9824 243.048 38.4414 242.879 38.8711C242.71 39.2943 242.456 39.6654 242.117 39.9844C241.785 40.3034 241.372 40.554 240.877 40.7363C240.389 40.9121 239.826 41 239.188 41H234.695V30.4336H236.502V39.5156H239.188C239.708 39.5156 240.125 39.4212 240.438 39.2324C240.75 39.0436 240.975 38.7995 241.111 38.5C241.248 38.2005 241.316 37.888 241.316 37.5625C241.316 37.2435 241.248 36.931 241.111 36.625C240.975 36.319 240.75 36.0651 240.438 35.8633C240.125 35.6549 239.708 35.5508 239.188 35.5508H236.014V34.0664ZM246.893 30.4336V41H245.086V30.4336H246.893ZM252.41 38.1387L257.283 30.4336H259.099V41H257.283V33.2949L252.41 41H250.613V30.4336H252.41V38.1387ZM256.296 26.6055H257.761C257.761 27.1133 257.644 27.5658 257.41 27.9629C257.175 28.3535 256.84 28.6595 256.404 28.8809C255.968 29.1022 255.45 29.2129 254.851 29.2129C253.946 29.2129 253.23 28.972 252.703 28.4902C252.182 28.002 251.921 27.3737 251.921 26.6055H253.386C253.386 26.9896 253.497 27.3281 253.718 27.6211C253.94 27.9141 254.317 28.0605 254.851 28.0605C255.372 28.0605 255.743 27.9141 255.964 27.6211C256.186 27.3281 256.296 26.9896 256.296 26.6055ZM131.525 59.9023V60.1074C131.525 60.8496 131.444 61.5332 131.281 62.1582C131.118 62.7767 130.874 63.3138 130.549 63.7695C130.23 64.2253 129.833 64.5801 129.357 64.834C128.882 65.0814 128.332 65.2051 127.707 65.2051C127.193 65.2051 126.74 65.1367 126.35 65C125.959 64.8568 125.627 64.6517 125.354 64.3848C125.087 64.1178 124.872 63.7988 124.709 63.4277C124.553 63.0501 124.445 62.627 124.387 62.1582V57.4707C124.445 56.9694 124.553 56.5202 124.709 56.123C124.872 55.7259 125.087 55.3874 125.354 55.1074C125.627 54.8275 125.956 54.6126 126.34 54.4629C126.724 54.3132 127.173 54.2383 127.688 54.2383C128.195 54.2383 128.651 54.3294 129.055 54.5117C129.465 54.6875 129.823 54.9414 130.129 55.2734C130.441 55.6055 130.699 56.0059 130.9 56.4746C131.109 56.9368 131.265 57.4577 131.369 58.0371C131.473 58.6165 131.525 59.2383 131.525 59.9023ZM129.719 60.1074V59.9023C129.719 59.4466 129.686 59.0137 129.621 58.6035C129.562 58.1868 129.468 57.806 129.338 57.4609C129.214 57.1094 129.051 56.8034 128.85 56.543C128.648 56.2826 128.404 56.0807 128.117 55.9375C127.837 55.7943 127.515 55.7227 127.15 55.7227C126.76 55.7227 126.434 55.7715 126.174 55.8691C125.92 55.9668 125.721 56.097 125.578 56.2598C125.435 56.416 125.331 56.582 125.266 56.7578V62.8809C125.344 63.0241 125.458 63.1608 125.607 63.291C125.757 63.4147 125.959 63.5189 126.213 63.6035C126.467 63.6816 126.786 63.7207 127.17 63.7207C127.626 63.7207 128.013 63.6296 128.332 63.4473C128.658 63.2585 128.921 62.998 129.123 62.666C129.331 62.334 129.481 61.9499 129.572 61.5137C129.67 61.0775 129.719 60.6087 129.719 60.1074ZM118.977 60.1074V59.9023C118.977 59.2383 119.029 58.6165 119.133 58.0371C119.237 57.4577 119.393 56.9368 119.602 56.4746C119.81 56.0059 120.067 55.6055 120.373 55.2734C120.686 54.9414 121.044 54.6875 121.447 54.5117C121.857 54.3294 122.316 54.2383 122.824 54.2383C123.326 54.2383 123.762 54.3132 124.133 54.4629C124.51 54.6126 124.829 54.8275 125.09 55.1074C125.35 55.3874 125.559 55.7259 125.715 56.123C125.871 56.5202 125.982 56.9694 126.047 57.4707V61.9727C125.988 62.4674 125.881 62.9134 125.725 63.3105C125.568 63.7077 125.36 64.0495 125.1 64.3359C124.839 64.6159 124.517 64.8307 124.133 64.9805C123.755 65.1302 123.312 65.2051 122.805 65.2051C122.18 65.2051 121.63 65.0814 121.154 64.834C120.679 64.5801 120.279 64.2253 119.953 63.7695C119.634 63.3138 119.39 62.7767 119.221 62.1582C119.058 61.5332 118.977 60.8496 118.977 60.1074ZM120.793 59.9023V60.1074C120.793 60.6087 120.835 61.0775 120.92 61.5137C121.011 61.9499 121.151 62.334 121.34 62.666C121.535 62.998 121.789 63.2585 122.102 63.4473C122.414 63.6296 122.798 63.7207 123.254 63.7207C123.645 63.7207 123.967 63.6719 124.221 63.5742C124.475 63.4766 124.676 63.3496 124.826 63.1934C124.976 63.0371 125.09 62.8743 125.168 62.7051V56.7578C125.103 56.582 124.995 56.416 124.846 56.2598C124.702 56.097 124.504 55.9668 124.25 55.8691C123.996 55.7715 123.671 55.7227 123.273 55.7227C122.818 55.7227 122.43 55.8333 122.111 56.0547C121.792 56.276 121.535 56.5788 121.34 56.9629C121.151 57.347 121.011 57.793 120.92 58.3008C120.835 58.8021 120.793 59.3359 120.793 59.9023ZM124.27 69.0625V50H126.086V69.0625H124.27ZM140.519 63.1934V57.7539C140.519 57.3372 140.435 56.9759 140.265 56.6699C140.102 56.3574 139.855 56.1165 139.523 55.9473C139.191 55.778 138.781 55.6934 138.293 55.6934C137.837 55.6934 137.436 55.7715 137.091 55.9277C136.753 56.084 136.486 56.2891 136.291 56.543C136.102 56.7969 136.007 57.0703 136.007 57.3633H134.201C134.201 56.9857 134.298 56.6113 134.494 56.2402C134.689 55.8691 134.969 55.5339 135.334 55.2344C135.705 54.9284 136.147 54.6875 136.662 54.5117C137.183 54.3294 137.762 54.2383 138.4 54.2383C139.168 54.2383 139.845 54.3685 140.431 54.6289C141.024 54.8893 141.486 55.2832 141.818 55.8105C142.157 56.3314 142.326 56.9857 142.326 57.7734V62.6953C142.326 63.0469 142.355 63.4212 142.414 63.8184C142.479 64.2155 142.573 64.5573 142.697 64.8438V65H140.812C140.721 64.7917 140.649 64.515 140.597 64.1699C140.545 63.8184 140.519 63.4928 140.519 63.1934ZM140.832 58.5938L140.851 59.8633H139.025C138.511 59.8633 138.052 59.9056 137.648 59.9902C137.244 60.0684 136.906 60.1888 136.632 60.3516C136.359 60.5143 136.151 60.7194 136.007 60.9668C135.864 61.2077 135.793 61.4909 135.793 61.8164C135.793 62.1484 135.867 62.4512 136.017 62.7246C136.167 62.998 136.392 63.2161 136.691 63.3789C136.997 63.5352 137.371 63.6133 137.814 63.6133C138.367 63.6133 138.856 63.4961 139.279 63.2617C139.702 63.0273 140.037 62.7409 140.285 62.4023C140.539 62.0638 140.675 61.735 140.695 61.416L141.466 62.2852C141.421 62.5586 141.297 62.8613 141.095 63.1934C140.893 63.5254 140.623 63.8444 140.285 64.1504C139.953 64.4499 139.556 64.7005 139.093 64.9023C138.638 65.0977 138.123 65.1953 137.55 65.1953C136.834 65.1953 136.206 65.0553 135.666 64.7754C135.132 64.4954 134.715 64.1211 134.416 63.6523C134.123 63.1771 133.976 62.6465 133.976 62.0605C133.976 61.4941 134.087 60.9961 134.308 60.5664C134.53 60.1302 134.849 59.7689 135.265 59.4824C135.682 59.1895 136.183 58.9681 136.769 58.8184C137.355 58.6686 138.009 58.5938 138.732 58.5938H140.832ZM147.53 54.4336V65H145.724V54.4336H147.53ZM154.464 54.4336L149.454 60.4883H146.925L146.652 58.9062H148.722L152.267 54.4336H154.464ZM152.521 65L148.634 60.2148L149.796 58.9062L154.816 65H152.521ZM159.757 63.9062L162.696 54.4336H164.63L160.391 66.6309C160.294 66.8913 160.164 67.1712 160.001 67.4707C159.845 67.7767 159.643 68.0664 159.395 68.3398C159.148 68.6133 158.848 68.8346 158.497 69.0039C158.152 69.1797 157.738 69.2676 157.257 69.2676C157.113 69.2676 156.931 69.248 156.71 69.209C156.488 69.1699 156.332 69.1374 156.241 69.1113L156.231 67.6465C156.283 67.653 156.365 67.6595 156.475 67.666C156.593 67.679 156.674 67.6855 156.72 67.6855C157.13 67.6855 157.478 67.6302 157.764 67.5195C158.051 67.4154 158.292 67.2363 158.487 66.9824C158.689 66.735 158.861 66.3932 159.005 65.957L159.757 63.9062ZM157.598 54.4336L160.343 62.6367L160.811 64.541L159.513 65.2051L155.626 54.4336H157.598ZM173.311 54.4336V55.9277H168.204V54.4336H173.311ZM174.903 54.4336V65H173.096V54.4336H174.903ZM167.764 54.4336H169.58L169.307 59.5312C169.261 60.319 169.187 61.0156 169.082 61.6211C168.985 62.2201 168.848 62.7344 168.672 63.1641C168.503 63.5938 168.288 63.9453 168.028 64.2188C167.774 64.4857 167.468 64.6842 167.11 64.8145C166.752 64.9382 166.338 65 165.87 65H165.303V63.4082L165.694 63.3789C165.974 63.3594 166.211 63.2943 166.407 63.1836C166.608 63.0729 166.778 62.9102 166.914 62.6953C167.051 62.474 167.162 62.1908 167.246 61.8457C167.338 61.5007 167.406 61.0905 167.452 60.6152C167.504 60.14 167.543 59.5866 167.569 58.9551L167.764 54.4336ZM179.697 58.0664H182.871C183.724 58.0664 184.443 58.2161 185.029 58.5156C185.615 58.8086 186.058 59.2155 186.357 59.7363C186.663 60.2507 186.816 60.8366 186.816 61.4941C186.816 61.9824 186.732 62.4414 186.562 62.8711C186.393 63.2943 186.139 63.6654 185.801 63.9844C185.469 64.3034 185.055 64.554 184.561 64.7363C184.072 64.9121 183.509 65 182.871 65H178.379V54.4336H180.186V63.5156H182.871C183.392 63.5156 183.809 63.4212 184.121 63.2324C184.434 63.0436 184.658 62.7995 184.795 62.5C184.932 62.2005 185 61.888 185 61.5625C185 61.2435 184.932 60.931 184.795 60.625C184.658 60.319 184.434 60.0651 184.121 59.8633C183.809 59.6549 183.392 59.5508 182.871 59.5508H179.697V58.0664ZM193.095 54.4336V65H191.279V54.4336H193.095ZM196.64 54.4336V55.8984H187.802V54.4336H196.64ZM202.421 65.1953C201.685 65.1953 201.018 65.0716 200.419 64.8242C199.827 64.5703 199.316 64.2155 198.886 63.7598C198.463 63.304 198.137 62.7637 197.909 62.1387C197.682 61.5137 197.568 60.8301 197.568 60.0879V59.6777C197.568 58.8184 197.695 58.0534 197.948 57.3828C198.202 56.7057 198.547 56.1328 198.984 55.6641C199.42 55.1953 199.915 54.8405 200.468 54.5996C201.021 54.3587 201.594 54.2383 202.187 54.2383C202.942 54.2383 203.593 54.3685 204.14 54.6289C204.693 54.8893 205.146 55.2539 205.497 55.7227C205.849 56.1849 206.109 56.7318 206.279 57.3633C206.448 57.9883 206.532 58.6719 206.532 59.4141V60.2246H198.642V58.75H204.726V58.6133C204.7 58.1445 204.602 57.6888 204.433 57.2461C204.27 56.8034 204.01 56.4388 203.652 56.1523C203.293 55.8659 202.805 55.7227 202.187 55.7227C201.777 55.7227 201.399 55.8105 201.054 55.9863C200.709 56.1556 200.413 56.4095 200.165 56.748C199.918 57.0866 199.726 57.5 199.589 57.9883C199.452 58.4766 199.384 59.0397 199.384 59.6777V60.0879C199.384 60.5892 199.452 61.0612 199.589 61.5039C199.732 61.9401 199.937 62.3242 200.204 62.6562C200.478 62.9883 200.807 63.2487 201.191 63.4375C201.581 63.6263 202.024 63.7207 202.519 63.7207C203.157 63.7207 203.697 63.5905 204.14 63.3301C204.583 63.0697 204.97 62.7214 205.302 62.2852L206.396 63.1543C206.168 63.4993 205.878 63.8281 205.527 64.1406C205.175 64.4531 204.742 64.707 204.228 64.9023C203.72 65.0977 203.118 65.1953 202.421 65.1953ZM213.231 54.4336V65H211.415V54.4336H213.231ZM216.776 54.4336V55.8984H207.938V54.4336H216.776Z" fill="#0061FF"/>
</svg>
