<svg width="344" height="92" viewBox="0 0 344 92" fill="none" xmlns="http://www.w3.org/2000/svg">
<path d="M87.5426 31.5614L69.9475 10.84C69.3611 10.1471 68.5024 9.74854 67.5928 9.74854C66.8653 9.74854 66.1575 10.0085 65.599 10.4792L56.915 17.8524C55.6388 18.9488 55.4887 20.8875 56.5812 22.175L73.4177 42.0016L73.4144 42.1238C73.2905 46.471 66.9326 53.243 62.9523 56.4913L39.7628 76.172C39.2461 76.6132 38.2758 76.4262 37.7296 75.7825C37.3211 75.3011 37.2777 74.8132 37.2892 74.5663C37.3047 74.217 37.4425 73.9144 37.6746 73.7159L52.0678 61.4986C52.6616 60.9951 53.0233 60.2898 53.0865 59.5141C53.1496 58.7383 52.9077 57.9846 52.4033 57.3901C51.848 56.7373 51.0377 56.3626 50.1806 56.3626C49.4908 56.3626 48.8224 56.6086 48.2975 57.0547L29.8584 72.7072C29.623 72.9073 29.3007 72.9934 28.9464 72.9508C28.7044 72.9221 28.2361 72.8015 27.826 72.3185C27.2527 71.6428 27.2265 70.7153 27.7686 70.2536L42.1643 58.0314C42.7581 57.5262 43.1189 56.8226 43.1821 56.0485C43.2461 55.2727 43.0041 54.5182 42.4997 53.9253C41.9461 53.2726 41.1358 52.8978 40.2762 52.8978C39.5873 52.8978 38.918 53.1438 38.3915 53.5907L21.792 67.6819C21.5452 67.8935 21.181 67.9755 20.7955 67.9008C20.4035 67.8295 20.0254 67.6073 19.7597 67.294C19.1847 66.6158 19.1601 65.6875 19.7047 65.2258L34.0971 53.0077C34.6909 52.5033 35.0526 51.7989 35.1149 51.0239C35.1789 50.2482 34.9361 49.4937 34.4325 48.9C33.8773 48.2472 33.0669 47.8733 32.209 47.8733C31.5193 47.8733 30.8508 48.1185 30.3259 48.5638L18.1423 58.908C17.9446 59.0761 17.6977 59.1614 17.4107 59.1614C17.3475 59.1614 17.2885 59.1565 17.2385 59.1524C16.9932 59.1229 16.52 59.0023 16.1091 58.5169C15.535 57.8403 15.5104 56.9128 16.0549 56.4503L26.1266 47.9003C26.7204 47.3968 27.083 46.6916 27.1453 45.915C27.2084 45.1408 26.9665 44.3872 26.4621 43.7926C25.9068 43.1399 25.0965 42.7651 24.2394 42.7651C23.5513 42.7651 22.882 43.0111 22.3563 43.4572L12.2846 52.0072C9.28936 54.5494 9.01214 59.1614 11.667 62.2892C12.21 62.928 12.8596 63.4766 13.5977 63.9194L13.8019 64.0408L13.7404 64.2712C13.113 66.6232 13.7027 69.1637 15.3176 71.0655C16.7718 72.7778 18.8665 73.7594 21.0646 73.7594C21.2704 73.7594 21.5009 73.7463 21.7683 73.72L22.0053 73.6987L22.0922 73.9209C22.4072 74.7229 22.8419 75.452 23.384 76.0908C24.6446 77.5743 26.3817 78.5149 28.2763 78.7388C29.5861 78.8971 30.8443 78.7043 32.0179 78.1713L32.282 78.0516L32.4231 78.3058C32.6765 78.7593 32.9669 79.1784 33.2884 79.5564C34.7417 81.2687 36.8364 82.2511 39.0353 82.2511C40.7183 82.2511 42.2742 81.6853 43.5348 80.6159L66.5906 61.0435C68.7279 59.3074 79.3795 50.2145 79.2286 41.731L79.2253 41.7039L79.2392 41.6408L79.2384 41.626C79.1498 40.2172 78.547 39.0412 78.0123 38.4114L62.8014 20.4996L67.2771 16.701L83.1006 35.3378C83.6575 35.9897 84.467 36.3637 85.3233 36.3637C86.013 36.3637 86.6823 36.1185 87.2064 35.6724C87.8002 35.1672 88.1619 34.462 88.2259 33.6862C88.2898 32.9112 88.0471 32.1576 87.5426 31.5614Z" fill="#0061FF"/>
<path d="M27.5303 19.7095L16.1881 37.5754C15.3155 38.9252 15.7018 40.7326 17.0501 41.6044C17.5242 41.9119 18.0704 42.0743 18.6306 42.0743C19.6247 42.0743 20.5408 41.5773 21.0796 40.7433L32.5793 22.6322L32.8097 22.7085C34.0392 23.1193 35.3211 23.3276 36.6211 23.3276C38.5739 23.3276 40.2314 22.8512 41.278 22.451L41.4248 22.3944L46.6263 25.6935L51.8935 29.2353L49.857 32.163L49.5633 32.6312L42.1031 28.2636L41.8997 28.1725C40.5759 27.5419 38.9364 28.0151 38.1654 29.2591L38.0646 29.4609C37.2058 30.9034 35.7779 31.9424 34.145 32.3081C33.3814 32.4803 32.6104 32.5041 31.8542 32.3819C31.705 32.3573 31.5491 32.345 31.39 32.345C29.9514 32.345 28.7433 33.3775 28.5161 34.8003C28.3939 35.5679 28.5785 36.3371 29.0353 36.9685C29.4938 37.5984 30.168 38.0141 30.9356 38.1363C32.4275 38.3749 33.9366 38.3274 35.4195 37.9936C37.6061 37.504 39.6171 36.392 41.2353 34.779L41.4076 34.6068L47.7147 38.3011C48.9056 39.0376 50.0727 39.2721 51.184 38.9941C52.9072 38.5603 53.7077 37.1375 54.2933 36.0968C54.4245 35.8631 54.5451 35.6491 54.6943 35.4104L57.9488 30.7369L58.0218 30.627C58.5401 29.8094 58.7066 28.8302 58.4917 27.8691C58.2818 26.9293 57.724 26.1207 56.9227 25.5959L49.8504 20.8387L43.2915 16.6785C42.3089 16.0594 41.0237 16.0405 40.0166 16.6285C39.668 16.8319 38.3967 17.4986 36.6867 17.4986C35.5786 17.4986 34.5017 17.2181 33.497 16.6728L33.4183 16.617C33.2633 16.4694 33.0984 16.3399 32.9286 16.2332L23.4639 10.2304C22.9718 9.91794 22.4001 9.75146 21.8112 9.75146C20.7048 9.75146 19.6796 10.3124 19.071 11.2514L4.23252 34.1639C3.35986 35.5121 3.74616 37.3187 5.0937 38.1921C5.56694 38.4996 6.11399 38.662 6.67581 38.662C7.66986 38.662 8.58435 38.165 9.12402 37.3327L22.5732 16.5645L27.5303 19.7095Z" fill="#0061FF"/>
<path d="M121.613 25.7383L128.615 14.7812H130.5V29H128.615V18.0332L121.613 29H119.738V14.7812H121.613V25.7383ZM141.222 23.0137V24.4785H135.636V23.0137H141.222ZM136.017 18.4336V29H134.211V18.4336H136.017ZM142.687 18.4336V29H140.871V18.4336H142.687ZM150.226 27.7109C150.655 27.7109 151.053 27.623 151.417 27.4473C151.782 27.2715 152.081 27.0306 152.316 26.7246C152.55 26.4121 152.683 26.0573 152.716 25.6602H154.435C154.402 26.2852 154.191 26.8678 153.8 27.4082C153.416 27.9421 152.911 28.375 152.286 28.707C151.661 29.0326 150.974 29.1953 150.226 29.1953C149.432 29.1953 148.738 29.0553 148.146 28.7754C147.56 28.4954 147.071 28.1113 146.681 27.623C146.297 27.1348 146.007 26.5749 145.812 25.9434C145.623 25.3053 145.529 24.6315 145.529 23.9219V23.5117C145.529 22.8021 145.623 22.1315 145.812 21.5C146.007 20.862 146.297 20.2988 146.681 19.8105C147.071 19.3223 147.56 18.9382 148.146 18.6582C148.738 18.3783 149.432 18.2383 150.226 18.2383C151.053 18.2383 151.775 18.4076 152.394 18.7461C153.012 19.0781 153.497 19.5339 153.849 20.1133C154.207 20.6862 154.402 21.3372 154.435 22.0664H152.716C152.683 21.6302 152.56 21.2363 152.345 20.8848C152.137 20.5332 151.85 20.2533 151.486 20.0449C151.127 19.8301 150.708 19.7227 150.226 19.7227C149.672 19.7227 149.207 19.8333 148.829 20.0547C148.458 20.2695 148.162 20.5625 147.941 20.9336C147.726 21.2982 147.57 21.7051 147.472 22.1543C147.381 22.597 147.335 23.0495 147.335 23.5117V23.9219C147.335 24.3841 147.381 24.8398 147.472 25.2891C147.563 25.7383 147.716 26.1452 147.931 26.5098C148.152 26.8743 148.448 27.1673 148.82 27.3887C149.197 27.6035 149.666 27.7109 150.226 27.7109ZM161.173 18.4336V29H159.356V18.4336H161.173ZM164.718 18.4336V19.8984H155.88V18.4336H164.718ZM168.848 26.1387L173.721 18.4336H175.537V29H173.721V21.2949L168.848 29H167.051V18.4336H168.848V26.1387ZM183.145 18.4336V29H181.328V18.4336H183.145ZM186.689 18.4336V19.8984H177.852V18.4336H186.689ZM191.953 27.9062L194.892 18.4336H196.826L192.588 30.6309C192.49 30.8913 192.36 31.1712 192.197 31.4707C192.041 31.7767 191.839 32.0664 191.591 32.3398C191.344 32.6133 191.045 32.8346 190.693 33.0039C190.348 33.1797 189.935 33.2676 189.453 33.2676C189.31 33.2676 189.127 33.248 188.906 33.209C188.685 33.1699 188.528 33.1374 188.437 33.1113L188.427 31.6465C188.479 31.653 188.561 31.6595 188.671 31.666C188.789 31.679 188.87 31.6855 188.916 31.6855C189.326 31.6855 189.674 31.6302 189.961 31.5195C190.247 31.4154 190.488 31.2363 190.683 30.9824C190.885 30.735 191.058 30.3932 191.201 29.957L191.953 27.9062ZM189.795 18.4336L192.539 26.6367L193.007 28.541L191.709 29.2051L187.822 18.4336H189.795ZM203.163 18.4336V29H201.347V18.4336H203.163ZM206.708 18.4336V19.8984H197.87V18.4336H206.708ZM218.553 18.4336V29H216.737V18.4336H218.553ZM222.098 18.4336V19.8984H213.26V18.4336H222.098ZM227.879 29.1953C227.143 29.1953 226.476 29.0716 225.877 28.8242C225.285 28.5703 224.773 28.2155 224.344 27.7598C223.921 27.304 223.595 26.7637 223.367 26.1387C223.139 25.5137 223.025 24.8301 223.025 24.0879V23.6777C223.025 22.8184 223.152 22.0534 223.406 21.3828C223.66 20.7057 224.005 20.1328 224.441 19.6641C224.878 19.1953 225.372 18.8405 225.926 18.5996C226.479 18.3587 227.052 18.2383 227.645 18.2383C228.4 18.2383 229.051 18.3685 229.598 18.6289C230.151 18.8893 230.604 19.2539 230.955 19.7227C231.307 20.1849 231.567 20.7318 231.736 21.3633C231.906 21.9883 231.99 22.6719 231.99 23.4141V24.2246H224.1V22.75H230.184V22.6133C230.158 22.1445 230.06 21.6888 229.891 21.2461C229.728 20.8034 229.467 20.4388 229.109 20.1523C228.751 19.8659 228.263 19.7227 227.645 19.7227C227.234 19.7227 226.857 19.8105 226.512 19.9863C226.167 20.1556 225.87 20.4095 225.623 20.748C225.376 21.0866 225.184 21.5 225.047 21.9883C224.91 22.4766 224.842 23.0397 224.842 23.6777V24.0879C224.842 24.5892 224.91 25.0612 225.047 25.5039C225.19 25.9401 225.395 26.3242 225.662 26.6562C225.936 26.9883 226.264 27.2487 226.648 27.4375C227.039 27.6263 227.482 27.7207 227.977 27.7207C228.615 27.7207 229.155 27.5905 229.598 27.3301C230.04 27.0697 230.428 26.7214 230.76 26.2852L231.854 27.1543C231.626 27.4993 231.336 27.8281 230.984 28.1406C230.633 28.4531 230.2 28.707 229.686 28.9023C229.178 29.0977 228.576 29.1953 227.879 29.1953ZM235.72 18.4336L238.035 22.2812L240.379 18.4336H242.498L239.041 23.6484L242.605 29H240.515L238.074 25.0352L235.632 29H233.533L237.088 23.6484L233.64 18.4336H235.72ZM251.989 23.0137V24.4785H246.404V23.0137H251.989ZM246.784 18.4336V29H244.978V18.4336H246.784ZM253.454 18.4336V29H251.638V18.4336H253.454ZM256.286 23.834V23.6094C256.286 22.8477 256.397 22.1413 256.618 21.4902C256.839 20.8327 257.158 20.263 257.575 19.7812C257.992 19.293 258.496 18.9154 259.089 18.6484C259.681 18.375 260.345 18.2383 261.081 18.2383C261.823 18.2383 262.49 18.375 263.083 18.6484C263.682 18.9154 264.19 19.293 264.606 19.7812C265.029 20.263 265.352 20.8327 265.573 21.4902C265.794 22.1413 265.905 22.8477 265.905 23.6094V23.834C265.905 24.5957 265.794 25.3021 265.573 25.9531C265.352 26.6042 265.029 27.1738 264.606 27.6621C264.19 28.1439 263.685 28.5215 263.093 28.7949C262.507 29.0618 261.843 29.1953 261.1 29.1953C260.358 29.1953 259.691 29.0618 259.098 28.7949C258.506 28.5215 257.998 28.1439 257.575 27.6621C257.158 27.1738 256.839 26.6042 256.618 25.9531C256.397 25.3021 256.286 24.5957 256.286 23.834ZM258.093 23.6094V23.834C258.093 24.3613 258.154 24.8594 258.278 25.3281C258.402 25.7904 258.587 26.2005 258.835 26.5586C259.089 26.9167 259.404 27.1999 259.782 27.4082C260.16 27.61 260.599 27.7109 261.1 27.7109C261.595 27.7109 262.028 27.61 262.399 27.4082C262.777 27.1999 263.089 26.9167 263.337 26.5586C263.584 26.2005 263.77 25.7904 263.893 25.3281C264.024 24.8594 264.089 24.3613 264.089 23.834V23.6094C264.089 23.0885 264.024 22.597 263.893 22.1348C263.77 21.666 263.581 21.2526 263.327 20.8945C263.08 20.5299 262.767 20.2435 262.389 20.0352C262.018 19.8268 261.582 19.7227 261.081 19.7227C260.586 19.7227 260.15 19.8268 259.772 20.0352C259.401 20.2435 259.089 20.5299 258.835 20.8945C258.587 21.2526 258.402 21.666 258.278 22.1348C258.154 22.597 258.093 23.0885 258.093 23.6094ZM275.475 18.4336V19.9277H270.368V18.4336H275.475ZM277.067 18.4336V29H275.26V18.4336H277.067ZM269.928 18.4336H271.745L271.471 23.5312C271.426 24.319 271.351 25.0156 271.246 25.6211C271.149 26.2201 271.012 26.7344 270.836 27.1641C270.667 27.5938 270.452 27.9453 270.192 28.2188C269.938 28.4857 269.632 28.6842 269.274 28.8145C268.916 28.9382 268.502 29 268.034 29H267.467V27.4082L267.858 27.3789C268.138 27.3594 268.375 27.2943 268.571 27.1836C268.773 27.0729 268.942 26.9102 269.079 26.6953C269.215 26.474 269.326 26.1908 269.411 25.8457C269.502 25.5007 269.57 25.0905 269.616 24.6152C269.668 24.14 269.707 23.5866 269.733 22.9551L269.928 18.4336ZM279.898 23.834V23.6094C279.898 22.8477 280.009 22.1413 280.23 21.4902C280.452 20.8327 280.771 20.263 281.188 19.7812C281.604 19.293 282.109 18.9154 282.701 18.6484C283.294 18.375 283.958 18.2383 284.693 18.2383C285.436 18.2383 286.103 18.375 286.695 18.6484C287.294 18.9154 287.802 19.293 288.219 19.7812C288.642 20.263 288.964 20.8327 289.186 21.4902C289.407 22.1413 289.518 22.8477 289.518 23.6094V23.834C289.518 24.5957 289.407 25.3021 289.186 25.9531C288.964 26.6042 288.642 27.1738 288.219 27.6621C287.802 28.1439 287.298 28.5215 286.705 28.7949C286.119 29.0618 285.455 29.1953 284.713 29.1953C283.971 29.1953 283.303 29.0618 282.711 28.7949C282.118 28.5215 281.611 28.1439 281.188 27.6621C280.771 27.1738 280.452 26.6042 280.23 25.9531C280.009 25.3021 279.898 24.5957 279.898 23.834ZM281.705 23.6094V23.834C281.705 24.3613 281.767 24.8594 281.891 25.3281C282.014 25.7904 282.2 26.2005 282.447 26.5586C282.701 26.9167 283.017 27.1999 283.395 27.4082C283.772 27.61 284.212 27.7109 284.713 27.7109C285.208 27.7109 285.641 27.61 286.012 27.4082C286.389 27.1999 286.702 26.9167 286.949 26.5586C287.197 26.2005 287.382 25.7904 287.506 25.3281C287.636 24.8594 287.701 24.3613 287.701 23.834V23.6094C287.701 23.0885 287.636 22.597 287.506 22.1348C287.382 21.666 287.193 21.2526 286.939 20.8945C286.692 20.5299 286.38 20.2435 286.002 20.0352C285.631 19.8268 285.195 19.7227 284.693 19.7227C284.199 19.7227 283.762 19.8268 283.385 20.0352C283.014 20.2435 282.701 20.5299 282.447 20.8945C282.2 21.2526 282.014 21.666 281.891 22.1348C281.767 22.597 281.705 23.0885 281.705 23.6094ZM299.009 18.4336V19.9277H294.127V29H292.32V18.4336H299.009ZM302.935 26.1387L307.808 18.4336H309.624V29H307.808V21.2949L302.935 29H301.138V18.4336H302.935V26.1387ZM314.878 26.1387L319.751 18.4336H321.567V29H319.751V21.2949L314.878 29H313.081V18.4336H314.878V26.1387ZM318.764 14.6055H320.229C320.229 15.1133 320.112 15.5658 319.878 15.9629C319.643 16.3535 319.308 16.6595 318.872 16.8809C318.436 17.1022 317.918 17.2129 317.319 17.2129C316.414 17.2129 315.698 16.972 315.171 16.4902C314.65 16.002 314.389 15.3737 314.389 14.6055H315.854C315.854 14.9896 315.965 15.3281 316.186 15.6211C316.408 15.9141 316.785 16.0605 317.319 16.0605C317.84 16.0605 318.211 15.9141 318.432 15.6211C318.654 15.3281 318.764 14.9896 318.764 14.6055ZM126.418 42.4336V43.9277H121.076V42.4336H126.418ZM121.34 42.4336V53H119.533V42.4336H121.34ZM128.02 42.4336V53H126.203V42.4336H128.02ZM133.127 44.4648V57.0625H131.31V42.4336H132.97L133.127 44.4648ZM140.246 47.6289V47.834C140.246 48.6022 140.155 49.3151 139.972 49.9727C139.79 50.6237 139.523 51.1901 139.171 51.6719C138.826 52.1536 138.4 52.528 137.892 52.7949C137.384 53.0618 136.802 53.1953 136.144 53.1953C135.474 53.1953 134.881 53.0846 134.367 52.8633C133.852 52.6419 133.416 52.3197 133.058 51.8965C132.7 51.4733 132.414 50.9655 132.199 50.373C131.99 49.7806 131.847 49.1133 131.769 48.3711V47.2773C131.847 46.4961 131.994 45.7962 132.209 45.1777C132.423 44.5592 132.707 44.0319 133.058 43.5957C133.416 43.153 133.849 42.8177 134.357 42.5898C134.865 42.3555 135.451 42.2383 136.115 42.2383C136.779 42.2383 137.368 42.3685 137.882 42.6289C138.397 42.8828 138.83 43.2474 139.181 43.7227C139.533 44.1979 139.796 44.7676 139.972 45.4316C140.155 46.0892 140.246 46.8216 140.246 47.6289ZM138.429 47.834V47.6289C138.429 47.1016 138.374 46.6068 138.263 46.1445C138.153 45.6758 137.98 45.2656 137.746 44.9141C137.518 44.556 137.225 44.276 136.867 44.0742C136.509 43.8659 136.082 43.7617 135.587 43.7617C135.132 43.7617 134.735 43.8398 134.396 43.9961C134.064 44.1523 133.781 44.3639 133.546 44.6309C133.312 44.8913 133.12 45.1908 132.97 45.5293C132.827 45.8613 132.72 46.2064 132.648 46.5645V49.0938C132.778 49.5495 132.961 49.9792 133.195 50.3828C133.429 50.7799 133.742 51.1022 134.132 51.3496C134.523 51.5905 135.015 51.7109 135.607 51.7109C136.095 51.7109 136.515 51.61 136.867 51.4082C137.225 51.1999 137.518 50.9167 137.746 50.5586C137.98 50.2005 138.153 49.7904 138.263 49.3281C138.374 48.8594 138.429 48.3613 138.429 47.834ZM147.335 53.1953C146.599 53.1953 145.932 53.0716 145.333 52.8242C144.741 52.5703 144.23 52.2155 143.8 51.7598C143.377 51.304 143.051 50.7637 142.823 50.1387C142.596 49.5137 142.482 48.8301 142.482 48.0879V47.6777C142.482 46.8184 142.609 46.0534 142.862 45.3828C143.116 44.7057 143.461 44.1328 143.898 43.6641C144.334 43.1953 144.829 42.8405 145.382 42.5996C145.935 42.3587 146.508 42.2383 147.101 42.2383C147.856 42.2383 148.507 42.3685 149.054 42.6289C149.607 42.8893 150.06 43.2539 150.411 43.7227C150.763 44.1849 151.023 44.7318 151.193 45.3633C151.362 45.9883 151.446 46.6719 151.446 47.4141V48.2246H143.556V46.75H149.64V46.6133C149.614 46.1445 149.516 45.6888 149.347 45.2461C149.184 44.8034 148.924 44.4388 148.566 44.1523C148.208 43.8659 147.719 43.7227 147.101 43.7227C146.691 43.7227 146.313 43.8105 145.968 43.9863C145.623 44.1556 145.327 44.4095 145.079 44.748C144.832 45.0866 144.64 45.5 144.503 45.9883C144.366 46.4766 144.298 47.0397 144.298 47.6777V48.0879C144.298 48.5892 144.366 49.0612 144.503 49.5039C144.646 49.9401 144.851 50.3242 145.118 50.6562C145.392 50.9883 145.721 51.2487 146.105 51.4375C146.495 51.6263 146.938 51.7207 147.433 51.7207C148.071 51.7207 148.611 51.5905 149.054 51.3301C149.497 51.0697 149.884 50.7214 150.216 50.2852L151.31 51.1543C151.082 51.4993 150.792 51.8281 150.441 52.1406C150.089 52.4531 149.656 52.707 149.142 52.9023C148.634 53.0977 148.032 53.1953 147.335 53.1953ZM155.86 42.4336H157.667L157.511 46.3887C157.471 47.3913 157.358 48.2572 157.169 48.9863C156.98 49.7155 156.739 50.3372 156.446 50.8516C156.153 51.3594 155.824 51.7858 155.46 52.1309C155.102 52.4759 154.731 52.7656 154.346 53H153.448L153.497 51.5254L153.868 51.5156C154.083 51.2617 154.291 51.0013 154.493 50.7344C154.695 50.4609 154.88 50.1387 155.05 49.7676C155.219 49.39 155.359 48.931 155.47 48.3906C155.587 47.8438 155.662 47.1764 155.694 46.3887L155.86 42.4336ZM156.309 42.4336H162.667V53H160.86V44.1035H156.309V42.4336ZM153.038 51.5156H164.024V56.1152H162.218V53H154.845V56.1152H153.028L153.038 51.5156ZM173.467 42.4336V43.9277H168.125V42.4336H173.467ZM168.389 42.4336V53H166.582V42.4336H168.389ZM175.069 42.4336V53H173.252V42.4336H175.069ZM180.176 44.4648V57.0625H178.359V42.4336H180.02L180.176 44.4648ZM187.295 47.6289V47.834C187.295 48.6022 187.204 49.3151 187.021 49.9727C186.839 50.6237 186.572 51.1901 186.221 51.6719C185.876 52.1536 185.449 52.528 184.941 52.7949C184.434 53.0618 183.851 53.1953 183.193 53.1953C182.523 53.1953 181.93 53.0846 181.416 52.8633C180.902 52.6419 180.465 52.3197 180.107 51.8965C179.749 51.4733 179.463 50.9655 179.248 50.373C179.04 49.7806 178.896 49.1133 178.818 48.3711V47.2773C178.896 46.4961 179.043 45.7962 179.258 45.1777C179.473 44.5592 179.756 44.0319 180.107 43.5957C180.465 43.153 180.898 42.8177 181.406 42.5898C181.914 42.3555 182.5 42.2383 183.164 42.2383C183.828 42.2383 184.417 42.3685 184.932 42.6289C185.446 42.8828 185.879 43.2474 186.23 43.7227C186.582 44.1979 186.846 44.7676 187.021 45.4316C187.204 46.0892 187.295 46.8216 187.295 47.6289ZM185.479 47.834V47.6289C185.479 47.1016 185.423 46.6068 185.312 46.1445C185.202 45.6758 185.029 45.2656 184.795 44.9141C184.567 44.556 184.274 44.276 183.916 44.0742C183.558 43.8659 183.132 43.7617 182.637 43.7617C182.181 43.7617 181.784 43.8398 181.445 43.9961C181.113 44.1523 180.83 44.3639 180.596 44.6309C180.361 44.8913 180.169 45.1908 180.02 45.5293C179.876 45.8613 179.769 46.2064 179.697 46.5645V49.0938C179.827 49.5495 180.01 49.9792 180.244 50.3828C180.479 50.7799 180.791 51.1022 181.182 51.3496C181.572 51.5905 182.064 51.7109 182.656 51.7109C183.145 51.7109 183.564 51.61 183.916 51.4082C184.274 51.1999 184.567 50.9167 184.795 50.5586C185.029 50.2005 185.202 49.7904 185.312 49.3281C185.423 48.8594 185.479 48.3613 185.479 47.834ZM191.953 50.1387L196.826 42.4336H198.642V53H196.826V45.2949L191.953 53H190.156V42.4336H191.953V50.1387ZM209.111 47.0137V48.4785H203.525V47.0137H209.111ZM203.905 42.4336V53H202.099V42.4336H203.905ZM210.575 42.4336V53H208.759V42.4336H210.575ZM215.839 50.1387L220.712 42.4336H222.528V53H220.712V45.2949L215.839 53H214.042V42.4336H215.839V50.1387ZM231.903 50.5977L235.496 42.4336H237.235L232.528 53H231.278L226.59 42.4336H228.329L231.903 50.5977ZM227.801 42.4336V53H225.995V42.4336H227.801ZM235.946 53V42.4336H237.762V53H235.946ZM247.303 51.1934V45.7539C247.303 45.3372 247.218 44.9759 247.049 44.6699C246.886 44.3574 246.639 44.1165 246.307 43.9473C245.975 43.778 245.564 43.6934 245.076 43.6934C244.62 43.6934 244.22 43.7715 243.875 43.9277C243.536 44.084 243.27 44.2891 243.074 44.543C242.885 44.7969 242.791 45.0703 242.791 45.3633H240.984C240.984 44.9857 241.082 44.6113 241.277 44.2402C241.473 43.8691 241.753 43.5339 242.117 43.2344C242.488 42.9284 242.931 42.6875 243.445 42.5117C243.966 42.3294 244.546 42.2383 245.184 42.2383C245.952 42.2383 246.629 42.3685 247.215 42.6289C247.807 42.8893 248.27 43.2832 248.602 43.8105C248.94 44.3314 249.109 44.9857 249.109 45.7734V50.6953C249.109 51.0469 249.139 51.4212 249.197 51.8184C249.262 52.2155 249.357 52.5573 249.48 52.8438V53H247.596C247.505 52.7917 247.433 52.515 247.381 52.1699C247.329 51.8184 247.303 51.4928 247.303 51.1934ZM247.615 46.5938L247.635 47.8633H245.809C245.294 47.8633 244.835 47.9056 244.432 47.9902C244.028 48.0684 243.689 48.1888 243.416 48.3516C243.143 48.5143 242.934 48.7194 242.791 48.9668C242.648 49.2077 242.576 49.4909 242.576 49.8164C242.576 50.1484 242.651 50.4512 242.801 50.7246C242.951 50.998 243.175 51.2161 243.475 51.3789C243.781 51.5352 244.155 51.6133 244.598 51.6133C245.151 51.6133 245.639 51.4961 246.062 51.2617C246.486 51.0273 246.821 50.7409 247.068 50.4023C247.322 50.0638 247.459 49.735 247.479 49.416L248.25 50.2852C248.204 50.5586 248.081 50.8613 247.879 51.1934C247.677 51.5254 247.407 51.8444 247.068 52.1504C246.736 52.4499 246.339 52.7005 245.877 52.9023C245.421 53.0977 244.907 53.1953 244.334 53.1953C243.618 53.1953 242.99 53.0553 242.449 52.7754C241.915 52.4954 241.499 52.1211 241.199 51.6523C240.906 51.1771 240.76 50.6465 240.76 50.0605C240.76 49.4941 240.87 48.9961 241.092 48.5664C241.313 48.1302 241.632 47.7689 242.049 47.4824C242.465 47.1895 242.967 46.9681 243.553 46.8184C244.139 46.6686 244.793 46.5938 245.516 46.5938H247.615ZM256.502 42.4336V53H254.685V42.4336H256.502ZM260.046 42.4336V43.8984H251.209V42.4336H260.046ZM265.827 53.1953C265.092 53.1953 264.424 53.0716 263.825 52.8242C263.233 52.5703 262.722 52.2155 262.292 51.7598C261.869 51.304 261.543 50.7637 261.316 50.1387C261.088 49.5137 260.974 48.8301 260.974 48.0879V47.6777C260.974 46.8184 261.101 46.0534 261.355 45.3828C261.609 44.7057 261.954 44.1328 262.39 43.6641C262.826 43.1953 263.321 42.8405 263.874 42.5996C264.428 42.3587 265.001 42.2383 265.593 42.2383C266.348 42.2383 266.999 42.3685 267.546 42.6289C268.099 42.8893 268.552 43.2539 268.904 43.7227C269.255 44.1849 269.515 44.7318 269.685 45.3633C269.854 45.9883 269.939 46.6719 269.939 47.4141V48.2246H262.048V46.75H268.132V46.6133C268.106 46.1445 268.008 45.6888 267.839 45.2461C267.676 44.8034 267.416 44.4388 267.058 44.1523C266.7 43.8659 266.211 43.7227 265.593 43.7227C265.183 43.7227 264.805 43.8105 264.46 43.9863C264.115 44.1556 263.819 44.4095 263.571 44.748C263.324 45.0866 263.132 45.5 262.995 45.9883C262.859 46.4766 262.79 47.0397 262.79 47.6777V48.0879C262.79 48.5892 262.859 49.0612 262.995 49.5039C263.139 49.9401 263.344 50.3242 263.611 50.6562C263.884 50.9883 264.213 51.2487 264.597 51.4375C264.988 51.6263 265.43 51.7207 265.925 51.7207C266.563 51.7207 267.103 51.5905 267.546 51.3301C267.989 51.0697 268.376 50.7214 268.708 50.2852L269.802 51.1543C269.574 51.4993 269.284 51.8281 268.933 52.1406C268.581 52.4531 268.148 52.707 267.634 52.9023C267.126 53.0977 266.524 53.1953 265.827 53.1953ZM279.509 42.4336V43.9277H274.401V42.4336H279.509ZM281.1 42.4336V53H279.294V42.4336H281.1ZM273.962 42.4336H275.778L275.505 47.5312C275.459 48.319 275.384 49.0156 275.28 49.6211C275.182 50.2201 275.046 50.7344 274.87 51.1641C274.701 51.5938 274.486 51.9453 274.225 52.2188C273.971 52.4857 273.665 52.6842 273.307 52.8145C272.949 52.9382 272.536 53 272.067 53H271.501V51.4082L271.891 51.3789C272.171 51.3594 272.409 51.2943 272.604 51.1836C272.806 51.0729 272.975 50.9102 273.112 50.6953C273.249 50.474 273.36 50.1908 273.444 49.8457C273.535 49.5007 273.604 49.0905 273.649 48.6152C273.701 48.14 273.74 47.5866 273.766 46.9551L273.962 42.4336ZM285.895 46.0664H289.069C289.922 46.0664 290.641 46.2161 291.227 46.5156C291.813 46.8086 292.256 47.2155 292.555 47.7363C292.861 48.2507 293.014 48.8366 293.014 49.4941C293.014 49.9824 292.929 50.4414 292.76 50.8711C292.591 51.2943 292.337 51.6654 291.998 51.9844C291.666 52.3034 291.253 52.554 290.758 52.7363C290.27 52.9121 289.707 53 289.069 53H284.577V42.4336H286.383V51.5156H289.069C289.59 51.5156 290.006 51.4212 290.319 51.2324C290.631 51.0436 290.856 50.7995 290.993 50.5C291.129 50.2005 291.198 49.888 291.198 49.5625C291.198 49.2435 291.129 48.931 290.993 48.625C290.856 48.319 290.631 48.0651 290.319 47.8633C290.006 47.6549 289.59 47.5508 289.069 47.5508H285.895V46.0664ZM299.898 51.7109C300.328 51.7109 300.725 51.623 301.09 51.4473C301.454 51.2715 301.754 51.0306 301.988 50.7246C302.223 50.4121 302.356 50.0573 302.389 49.6602H304.107C304.075 50.2852 303.863 50.8678 303.473 51.4082C303.089 51.9421 302.584 52.375 301.959 52.707C301.334 53.0326 300.647 53.1953 299.898 53.1953C299.104 53.1953 298.411 53.0553 297.818 52.7754C297.232 52.4954 296.744 52.1113 296.354 51.623C295.969 51.1348 295.68 50.5749 295.484 49.9434C295.296 49.3053 295.201 48.6315 295.201 47.9219V47.5117C295.201 46.8021 295.296 46.1315 295.484 45.5C295.68 44.862 295.969 44.2988 296.354 43.8105C296.744 43.3223 297.232 42.9382 297.818 42.6582C298.411 42.3783 299.104 42.2383 299.898 42.2383C300.725 42.2383 301.448 42.4076 302.066 42.7461C302.685 43.0781 303.17 43.5339 303.521 44.1133C303.88 44.6862 304.075 45.3372 304.107 46.0664H302.389C302.356 45.6302 302.232 45.2363 302.018 44.8848C301.809 44.5332 301.523 44.2533 301.158 44.0449C300.8 43.8301 300.38 43.7227 299.898 43.7227C299.345 43.7227 298.88 43.8333 298.502 44.0547C298.131 44.2695 297.835 44.5625 297.613 44.9336C297.398 45.2982 297.242 45.7051 297.145 46.1543C297.053 46.597 297.008 47.0495 297.008 47.5117V47.9219C297.008 48.3841 297.053 48.8398 297.145 49.2891C297.236 49.7383 297.389 50.1452 297.604 50.5098C297.825 50.8743 298.121 51.1673 298.492 51.3887C298.87 51.6035 299.339 51.7109 299.898 51.7109ZM310.845 42.4336V53H309.029V42.4336H310.845ZM314.39 42.4336V43.8984H305.552V42.4336H314.39ZM321.529 48.3516H318.062L318.042 46.9062H320.874C321.434 46.9062 321.9 46.8509 322.271 46.7402C322.648 46.6296 322.932 46.4635 323.12 46.2422C323.309 46.0208 323.404 45.7474 323.404 45.4219C323.404 45.168 323.348 44.9466 323.238 44.7578C323.133 44.5625 322.974 44.403 322.759 44.2793C322.544 44.1491 322.277 44.0547 321.958 43.9961C321.646 43.931 321.278 43.8984 320.855 43.8984H318.54V53H316.734V42.4336H320.855C321.525 42.4336 322.127 42.4922 322.661 42.6094C323.202 42.7266 323.661 42.9056 324.038 43.1465C324.422 43.3809 324.715 43.6803 324.917 44.0449C325.119 44.4095 325.22 44.8392 325.22 45.334C325.22 45.653 325.155 45.9557 325.025 46.2422C324.894 46.5286 324.702 46.7826 324.448 47.0039C324.195 47.2253 323.882 47.4076 323.511 47.5508C323.14 47.6875 322.713 47.7754 322.232 47.8145L321.529 48.3516ZM321.529 53H317.407L318.306 51.5352H321.529C322.03 51.5352 322.446 51.4733 322.779 51.3496C323.111 51.2194 323.358 51.0371 323.521 50.8027C323.69 50.5618 323.775 50.2754 323.775 49.9434C323.775 49.6113 323.69 49.3281 323.521 49.0938C323.358 48.8529 323.111 48.6706 322.779 48.5469C322.446 48.4167 322.03 48.3516 321.529 48.3516H318.784L318.804 46.9062H322.232L322.886 47.4531C323.465 47.4987 323.957 47.6419 324.361 47.8828C324.764 48.1237 325.07 48.4297 325.279 48.8008C325.487 49.1654 325.591 49.5625 325.591 49.9922C325.591 50.487 325.497 50.9232 325.308 51.3008C325.126 51.6784 324.859 51.9941 324.507 52.248C324.155 52.4954 323.729 52.6842 323.228 52.8145C322.726 52.9382 322.16 53 321.529 53ZM334.643 51.1934V45.7539C334.643 45.3372 334.559 44.9759 334.389 44.6699C334.227 44.3574 333.979 44.1165 333.647 43.9473C333.315 43.778 332.905 43.6934 332.417 43.6934C331.961 43.6934 331.561 43.7715 331.216 43.9277C330.877 44.084 330.61 44.2891 330.415 44.543C330.226 44.7969 330.132 45.0703 330.132 45.3633H328.325C328.325 44.9857 328.423 44.6113 328.618 44.2402C328.813 43.8691 329.093 43.5339 329.458 43.2344C329.829 42.9284 330.272 42.6875 330.786 42.5117C331.307 42.3294 331.886 42.2383 332.524 42.2383C333.292 42.2383 333.97 42.3685 334.555 42.6289C335.148 42.8893 335.61 43.2832 335.942 43.8105C336.281 44.3314 336.45 44.9857 336.45 45.7734V50.6953C336.45 51.0469 336.479 51.4212 336.538 51.8184C336.603 52.2155 336.697 52.5573 336.821 52.8438V53H334.936C334.845 52.7917 334.774 52.515 334.721 52.1699C334.669 51.8184 334.643 51.4928 334.643 51.1934ZM334.956 46.5938L334.975 47.8633H333.149C332.635 47.8633 332.176 47.9056 331.772 47.9902C331.369 48.0684 331.03 48.1888 330.757 48.3516C330.483 48.5143 330.275 48.7194 330.132 48.9668C329.988 49.2077 329.917 49.4909 329.917 49.8164C329.917 50.1484 329.992 50.4512 330.141 50.7246C330.291 50.998 330.516 51.2161 330.815 51.3789C331.121 51.5352 331.496 51.6133 331.938 51.6133C332.492 51.6133 332.98 51.4961 333.403 51.2617C333.826 51.0273 334.162 50.7409 334.409 50.4023C334.663 50.0638 334.8 49.735 334.819 49.416L335.591 50.2852C335.545 50.5586 335.421 50.8613 335.22 51.1934C335.018 51.5254 334.748 51.8444 334.409 52.1504C334.077 52.4499 333.68 52.7005 333.218 52.9023C332.762 53.0977 332.248 53.1953 331.675 53.1953C330.958 53.1953 330.33 53.0553 329.79 52.7754C329.256 52.4954 328.839 52.1211 328.54 51.6523C328.247 51.1771 328.1 50.6465 328.1 50.0605C328.1 49.4941 328.211 48.9961 328.432 48.5664C328.654 48.1302 328.973 47.7689 329.389 47.4824C329.806 47.1895 330.307 46.9681 330.893 46.8184C331.479 46.6686 332.134 46.5938 332.856 46.5938H334.956ZM121.33 74.1387L126.203 66.4336H128.02V77H126.203V69.2949L121.33 77H119.533V66.4336H121.33V74.1387ZM143.722 66.4336V67.9277H138.38V66.4336H143.722ZM138.644 66.4336V77H136.837V66.4336H138.644ZM145.323 66.4336V77H143.507V66.4336H145.323ZM150.43 68.4648V81.0625H148.614V66.4336H150.274L150.43 68.4648ZM157.55 71.6289V71.834C157.55 72.6022 157.458 73.3151 157.276 73.9727C157.094 74.6237 156.827 75.1901 156.475 75.6719C156.13 76.1536 155.704 76.528 155.196 76.7949C154.688 77.0618 154.106 77.1953 153.448 77.1953C152.777 77.1953 152.185 77.0846 151.671 76.8633C151.156 76.6419 150.72 76.3197 150.362 75.8965C150.004 75.4733 149.718 74.9655 149.503 74.373C149.294 73.7806 149.151 73.1133 149.073 72.3711V71.2773C149.151 70.4961 149.298 69.7962 149.513 69.1777C149.727 68.5592 150.011 68.0319 150.362 67.5957C150.72 67.153 151.153 66.8177 151.661 66.5898C152.169 66.3555 152.755 66.2383 153.419 66.2383C154.083 66.2383 154.672 66.3685 155.186 66.6289C155.701 66.8828 156.134 67.2474 156.485 67.7227C156.837 68.1979 157.1 68.7676 157.276 69.4316C157.458 70.0892 157.55 70.8216 157.55 71.6289ZM155.733 71.834V71.6289C155.733 71.1016 155.678 70.6068 155.567 70.1445C155.457 69.6758 155.284 69.2656 155.05 68.9141C154.822 68.556 154.529 68.276 154.171 68.0742C153.813 67.8659 153.386 67.7617 152.891 67.7617C152.436 67.7617 152.039 67.8398 151.7 67.9961C151.368 68.1523 151.085 68.3639 150.85 68.6309C150.616 68.8913 150.424 69.1908 150.274 69.5293C150.131 69.8613 150.024 70.2064 149.952 70.5645V73.0938C150.082 73.5495 150.264 73.9792 150.499 74.3828C150.733 74.7799 151.046 75.1022 151.436 75.3496C151.827 75.5905 152.318 75.7109 152.911 75.7109C153.399 75.7109 153.819 75.61 154.171 75.4082C154.529 75.1999 154.822 74.9167 155.05 74.5586C155.284 74.2005 155.457 73.7904 155.567 73.3281C155.678 72.8594 155.733 72.3613 155.733 71.834ZM166.485 75.1934V69.7539C166.485 69.3372 166.4 68.9759 166.231 68.6699C166.068 68.3574 165.821 68.1165 165.489 67.9473C165.157 67.778 164.746 67.6934 164.258 67.6934C163.802 67.6934 163.402 67.7715 163.057 67.9277C162.718 68.084 162.452 68.2891 162.256 68.543C162.067 68.7969 161.973 69.0703 161.973 69.3633H160.166C160.166 68.9857 160.264 68.6113 160.459 68.2402C160.655 67.8691 160.935 67.5339 161.299 67.2344C161.67 66.9284 162.113 66.6875 162.627 66.5117C163.148 66.3294 163.728 66.2383 164.366 66.2383C165.134 66.2383 165.811 66.3685 166.397 66.6289C166.989 66.8893 167.452 67.2832 167.784 67.8105C168.122 68.3314 168.291 68.9857 168.291 69.7734V74.6953C168.291 75.0469 168.321 75.4212 168.379 75.8184C168.444 76.2155 168.539 76.5573 168.662 76.8438V77H166.778C166.687 76.7917 166.615 76.515 166.563 76.1699C166.511 75.8184 166.485 75.4928 166.485 75.1934ZM166.797 70.5938L166.817 71.8633H164.991C164.476 71.8633 164.017 71.9056 163.614 71.9902C163.21 72.0684 162.871 72.1888 162.598 72.3516C162.325 72.5143 162.116 72.7194 161.973 72.9668C161.83 73.2077 161.758 73.4909 161.758 73.8164C161.758 74.1484 161.833 74.4512 161.983 74.7246C162.133 74.998 162.357 75.2161 162.657 75.3789C162.963 75.5352 163.337 75.6133 163.78 75.6133C164.333 75.6133 164.821 75.4961 165.245 75.2617C165.668 75.0273 166.003 74.7409 166.25 74.4023C166.504 74.0638 166.641 73.735 166.661 73.416L167.432 74.2852C167.386 74.5586 167.263 74.8613 167.061 75.1934C166.859 75.5254 166.589 75.8444 166.25 76.1504C165.918 76.4499 165.521 76.7005 165.059 76.9023C164.603 77.0977 164.089 77.1953 163.516 77.1953C162.8 77.1953 162.172 77.0553 161.631 76.7754C161.097 76.4954 160.681 76.1211 160.381 75.6523C160.088 75.1771 159.942 74.6465 159.942 74.0605C159.942 73.4941 160.052 72.9961 160.274 72.5664C160.495 72.1302 160.814 71.7689 161.231 71.4824C161.648 71.1895 162.149 70.9681 162.735 70.8184C163.321 70.6686 163.975 70.5938 164.698 70.5938H166.797ZM176.494 72.3516H173.027L173.008 70.9062H175.84C176.4 70.9062 176.865 70.8509 177.236 70.7402C177.614 70.6296 177.897 70.4635 178.086 70.2422C178.275 70.0208 178.369 69.7474 178.369 69.4219C178.369 69.168 178.314 68.9466 178.203 68.7578C178.099 68.5625 177.939 68.403 177.725 68.2793C177.51 68.1491 177.243 68.0547 176.924 67.9961C176.611 67.931 176.243 67.8984 175.82 67.8984H173.506V77H171.699V66.4336H175.82C176.491 66.4336 177.093 66.4922 177.627 66.6094C178.167 66.7266 178.626 66.9056 179.004 67.1465C179.388 67.3809 179.681 67.6803 179.883 68.0449C180.085 68.4095 180.186 68.8392 180.186 69.334C180.186 69.653 180.12 69.9557 179.99 70.2422C179.86 70.5286 179.668 70.7826 179.414 71.0039C179.16 71.2253 178.848 71.4076 178.477 71.5508C178.105 71.6875 177.679 71.7754 177.197 71.8145L176.494 72.3516ZM176.494 77H172.373L173.271 75.5352H176.494C176.995 75.5352 177.412 75.4733 177.744 75.3496C178.076 75.2194 178.324 75.0371 178.486 74.8027C178.656 74.5618 178.74 74.2754 178.74 73.9434C178.74 73.6113 178.656 73.3281 178.486 73.0938C178.324 72.8529 178.076 72.6706 177.744 72.5469C177.412 72.4167 176.995 72.3516 176.494 72.3516H173.75L173.77 70.9062H177.197L177.852 71.4531C178.431 71.4987 178.923 71.6419 179.326 71.8828C179.73 72.1237 180.036 72.4297 180.244 72.8008C180.452 73.1654 180.557 73.5625 180.557 73.9922C180.557 74.487 180.462 74.9232 180.273 75.3008C180.091 75.6784 179.824 75.9941 179.473 76.248C179.121 76.4954 178.695 76.6842 178.193 76.8145C177.692 76.9382 177.126 77 176.494 77ZM189.609 75.1934V69.7539C189.609 69.3372 189.524 68.9759 189.355 68.6699C189.192 68.3574 188.945 68.1165 188.613 67.9473C188.281 67.778 187.871 67.6934 187.382 67.6934C186.927 67.6934 186.526 67.7715 186.181 67.9277C185.843 68.084 185.576 68.2891 185.38 68.543C185.192 68.7969 185.097 69.0703 185.097 69.3633H183.291C183.291 68.9857 183.388 68.6113 183.584 68.2402C183.779 67.8691 184.059 67.5339 184.423 67.2344C184.795 66.9284 185.237 66.6875 185.752 66.5117C186.272 66.3294 186.852 66.2383 187.49 66.2383C188.258 66.2383 188.935 66.3685 189.521 66.6289C190.114 66.8893 190.576 67.2832 190.908 67.8105C191.246 68.3314 191.416 68.9857 191.416 69.7734V74.6953C191.416 75.0469 191.445 75.4212 191.504 75.8184C191.569 76.2155 191.663 76.5573 191.787 76.8438V77H189.902C189.811 76.7917 189.739 76.515 189.687 76.1699C189.635 75.8184 189.609 75.4928 189.609 75.1934ZM189.921 70.5938L189.941 71.8633H188.115C187.601 71.8633 187.142 71.9056 186.738 71.9902C186.334 72.0684 185.996 72.1888 185.722 72.3516C185.449 72.5143 185.24 72.7194 185.097 72.9668C184.954 73.2077 184.882 73.4909 184.882 73.8164C184.882 74.1484 184.957 74.4512 185.107 74.7246C185.257 74.998 185.481 75.2161 185.781 75.3789C186.087 75.5352 186.461 75.6133 186.904 75.6133C187.457 75.6133 187.946 75.4961 188.369 75.2617C188.792 75.0273 189.127 74.7409 189.375 74.4023C189.629 74.0638 189.765 73.735 189.785 73.416L190.556 74.2852C190.511 74.5586 190.387 74.8613 190.185 75.1934C189.983 75.5254 189.713 75.8444 189.375 76.1504C189.043 76.4499 188.645 76.7005 188.183 76.9023C187.727 77.0977 187.213 77.1953 186.64 77.1953C185.924 77.1953 185.296 77.0553 184.755 76.7754C184.222 76.4954 183.805 76.1211 183.505 75.6523C183.213 75.1771 183.066 74.6465 183.066 74.0605C183.066 73.4941 183.177 72.9961 183.398 72.5664C183.619 72.1302 183.938 71.7689 184.355 71.4824C184.772 71.1895 185.273 70.9681 185.859 70.8184C186.445 70.6686 187.099 70.5938 187.822 70.5938H189.921Z" fill="#0061FF"/>
</svg>
