<svg width="394" height="96" viewBox="0 0 394 96" fill="none" xmlns="http://www.w3.org/2000/svg">
<path d="M19.3693 73.0044V46.4438L44.039 61.9394L44.1303 61.9985C44.6688 62.3438 45.2947 62.5273 45.935 62.5273H45.9399C46.5754 62.5273 47.1915 62.3502 47.7203 62.0154L73.2843 45.9093V60.7741C73.2843 62.3761 72.9916 63.9684 72.3763 65.4466C70.2676 70.5096 63.6181 79.8206 43.2248 79.8206L42.2472 79.8222C41.6101 79.8222 41.6101 79.8238 41.0425 79.7939L39.7941 79.7333C38.0323 79.6524 36.5938 80.7659 36.3731 82.3808C36.2567 83.2356 36.5 84.1097 37.0394 84.7809C37.5487 85.4133 38.2627 85.7958 39.0494 85.8589C40.5921 85.9818 40.9552 86.0061 41.4912 86.0061C41.6295 86.0061 41.7799 86.0044 41.965 86.002C42.2545 85.9988 42.6329 85.9947 43.2248 85.9947H43.2547C70.2886 85.9947 77.2866 70.8032 78.9555 65.1118C79.2829 63.9951 79.4398 62.8387 79.4406 61.6742L79.4568 42.3382C79.4568 42.2355 79.4366 42.1393 79.4269 42.039L85.9915 37.9027C86.9076 37.3253 87.5803 36.3816 87.6797 35.3029C87.7986 34.0244 87.2019 32.8267 86.1354 32.1547L47.7163 7.94821C46.6344 7.26812 45.2381 7.27055 44.1586 7.95144L5.74517 32.1547C4.30514 33.0629 3.87176 34.9729 4.77895 36.4115C5.218 37.1102 5.90284 37.5962 6.70735 37.7782C7.51105 37.9617 8.339 37.8194 9.03517 37.3787L45.9399 14.1256L79.042 34.9826L45.9399 55.8405L17.9325 38.2432C17.2339 37.8041 16.4067 37.6617 15.603 37.8445C14.7993 38.0264 14.1145 38.5116 13.6754 39.2095C13.2728 39.8484 13.1216 40.6045 13.2445 41.3509C13.2121 41.532 13.196 41.7107 13.196 41.8846V77.4027C13.196 78.2065 13.4402 79.0087 13.9576 79.6241C14.8244 80.6527 16.1423 81.057 17.3972 80.7255L21.0616 79.7519L26.5799 87.2085C27.2049 88.0552 28.2051 88.5606 29.2546 88.5606C29.8052 88.5606 30.3494 88.4232 30.8458 88.1571C31.9536 87.5643 32.5842 86.3473 32.5842 85.0915V62.1901C32.5842 60.7175 31.5881 59.376 30.1448 59.0808C28.1615 58.6749 26.4109 60.1879 26.4109 62.102V78.2219L22.3366 72.3946L19.3693 73.0044Z" fill="#0061FF"/>
<path d="M121.613 15.7383L128.615 4.78125H130.5V19H128.615V8.0332L121.613 19H119.738V4.78125H121.613V15.7383ZM141.222 13.0137V14.4785H135.636V13.0137H141.222ZM136.017 8.43359V19H134.211V8.43359H136.017ZM142.687 8.43359V19H140.871V8.43359H142.687ZM150.226 17.7109C150.655 17.7109 151.053 17.623 151.417 17.4473C151.782 17.2715 152.081 17.0306 152.316 16.7246C152.55 16.4121 152.683 16.0573 152.716 15.6602H154.435C154.402 16.2852 154.191 16.8678 153.8 17.4082C153.416 17.9421 152.911 18.375 152.286 18.707C151.661 19.0326 150.974 19.1953 150.226 19.1953C149.432 19.1953 148.738 19.0553 148.146 18.7754C147.56 18.4954 147.071 18.1113 146.681 17.623C146.297 17.1348 146.007 16.5749 145.812 15.9434C145.623 15.3053 145.529 14.6315 145.529 13.9219V13.5117C145.529 12.8021 145.623 12.1315 145.812 11.5C146.007 10.862 146.297 10.2988 146.681 9.81055C147.071 9.32227 147.56 8.93815 148.146 8.6582C148.738 8.37826 149.432 8.23828 150.226 8.23828C151.053 8.23828 151.775 8.40755 152.394 8.74609C153.012 9.07812 153.497 9.53385 153.849 10.1133C154.207 10.6862 154.402 11.3372 154.435 12.0664H152.716C152.683 11.6302 152.56 11.2363 152.345 10.8848C152.137 10.5332 151.85 10.2533 151.486 10.0449C151.127 9.83008 150.708 9.72266 150.226 9.72266C149.672 9.72266 149.207 9.83333 148.829 10.0547C148.458 10.2695 148.162 10.5625 147.941 10.9336C147.726 11.2982 147.57 11.7051 147.472 12.1543C147.381 12.597 147.335 13.0495 147.335 13.5117V13.9219C147.335 14.3841 147.381 14.8398 147.472 15.2891C147.563 15.7383 147.716 16.1452 147.931 16.5098C148.152 16.8743 148.448 17.1673 148.82 17.3887C149.197 17.6035 149.666 17.7109 150.226 17.7109ZM161.173 8.43359V19H159.356V8.43359H161.173ZM164.718 8.43359V9.89844H155.88V8.43359H164.718ZM168.848 16.1387L173.721 8.43359H175.537V19H173.721V11.2949L168.848 19H167.051V8.43359H168.848V16.1387ZM183.145 8.43359V19H181.328V8.43359H183.145ZM186.689 8.43359V9.89844H177.852V8.43359H186.689ZM191.953 17.9062L194.892 8.43359H196.826L192.588 20.6309C192.49 20.8913 192.36 21.1712 192.197 21.4707C192.041 21.7767 191.839 22.0664 191.591 22.3398C191.344 22.6133 191.045 22.8346 190.693 23.0039C190.348 23.1797 189.935 23.2676 189.453 23.2676C189.31 23.2676 189.127 23.248 188.906 23.209C188.685 23.1699 188.528 23.1374 188.437 23.1113L188.427 21.6465C188.479 21.653 188.561 21.6595 188.671 21.666C188.789 21.679 188.87 21.6855 188.916 21.6855C189.326 21.6855 189.674 21.6302 189.961 21.5195C190.247 21.4154 190.488 21.2363 190.683 20.9824C190.885 20.735 191.058 20.3932 191.201 19.957L191.953 17.9062ZM189.795 8.43359L192.539 16.6367L193.007 18.541L191.709 19.2051L187.822 8.43359H189.795ZM203.163 8.43359V19H201.347V8.43359H203.163ZM206.708 8.43359V9.89844H197.87V8.43359H206.708ZM226.395 13.9023V14.1074C226.395 14.8496 226.314 15.5332 226.151 16.1582C225.988 16.7767 225.744 17.3138 225.418 17.7695C225.099 18.2253 224.702 18.5801 224.227 18.834C223.752 19.0814 223.202 19.2051 222.577 19.2051C222.062 19.2051 221.61 19.1367 221.219 19C220.829 18.8568 220.496 18.6517 220.223 18.3848C219.956 18.1178 219.741 17.7988 219.579 17.4277C219.422 17.0501 219.315 16.627 219.256 16.1582V11.4707C219.315 10.9694 219.422 10.5202 219.579 10.123C219.741 9.72591 219.956 9.38737 220.223 9.10742C220.496 8.82747 220.825 8.61263 221.209 8.46289C221.593 8.31315 222.043 8.23828 222.557 8.23828C223.065 8.23828 223.521 8.32943 223.924 8.51172C224.334 8.6875 224.692 8.94141 224.998 9.27344C225.311 9.60547 225.568 10.0059 225.77 10.4746C225.978 10.9368 226.135 11.4577 226.239 12.0371C226.343 12.6165 226.395 13.2383 226.395 13.9023ZM224.588 14.1074V13.9023C224.588 13.4466 224.556 13.0137 224.491 12.6035C224.432 12.1868 224.338 11.806 224.207 11.4609C224.084 11.1094 223.921 10.8034 223.719 10.543C223.517 10.2826 223.273 10.0807 222.987 9.9375C222.707 9.79427 222.385 9.72266 222.02 9.72266C221.629 9.72266 221.304 9.77148 221.043 9.86914C220.789 9.9668 220.591 10.097 220.448 10.2598C220.304 10.416 220.2 10.582 220.135 10.7578V16.8809C220.213 17.0241 220.327 17.1608 220.477 17.291C220.627 17.4147 220.829 17.5189 221.082 17.6035C221.336 17.6816 221.655 17.7207 222.039 17.7207C222.495 17.7207 222.883 17.6296 223.202 17.4473C223.527 17.2585 223.791 16.998 223.993 16.666C224.201 16.334 224.351 15.9499 224.442 15.5137C224.539 15.0775 224.588 14.6087 224.588 14.1074ZM213.846 14.1074V13.9023C213.846 13.2383 213.898 12.6165 214.002 12.0371C214.107 11.4577 214.263 10.9368 214.471 10.4746C214.679 10.0059 214.937 9.60547 215.243 9.27344C215.555 8.94141 215.913 8.6875 216.317 8.51172C216.727 8.32943 217.186 8.23828 217.694 8.23828C218.195 8.23828 218.631 8.31315 219.002 8.46289C219.38 8.61263 219.699 8.82747 219.959 9.10742C220.22 9.38737 220.428 9.72591 220.584 10.123C220.741 10.5202 220.851 10.9694 220.916 11.4707V15.9727C220.858 16.4674 220.75 16.9134 220.594 17.3105C220.438 17.7077 220.23 18.0495 219.969 18.3359C219.709 18.6159 219.386 18.8307 219.002 18.9805C218.625 19.1302 218.182 19.2051 217.674 19.2051C217.049 19.2051 216.499 19.0814 216.024 18.834C215.549 18.5801 215.148 18.2253 214.823 17.7695C214.504 17.3138 214.26 16.7767 214.09 16.1582C213.927 15.5332 213.846 14.8496 213.846 14.1074ZM215.662 13.9023V14.1074C215.662 14.6087 215.705 15.0775 215.789 15.5137C215.881 15.9499 216.021 16.334 216.209 16.666C216.405 16.998 216.659 17.2585 216.971 17.4473C217.284 17.6296 217.668 17.7207 218.123 17.7207C218.514 17.7207 218.836 17.6719 219.09 17.5742C219.344 17.4766 219.546 17.3496 219.696 17.1934C219.845 17.0371 219.959 16.8743 220.037 16.7051V10.7578C219.972 10.582 219.865 10.416 219.715 10.2598C219.572 10.097 219.373 9.9668 219.12 9.86914C218.866 9.77148 218.54 9.72266 218.143 9.72266C217.687 9.72266 217.3 9.83333 216.981 10.0547C216.662 10.276 216.405 10.5788 216.209 10.9629C216.021 11.347 215.881 11.793 215.789 12.3008C215.705 12.8021 215.662 13.3359 215.662 13.9023ZM219.139 23.0625V4H220.955V23.0625H219.139ZM232.01 17.9062L234.949 8.43359H236.883L232.645 20.6309C232.547 20.8913 232.417 21.1712 232.254 21.4707C232.098 21.7767 231.896 22.0664 231.648 22.3398C231.401 22.6133 231.102 22.8346 230.75 23.0039C230.405 23.1797 229.992 23.2676 229.51 23.2676C229.367 23.2676 229.184 23.248 228.963 23.209C228.742 23.1699 228.585 23.1374 228.494 23.1113L228.484 21.6465C228.536 21.653 228.618 21.6595 228.729 21.666C228.846 21.679 228.927 21.6855 228.973 21.6855C229.383 21.6855 229.731 21.6302 230.018 21.5195C230.304 21.4154 230.545 21.2363 230.74 20.9824C230.942 20.735 231.115 20.3932 231.258 19.957L232.01 17.9062ZM229.852 8.43359L232.596 16.6367L233.064 18.541L231.766 19.2051L227.879 8.43359H229.852ZM246.082 13.0137V14.4785H240.496V13.0137H246.082ZM240.877 8.43359V19H239.07V8.43359H240.877ZM247.546 8.43359V19H245.73V8.43359H247.546ZM252.761 8.43359H254.568L254.411 12.3887C254.372 13.3913 254.258 14.2572 254.07 14.9863C253.881 15.7155 253.64 16.3372 253.347 16.8516C253.054 17.3594 252.725 17.7858 252.361 18.1309C252.002 18.4759 251.631 18.7656 251.247 19H250.349L250.398 17.5254L250.769 17.5156C250.984 17.2617 251.192 17.0013 251.394 16.7344C251.596 16.4609 251.781 16.1387 251.95 15.7676C252.12 15.39 252.26 14.931 252.37 14.3906C252.488 13.8438 252.562 13.1764 252.595 12.3887L252.761 8.43359ZM253.21 8.43359H259.568V19H257.761V10.1035H253.21V8.43359ZM249.939 17.5156H260.925V22.1152H259.118V19H251.745V22.1152H249.929L249.939 17.5156ZM269.557 17.1934V11.7539C269.557 11.3372 269.473 10.9759 269.304 10.6699C269.141 10.3574 268.893 10.1165 268.561 9.94727C268.229 9.77799 267.819 9.69336 267.331 9.69336C266.875 9.69336 266.475 9.77148 266.13 9.92773C265.791 10.084 265.524 10.2891 265.329 10.543C265.14 10.7969 265.046 11.0703 265.046 11.3633H263.239C263.239 10.9857 263.337 10.6113 263.532 10.2402C263.727 9.86914 264.007 9.53385 264.372 9.23438C264.743 8.92839 265.186 8.6875 265.7 8.51172C266.221 8.32943 266.8 8.23828 267.438 8.23828C268.207 8.23828 268.884 8.36849 269.47 8.62891C270.062 8.88932 270.524 9.2832 270.856 9.81055C271.195 10.3314 271.364 10.9857 271.364 11.7734V16.6953C271.364 17.0469 271.393 17.4212 271.452 17.8184C271.517 18.2155 271.611 18.5573 271.735 18.8438V19H269.85C269.759 18.7917 269.688 18.515 269.636 18.1699C269.583 17.8184 269.557 17.4928 269.557 17.1934ZM269.87 12.5938L269.889 13.8633H268.063C267.549 13.8633 267.09 13.9056 266.686 13.9902C266.283 14.0684 265.944 14.1888 265.671 14.3516C265.397 14.5143 265.189 14.7194 265.046 14.9668C264.902 15.2077 264.831 15.4909 264.831 15.8164C264.831 16.1484 264.906 16.4512 265.055 16.7246C265.205 16.998 265.43 17.2161 265.729 17.3789C266.035 17.5352 266.41 17.6133 266.852 17.6133C267.406 17.6133 267.894 17.4961 268.317 17.2617C268.74 17.0273 269.076 16.7409 269.323 16.4023C269.577 16.0638 269.714 15.735 269.733 15.416L270.505 16.2852C270.459 16.5586 270.335 16.8613 270.134 17.1934C269.932 17.5254 269.662 17.8444 269.323 18.1504C268.991 18.4499 268.594 18.7005 268.132 18.9023C267.676 19.0977 267.162 19.1953 266.589 19.1953C265.873 19.1953 265.244 19.0553 264.704 18.7754C264.17 18.4954 263.753 18.1211 263.454 17.6523C263.161 17.1771 263.014 16.6465 263.014 16.0605C263.014 15.4941 263.125 14.9961 263.346 14.5664C263.568 14.1302 263.887 13.7689 264.304 13.4824C264.72 13.1895 265.221 12.9681 265.807 12.8184C266.393 12.6686 267.048 12.5938 267.77 12.5938H269.87ZM280.68 16.5977L284.274 8.43359H286.012L281.305 19H280.055L275.368 8.43359H277.106L280.68 16.5977ZM276.579 8.43359V19H274.772V8.43359H276.579ZM284.723 19V8.43359H286.539V19H284.723ZM294.234 19.1953C293.499 19.1953 292.831 19.0716 292.232 18.8242C291.64 18.5703 291.129 18.2155 290.699 17.7598C290.276 17.304 289.951 16.7637 289.723 16.1387C289.495 15.5137 289.381 14.8301 289.381 14.0879V13.6777C289.381 12.8184 289.508 12.0534 289.762 11.3828C290.016 10.7057 290.361 10.1328 290.797 9.66406C291.233 9.19531 291.728 8.84049 292.281 8.59961C292.835 8.35872 293.408 8.23828 294 8.23828C294.755 8.23828 295.406 8.36849 295.953 8.62891C296.507 8.88932 296.959 9.25391 297.311 9.72266C297.662 10.1849 297.923 10.7318 298.092 11.3633C298.261 11.9883 298.346 12.6719 298.346 13.4141V14.2246H290.455V12.75H296.539V12.6133C296.513 12.1445 296.415 11.6888 296.246 11.2461C296.083 10.8034 295.823 10.4388 295.465 10.1523C295.107 9.86589 294.618 9.72266 294 9.72266C293.59 9.72266 293.212 9.81055 292.867 9.98633C292.522 10.1556 292.226 10.4095 291.979 10.748C291.731 11.0866 291.539 11.5 291.402 11.9883C291.266 12.4766 291.197 13.0397 291.197 13.6777V14.0879C291.197 14.5892 291.266 15.0612 291.402 15.5039C291.546 15.9401 291.751 16.3242 292.018 16.6562C292.291 16.9883 292.62 17.2487 293.004 17.4375C293.395 17.6263 293.837 17.7207 294.332 17.7207C294.97 17.7207 295.51 17.5905 295.953 17.3301C296.396 17.0697 296.783 16.7214 297.115 16.2852L298.209 17.1543C297.981 17.4993 297.691 17.8281 297.34 18.1406C296.988 18.4531 296.555 18.707 296.041 18.9023C295.533 19.0977 294.931 19.1953 294.234 19.1953ZM308.023 13.0137V14.4785H302.437V13.0137H308.023ZM302.818 8.43359V19H301.011V8.43359H302.818ZM309.488 8.43359V19H307.671V8.43359H309.488ZM317.105 8.43359V19H315.288V8.43359H317.105ZM320.65 8.43359V9.89844H311.812V8.43359H320.65ZM328.901 17.1934V11.7539C328.901 11.3372 328.817 10.9759 328.647 10.6699C328.485 10.3574 328.237 10.1165 327.905 9.94727C327.573 9.77799 327.163 9.69336 326.675 9.69336C326.219 9.69336 325.818 9.77148 325.473 9.92773C325.135 10.084 324.868 10.2891 324.673 10.543C324.484 10.7969 324.389 11.0703 324.389 11.3633H322.583C322.583 10.9857 322.68 10.6113 322.876 10.2402C323.071 9.86914 323.351 9.53385 323.716 9.23438C324.087 8.92839 324.529 8.6875 325.044 8.51172C325.565 8.32943 326.144 8.23828 326.782 8.23828C327.55 8.23828 328.227 8.36849 328.813 8.62891C329.406 8.88932 329.868 9.2832 330.2 9.81055C330.539 10.3314 330.708 10.9857 330.708 11.7734V16.6953C330.708 17.0469 330.737 17.4212 330.796 17.8184C330.861 18.2155 330.955 18.5573 331.079 18.8438V19H329.194C329.103 18.7917 329.031 18.515 328.979 18.1699C328.927 17.8184 328.901 17.4928 328.901 17.1934ZM329.214 12.5938L329.233 13.8633H327.407C326.893 13.8633 326.434 13.9056 326.03 13.9902C325.626 14.0684 325.288 14.1888 325.014 14.3516C324.741 14.5143 324.533 14.7194 324.389 14.9668C324.246 15.2077 324.175 15.4909 324.175 15.8164C324.175 16.1484 324.249 16.4512 324.399 16.7246C324.549 16.998 324.774 17.2161 325.073 17.3789C325.379 17.5352 325.753 17.6133 326.196 17.6133C326.749 17.6133 327.238 17.4961 327.661 17.2617C328.084 17.0273 328.419 16.7409 328.667 16.4023C328.921 16.0638 329.057 15.735 329.077 15.416L329.848 16.2852C329.803 16.5586 329.679 16.8613 329.477 17.1934C329.276 17.5254 329.005 17.8444 328.667 18.1504C328.335 18.4499 327.938 18.7005 327.475 18.9023C327.02 19.0977 326.505 19.1953 325.932 19.1953C325.216 19.1953 324.588 19.0553 324.048 18.7754C323.514 18.4954 323.097 18.1211 322.798 17.6523C322.505 17.1771 322.358 16.6465 322.358 16.0605C322.358 15.4941 322.469 14.9961 322.69 14.5664C322.912 14.1302 323.231 13.7689 323.647 13.4824C324.064 13.1895 324.565 12.9681 325.151 12.8184C325.737 12.6686 326.391 12.5938 327.114 12.5938H329.214ZM341.01 8.43359V9.92773H335.903V8.43359H341.01ZM342.602 8.43359V19H340.795V8.43359H342.602ZM335.463 8.43359H337.28L337.006 13.5312C336.961 14.319 336.886 15.0156 336.782 15.6211C336.684 16.2201 336.547 16.7344 336.371 17.1641C336.202 17.5938 335.987 17.9453 335.727 18.2188C335.473 18.4857 335.167 18.6842 334.809 18.8145C334.451 18.9382 334.038 19 333.569 19H333.002V17.4082L333.393 17.3789C333.673 17.3594 333.911 17.2943 334.106 17.1836C334.308 17.0729 334.477 16.9102 334.614 16.6953C334.75 16.474 334.861 16.1908 334.946 15.8457C335.037 15.5007 335.105 15.0905 335.151 14.6152C335.203 14.14 335.242 13.5866 335.268 12.9551L335.463 8.43359ZM347.396 12.0664H350.57C351.423 12.0664 352.143 12.2161 352.729 12.5156C353.314 12.8086 353.757 13.2155 354.057 13.7363C354.363 14.2507 354.516 14.8366 354.516 15.4941C354.516 15.9824 354.431 16.4414 354.262 16.8711C354.092 17.2943 353.839 17.6654 353.5 17.9844C353.168 18.3034 352.755 18.554 352.26 18.7363C351.771 18.9121 351.208 19 350.57 19H346.078V8.43359H347.885V17.5156H350.57C351.091 17.5156 351.508 17.4212 351.82 17.2324C352.133 17.0436 352.357 16.7995 352.494 16.5C352.631 16.2005 352.699 15.888 352.699 15.5625C352.699 15.2435 352.631 14.931 352.494 14.625C352.357 14.319 352.133 14.0651 351.82 13.8633C351.508 13.6549 351.091 13.5508 350.57 13.5508H347.396V12.0664ZM364.339 13.0137V14.4785H358.754V13.0137H364.339ZM359.134 8.43359V19H357.328V8.43359H359.134ZM365.804 8.43359V19H363.988V8.43359H365.804ZM368.636 13.834V13.6094C368.636 12.8477 368.747 12.1413 368.968 11.4902C369.189 10.8327 369.508 10.263 369.925 9.78125C370.342 9.29297 370.846 8.91536 371.439 8.64844C372.031 8.375 372.695 8.23828 373.431 8.23828C374.173 8.23828 374.84 8.375 375.433 8.64844C376.032 8.91536 376.54 9.29297 376.956 9.78125C377.379 10.263 377.702 10.8327 377.923 11.4902C378.144 12.1413 378.255 12.8477 378.255 13.6094V13.834C378.255 14.5957 378.144 15.3021 377.923 15.9531C377.702 16.6042 377.379 17.1738 376.956 17.6621C376.54 18.1439 376.035 18.5215 375.443 18.7949C374.857 19.0618 374.193 19.1953 373.45 19.1953C372.708 19.1953 372.041 19.0618 371.448 18.7949C370.856 18.5215 370.348 18.1439 369.925 17.6621C369.508 17.1738 369.189 16.6042 368.968 15.9531C368.747 15.3021 368.636 14.5957 368.636 13.834ZM370.443 13.6094V13.834C370.443 14.3613 370.504 14.8594 370.628 15.3281C370.752 15.7904 370.937 16.2005 371.185 16.5586C371.439 16.9167 371.754 17.1999 372.132 17.4082C372.51 17.61 372.949 17.7109 373.45 17.7109C373.945 17.7109 374.378 17.61 374.749 17.4082C375.127 17.1999 375.439 16.9167 375.687 16.5586C375.934 16.2005 376.12 15.7904 376.243 15.3281C376.374 14.8594 376.439 14.3613 376.439 13.834V13.6094C376.439 13.0885 376.374 12.597 376.243 12.1348C376.12 11.666 375.931 11.2526 375.677 10.8945C375.43 10.5299 375.117 10.2435 374.739 10.0352C374.368 9.82682 373.932 9.72266 373.431 9.72266C372.936 9.72266 372.5 9.82682 372.122 10.0352C371.751 10.2435 371.439 10.5299 371.185 10.8945C370.937 11.2526 370.752 11.666 370.628 12.1348C370.504 12.597 370.443 13.0885 370.443 13.6094ZM382.874 16.1387L387.747 8.43359H389.563V19H387.747V11.2949L382.874 19H381.077V8.43359H382.874V16.1387ZM386.761 4.60547H388.225C388.225 5.11328 388.108 5.56576 387.874 5.96289C387.639 6.35352 387.304 6.65951 386.868 6.88086C386.432 7.10221 385.914 7.21289 385.315 7.21289C384.41 7.21289 383.694 6.97201 383.167 6.49023C382.646 6.00195 382.386 5.3737 382.386 4.60547H383.85C383.85 4.98958 383.961 5.32812 384.182 5.62109C384.404 5.91406 384.781 6.06055 385.315 6.06055C385.836 6.06055 386.207 5.91406 386.429 5.62109C386.65 5.32812 386.761 4.98958 386.761 4.60547ZM126.418 32.4336V33.9277H121.076V32.4336H126.418ZM121.34 32.4336V43H119.533V32.4336H121.34ZM128.02 32.4336V43H126.203V32.4336H128.02ZM130.841 37.834V37.6094C130.841 36.8477 130.952 36.1413 131.173 35.4902C131.395 34.8327 131.714 34.263 132.13 33.7812C132.547 33.293 133.052 32.9154 133.644 32.6484C134.237 32.375 134.901 32.2383 135.636 32.2383C136.379 32.2383 137.046 32.375 137.638 32.6484C138.237 32.9154 138.745 33.293 139.162 33.7812C139.585 34.263 139.907 34.8327 140.129 35.4902C140.35 36.1413 140.461 36.8477 140.461 37.6094V37.834C140.461 38.5957 140.35 39.3021 140.129 39.9531C139.907 40.6042 139.585 41.1738 139.162 41.6621C138.745 42.1439 138.24 42.5215 137.648 42.7949C137.062 43.0618 136.398 43.1953 135.656 43.1953C134.914 43.1953 134.246 43.0618 133.654 42.7949C133.061 42.5215 132.554 42.1439 132.13 41.6621C131.714 41.1738 131.395 40.6042 131.173 39.9531C130.952 39.3021 130.841 38.5957 130.841 37.834ZM132.648 37.6094V37.834C132.648 38.3613 132.71 38.8594 132.834 39.3281C132.957 39.7904 133.143 40.2005 133.39 40.5586C133.644 40.9167 133.96 41.1999 134.337 41.4082C134.715 41.61 135.155 41.7109 135.656 41.7109C136.151 41.7109 136.584 41.61 136.955 41.4082C137.332 41.1999 137.645 40.9167 137.892 40.5586C138.14 40.2005 138.325 39.7904 138.449 39.3281C138.579 38.8594 138.644 38.3613 138.644 37.834V37.6094C138.644 37.0885 138.579 36.597 138.449 36.1348C138.325 35.666 138.136 35.2526 137.882 34.8945C137.635 34.5299 137.323 34.2435 136.945 34.0352C136.574 33.8268 136.138 33.7227 135.636 33.7227C135.142 33.7227 134.705 33.8268 134.328 34.0352C133.957 34.2435 133.644 34.5299 133.39 34.8945C133.143 35.2526 132.957 35.666 132.834 36.1348C132.71 36.597 132.648 37.0885 132.648 37.6094ZM144.327 32.4336H146.134L145.978 36.3887C145.939 37.3913 145.825 38.2572 145.636 38.9863C145.447 39.7155 145.206 40.3372 144.913 40.8516C144.62 41.3594 144.292 41.7858 143.927 42.1309C143.569 42.4759 143.198 42.7656 142.814 43H141.915L141.964 41.5254L142.335 41.5156C142.55 41.2617 142.758 41.0013 142.96 40.7344C143.162 40.4609 143.348 40.1387 143.517 39.7676C143.686 39.39 143.826 38.931 143.937 38.3906C144.054 37.8438 144.129 37.1764 144.161 36.3887L144.327 32.4336ZM144.777 32.4336H151.134V43H149.327V34.1035H144.777V32.4336ZM141.505 41.5156H152.491V46.1152H150.685V43H143.312V46.1152H141.495L141.505 41.5156ZM161.72 32.4336V33.9277H156.837V43H155.03V32.4336H161.72ZM163.018 37.834V37.6094C163.018 36.8477 163.129 36.1413 163.35 35.4902C163.571 34.8327 163.89 34.263 164.307 33.7812C164.724 33.293 165.228 32.9154 165.821 32.6484C166.413 32.375 167.077 32.2383 167.813 32.2383C168.555 32.2383 169.222 32.375 169.815 32.6484C170.414 32.9154 170.922 33.293 171.338 33.7812C171.761 34.263 172.084 34.8327 172.305 35.4902C172.526 36.1413 172.637 36.8477 172.637 37.6094V37.834C172.637 38.5957 172.526 39.3021 172.305 39.9531C172.084 40.6042 171.761 41.1738 171.338 41.6621C170.922 42.1439 170.417 42.5215 169.825 42.7949C169.239 43.0618 168.575 43.1953 167.832 43.1953C167.09 43.1953 166.423 43.0618 165.83 42.7949C165.238 42.5215 164.73 42.1439 164.307 41.6621C163.89 41.1738 163.571 40.6042 163.35 39.9531C163.129 39.3021 163.018 38.5957 163.018 37.834ZM164.825 37.6094V37.834C164.825 38.3613 164.886 38.8594 165.01 39.3281C165.134 39.7904 165.319 40.2005 165.567 40.5586C165.821 40.9167 166.136 41.1999 166.514 41.4082C166.892 41.61 167.331 41.7109 167.832 41.7109C168.327 41.7109 168.76 41.61 169.131 41.4082C169.509 41.1999 169.821 40.9167 170.069 40.5586C170.316 40.2005 170.502 39.7904 170.625 39.3281C170.756 38.8594 170.821 38.3613 170.821 37.834V37.6094C170.821 37.0885 170.756 36.597 170.625 36.1348C170.502 35.666 170.313 35.2526 170.059 34.8945C169.812 34.5299 169.499 34.2435 169.121 34.0352C168.75 33.8268 168.314 33.7227 167.813 33.7227C167.318 33.7227 166.882 33.8268 166.504 34.0352C166.133 34.2435 165.821 34.5299 165.567 34.8945C165.319 35.2526 165.134 35.666 165.01 36.1348C164.886 36.597 164.825 37.0885 164.825 37.6094ZM179.395 32.4336V43H177.578V32.4336H179.395ZM182.939 32.4336V33.8984H174.102V32.4336H182.939ZM184.228 37.834V37.6094C184.228 36.8477 184.339 36.1413 184.56 35.4902C184.782 34.8327 185.101 34.263 185.517 33.7812C185.934 33.293 186.438 32.9154 187.031 32.6484C187.623 32.375 188.287 32.2383 189.023 32.2383C189.765 32.2383 190.433 32.375 191.025 32.6484C191.624 32.9154 192.132 33.293 192.548 33.7812C192.972 34.263 193.294 34.8327 193.515 35.4902C193.737 36.1413 193.847 36.8477 193.847 37.6094V37.834C193.847 38.5957 193.737 39.3021 193.515 39.9531C193.294 40.6042 192.972 41.1738 192.548 41.6621C192.132 42.1439 191.627 42.5215 191.035 42.7949C190.449 43.0618 189.785 43.1953 189.043 43.1953C188.3 43.1953 187.633 43.0618 187.041 42.7949C186.448 42.5215 185.94 42.1439 185.517 41.6621C185.101 41.1738 184.782 40.6042 184.56 39.9531C184.339 39.3021 184.228 38.5957 184.228 37.834ZM186.035 37.6094V37.834C186.035 38.3613 186.097 38.8594 186.22 39.3281C186.344 39.7904 186.53 40.2005 186.777 40.5586C187.031 40.9167 187.347 41.1999 187.724 41.4082C188.102 41.61 188.541 41.7109 189.043 41.7109C189.537 41.7109 189.97 41.61 190.341 41.4082C190.719 41.1999 191.032 40.9167 191.279 40.5586C191.526 40.2005 191.712 39.7904 191.836 39.3281C191.966 38.8594 192.031 38.3613 192.031 37.834V37.6094C192.031 37.0885 191.966 36.597 191.836 36.1348C191.712 35.666 191.523 35.2526 191.269 34.8945C191.022 34.5299 190.709 34.2435 190.332 34.0352C189.961 33.8268 189.524 33.7227 189.023 33.7227C188.528 33.7227 188.092 33.8268 187.714 34.0352C187.343 34.2435 187.031 34.5299 186.777 34.8945C186.53 35.2526 186.344 35.666 186.22 36.1348C186.097 36.597 186.035 37.0885 186.035 37.6094ZM201.474 38.3516H198.007L197.988 36.9062H200.82C201.379 36.9062 201.845 36.8509 202.216 36.7402C202.594 36.6296 202.877 36.4635 203.066 36.2422C203.254 36.0208 203.349 35.7474 203.349 35.4219C203.349 35.168 203.293 34.9466 203.183 34.7578C203.079 34.5625 202.919 34.403 202.704 34.2793C202.489 34.1491 202.223 34.0547 201.904 33.9961C201.591 33.931 201.223 33.8984 200.8 33.8984H198.486V43H196.679V32.4336H200.8C201.471 32.4336 202.073 32.4922 202.607 32.6094C203.147 32.7266 203.606 32.9056 203.984 33.1465C204.368 33.3809 204.661 33.6803 204.863 34.0449C205.064 34.4095 205.165 34.8392 205.165 35.334C205.165 35.653 205.1 35.9557 204.97 36.2422C204.84 36.5286 204.648 36.7826 204.394 37.0039C204.14 37.2253 203.827 37.4076 203.456 37.5508C203.085 37.6875 202.659 37.7754 202.177 37.8145L201.474 38.3516ZM201.474 43H197.353L198.251 41.5352H201.474C201.975 41.5352 202.392 41.4733 202.724 41.3496C203.056 41.2194 203.303 41.0371 203.466 40.8027C203.635 40.5618 203.72 40.2754 203.72 39.9434C203.72 39.6113 203.635 39.3281 203.466 39.0938C203.303 38.8529 203.056 38.6706 202.724 38.5469C202.392 38.4167 201.975 38.3516 201.474 38.3516H198.73L198.749 36.9062H202.177L202.831 37.4531C203.411 37.4987 203.902 37.6419 204.306 37.8828C204.71 38.1237 205.015 38.4297 205.224 38.8008C205.432 39.1654 205.536 39.5625 205.536 39.9922C205.536 40.487 205.442 40.9232 205.253 41.3008C205.071 41.6784 204.804 41.9941 204.452 42.248C204.101 42.4954 203.674 42.6842 203.173 42.8145C202.672 42.9382 202.105 43 201.474 43ZM210.321 32.4336V43H208.514V32.4336H210.321ZM217.255 32.4336L212.245 38.4883H209.716L209.442 36.9062H211.512L215.057 32.4336H217.255ZM215.311 43L211.425 38.2148L212.587 36.9062L217.606 43H215.311ZM221.532 40.1387L226.405 32.4336H228.221V43H226.405V35.2949L221.532 43H219.735V32.4336H221.532V40.1387ZM121.33 64.1387L126.203 56.4336H128.02V67H126.203V59.2949L121.33 67H119.533V56.4336H121.33V64.1387ZM140.987 56.4336V67H139.171V56.4336H140.987ZM144.532 56.4336V57.8984H135.695V56.4336H144.532ZM150.313 67.1953C149.578 67.1953 148.91 67.0716 148.311 66.8242C147.719 66.5703 147.208 66.2155 146.778 65.7598C146.355 65.304 146.029 64.7637 145.802 64.1387C145.574 63.5137 145.46 62.8301 145.46 62.0879V61.6777C145.46 60.8184 145.587 60.0534 145.841 59.3828C146.095 58.7057 146.44 58.1328 146.876 57.6641C147.312 57.1953 147.807 56.8405 148.36 56.5996C148.914 56.3587 149.486 56.2383 150.079 56.2383C150.834 56.2383 151.485 56.3685 152.032 56.6289C152.585 56.8893 153.038 57.2539 153.389 57.7227C153.741 58.1849 154.001 58.7318 154.171 59.3633C154.34 59.9883 154.425 60.6719 154.425 61.4141V62.2246H146.534V60.75H152.618V60.6133C152.592 60.1445 152.494 59.6888 152.325 59.2461C152.162 58.8034 151.902 58.4388 151.544 58.1523C151.186 57.8659 150.697 57.7227 150.079 57.7227C149.669 57.7227 149.291 57.8105 148.946 57.9863C148.601 58.1556 148.305 58.4095 148.057 58.748C147.81 59.0866 147.618 59.5 147.481 59.9883C147.345 60.4766 147.276 61.0397 147.276 61.6777V62.0879C147.276 62.5892 147.345 63.0612 147.481 63.5039C147.624 63.9401 147.83 64.3242 148.096 64.6562C148.37 64.9883 148.699 65.2487 149.083 65.4375C149.473 65.6263 149.916 65.7207 150.411 65.7207C151.049 65.7207 151.589 65.5905 152.032 65.3301C152.475 65.0697 152.862 64.7214 153.194 64.2852L154.288 65.1543C154.06 65.4993 153.77 65.8281 153.419 66.1406C153.067 66.4531 152.634 66.707 152.12 66.9023C151.612 67.0977 151.01 67.1953 150.313 67.1953ZM158.155 56.4336L160.469 60.2812L162.813 56.4336H164.932L161.475 61.6484L165.039 67H162.95L160.508 63.0352L158.067 67H155.967L159.522 61.6484L156.075 56.4336H158.155ZM174.424 61.0137V62.4785H168.838V61.0137H174.424ZM169.219 56.4336V67H167.412V56.4336H169.219ZM175.889 56.4336V67H174.072V56.4336H175.889ZM178.72 61.834V61.6094C178.72 60.8477 178.831 60.1413 179.052 59.4902C179.274 58.8327 179.593 58.263 180.009 57.7812C180.426 57.293 180.931 56.9154 181.523 56.6484C182.115 56.375 182.78 56.2383 183.515 56.2383C184.257 56.2383 184.925 56.375 185.517 56.6484C186.116 56.9154 186.624 57.293 187.041 57.7812C187.464 58.263 187.786 58.8327 188.007 59.4902C188.229 60.1413 188.339 60.8477 188.339 61.6094V61.834C188.339 62.5957 188.229 63.3021 188.007 63.9531C187.786 64.6042 187.464 65.1738 187.041 65.6621C186.624 66.1439 186.119 66.5215 185.527 66.7949C184.941 67.0618 184.277 67.1953 183.535 67.1953C182.793 67.1953 182.125 67.0618 181.533 66.7949C180.94 66.5215 180.433 66.1439 180.009 65.6621C179.593 65.1738 179.274 64.6042 179.052 63.9531C178.831 63.3021 178.72 62.5957 178.72 61.834ZM180.527 61.6094V61.834C180.527 62.3613 180.589 62.8594 180.713 63.3281C180.836 63.7904 181.022 64.2005 181.269 64.5586C181.523 64.9167 181.839 65.1999 182.216 65.4082C182.594 65.61 183.033 65.7109 183.535 65.7109C184.03 65.7109 184.463 65.61 184.834 65.4082C185.211 65.1999 185.524 64.9167 185.771 64.5586C186.018 64.2005 186.204 63.7904 186.328 63.3281C186.458 62.8594 186.523 62.3613 186.523 61.834V61.6094C186.523 61.0885 186.458 60.597 186.328 60.1348C186.204 59.666 186.015 59.2526 185.761 58.8945C185.514 58.5299 185.201 58.2435 184.824 58.0352C184.453 57.8268 184.017 57.7227 183.515 57.7227C183.02 57.7227 182.584 57.8268 182.207 58.0352C181.836 58.2435 181.523 58.5299 181.269 58.8945C181.022 59.2526 180.836 59.666 180.713 60.1348C180.589 60.597 180.527 61.0885 180.527 61.6094ZM197.909 56.4336V57.9277H192.802V56.4336H197.909ZM199.501 56.4336V67H197.695V56.4336H199.501ZM192.363 56.4336H194.179L193.905 61.5312C193.86 62.319 193.785 63.0156 193.681 63.6211C193.583 64.2201 193.446 64.7344 193.271 65.1641C193.101 65.5938 192.887 65.9453 192.626 66.2188C192.372 66.4857 192.066 66.6842 191.708 66.8145C191.35 66.9382 190.937 67 190.468 67H189.902V65.4082L190.292 65.3789C190.572 65.3594 190.81 65.2943 191.005 65.1836C191.207 65.0729 191.376 64.9102 191.513 64.6953C191.65 64.474 191.76 64.1908 191.845 63.8457C191.936 63.5007 192.004 63.0905 192.05 62.6152C192.102 62.14 192.141 61.5866 192.167 60.9551L192.363 56.4336ZM202.333 61.834V61.6094C202.333 60.8477 202.443 60.1413 202.665 59.4902C202.886 58.8327 203.205 58.263 203.622 57.7812C204.039 57.293 204.543 56.9154 205.136 56.6484C205.728 56.375 206.392 56.2383 207.128 56.2383C207.87 56.2383 208.537 56.375 209.13 56.6484C209.729 56.9154 210.236 57.293 210.653 57.7812C211.076 58.263 211.399 58.8327 211.62 59.4902C211.841 60.1413 211.952 60.8477 211.952 61.6094V61.834C211.952 62.5957 211.841 63.3021 211.62 63.9531C211.399 64.6042 211.076 65.1738 210.653 65.6621C210.236 66.1439 209.732 66.5215 209.139 66.7949C208.554 67.0618 207.889 67.1953 207.147 67.1953C206.405 67.1953 205.738 67.0618 205.145 66.7949C204.553 66.5215 204.045 66.1439 203.622 65.6621C203.205 65.1738 202.886 64.6042 202.665 63.9531C202.443 63.3021 202.333 62.5957 202.333 61.834ZM204.139 61.6094V61.834C204.139 62.3613 204.201 62.8594 204.325 63.3281C204.449 63.7904 204.634 64.2005 204.882 64.5586C205.136 64.9167 205.451 65.1999 205.829 65.4082C206.207 65.61 206.646 65.7109 207.147 65.7109C207.642 65.7109 208.075 65.61 208.446 65.4082C208.824 65.1999 209.136 64.9167 209.384 64.5586C209.631 64.2005 209.817 63.7904 209.94 63.3281C210.07 62.8594 210.136 62.3613 210.136 61.834V61.6094C210.136 61.0885 210.07 60.597 209.94 60.1348C209.817 59.666 209.628 59.2526 209.374 58.8945C209.126 58.5299 208.814 58.2435 208.436 58.0352C208.065 57.8268 207.629 57.7227 207.128 57.7227C206.633 57.7227 206.197 57.8268 205.819 58.0352C205.448 58.2435 205.136 58.5299 204.882 58.8945C204.634 59.2526 204.449 59.666 204.325 60.1348C204.201 60.597 204.139 61.0885 204.139 61.6094ZM221.444 56.4336V57.9277H216.561V67H214.754V56.4336H221.444ZM225.369 64.1387L230.242 56.4336H232.059V67H230.242V59.2949L225.369 67H223.572V56.4336H225.369V64.1387ZM243.328 56.4336V67H241.521V56.4336H243.328ZM242.713 61.2871V62.7715C242.348 62.9082 241.977 63.0319 241.599 63.1426C241.228 63.2467 240.834 63.3314 240.418 63.3965C240.007 63.4551 239.561 63.4844 239.08 63.4844C238.246 63.4844 237.524 63.3411 236.912 63.0547C236.3 62.7617 235.828 62.3223 235.496 61.7363C235.164 61.1439 234.998 60.3984 234.998 59.5V56.4141H236.804V59.5C236.804 60.0859 236.892 60.5612 237.068 60.9258C237.244 61.2904 237.501 61.5605 237.839 61.7363C238.178 61.9056 238.591 61.9902 239.08 61.9902C239.548 61.9902 239.988 61.9609 240.398 61.9023C240.815 61.8372 241.212 61.7526 241.589 61.6484C241.974 61.5443 242.348 61.4238 242.713 61.2871ZM251.023 67.1953C250.287 67.1953 249.62 67.0716 249.021 66.8242C248.428 66.5703 247.917 66.2155 247.488 65.7598C247.064 65.304 246.739 64.7637 246.511 64.1387C246.283 63.5137 246.169 62.8301 246.169 62.0879V61.6777C246.169 60.8184 246.296 60.0534 246.55 59.3828C246.804 58.7057 247.149 58.1328 247.585 57.6641C248.021 57.1953 248.516 56.8405 249.07 56.5996C249.623 56.3587 250.196 56.2383 250.788 56.2383C251.543 56.2383 252.195 56.3685 252.741 56.6289C253.295 56.8893 253.747 57.2539 254.099 57.7227C254.45 58.1849 254.711 58.7318 254.88 59.3633C255.049 59.9883 255.134 60.6719 255.134 61.4141V62.2246H247.243V60.75H253.327V60.6133C253.301 60.1445 253.204 59.6888 253.034 59.2461C252.872 58.8034 252.611 58.4388 252.253 58.1523C251.895 57.8659 251.407 57.7227 250.788 57.7227C250.378 57.7227 250.001 57.8105 249.655 57.9863C249.31 58.1556 249.014 58.4095 248.767 58.748C248.519 59.0866 248.327 59.5 248.191 59.9883C248.054 60.4766 247.986 61.0397 247.986 61.6777V62.0879C247.986 62.5892 248.054 63.0612 248.191 63.5039C248.334 63.9401 248.539 64.3242 248.806 64.6562C249.079 64.9883 249.408 65.2487 249.792 65.4375C250.183 65.6263 250.626 65.7207 251.12 65.7207C251.758 65.7207 252.299 65.5905 252.741 65.3301C253.184 65.0697 253.571 64.7214 253.904 64.2852L254.997 65.1543C254.769 65.4993 254.48 65.8281 254.128 66.1406C253.777 66.4531 253.344 66.707 252.829 66.9023C252.321 67.0977 251.719 67.1953 251.023 67.1953ZM261.872 65.7109C262.302 65.7109 262.699 65.623 263.063 65.4473C263.428 65.2715 263.727 65.0306 263.962 64.7246C264.196 64.4121 264.33 64.0573 264.362 63.6602H266.081C266.048 64.2852 265.837 64.8678 265.446 65.4082C265.062 65.9421 264.557 66.375 263.932 66.707C263.307 67.0326 262.621 67.1953 261.872 67.1953C261.078 67.1953 260.384 67.0553 259.792 66.7754C259.206 66.4954 258.718 66.1113 258.327 65.623C257.943 65.1348 257.653 64.5749 257.458 63.9434C257.269 63.3053 257.175 62.6315 257.175 61.9219V61.5117C257.175 60.8021 257.269 60.1315 257.458 59.5C257.653 58.862 257.943 58.2988 258.327 57.8105C258.718 57.3223 259.206 56.9382 259.792 56.6582C260.384 56.3783 261.078 56.2383 261.872 56.2383C262.699 56.2383 263.421 56.4076 264.04 56.7461C264.658 57.0781 265.143 57.5339 265.495 58.1133C265.853 58.6862 266.048 59.3372 266.081 60.0664H264.362C264.33 59.6302 264.206 59.2363 263.991 58.8848C263.783 58.5332 263.496 58.2533 263.132 58.0449C262.774 57.8301 262.354 57.7227 261.872 57.7227C261.318 57.7227 260.853 57.8333 260.475 58.0547C260.104 58.2695 259.808 58.5625 259.587 58.9336C259.372 59.2982 259.216 59.7051 259.118 60.1543C259.027 60.597 258.981 61.0495 258.981 61.5117V61.9219C258.981 62.3841 259.027 62.8398 259.118 63.2891C259.209 63.7383 259.362 64.1452 259.577 64.5098C259.798 64.8743 260.095 65.1673 260.466 65.3887C260.843 65.6035 261.312 65.7109 261.872 65.7109ZM270.475 56.4336V67H268.668V56.4336H270.475ZM277.409 56.4336L272.399 62.4883H269.87L269.596 60.9062H271.666L275.211 56.4336H277.409ZM275.465 67L271.579 62.2148L272.741 60.9062L277.76 67H275.465ZM281.686 64.1387L286.559 56.4336H288.375V67H286.559V59.2949L281.686 67H279.889V56.4336H281.686V64.1387ZM292.896 56.4336L295.211 60.2812L297.554 56.4336H299.673L296.216 61.6484L299.781 67H297.691L295.25 63.0352L292.808 67H290.709L294.263 61.6484L290.816 56.4336H292.896ZM121.33 88.1387L126.203 80.4336H128.02V91H126.203V83.2949L121.33 91H119.533V80.4336H121.33V88.1387ZM138.488 85.0137V86.4785H132.902V85.0137H138.488ZM133.283 80.4336V91H131.476V80.4336H133.283ZM139.953 80.4336V91H138.136V80.4336H139.953ZM150.431 85.0137V86.4785H144.845V85.0137H150.431ZM145.226 80.4336V91H143.419V80.4336H145.226ZM151.896 80.4336V91H150.079V80.4336H151.896ZM154.727 85.834V85.6094C154.727 84.8477 154.838 84.1413 155.059 83.4902C155.281 82.8327 155.6 82.263 156.016 81.7812C156.433 81.293 156.938 80.9154 157.53 80.6484C158.123 80.375 158.787 80.2383 159.522 80.2383C160.264 80.2383 160.932 80.375 161.524 80.6484C162.123 80.9154 162.631 81.293 163.048 81.7812C163.471 82.263 163.793 82.8327 164.014 83.4902C164.236 84.1413 164.346 84.8477 164.346 85.6094V85.834C164.346 86.5957 164.236 87.3021 164.014 87.9531C163.793 88.6042 163.471 89.1738 163.048 89.6621C162.631 90.1439 162.126 90.5215 161.534 90.7949C160.948 91.0618 160.284 91.1953 159.542 91.1953C158.8 91.1953 158.132 91.0618 157.54 90.7949C156.947 90.5215 156.44 90.1439 156.016 89.6621C155.6 89.1738 155.281 88.6042 155.059 87.9531C154.838 87.3021 154.727 86.5957 154.727 85.834ZM156.534 85.6094V85.834C156.534 86.3613 156.596 86.8594 156.72 87.3281C156.843 87.7904 157.029 88.2005 157.276 88.5586C157.53 88.9167 157.846 89.1999 158.223 89.4082C158.601 89.61 159.04 89.7109 159.542 89.7109C160.037 89.7109 160.47 89.61 160.841 89.4082C161.218 89.1999 161.531 88.9167 161.778 88.5586C162.026 88.2005 162.211 87.7904 162.335 87.3281C162.465 86.8594 162.53 86.3613 162.53 85.834V85.6094C162.53 85.0885 162.465 84.597 162.335 84.1348C162.211 83.666 162.022 83.2526 161.768 82.8945C161.521 82.5299 161.208 82.2435 160.831 82.0352C160.46 81.8268 160.024 81.7227 159.522 81.7227C159.027 81.7227 158.591 81.8268 158.214 82.0352C157.843 82.2435 157.53 82.5299 157.276 82.8945C157.029 83.2526 156.843 83.666 156.72 84.1348C156.596 84.597 156.534 85.0885 156.534 85.6094ZM171.973 86.3516H168.506L168.487 84.9062H171.319C171.879 84.9062 172.344 84.8509 172.715 84.7402C173.093 84.6296 173.376 84.4635 173.565 84.2422C173.754 84.0208 173.848 83.7474 173.848 83.4219C173.848 83.168 173.793 82.9466 173.682 82.7578C173.578 82.5625 173.418 82.403 173.204 82.2793C172.989 82.1491 172.722 82.0547 172.403 81.9961C172.09 81.931 171.722 81.8984 171.299 81.8984H168.985V91H167.178V80.4336H171.299C171.97 80.4336 172.572 80.4922 173.106 80.6094C173.646 80.7266 174.105 80.9056 174.483 81.1465C174.867 81.3809 175.16 81.6803 175.362 82.0449C175.564 82.4095 175.664 82.8392 175.664 83.334C175.664 83.653 175.599 83.9557 175.469 84.2422C175.339 84.5286 175.147 84.7826 174.893 85.0039C174.639 85.2253 174.327 85.4076 173.955 85.5508C173.584 85.6875 173.158 85.7754 172.676 85.8145L171.973 86.3516ZM171.973 91H167.852L168.75 89.5352H171.973C172.474 89.5352 172.891 89.4733 173.223 89.3496C173.555 89.2194 173.802 89.0371 173.965 88.8027C174.135 88.5618 174.219 88.2754 174.219 87.9434C174.219 87.6113 174.135 87.3281 173.965 87.0938C173.802 86.8529 173.555 86.6706 173.223 86.5469C172.891 86.4167 172.474 86.3516 171.973 86.3516H169.229L169.248 84.9062H172.676L173.33 85.4531C173.91 85.4987 174.401 85.6419 174.805 85.8828C175.209 86.1237 175.515 86.4297 175.723 86.8008C175.931 87.1654 176.036 87.5625 176.036 87.9922C176.036 88.487 175.941 88.9232 175.752 89.3008C175.57 89.6784 175.303 89.9941 174.952 90.248C174.6 90.4954 174.174 90.6842 173.672 90.8145C173.171 90.9382 172.605 91 171.973 91ZM185.088 89.1934V83.7539C185.088 83.3372 185.003 82.9759 184.834 82.6699C184.671 82.3574 184.424 82.1165 184.092 81.9473C183.76 81.778 183.35 81.6934 182.861 81.6934C182.406 81.6934 182.005 81.7715 181.66 81.9277C181.322 82.084 181.055 82.2891 180.859 82.543C180.671 82.7969 180.576 83.0703 180.576 83.3633H178.77C178.77 82.9857 178.867 82.6113 179.062 82.2402C179.258 81.8691 179.538 81.5339 179.902 81.2344C180.273 80.9284 180.716 80.6875 181.23 80.5117C181.751 80.3294 182.331 80.2383 182.969 80.2383C183.737 80.2383 184.414 80.3685 185 80.6289C185.592 80.8893 186.055 81.2832 186.387 81.8105C186.725 82.3314 186.895 82.9857 186.895 83.7734V88.6953C186.895 89.0469 186.924 89.4212 186.982 89.8184C187.048 90.2155 187.142 90.5573 187.266 90.8438V91H185.381C185.29 90.7917 185.218 90.515 185.166 90.1699C185.114 89.8184 185.088 89.4928 185.088 89.1934ZM185.4 84.5938L185.42 85.8633H183.594C183.079 85.8633 182.62 85.9056 182.217 85.9902C181.813 86.0684 181.475 86.1888 181.201 86.3516C180.928 86.5143 180.719 86.7194 180.576 86.9668C180.433 87.2077 180.361 87.4909 180.361 87.8164C180.361 88.1484 180.436 88.4512 180.586 88.7246C180.736 88.998 180.96 89.2161 181.26 89.3789C181.566 89.5352 181.94 89.6133 182.383 89.6133C182.936 89.6133 183.424 89.4961 183.848 89.2617C184.271 89.0273 184.606 88.7409 184.854 88.4023C185.107 88.0638 185.244 87.735 185.264 87.416L186.035 88.2852C185.99 88.5586 185.866 88.8613 185.664 89.1934C185.462 89.5254 185.192 89.8444 184.854 90.1504C184.521 90.4499 184.124 90.7005 183.662 90.9023C183.206 91.0977 182.692 91.1953 182.119 91.1953C181.403 91.1953 180.775 91.0553 180.234 90.7754C179.701 90.4954 179.284 90.1211 178.984 89.6523C178.691 89.1771 178.545 88.6465 178.545 88.0605C178.545 87.4941 178.656 86.9961 178.877 86.5664C179.098 86.1302 179.417 85.7689 179.834 85.4824C180.251 85.1895 180.752 84.9681 181.338 84.8184C181.924 84.6686 182.578 84.5938 183.301 84.5938H185.4ZM190.293 91V80.4336H192.099V89.5156H196.963V80.4336H198.779V91H190.293ZM200.029 89.5156L199.853 94.1348H198.242V91H196.865V89.5156H200.029ZM204.345 88.1387L209.218 80.4336H211.034V91H209.218V83.2949L204.345 91H202.548V80.4336H204.345V88.1387ZM216.288 88.1387L221.161 80.4336H222.977V91H221.161V83.2949L216.288 91H214.491V80.4336H216.288V88.1387ZM220.175 76.6055H221.639C221.639 77.1133 221.522 77.5658 221.288 77.9629C221.054 78.3535 220.718 78.6595 220.282 78.8809C219.846 79.1022 219.328 79.2129 218.729 79.2129C217.824 79.2129 217.108 78.972 216.581 78.4902C216.06 78.002 215.8 77.3737 215.8 76.6055H217.264C217.264 76.9896 217.375 77.3281 217.596 77.6211C217.818 77.9141 218.195 78.0605 218.729 78.0605C219.25 78.0605 219.621 77.9141 219.843 77.6211C220.064 77.3281 220.175 76.9896 220.175 76.6055Z" fill="#0061FF"/>
</svg>
