<svg width="296" height="96" viewBox="0 0 296 96" fill="none" xmlns="http://www.w3.org/2000/svg">
<path d="M87.7049 47.756C87.7049 38.1324 72.4422 32.9185 58.1586 31.247C56.4354 31.0476 54.8791 32.2789 54.6773 33.9999C54.4763 35.7208 55.7083 37.2788 57.4291 37.4806C73.8023 39.3953 81.4304 44.7437 81.4304 47.756C81.4304 52.2103 67.6283 58.679 46.0003 58.679C44.0007 58.679 42.0691 58.6239 40.2081 58.5193C39.1544 57.1672 38.1007 55.7486 37.0518 54.2514C35.5961 52.1722 34.24 50.0743 32.9934 47.9846C34.21 45.9467 35.558 43.8537 37.0518 41.7201C41.6679 35.1274 46.7979 29.3931 51.8866 25.1358C59.1662 19.0465 64.4737 17.6684 66.3225 18.9605C67.6089 19.8619 68.0993 22.5718 67.6332 26.2107C67.4127 27.93 68.6277 29.5018 70.3461 29.7222C72.0637 29.9435 73.637 28.7284 73.8566 27.0091C74.8706 19.0959 72.276 15.4692 69.9214 13.8204C64.9065 10.308 57.0717 12.6175 47.8606 20.3232C42.3553 24.9275 36.8395 31.0833 31.9113 38.1202C31.0991 39.281 30.3113 40.4596 29.5461 41.648C27.6356 37.7627 26.1701 33.9999 25.2445 30.5369C23.3705 23.5283 24.3067 19.9203 25.6781 18.9605C27.1679 17.9181 30.5188 18.7133 34.4232 21.0341C35.9114 21.9176 37.8373 21.4289 38.7232 19.9398C39.6083 18.4507 39.1187 16.5254 37.6297 15.6394C29.5161 10.8163 24.6949 11.9868 22.0793 13.8204C19.0818 15.9183 16.1468 20.8039 19.1824 32.1581C19.3574 32.8131 19.556 33.4802 19.7643 34.1522C9.76859 37.312 4.29492 42.0922 4.29492 47.756C4.29492 53.9758 10.6683 58.559 19.8511 61.4237C16.8836 70.6518 16.9574 78.565 22.0793 82.152C23.3275 83.0258 25.0686 83.744 27.4192 83.744C30.1005 83.744 33.5745 82.8086 38.0123 80.1011C39.4916 79.1981 39.9593 77.268 39.0563 75.7886C38.1542 74.3101 36.2251 73.8432 34.7442 74.7446C30.6898 77.2186 27.2149 78.0851 25.6773 77.011C23.6615 75.599 23.5642 70.3762 25.9699 62.9996C29.461 63.7307 33.1928 64.2585 37.0267 64.5795C46.023 75.4968 56.5781 83.7813 64.5288 83.7805C66.509 83.7805 68.3287 83.2665 69.9206 82.1511C71.9462 80.7334 74.3097 77.7179 74.0649 71.4097C73.9977 69.6774 72.5176 68.3148 70.8089 68.3958C69.0768 68.4639 67.728 69.9222 67.7945 71.6537C67.8982 74.3295 67.3617 76.2831 66.3217 77.011C63.5221 78.9711 55.081 74.9432 45.698 64.9532C45.7985 64.9532 45.899 64.9556 46.0003 64.9556C66.7262 64.9556 87.7049 59.0478 87.7049 47.756ZM10.5702 47.756C10.5702 45.6686 14.1472 42.474 21.9269 40.0511C23.0155 42.6426 24.3034 45.3031 25.7705 47.9862C24.3894 50.5072 23.1533 53.0323 22.0858 55.5136C14.7446 53.2568 10.5702 50.2032 10.5702 47.756ZM29.5429 54.3211C30.2626 55.439 31.01 56.5544 31.7824 57.6633C30.5666 57.4801 29.3913 57.2783 28.2662 57.0562C28.6626 56.1629 29.0857 55.2517 29.5429 54.3211Z" fill="#0061FF"/>
<path d="M37.3789 48.1918C37.3789 52.9461 41.2461 56.8143 46 56.8143C50.753 56.8143 54.621 52.9461 54.621 48.1918C54.621 43.4376 50.753 39.5693 46 39.5693C41.2461 39.5693 37.3789 43.4376 37.3789 48.1918ZM48.3457 48.1918C48.3457 49.4856 47.2936 50.5378 46 50.5378C44.7063 50.5378 43.6534 49.4856 43.6534 48.1918C43.6534 46.8981 44.7063 45.8459 46 45.8459C47.2936 45.8459 48.3457 46.8981 48.3457 48.1918Z" fill="#0061FF"/>
<path d="M121.613 15.7383L128.615 4.78125H130.5V19H128.615V8.0332L121.613 19H119.738V4.78125H121.613V15.7383ZM141.222 13.0137V14.4785H135.636V13.0137H141.222ZM136.017 8.43359V19H134.211V8.43359H136.017ZM142.687 8.43359V19H140.871V8.43359H142.687ZM150.226 17.7109C150.655 17.7109 151.053 17.623 151.417 17.4473C151.782 17.2715 152.081 17.0306 152.316 16.7246C152.55 16.4121 152.683 16.0573 152.716 15.6602H154.435C154.402 16.2852 154.191 16.8678 153.8 17.4082C153.416 17.9421 152.911 18.375 152.286 18.707C151.661 19.0326 150.974 19.1953 150.226 19.1953C149.432 19.1953 148.738 19.0553 148.146 18.7754C147.56 18.4954 147.071 18.1113 146.681 17.623C146.297 17.1348 146.007 16.5749 145.812 15.9434C145.623 15.3053 145.529 14.6315 145.529 13.9219V13.5117C145.529 12.8021 145.623 12.1315 145.812 11.5C146.007 10.862 146.297 10.2988 146.681 9.81055C147.071 9.32227 147.56 8.93815 148.146 8.6582C148.738 8.37826 149.432 8.23828 150.226 8.23828C151.053 8.23828 151.775 8.40755 152.394 8.74609C153.012 9.07812 153.497 9.53385 153.849 10.1133C154.207 10.6862 154.402 11.3372 154.435 12.0664H152.716C152.683 11.6302 152.56 11.2363 152.345 10.8848C152.137 10.5332 151.85 10.2533 151.486 10.0449C151.127 9.83008 150.708 9.72266 150.226 9.72266C149.672 9.72266 149.207 9.83333 148.829 10.0547C148.458 10.2695 148.162 10.5625 147.941 10.9336C147.726 11.2982 147.57 11.7051 147.472 12.1543C147.381 12.597 147.335 13.0495 147.335 13.5117V13.9219C147.335 14.3841 147.381 14.8398 147.472 15.2891C147.563 15.7383 147.716 16.1452 147.931 16.5098C148.152 16.8743 148.448 17.1673 148.82 17.3887C149.197 17.6035 149.666 17.7109 150.226 17.7109ZM161.173 8.43359V19H159.356V8.43359H161.173ZM164.718 8.43359V9.89844H155.88V8.43359H164.718ZM168.848 16.1387L173.721 8.43359H175.537V19H173.721V11.2949L168.848 19H167.051V8.43359H168.848V16.1387ZM183.145 8.43359V19H181.328V8.43359H183.145ZM186.689 8.43359V9.89844H177.852V8.43359H186.689ZM191.953 17.9062L194.892 8.43359H196.826L192.588 20.6309C192.49 20.8913 192.36 21.1712 192.197 21.4707C192.041 21.7767 191.839 22.0664 191.591 22.3398C191.344 22.6133 191.045 22.8346 190.693 23.0039C190.348 23.1797 189.935 23.2676 189.453 23.2676C189.31 23.2676 189.127 23.248 188.906 23.209C188.685 23.1699 188.528 23.1374 188.437 23.1113L188.427 21.6465C188.479 21.653 188.561 21.6595 188.671 21.666C188.789 21.679 188.87 21.6855 188.916 21.6855C189.326 21.6855 189.674 21.6302 189.961 21.5195C190.247 21.4154 190.488 21.2363 190.683 20.9824C190.885 20.735 191.058 20.3932 191.201 19.957L191.953 17.9062ZM189.795 8.43359L192.539 16.6367L193.007 18.541L191.709 19.2051L187.822 8.43359H189.795ZM203.163 8.43359V19H201.347V8.43359H203.163ZM206.708 8.43359V9.89844H197.87V8.43359H206.708ZM126.545 37.0137V38.4785H120.959V37.0137H126.545ZM121.34 32.4336V43H119.533V32.4336H121.34ZM128.01 32.4336V43H126.193V32.4336H128.01ZM135.705 43.1953C134.969 43.1953 134.302 43.0716 133.703 42.8242C133.11 42.5703 132.599 42.2155 132.17 41.7598C131.746 41.304 131.421 40.7637 131.193 40.1387C130.965 39.5137 130.851 38.8301 130.851 38.0879V37.6777C130.851 36.8184 130.978 36.0534 131.232 35.3828C131.486 34.7057 131.831 34.1328 132.267 33.6641C132.703 33.1953 133.198 32.8405 133.752 32.5996C134.305 32.3587 134.878 32.2383 135.47 32.2383C136.226 32.2383 136.877 32.3685 137.423 32.6289C137.977 32.8893 138.429 33.2539 138.781 33.7227C139.132 34.1849 139.393 34.7318 139.562 35.3633C139.731 35.9883 139.816 36.6719 139.816 37.4141V38.2246H131.925V36.75H138.009V36.6133C137.983 36.1445 137.886 35.6888 137.716 35.2461C137.554 34.8034 137.293 34.4388 136.935 34.1523C136.577 33.8659 136.089 33.7227 135.47 33.7227C135.06 33.7227 134.683 33.8105 134.337 33.9863C133.992 34.1556 133.696 34.4095 133.449 34.748C133.201 35.0866 133.009 35.5 132.873 35.9883C132.736 36.4766 132.668 37.0397 132.668 37.6777V38.0879C132.668 38.5892 132.736 39.0612 132.873 39.5039C133.016 39.9401 133.221 40.3242 133.488 40.6562C133.761 40.9883 134.09 41.2487 134.474 41.4375C134.865 41.6263 135.308 41.7207 135.802 41.7207C136.44 41.7207 136.981 41.5905 137.423 41.3301C137.866 41.0697 138.254 40.7214 138.586 40.2852L139.679 41.1543C139.451 41.4993 139.162 41.8281 138.81 42.1406C138.459 42.4531 138.026 42.707 137.511 42.9023C137.004 43.0977 136.401 43.1953 135.705 43.1953ZM149.366 32.4336V33.9277H144.025V32.4336H149.366ZM144.288 32.4336V43H142.482V32.4336H144.288ZM150.968 32.4336V43H149.152V32.4336H150.968ZM156.075 34.4648V47.0625H154.259V32.4336H155.919L156.075 34.4648ZM163.194 37.6289V37.834C163.194 38.6022 163.103 39.3151 162.921 39.9727C162.738 40.6237 162.471 41.1901 162.12 41.6719C161.775 42.1536 161.348 42.528 160.841 42.7949C160.333 43.0618 159.75 43.1953 159.093 43.1953C158.422 43.1953 157.83 43.0846 157.315 42.8633C156.801 42.6419 156.365 42.3197 156.007 41.8965C155.649 41.4733 155.362 40.9655 155.147 40.373C154.939 39.7806 154.796 39.1133 154.718 38.3711V37.2773C154.796 36.4961 154.942 35.7962 155.157 35.1777C155.372 34.5592 155.655 34.0319 156.007 33.5957C156.365 33.153 156.798 32.8177 157.305 32.5898C157.813 32.3555 158.399 32.2383 159.063 32.2383C159.727 32.2383 160.317 32.3685 160.831 32.6289C161.345 32.8828 161.778 33.2474 162.13 33.7227C162.481 34.1979 162.745 34.7676 162.921 35.4316C163.103 36.0892 163.194 36.8216 163.194 37.6289ZM161.378 37.834V37.6289C161.378 37.1016 161.322 36.6068 161.212 36.1445C161.101 35.6758 160.929 35.2656 160.694 34.9141C160.466 34.556 160.173 34.276 159.815 34.0742C159.457 33.8659 159.031 33.7617 158.536 33.7617C158.08 33.7617 157.683 33.8398 157.345 33.9961C157.013 34.1523 156.729 34.3639 156.495 34.6309C156.261 34.8913 156.068 35.1908 155.919 35.5293C155.776 35.8613 155.668 36.2064 155.596 36.5645V39.0938C155.727 39.5495 155.909 39.9792 156.143 40.3828C156.378 40.7799 156.69 41.1022 157.081 41.3496C157.471 41.5905 157.963 41.7109 158.555 41.7109C159.044 41.7109 159.464 41.61 159.815 41.4082C160.173 41.1999 160.466 40.9167 160.694 40.5586C160.929 40.2005 161.101 39.7904 161.212 39.3281C161.322 38.8594 161.378 38.3613 161.378 37.834ZM170.284 43.1953C169.548 43.1953 168.881 43.0716 168.282 42.8242C167.689 42.5703 167.178 42.2155 166.748 41.7598C166.325 41.304 166 40.7637 165.772 40.1387C165.544 39.5137 165.43 38.8301 165.43 38.0879V37.6777C165.43 36.8184 165.557 36.0534 165.811 35.3828C166.065 34.7057 166.41 34.1328 166.846 33.6641C167.282 33.1953 167.777 32.8405 168.33 32.5996C168.884 32.3587 169.457 32.2383 170.049 32.2383C170.804 32.2383 171.455 32.3685 172.002 32.6289C172.556 32.8893 173.008 33.2539 173.36 33.7227C173.711 34.1849 173.972 34.7318 174.141 35.3633C174.31 35.9883 174.395 36.6719 174.395 37.4141V38.2246H166.504V36.75H172.588V36.6133C172.562 36.1445 172.465 35.6888 172.295 35.2461C172.133 34.8034 171.872 34.4388 171.514 34.1523C171.156 33.8659 170.668 33.7227 170.049 33.7227C169.639 33.7227 169.261 33.8105 168.916 33.9863C168.571 34.1556 168.275 34.4095 168.028 34.748C167.78 35.0866 167.588 35.5 167.452 35.9883C167.315 36.4766 167.246 37.0397 167.246 37.6777V38.0879C167.246 38.5892 167.315 39.0612 167.452 39.5039C167.595 39.9401 167.8 40.3242 168.067 40.6562C168.34 40.9883 168.669 41.2487 169.053 41.4375C169.444 41.6263 169.886 41.7207 170.381 41.7207C171.019 41.7207 171.56 41.5905 172.002 41.3301C172.445 41.0697 172.832 40.7214 173.164 40.2852L174.258 41.1543C174.03 41.4993 173.741 41.8281 173.389 42.1406C173.037 42.4531 172.605 42.707 172.09 42.9023C171.582 43.0977 170.98 43.1953 170.284 43.1953ZM178.711 34.4648V47.0625H176.895V32.4336H178.555L178.711 34.4648ZM185.83 37.6289V37.834C185.83 38.6022 185.739 39.3151 185.557 39.9727C185.374 40.6237 185.107 41.1901 184.756 41.6719C184.411 42.1536 183.984 42.528 183.477 42.7949C182.969 43.0618 182.386 43.1953 181.729 43.1953C181.058 43.1953 180.465 43.0846 179.951 42.8633C179.437 42.6419 179.001 42.3197 178.643 41.8965C178.285 41.4733 177.998 40.9655 177.783 40.373C177.575 39.7806 177.432 39.1133 177.354 38.3711V37.2773C177.432 36.4961 177.578 35.7962 177.793 35.1777C178.008 34.5592 178.291 34.0319 178.643 33.5957C179.001 33.153 179.434 32.8177 179.941 32.5898C180.449 32.3555 181.035 32.2383 181.699 32.2383C182.363 32.2383 182.952 32.3685 183.467 32.6289C183.981 32.8828 184.414 33.2474 184.766 33.7227C185.117 34.1979 185.381 34.7676 185.557 35.4316C185.739 36.0892 185.83 36.8216 185.83 37.6289ZM184.014 37.834V37.6289C184.014 37.1016 183.958 36.6068 183.848 36.1445C183.737 35.6758 183.564 35.2656 183.33 34.9141C183.102 34.556 182.809 34.276 182.451 34.0742C182.093 33.8659 181.667 33.7617 181.172 33.7617C180.716 33.7617 180.319 33.8398 179.98 33.9961C179.648 34.1523 179.365 34.3639 179.131 34.6309C178.896 34.8913 178.704 35.1908 178.555 35.5293C178.411 35.8613 178.304 36.2064 178.232 36.5645V39.0938C178.363 39.5495 178.545 39.9792 178.779 40.3828C179.014 40.7799 179.326 41.1022 179.717 41.3496C180.107 41.5905 180.599 41.7109 181.191 41.7109C181.68 41.7109 182.1 41.61 182.451 41.4082C182.809 41.1999 183.102 40.9167 183.33 40.5586C183.564 40.2005 183.737 39.7904 183.848 39.3281C183.958 38.8594 184.014 38.3613 184.014 37.834ZM190.019 36.0664H193.193C194.046 36.0664 194.765 36.2161 195.351 36.5156C195.937 36.8086 196.38 37.2155 196.679 37.7363C196.985 38.2507 197.138 38.8366 197.138 39.4941C197.138 39.9824 197.054 40.4414 196.884 40.8711C196.715 41.2943 196.461 41.6654 196.123 41.9844C195.791 42.3034 195.377 42.554 194.882 42.7363C194.394 42.9121 193.831 43 193.193 43H188.701V32.4336H190.507V41.5156H193.193C193.714 41.5156 194.13 41.4212 194.443 41.2324C194.755 41.0436 194.98 40.7995 195.117 40.5C195.254 40.2005 195.322 39.888 195.322 39.5625C195.322 39.2435 195.254 38.931 195.117 38.625C194.98 38.319 194.755 38.0651 194.443 37.8633C194.13 37.6549 193.714 37.5508 193.193 37.5508H190.019V36.0664ZM200.898 32.4336V43H199.091V32.4336H200.898ZM209.423 38.3516H205.956L205.937 36.9062H208.769C209.329 36.9062 209.794 36.8509 210.165 36.7402C210.543 36.6296 210.826 36.4635 211.015 36.2422C211.204 36.0208 211.298 35.7474 211.298 35.4219C211.298 35.168 211.243 34.9466 211.132 34.7578C211.028 34.5625 210.868 34.403 210.654 34.2793C210.439 34.1491 210.172 34.0547 209.853 33.9961C209.54 33.931 209.172 33.8984 208.749 33.8984H206.435V43H204.628V32.4336H208.749C209.42 32.4336 210.022 32.4922 210.556 32.6094C211.096 32.7266 211.555 32.9056 211.933 33.1465C212.317 33.3809 212.61 33.6803 212.812 34.0449C213.014 34.4095 213.114 34.8392 213.114 35.334C213.114 35.653 213.049 35.9557 212.919 36.2422C212.789 36.5286 212.597 36.7826 212.343 37.0039C212.089 37.2253 211.777 37.4076 211.405 37.5508C211.034 37.6875 210.608 37.7754 210.126 37.8145L209.423 38.3516ZM209.423 43H205.302L206.2 41.5352H209.423C209.924 41.5352 210.341 41.4733 210.673 41.3496C211.005 41.2194 211.252 41.0371 211.415 40.8027C211.585 40.5618 211.669 40.2754 211.669 39.9434C211.669 39.6113 211.585 39.3281 211.415 39.0938C211.252 38.8529 211.005 38.6706 210.673 38.5469C210.341 38.4167 209.924 38.3516 209.423 38.3516H206.679L206.698 36.9062H210.126L210.78 37.4531C211.36 37.4987 211.851 37.6419 212.255 37.8828C212.659 38.1237 212.965 38.4297 213.173 38.8008C213.381 39.1654 213.486 39.5625 213.486 39.9922C213.486 40.487 213.391 40.9232 213.202 41.3008C213.02 41.6784 212.753 41.9941 212.402 42.248C212.05 42.4954 211.624 42.6842 211.122 42.8145C210.621 42.9382 210.055 43 209.423 43ZM223.475 37.0137V38.4785H217.889V37.0137H223.475ZM218.27 32.4336V43H216.464V32.4336H218.27ZM224.94 32.4336V43H223.124V32.4336H224.94ZM227.772 37.834V37.6094C227.772 36.8477 227.883 36.1413 228.104 35.4902C228.325 34.8327 228.644 34.263 229.061 33.7812C229.478 33.293 229.982 32.9154 230.575 32.6484C231.167 32.375 231.831 32.2383 232.567 32.2383C233.309 32.2383 233.976 32.375 234.569 32.6484C235.168 32.9154 235.676 33.293 236.092 33.7812C236.515 34.263 236.838 34.8327 237.059 35.4902C237.28 36.1413 237.391 36.8477 237.391 37.6094V37.834C237.391 38.5957 237.28 39.3021 237.059 39.9531C236.838 40.6042 236.515 41.1738 236.092 41.6621C235.676 42.1439 235.171 42.5215 234.579 42.7949C233.993 43.0618 233.329 43.1953 232.586 43.1953C231.844 43.1953 231.177 43.0618 230.584 42.7949C229.992 42.5215 229.484 42.1439 229.061 41.6621C228.644 41.1738 228.325 40.6042 228.104 39.9531C227.883 39.3021 227.772 38.5957 227.772 37.834ZM229.579 37.6094V37.834C229.579 38.3613 229.64 38.8594 229.764 39.3281C229.888 39.7904 230.073 40.2005 230.321 40.5586C230.575 40.9167 230.89 41.1999 231.268 41.4082C231.646 41.61 232.085 41.7109 232.586 41.7109C233.081 41.7109 233.514 41.61 233.885 41.4082C234.263 41.1999 234.575 40.9167 234.823 40.5586C235.07 40.2005 235.256 39.7904 235.379 39.3281C235.51 38.8594 235.575 38.3613 235.575 37.834V37.6094C235.575 37.0885 235.51 36.597 235.379 36.1348C235.256 35.666 235.067 35.2526 234.813 34.8945C234.565 34.5299 234.253 34.2435 233.875 34.0352C233.504 33.8268 233.068 33.7227 232.567 33.7227C232.072 33.7227 231.636 33.8268 231.258 34.0352C230.887 34.2435 230.575 34.5299 230.321 34.8945C230.073 35.2526 229.888 35.666 229.764 36.1348C229.64 36.597 229.579 37.0885 229.579 37.6094ZM246.883 32.4336V33.9277H242V43H240.193V32.4336H246.883ZM248.181 37.834V37.6094C248.181 36.8477 248.292 36.1413 248.513 35.4902C248.735 34.8327 249.054 34.263 249.47 33.7812C249.887 33.293 250.392 32.9154 250.984 32.6484C251.576 32.375 252.24 32.2383 252.976 32.2383C253.718 32.2383 254.386 32.375 254.978 32.6484C255.577 32.9154 256.085 33.293 256.502 33.7812C256.925 34.263 257.247 34.8327 257.468 35.4902C257.69 36.1413 257.8 36.8477 257.8 37.6094V37.834C257.8 38.5957 257.69 39.3021 257.468 39.9531C257.247 40.6042 256.925 41.1738 256.502 41.6621C256.085 42.1439 255.58 42.5215 254.988 42.7949C254.402 43.0618 253.738 43.1953 252.996 43.1953C252.254 43.1953 251.586 43.0618 250.994 42.7949C250.401 42.5215 249.893 42.1439 249.47 41.6621C249.054 41.1738 248.735 40.6042 248.513 39.9531C248.292 39.3021 248.181 38.5957 248.181 37.834ZM249.988 37.6094V37.834C249.988 38.3613 250.05 38.8594 250.173 39.3281C250.297 39.7904 250.483 40.2005 250.73 40.5586C250.984 40.9167 251.3 41.1999 251.677 41.4082C252.055 41.61 252.494 41.7109 252.996 41.7109C253.49 41.7109 253.923 41.61 254.295 41.4082C254.672 41.1999 254.985 40.9167 255.232 40.5586C255.479 40.2005 255.665 39.7904 255.789 39.3281C255.919 38.8594 255.984 38.3613 255.984 37.834V37.6094C255.984 37.0885 255.919 36.597 255.789 36.1348C255.665 35.666 255.476 35.2526 255.222 34.8945C254.975 34.5299 254.662 34.2435 254.285 34.0352C253.914 33.8268 253.477 33.7227 252.976 33.7227C252.481 33.7227 252.045 33.8268 251.668 34.0352C251.296 34.2435 250.984 34.5299 250.73 34.8945C250.483 35.2526 250.297 35.666 250.173 36.1348C250.05 36.597 249.988 37.0885 249.988 37.6094ZM121.33 64.1387L126.203 56.4336H128.02V67H126.203V59.2949L121.33 67H119.533V56.4336H121.33V64.1387ZM138.585 56.4336H140.392L140.236 60.3887C140.196 61.3913 140.083 62.2572 139.894 62.9863C139.705 63.7155 139.464 64.3372 139.171 64.8516C138.878 65.3594 138.549 65.7858 138.185 66.1309C137.827 66.4759 137.456 66.7656 137.071 67H136.173L136.222 65.5254L136.593 65.5156C136.808 65.2617 137.016 65.0013 137.218 64.7344C137.42 64.4609 137.605 64.1387 137.775 63.7676C137.944 63.39 138.084 62.931 138.195 62.3906C138.312 61.8438 138.387 61.1764 138.419 60.3887L138.585 56.4336ZM139.034 56.4336H145.392V67H143.585V58.1035H139.034V56.4336ZM135.763 65.5156H146.749V70.1152H144.943V67H137.57V70.1152H135.753L135.763 65.5156ZM151.104 64.1387L155.977 56.4336H157.794V67H155.977V59.2949L151.104 67H149.307V56.4336H151.104V64.1387ZM165.323 65.7109C165.752 65.7109 166.149 65.623 166.514 65.4473C166.879 65.2715 167.178 65.0306 167.412 64.7246C167.647 64.4121 167.78 64.0573 167.813 63.6602H169.532C169.499 64.2852 169.287 64.8678 168.897 65.4082C168.513 65.9421 168.008 66.375 167.383 66.707C166.758 67.0326 166.071 67.1953 165.323 67.1953C164.528 67.1953 163.835 67.0553 163.243 66.7754C162.657 66.4954 162.168 66.1113 161.778 65.623C161.394 65.1348 161.104 64.5749 160.909 63.9434C160.72 63.3053 160.625 62.6315 160.625 61.9219V61.5117C160.625 60.8021 160.72 60.1315 160.909 59.5C161.104 58.862 161.394 58.2988 161.778 57.8105C162.168 57.3223 162.657 56.9382 163.243 56.6582C163.835 56.3783 164.528 56.2383 165.323 56.2383C166.149 56.2383 166.872 56.4076 167.491 56.7461C168.109 57.0781 168.594 57.5339 168.946 58.1133C169.304 58.6862 169.499 59.3372 169.532 60.0664H167.813C167.78 59.6302 167.657 59.2363 167.442 58.8848C167.233 58.5332 166.947 58.2533 166.582 58.0449C166.224 57.8301 165.804 57.7227 165.323 57.7227C164.769 57.7227 164.304 57.8333 163.926 58.0547C163.555 58.2695 163.259 58.5625 163.037 58.9336C162.823 59.2982 162.666 59.7051 162.569 60.1543C162.478 60.597 162.432 61.0495 162.432 61.5117V61.9219C162.432 62.3841 162.478 62.8398 162.569 63.2891C162.66 63.7383 162.813 64.1452 163.028 64.5098C163.249 64.8743 163.545 65.1673 163.916 65.3887C164.294 65.6035 164.763 65.7109 165.323 65.7109ZM176.27 56.4336V67H174.453V56.4336H176.27ZM179.814 56.4336V57.8984H170.977V56.4336H179.814ZM188.066 65.1934V59.7539C188.066 59.3372 187.981 58.9759 187.812 58.6699C187.649 58.3574 187.402 58.1165 187.07 57.9473C186.738 57.778 186.328 57.6934 185.839 57.6934C185.384 57.6934 184.983 57.7715 184.638 57.9277C184.3 58.084 184.033 58.2891 183.838 58.543C183.649 58.7969 183.554 59.0703 183.554 59.3633H181.748C181.748 58.9857 181.845 58.6113 182.041 58.2402C182.236 57.8691 182.516 57.5339 182.88 57.2344C183.252 56.9284 183.694 56.6875 184.209 56.5117C184.729 56.3294 185.309 56.2383 185.947 56.2383C186.715 56.2383 187.392 56.3685 187.978 56.6289C188.571 56.8893 189.033 57.2832 189.365 57.8105C189.703 58.3314 189.873 58.9857 189.873 59.7734V64.6953C189.873 65.0469 189.902 65.4212 189.961 65.8184C190.026 66.2155 190.12 66.5573 190.244 66.8438V67H188.359C188.268 66.7917 188.196 66.515 188.144 66.1699C188.092 65.8184 188.066 65.4928 188.066 65.1934ZM188.379 60.5938L188.398 61.8633H186.572C186.058 61.8633 185.599 61.9056 185.195 61.9902C184.791 62.0684 184.453 62.1888 184.179 62.3516C183.906 62.5143 183.698 62.7194 183.554 62.9668C183.411 63.2077 183.339 63.4909 183.339 63.8164C183.339 64.1484 183.414 64.4512 183.564 64.7246C183.714 64.998 183.938 65.2161 184.238 65.3789C184.544 65.5352 184.918 65.6133 185.361 65.6133C185.914 65.6133 186.403 65.4961 186.826 65.2617C187.249 65.0273 187.584 64.7409 187.832 64.4023C188.086 64.0638 188.222 63.735 188.242 63.416L189.013 64.2852C188.968 64.5586 188.844 64.8613 188.642 65.1934C188.44 65.5254 188.17 65.8444 187.832 66.1504C187.5 66.4499 187.102 66.7005 186.64 66.9023C186.185 67.0977 185.67 67.1953 185.097 67.1953C184.381 67.1953 183.753 67.0553 183.213 66.7754C182.679 66.4954 182.262 66.1211 181.963 65.6523C181.67 65.1771 181.523 64.6465 181.523 64.0605C181.523 63.4941 181.634 62.9961 181.855 62.5664C182.076 62.1302 182.395 61.7689 182.812 61.4824C183.229 61.1895 183.73 60.9681 184.316 60.8184C184.902 60.6686 185.556 60.5938 186.279 60.5938H188.379ZM200.282 61.0137V62.4785H194.696V61.0137H200.282ZM195.077 56.4336V67H193.271V56.4336H195.077ZM201.747 56.4336V67H199.931V56.4336H201.747ZM205.214 67V56.4336H207.02V65.5156H211.884V56.4336H213.7V67H205.214ZM214.95 65.5156L214.774 70.1348H213.163V67H211.786V65.5156H214.95ZM219.266 64.1387L224.139 56.4336H225.955V67H224.139V59.2949L219.266 67H217.469V56.4336H219.266V64.1387ZM228.777 61.834V61.6094C228.777 60.8477 228.888 60.1413 229.109 59.4902C229.331 58.8327 229.65 58.263 230.066 57.7812C230.483 57.293 230.988 56.9154 231.58 56.6484C232.173 56.375 232.837 56.2383 233.572 56.2383C234.314 56.2383 234.982 56.375 235.574 56.6484C236.173 56.9154 236.681 57.293 237.098 57.7812C237.521 58.263 237.843 58.8327 238.064 59.4902C238.286 60.1413 238.396 60.8477 238.396 61.6094V61.834C238.396 62.5957 238.286 63.3021 238.064 63.9531C237.843 64.6042 237.521 65.1738 237.098 65.6621C236.681 66.1439 236.176 66.5215 235.584 66.7949C234.998 67.0618 234.334 67.1953 233.592 67.1953C232.85 67.1953 232.182 67.0618 231.59 66.7949C230.997 66.5215 230.49 66.1439 230.066 65.6621C229.65 65.1738 229.331 64.6042 229.109 63.9531C228.888 63.3021 228.777 62.5957 228.777 61.834ZM230.584 61.6094V61.834C230.584 62.3613 230.646 62.8594 230.77 63.3281C230.893 63.7904 231.079 64.2005 231.326 64.5586C231.58 64.9167 231.896 65.1999 232.273 65.4082C232.651 65.61 233.09 65.7109 233.592 65.7109C234.087 65.7109 234.52 65.61 234.891 65.4082C235.268 65.1999 235.581 64.9167 235.828 64.5586C236.076 64.2005 236.261 63.7904 236.385 63.3281C236.515 62.8594 236.58 62.3613 236.58 61.834V61.6094C236.58 61.0885 236.515 60.597 236.385 60.1348C236.261 59.666 236.072 59.2526 235.818 58.8945C235.571 58.5299 235.258 58.2435 234.881 58.0352C234.51 57.8268 234.074 57.7227 233.572 57.7227C233.077 57.7227 232.641 57.8268 232.264 58.0352C231.893 58.2435 231.58 58.5299 231.326 58.8945C231.079 59.2526 230.893 59.666 230.77 60.1348C230.646 60.597 230.584 61.0885 230.584 61.6094ZM248.23 61.0137V62.4785H242.644V61.0137H248.23ZM243.025 56.4336V67H241.218V56.4336H243.025ZM249.695 56.4336V67H247.879V56.4336H249.695ZM260.173 61.0137V62.4785H254.587V61.0137H260.173ZM254.968 56.4336V67H253.161V56.4336H254.968ZM261.638 56.4336V67H259.821V56.4336H261.638ZM264.47 61.834V61.6094C264.47 60.8477 264.58 60.1413 264.802 59.4902C265.023 58.8327 265.342 58.263 265.759 57.7812C266.175 57.293 266.68 56.9154 267.272 56.6484C267.865 56.375 268.529 56.2383 269.264 56.2383C270.007 56.2383 270.674 56.375 271.266 56.6484C271.865 56.9154 272.373 57.293 272.79 57.7812C273.213 58.263 273.535 58.8327 273.757 59.4902C273.978 60.1413 274.089 60.8477 274.089 61.6094V61.834C274.089 62.5957 273.978 63.3021 273.757 63.9531C273.535 64.6042 273.213 65.1738 272.79 65.6621C272.373 66.1439 271.869 66.5215 271.276 66.7949C270.69 67.0618 270.026 67.1953 269.284 67.1953C268.542 67.1953 267.874 67.0618 267.282 66.7949C266.69 66.5215 266.182 66.1439 265.759 65.6621C265.342 65.1738 265.023 64.6042 264.802 63.9531C264.58 63.3021 264.47 62.5957 264.47 61.834ZM266.276 61.6094V61.834C266.276 62.3613 266.338 62.8594 266.462 63.3281C266.585 63.7904 266.771 64.2005 267.018 64.5586C267.272 64.9167 267.588 65.1999 267.966 65.4082C268.343 65.61 268.783 65.7109 269.284 65.7109C269.779 65.7109 270.212 65.61 270.583 65.4082C270.96 65.1999 271.273 64.9167 271.52 64.5586C271.768 64.2005 271.953 63.7904 272.077 63.3281C272.207 62.8594 272.272 62.3613 272.272 61.834V61.6094C272.272 61.0885 272.207 60.597 272.077 60.1348C271.953 59.666 271.764 59.2526 271.511 58.8945C271.263 58.5299 270.951 58.2435 270.573 58.0352C270.202 57.8268 269.766 57.7227 269.264 57.7227C268.77 57.7227 268.333 57.8268 267.956 58.0352C267.585 58.2435 267.272 58.5299 267.018 58.8945C266.771 59.2526 266.585 59.666 266.462 60.1348C266.338 60.597 266.276 61.0885 266.276 61.6094ZM283.58 56.4336V57.9277H278.698V67H276.891V56.4336H283.58ZM284.879 61.834V61.6094C284.879 60.8477 284.99 60.1413 285.211 59.4902C285.432 58.8327 285.751 58.263 286.168 57.7812C286.585 57.293 287.089 56.9154 287.682 56.6484C288.274 56.375 288.938 56.2383 289.674 56.2383C290.416 56.2383 291.083 56.375 291.676 56.6484C292.275 56.9154 292.783 57.293 293.199 57.7812C293.622 58.263 293.945 58.8327 294.166 59.4902C294.387 60.1413 294.498 60.8477 294.498 61.6094V61.834C294.498 62.5957 294.387 63.3021 294.166 63.9531C293.945 64.6042 293.622 65.1738 293.199 65.6621C292.783 66.1439 292.278 66.5215 291.686 66.7949C291.1 67.0618 290.436 67.1953 289.693 67.1953C288.951 67.1953 288.284 67.0618 287.691 66.7949C287.099 66.5215 286.591 66.1439 286.168 65.6621C285.751 65.1738 285.432 64.6042 285.211 63.9531C284.99 63.3021 284.879 62.5957 284.879 61.834ZM286.686 61.6094V61.834C286.686 62.3613 286.747 62.8594 286.871 63.3281C286.995 63.7904 287.18 64.2005 287.428 64.5586C287.682 64.9167 287.997 65.1999 288.375 65.4082C288.753 65.61 289.192 65.7109 289.693 65.7109C290.188 65.7109 290.621 65.61 290.992 65.4082C291.37 65.1999 291.682 64.9167 291.93 64.5586C292.177 64.2005 292.363 63.7904 292.486 63.3281C292.617 62.8594 292.682 62.3613 292.682 61.834V61.6094C292.682 61.0885 292.617 60.597 292.486 60.1348C292.363 59.666 292.174 59.2526 291.92 58.8945C291.673 58.5299 291.36 58.2435 290.982 58.0352C290.611 57.8268 290.175 57.7227 289.674 57.7227C289.179 57.7227 288.743 57.8268 288.365 58.0352C287.994 58.2435 287.682 58.5299 287.428 58.8945C287.18 59.2526 286.995 59.666 286.871 60.1348C286.747 60.597 286.686 61.0885 286.686 61.6094ZM118.898 85.834V85.6094C118.898 84.8477 119.009 84.1413 119.23 83.4902C119.452 82.8327 119.771 82.263 120.188 81.7812C120.604 81.293 121.109 80.9154 121.701 80.6484C122.294 80.375 122.958 80.2383 123.693 80.2383C124.436 80.2383 125.103 80.375 125.695 80.6484C126.294 80.9154 126.802 81.293 127.219 81.7812C127.642 82.263 127.964 82.8327 128.186 83.4902C128.407 84.1413 128.518 84.8477 128.518 85.6094V85.834C128.518 86.5957 128.407 87.3021 128.186 87.9531C127.964 88.6042 127.642 89.1738 127.219 89.6621C126.802 90.1439 126.298 90.5215 125.705 90.7949C125.119 91.0618 124.455 91.1953 123.713 91.1953C122.971 91.1953 122.303 91.0618 121.711 90.7949C121.118 90.5215 120.611 90.1439 120.188 89.6621C119.771 89.1738 119.452 88.6042 119.23 87.9531C119.009 87.3021 118.898 86.5957 118.898 85.834ZM120.705 85.6094V85.834C120.705 86.3613 120.767 86.8594 120.891 87.3281C121.014 87.7904 121.2 88.2005 121.447 88.5586C121.701 88.9167 122.017 89.1999 122.395 89.4082C122.772 89.61 123.212 89.7109 123.713 89.7109C124.208 89.7109 124.641 89.61 125.012 89.4082C125.389 89.1999 125.702 88.9167 125.949 88.5586C126.197 88.2005 126.382 87.7904 126.506 87.3281C126.636 86.8594 126.701 86.3613 126.701 85.834V85.6094C126.701 85.0885 126.636 84.597 126.506 84.1348C126.382 83.666 126.193 83.2526 125.939 82.8945C125.692 82.5299 125.38 82.2435 125.002 82.0352C124.631 81.8268 124.195 81.7227 123.693 81.7227C123.199 81.7227 122.762 81.8268 122.385 82.0352C122.014 82.2435 121.701 82.5299 121.447 82.8945C121.2 83.2526 121.014 83.666 120.891 84.1348C120.767 84.597 120.705 85.0885 120.705 85.6094ZM137.961 75.834H139.445C139.445 76.472 139.347 76.9798 139.152 77.3574C138.957 77.7285 138.69 78.015 138.351 78.2168C138.019 78.4186 137.642 78.5716 137.218 78.6758C136.802 78.7799 136.369 78.8809 135.92 78.9785C135.36 79.0957 134.839 79.2812 134.357 79.5352C133.882 79.7826 133.472 80.1341 133.127 80.5898C132.788 81.0456 132.537 81.638 132.375 82.3672C132.218 83.0964 132.176 83.998 132.248 85.0723V85.9707H130.763V85.0723C130.763 83.8678 130.877 82.8164 131.105 81.918C131.339 81.0195 131.668 80.2611 132.091 79.6426C132.515 79.0241 133.016 78.5326 133.595 78.168C134.181 77.8034 134.826 77.5527 135.529 77.416C136.037 77.3184 136.473 77.2142 136.837 77.1035C137.202 76.9863 137.479 76.8301 137.668 76.6348C137.863 76.4395 137.961 76.1725 137.961 75.834ZM135.822 81.0391C136.512 81.0391 137.127 81.1595 137.668 81.4004C138.208 81.6413 138.667 81.9766 139.045 82.4062C139.422 82.8359 139.709 83.3438 139.904 83.9297C140.106 84.5091 140.207 85.1406 140.207 85.8242V86.0391C140.207 86.7747 140.099 87.4583 139.884 88.0898C139.676 88.7148 139.367 89.2617 138.957 89.7305C138.553 90.1927 138.058 90.554 137.472 90.8145C136.893 91.0749 136.232 91.2051 135.49 91.2051C134.748 91.2051 134.084 91.0749 133.498 90.8145C132.918 90.554 132.423 90.1927 132.013 89.7305C131.603 89.2617 131.291 88.7148 131.076 88.0898C130.867 87.4583 130.763 86.7747 130.763 86.0391V85.8242C130.763 85.6615 130.793 85.502 130.851 85.3457C130.91 85.1895 130.981 85.0299 131.066 84.8672C131.157 84.7044 131.239 84.5319 131.31 84.3496C131.551 83.7637 131.88 83.2201 132.296 82.7188C132.72 82.2174 133.224 81.8138 133.81 81.5078C134.403 81.1953 135.073 81.0391 135.822 81.0391ZM135.47 82.5137C134.806 82.5137 134.259 82.6667 133.83 82.9727C133.407 83.2786 133.091 83.6855 132.882 84.1934C132.674 84.6947 132.57 85.2383 132.57 85.8242V86.0391C132.57 86.5339 132.629 87.0026 132.746 87.4453C132.863 87.888 133.039 88.2819 133.273 88.627C133.514 88.9655 133.817 89.2324 134.181 89.4277C134.552 89.623 134.989 89.7207 135.49 89.7207C135.991 89.7207 136.424 89.623 136.789 89.4277C137.153 89.2324 137.453 88.9655 137.687 88.627C137.921 88.2819 138.097 87.888 138.214 87.4453C138.332 87.0026 138.39 86.5339 138.39 86.0391V85.8242C138.39 85.3815 138.332 84.9616 138.214 84.5645C138.097 84.1673 137.918 83.8158 137.677 83.5098C137.443 83.2038 137.14 82.9629 136.769 82.7871C136.405 82.6048 135.972 82.5137 135.47 82.5137ZM144.288 82.4648V95.0625H142.472V80.4336H144.132L144.288 82.4648ZM151.407 85.6289V85.834C151.407 86.6022 151.316 87.3151 151.134 87.9727C150.952 88.6237 150.685 89.1901 150.333 89.6719C149.988 90.1536 149.562 90.528 149.054 90.7949C148.546 91.0618 147.963 91.1953 147.306 91.1953C146.635 91.1953 146.043 91.0846 145.529 90.8633C145.014 90.6419 144.578 90.3197 144.22 89.8965C143.862 89.4733 143.575 88.9655 143.361 88.373C143.152 87.7806 143.009 87.1133 142.931 86.3711V85.2773C143.009 84.4961 143.155 83.7962 143.37 83.1777C143.585 82.5592 143.868 82.0319 144.22 81.5957C144.578 81.153 145.011 80.8177 145.519 80.5898C146.027 80.3555 146.612 80.2383 147.277 80.2383C147.941 80.2383 148.53 80.3685 149.044 80.6289C149.558 80.8828 149.991 81.2474 150.343 81.7227C150.695 82.1979 150.958 82.7676 151.134 83.4316C151.316 84.0892 151.407 84.8216 151.407 85.6289ZM149.591 85.834V85.6289C149.591 85.1016 149.536 84.6068 149.425 84.1445C149.314 83.6758 149.142 83.2656 148.907 82.9141C148.68 82.556 148.387 82.276 148.029 82.0742C147.67 81.8659 147.244 81.7617 146.749 81.7617C146.293 81.7617 145.896 81.8398 145.558 81.9961C145.226 82.1523 144.943 82.3639 144.708 82.6309C144.474 82.8913 144.282 83.1908 144.132 83.5293C143.989 83.8613 143.881 84.2064 143.81 84.5645V87.0938C143.94 87.5495 144.122 87.9792 144.357 88.3828C144.591 88.7799 144.904 89.1022 145.294 89.3496C145.685 89.5905 146.176 89.7109 146.769 89.7109C147.257 89.7109 147.677 89.61 148.029 89.4082C148.387 89.1999 148.68 88.9167 148.907 88.5586C149.142 88.2005 149.314 87.7904 149.425 87.3281C149.536 86.8594 149.591 86.3613 149.591 85.834ZM160.343 89.1934V83.7539C160.343 83.3372 160.258 82.9759 160.089 82.6699C159.926 82.3574 159.679 82.1165 159.346 81.9473C159.014 81.778 158.604 81.6934 158.116 81.6934C157.66 81.6934 157.26 81.7715 156.915 81.9277C156.576 82.084 156.309 82.2891 156.114 82.543C155.925 82.7969 155.831 83.0703 155.831 83.3633H154.024C154.024 82.9857 154.122 82.6113 154.317 82.2402C154.513 81.8691 154.792 81.5339 155.157 81.2344C155.528 80.9284 155.971 80.6875 156.485 80.5117C157.006 80.3294 157.585 80.2383 158.223 80.2383C158.992 80.2383 159.669 80.3685 160.255 80.6289C160.847 80.8893 161.309 81.2832 161.641 81.8105C161.98 82.3314 162.149 82.9857 162.149 83.7734V88.6953C162.149 89.0469 162.179 89.4212 162.237 89.8184C162.302 90.2155 162.397 90.5573 162.52 90.8438V91H160.636C160.544 90.7917 160.473 90.515 160.421 90.1699C160.369 89.8184 160.343 89.4928 160.343 89.1934ZM160.655 84.5938L160.675 85.8633H158.848C158.334 85.8633 157.875 85.9056 157.471 85.9902C157.068 86.0684 156.729 86.1888 156.456 86.3516C156.182 86.5143 155.974 86.7194 155.831 86.9668C155.688 87.2077 155.616 87.4909 155.616 87.8164C155.616 88.1484 155.691 88.4512 155.841 88.7246C155.99 88.998 156.215 89.2161 156.514 89.3789C156.82 89.5352 157.195 89.6133 157.638 89.6133C158.191 89.6133 158.679 89.4961 159.102 89.2617C159.526 89.0273 159.861 88.7409 160.108 88.4023C160.362 88.0638 160.499 87.735 160.518 87.416L161.29 88.2852C161.244 88.5586 161.121 88.8613 160.919 89.1934C160.717 89.5254 160.447 89.8444 160.108 90.1504C159.776 90.4499 159.379 90.7005 158.917 90.9023C158.461 91.0977 157.947 91.1953 157.374 91.1953C156.658 91.1953 156.029 91.0553 155.489 90.7754C154.955 90.4954 154.539 90.1211 154.239 89.6523C153.946 89.1771 153.8 88.6465 153.8 88.0605C153.8 87.4941 153.91 86.9961 154.132 86.5664C154.353 86.1302 154.672 85.7689 155.089 85.4824C155.505 85.1895 156.007 84.9681 156.593 84.8184C157.179 84.6686 157.833 84.5938 158.555 84.5938H160.655ZM169.336 85.9512H167.393V84.8379H169.19C169.691 84.8379 170.088 84.776 170.381 84.6523C170.674 84.5221 170.883 84.3431 171.006 84.1152C171.13 83.8874 171.192 83.6204 171.192 83.3145C171.192 83.041 171.12 82.7839 170.977 82.543C170.84 82.2956 170.619 82.097 170.313 81.9473C170.007 81.791 169.597 81.7129 169.082 81.7129C168.666 81.7129 168.288 81.7878 167.95 81.9375C167.611 82.0807 167.341 82.2793 167.139 82.5332C166.944 82.7806 166.846 83.0605 166.846 83.373H165.039C165.039 82.7285 165.222 82.1751 165.586 81.7129C165.957 81.2441 166.449 80.8828 167.061 80.6289C167.679 80.375 168.353 80.248 169.082 80.248C169.694 80.248 170.241 80.3164 170.723 80.4531C171.211 80.5833 171.625 80.7786 171.963 81.0391C172.302 81.293 172.559 81.612 172.735 81.9961C172.917 82.3737 173.008 82.8132 173.008 83.3145C173.008 83.6725 172.924 84.0111 172.754 84.3301C172.585 84.6491 172.341 84.9323 172.022 85.1797C171.703 85.4206 171.315 85.6094 170.86 85.7461C170.411 85.8828 169.903 85.9512 169.336 85.9512ZM167.393 85.2676H169.336C169.968 85.2676 170.524 85.3294 171.006 85.4531C171.488 85.5703 171.892 85.7461 172.217 85.9805C172.543 86.2148 172.787 86.5046 172.95 86.8496C173.119 87.1882 173.204 87.5788 173.204 88.0215C173.204 88.5163 173.103 88.9622 172.901 89.3594C172.705 89.75 172.426 90.082 172.061 90.3555C171.696 90.6289 171.26 90.8372 170.752 90.9805C170.251 91.1237 169.694 91.1953 169.082 91.1953C168.399 91.1953 167.735 91.0781 167.09 90.8438C166.446 90.6094 165.915 90.248 165.498 89.7598C165.082 89.265 164.873 88.6367 164.873 87.875H166.68C166.68 88.194 166.781 88.4967 166.983 88.7832C167.185 89.0697 167.465 89.3008 167.823 89.4766C168.187 89.6523 168.607 89.7402 169.082 89.7402C169.59 89.7402 170.013 89.6621 170.352 89.5059C170.69 89.3496 170.944 89.1413 171.114 88.8809C171.289 88.6204 171.377 88.3372 171.377 88.0312C171.377 87.6341 171.299 87.3151 171.143 87.0742C170.987 86.8333 170.746 86.6576 170.42 86.5469C170.101 86.4297 169.691 86.3711 169.19 86.3711H167.393V85.2676ZM175.469 85.834V85.6094C175.469 84.8477 175.579 84.1413 175.801 83.4902C176.022 82.8327 176.341 82.263 176.758 81.7812C177.174 81.293 177.679 80.9154 178.271 80.6484C178.864 80.375 179.528 80.2383 180.264 80.2383C181.006 80.2383 181.673 80.375 182.266 80.6484C182.865 80.9154 183.372 81.293 183.789 81.7812C184.212 82.263 184.535 82.8327 184.756 83.4902C184.977 84.1413 185.088 84.8477 185.088 85.6094V85.834C185.088 86.5957 184.977 87.3021 184.756 87.9531C184.535 88.6042 184.212 89.1738 183.789 89.6621C183.372 90.1439 182.868 90.5215 182.275 90.7949C181.689 91.0618 181.025 91.1953 180.283 91.1953C179.541 91.1953 178.874 91.0618 178.281 90.7949C177.689 90.5215 177.181 90.1439 176.758 89.6621C176.341 89.1738 176.022 88.6042 175.801 87.9531C175.579 87.3021 175.469 86.5957 175.469 85.834ZM177.275 85.6094V85.834C177.275 86.3613 177.337 86.8594 177.461 87.3281C177.585 87.7904 177.77 88.2005 178.018 88.5586C178.271 88.9167 178.587 89.1999 178.965 89.4082C179.342 89.61 179.782 89.7109 180.283 89.7109C180.778 89.7109 181.211 89.61 181.582 89.4082C181.96 89.1999 182.272 88.9167 182.52 88.5586C182.767 88.2005 182.952 87.7904 183.076 87.3281C183.206 86.8594 183.271 86.3613 183.271 85.834V85.6094C183.271 85.0885 183.206 84.597 183.076 84.1348C182.952 83.666 182.764 83.2526 182.51 82.8945C182.262 82.5299 181.95 82.2435 181.572 82.0352C181.201 81.8268 180.765 81.7227 180.264 81.7227C179.769 81.7227 179.333 81.8268 178.955 82.0352C178.584 82.2435 178.271 82.5299 178.018 82.8945C177.77 83.2526 177.585 83.666 177.461 84.1348C177.337 84.597 177.275 85.0885 177.275 85.6094ZM192.714 86.3516H189.248L189.228 84.9062H192.06C192.62 84.9062 193.086 84.8509 193.457 84.7402C193.834 84.6296 194.117 84.4635 194.306 84.2422C194.495 84.0208 194.589 83.7474 194.589 83.4219C194.589 83.168 194.534 82.9466 194.423 82.7578C194.319 82.5625 194.16 82.403 193.945 82.2793C193.73 82.1491 193.463 82.0547 193.144 81.9961C192.832 81.931 192.464 81.8984 192.041 81.8984H189.726V91H187.92V80.4336H192.041C192.711 80.4336 193.313 80.4922 193.847 80.6094C194.388 80.7266 194.847 80.9056 195.224 81.1465C195.608 81.3809 195.901 81.6803 196.103 82.0449C196.305 82.4095 196.406 82.8392 196.406 83.334C196.406 83.653 196.341 83.9557 196.211 84.2422C196.08 84.5286 195.888 84.7826 195.634 85.0039C195.38 85.2253 195.068 85.4076 194.697 85.5508C194.326 85.6875 193.899 85.7754 193.418 85.8145L192.714 86.3516ZM192.714 91H188.593L189.492 89.5352H192.714C193.216 89.5352 193.632 89.4733 193.964 89.3496C194.296 89.2194 194.544 89.0371 194.707 88.8027C194.876 88.5618 194.961 88.2754 194.961 87.9434C194.961 87.6113 194.876 87.3281 194.707 87.0938C194.544 86.8529 194.296 86.6706 193.964 86.5469C193.632 86.4167 193.216 86.3516 192.714 86.3516H189.97L189.99 84.9062H193.418L194.072 85.4531C194.651 85.4987 195.143 85.6419 195.546 85.8828C195.95 86.1237 196.256 86.4297 196.464 86.8008C196.673 87.1654 196.777 87.5625 196.777 87.9922C196.777 88.487 196.683 88.9232 196.494 89.3008C196.311 89.6784 196.045 89.9941 195.693 90.248C195.341 90.4954 194.915 90.6842 194.414 90.8145C193.912 90.9382 193.346 91 192.714 91ZM205.829 89.1934V83.7539C205.829 83.3372 205.745 82.9759 205.575 82.6699C205.413 82.3574 205.165 82.1165 204.833 81.9473C204.501 81.778 204.091 81.6934 203.603 81.6934C203.147 81.6934 202.747 81.7715 202.402 81.9277C202.063 82.084 201.796 82.2891 201.601 82.543C201.412 82.7969 201.318 83.0703 201.318 83.3633H199.511C199.511 82.9857 199.609 82.6113 199.804 82.2402C199.999 81.8691 200.279 81.5339 200.644 81.2344C201.015 80.9284 201.458 80.6875 201.972 80.5117C202.493 80.3294 203.072 80.2383 203.71 80.2383C204.478 80.2383 205.155 80.3685 205.741 80.6289C206.334 80.8893 206.796 81.2832 207.128 81.8105C207.467 82.3314 207.636 82.9857 207.636 83.7734V88.6953C207.636 89.0469 207.665 89.4212 207.724 89.8184C207.789 90.2155 207.883 90.5573 208.007 90.8438V91H206.122C206.031 90.7917 205.96 90.515 205.907 90.1699C205.855 89.8184 205.829 89.4928 205.829 89.1934ZM206.142 84.5938L206.161 85.8633H204.335C203.821 85.8633 203.362 85.9056 202.958 85.9902C202.555 86.0684 202.216 86.1888 201.943 86.3516C201.669 86.5143 201.461 86.7194 201.318 86.9668C201.174 87.2077 201.103 87.4909 201.103 87.8164C201.103 88.1484 201.178 88.4512 201.327 88.7246C201.477 88.998 201.702 89.2161 202.001 89.3789C202.307 89.5352 202.682 89.6133 203.124 89.6133C203.678 89.6133 204.166 89.4961 204.589 89.2617C205.012 89.0273 205.348 88.7409 205.595 88.4023C205.849 88.0638 205.986 87.735 206.005 87.416L206.777 88.2852C206.731 88.5586 206.607 88.8613 206.405 89.1934C206.204 89.5254 205.933 89.8444 205.595 90.1504C205.263 90.4499 204.866 90.7005 204.404 90.9023C203.948 91.0977 203.433 91.1953 202.861 91.1953C202.144 91.1953 201.516 91.0553 200.976 90.7754C200.442 90.4954 200.025 90.1211 199.726 89.6523C199.433 89.1771 199.286 88.6465 199.286 88.0605C199.286 87.4941 199.397 86.9961 199.618 86.5664C199.84 86.1302 200.159 85.7689 200.575 85.4824C200.992 85.1895 201.493 84.9681 202.079 84.8184C202.665 84.6686 203.32 84.5938 204.042 84.5938H206.142ZM218.046 85.0137V86.4785H212.46V85.0137H218.046ZM212.841 80.4336V91H211.034V80.4336H212.841ZM219.511 80.4336V91H217.694V80.4336H219.511ZM224.774 88.1387L229.647 80.4336H231.463V91H229.647V83.2949L224.774 91H222.977V80.4336H224.774V88.1387ZM236.902 85.9609H238.855L235.799 91H233.846L236.902 85.9609ZM238.416 80.4336H242.83V91H241.023V81.8984H238.416C237.902 81.8984 237.482 81.9863 237.156 82.1621C236.831 82.3314 236.593 82.5527 236.443 82.8262C236.294 83.0996 236.219 83.3828 236.219 83.6758C236.219 83.9622 236.287 84.2389 236.424 84.5059C236.561 84.7663 236.775 84.9811 237.068 85.1504C237.361 85.3197 237.739 85.4043 238.201 85.4043H241.512V86.8887H238.201C237.596 86.8887 237.059 86.8073 236.59 86.6445C236.121 86.4818 235.724 86.2572 235.398 85.9707C235.073 85.6777 234.826 85.3359 234.656 84.9453C234.487 84.5482 234.402 84.1185 234.402 83.6562C234.402 83.194 234.49 82.7676 234.666 82.377C234.848 81.9863 235.109 81.6445 235.447 81.3516C235.792 81.0586 236.212 80.834 236.707 80.6777C237.208 80.515 237.778 80.4336 238.416 80.4336Z" fill="#0061FF"/>
</svg>
