<svg width="294" height="92" viewBox="0 0 294 92" fill="none" xmlns="http://www.w3.org/2000/svg">
<path d="M22.0897 86.0411C21.419 86.0411 20.7484 85.833 20.1785 85.4193C19.0403 84.5927 18.5631 83.1273 18.9956 81.7895L27.3528 55.9417L20.8142 51.1756C19.3623 50.1182 19.0436 48.0846 20.1012 46.6338C21.1597 45.1822 23.1937 44.8644 24.6449 45.9219L33.0866 52.0745C34.2223 52.9028 34.6979 54.3649 34.2654 55.7019L28.2463 74.3185L44.0965 62.8429C45.2339 62.0188 46.7728 62.0172 47.9109 62.8429L63.7604 74.3185L57.7412 55.7019C57.3095 54.3649 57.7851 52.9028 58.9208 52.0745L67.3626 45.9227C68.8137 44.8628 70.8477 45.1831 71.9054 46.6347C72.9639 48.0855 72.6452 50.119 71.1932 51.1764L64.6546 55.9425L73.0118 81.7903C73.4443 83.1281 72.9671 84.5935 71.829 85.4201C70.6908 86.2475 69.1495 86.2499 68.0097 85.4225L46.0037 69.4898L23.9969 85.4225C23.4279 85.8338 22.7588 86.0411 22.0897 86.0411Z" fill="#0061FF"/>
<path d="M84.6928 40.5653H84.688L55.1621 40.5206C53.7565 40.5182 52.5119 39.6144 52.0753 38.279L46.0001 19.6803L39.924 38.279C39.4875 39.6144 38.2428 40.5182 36.8372 40.5206L7.3114 40.5653H7.30652C5.51314 40.5653 4.05713 39.1129 4.05469 37.3191C4.05225 35.5237 5.50582 34.0656 7.30165 34.0631L34.4732 34.0217L42.9092 8.19914C43.3458 6.86213 44.5929 5.95752 46.0001 5.95752C47.4065 5.95752 48.6544 6.86213 49.091 8.19914L57.5262 34.0217L84.6977 34.0631C86.4935 34.0656 87.9471 35.5237 87.9447 37.3191C87.9422 39.1121 86.487 40.5653 84.6928 40.5653Z" fill="#0061FF"/>
<path d="M124.719 34.3496H121.115L121.096 32.8359H124.367C124.908 32.8359 125.38 32.7448 125.783 32.5625C126.187 32.3802 126.499 32.1198 126.721 31.7812C126.949 31.4362 127.062 31.026 127.062 30.5508C127.062 30.0299 126.962 29.6068 126.76 29.2812C126.564 28.9492 126.262 28.7083 125.852 28.5586C125.448 28.4023 124.934 28.3242 124.309 28.3242H121.535V41H119.65V26.7812H124.309C125.038 26.7812 125.689 26.8561 126.262 27.0059C126.835 27.1491 127.32 27.377 127.717 27.6895C128.12 27.9954 128.426 28.3861 128.635 28.8613C128.843 29.3366 128.947 29.9062 128.947 30.5703C128.947 31.1562 128.798 31.6868 128.498 32.1621C128.199 32.6309 127.782 33.015 127.248 33.3145C126.721 33.6139 126.102 33.806 125.393 33.8906L124.719 34.3496ZM124.631 41H120.373L121.438 39.4668H124.631C125.23 39.4668 125.738 39.3626 126.154 39.1543C126.577 38.946 126.9 38.653 127.121 38.2754C127.342 37.8913 127.453 37.4388 127.453 36.918C127.453 36.3906 127.359 35.9349 127.17 35.5508C126.981 35.1667 126.685 34.8704 126.281 34.6621C125.878 34.4538 125.357 34.3496 124.719 34.3496H122.033L122.053 32.8359H125.725L126.125 33.3828C126.809 33.4414 127.388 33.6367 127.863 33.9688C128.339 34.2943 128.7 34.7109 128.947 35.2188C129.201 35.7266 129.328 36.2865 129.328 36.8984C129.328 37.7839 129.133 38.5326 128.742 39.1445C128.358 39.75 127.814 40.2122 127.111 40.5312C126.408 40.8438 125.581 41 124.631 41ZM131.759 35.834V35.6094C131.759 34.8477 131.87 34.1413 132.091 33.4902C132.313 32.8327 132.632 32.263 133.048 31.7812C133.465 31.293 133.97 30.9154 134.562 30.6484C135.155 30.375 135.819 30.2383 136.554 30.2383C137.296 30.2383 137.964 30.375 138.556 30.6484C139.155 30.9154 139.663 31.293 140.08 31.7812C140.503 32.263 140.825 32.8327 141.046 33.4902C141.268 34.1413 141.379 34.8477 141.379 35.6094V35.834C141.379 36.5957 141.268 37.3021 141.046 37.9531C140.825 38.6042 140.503 39.1738 140.08 39.6621C139.663 40.1439 139.158 40.5215 138.566 40.7949C137.98 41.0618 137.316 41.1953 136.574 41.1953C135.832 41.1953 135.164 41.0618 134.572 40.7949C133.979 40.5215 133.472 40.1439 133.048 39.6621C132.632 39.1738 132.313 38.6042 132.091 37.9531C131.87 37.3021 131.759 36.5957 131.759 35.834ZM133.566 35.6094V35.834C133.566 36.3613 133.628 36.8594 133.752 37.3281C133.875 37.7904 134.061 38.2005 134.308 38.5586C134.562 38.9167 134.878 39.1999 135.255 39.4082C135.633 39.61 136.073 39.7109 136.574 39.7109C137.069 39.7109 137.502 39.61 137.873 39.4082C138.25 39.1999 138.563 38.9167 138.81 38.5586C139.058 38.2005 139.243 37.7904 139.367 37.3281C139.497 36.8594 139.562 36.3613 139.562 35.834V35.6094C139.562 35.0885 139.497 34.597 139.367 34.1348C139.243 33.666 139.054 33.2526 138.8 32.8945C138.553 32.5299 138.24 32.2435 137.863 32.0352C137.492 31.8268 137.056 31.7227 136.554 31.7227C136.06 31.7227 135.623 31.8268 135.246 32.0352C134.875 32.2435 134.562 32.5299 134.308 32.8945C134.061 33.2526 133.875 33.666 133.752 34.1348C133.628 34.597 133.566 35.0885 133.566 35.6094ZM148.429 41.1953C147.693 41.1953 147.026 41.0716 146.427 40.8242C145.835 40.5703 145.323 40.2155 144.894 39.7598C144.471 39.304 144.145 38.7637 143.917 38.1387C143.689 37.5137 143.575 36.8301 143.575 36.0879V35.6777C143.575 34.8184 143.702 34.0534 143.956 33.3828C144.21 32.7057 144.555 32.1328 144.991 31.6641C145.428 31.1953 145.922 30.8405 146.476 30.5996C147.029 30.3587 147.602 30.2383 148.195 30.2383C148.95 30.2383 149.601 30.3685 150.148 30.6289C150.701 30.8893 151.154 31.2539 151.505 31.7227C151.857 32.1849 152.117 32.7318 152.286 33.3633C152.456 33.9883 152.54 34.6719 152.54 35.4141V36.2246H144.65V34.75H150.734V34.6133C150.708 34.1445 150.61 33.6888 150.441 33.2461C150.278 32.8034 150.017 32.4388 149.659 32.1523C149.301 31.8659 148.813 31.7227 148.195 31.7227C147.784 31.7227 147.407 31.8105 147.062 31.9863C146.717 32.1556 146.42 32.4095 146.173 32.748C145.926 33.0866 145.734 33.5 145.597 33.9883C145.46 34.4766 145.392 35.0397 145.392 35.6777V36.0879C145.392 36.5892 145.46 37.0612 145.597 37.5039C145.74 37.9401 145.945 38.3242 146.212 38.6562C146.486 38.9883 146.814 39.2487 147.198 39.4375C147.589 39.6263 148.032 39.7207 148.527 39.7207C149.165 39.7207 149.705 39.5905 150.148 39.3301C150.59 39.0697 150.978 38.7214 151.31 38.2852L152.404 39.1543C152.176 39.4993 151.886 39.8281 151.534 40.1406C151.183 40.4531 150.75 40.707 150.236 40.9023C149.728 41.0977 149.126 41.1953 148.429 41.1953ZM162.218 35.0137V36.4785H156.632V35.0137H162.218ZM157.013 30.4336V41H155.206V30.4336H157.013ZM163.682 30.4336V41H161.866V30.4336H163.682ZM174.161 35.0137V36.4785H168.575V35.0137H174.161ZM168.955 30.4336V41H167.149V30.4336H168.955ZM175.625 30.4336V41H173.809V30.4336H175.625ZM180.42 34.0664H183.594C184.447 34.0664 185.166 34.2161 185.752 34.5156C186.338 34.8086 186.781 35.2155 187.08 35.7363C187.386 36.2507 187.539 36.8366 187.539 37.4941C187.539 37.9824 187.454 38.4414 187.285 38.8711C187.116 39.2943 186.862 39.6654 186.523 39.9844C186.191 40.3034 185.778 40.554 185.283 40.7363C184.795 40.9121 184.232 41 183.594 41H179.102V30.4336H180.908V39.5156H183.594C184.115 39.5156 184.531 39.4212 184.844 39.2324C185.156 39.0436 185.381 38.7995 185.518 38.5C185.654 38.2005 185.723 37.888 185.723 37.5625C185.723 37.2435 185.654 36.931 185.518 36.625C185.381 36.319 185.156 36.0651 184.844 35.8633C184.531 35.6549 184.115 35.5508 183.594 35.5508H180.42V34.0664ZM191.299 30.4336V41H189.492V30.4336H191.299ZM196.816 38.1387L201.689 30.4336H203.505V41H201.689V33.2949L196.816 41H195.019V30.4336H196.816V38.1387ZM200.703 26.6055H202.168C202.168 27.1133 202.05 27.5658 201.816 27.9629C201.582 28.3535 201.246 28.6595 200.81 28.8809C200.374 29.1022 199.856 29.2129 199.257 29.2129C198.352 29.2129 197.636 28.972 197.109 28.4902C196.588 28.002 196.328 27.3737 196.328 26.6055H197.793C197.793 26.9896 197.903 27.3281 198.125 27.6211C198.346 27.9141 198.724 28.0605 199.257 28.0605C199.778 28.0605 200.149 27.9141 200.371 27.6211C200.592 27.3281 200.703 26.9896 200.703 26.6055ZM215.136 39.9062L218.075 30.4336H220.009L215.77 42.6309C215.673 42.8913 215.542 43.1712 215.38 43.4707C215.223 43.7767 215.022 44.0664 214.774 44.3398C214.527 44.6133 214.227 44.8346 213.876 45.0039C213.531 45.1797 213.117 45.2676 212.636 45.2676C212.492 45.2676 212.31 45.248 212.089 45.209C211.867 45.1699 211.711 45.1374 211.62 45.1113L211.61 43.6465C211.662 43.653 211.744 43.6595 211.854 43.666C211.971 43.679 212.053 43.6855 212.098 43.6855C212.509 43.6855 212.857 43.6302 213.143 43.5195C213.43 43.4154 213.671 43.2363 213.866 42.9824C214.068 42.735 214.24 42.3932 214.384 41.957L215.136 39.9062ZM212.977 30.4336L215.721 38.6367L216.19 40.541L214.891 41.2051L211.005 30.4336H212.977ZM230.008 30.4336V41H228.202V30.4336H230.008ZM229.393 35.2871V36.7715C229.028 36.9082 228.657 37.0319 228.28 37.1426C227.909 37.2467 227.515 37.3314 227.098 37.3965C226.688 37.4551 226.242 37.4844 225.76 37.4844C224.927 37.4844 224.204 37.3411 223.592 37.0547C222.98 36.7617 222.508 36.3223 222.176 35.7363C221.844 35.1439 221.678 34.3984 221.678 33.5V30.4141H223.485V33.5C223.485 34.0859 223.573 34.5612 223.748 34.9258C223.924 35.2904 224.181 35.5605 224.52 35.7363C224.858 35.9056 225.272 35.9902 225.76 35.9902C226.229 35.9902 226.668 35.9609 227.079 35.9023C227.495 35.8372 227.892 35.7526 228.27 35.6484C228.654 35.5443 229.028 35.4238 229.393 35.2871ZM237.703 41.1953C236.967 41.1953 236.3 41.0716 235.701 40.8242C235.109 40.5703 234.598 40.2155 234.168 39.7598C233.745 39.304 233.419 38.7637 233.191 38.1387C232.964 37.5137 232.85 36.8301 232.85 36.0879V35.6777C232.85 34.8184 232.977 34.0534 233.23 33.3828C233.484 32.7057 233.829 32.1328 234.266 31.6641C234.702 31.1953 235.197 30.8405 235.75 30.5996C236.303 30.3587 236.876 30.2383 237.469 30.2383C238.224 30.2383 238.875 30.3685 239.422 30.6289C239.975 30.8893 240.428 31.2539 240.779 31.7227C241.131 32.1849 241.391 32.7318 241.561 33.3633C241.73 33.9883 241.814 34.6719 241.814 35.4141V36.2246H233.924V34.75H240.008V34.6133C239.982 34.1445 239.884 33.6888 239.715 33.2461C239.552 32.8034 239.292 32.4388 238.934 32.1523C238.576 31.8659 238.087 31.7227 237.469 31.7227C237.059 31.7227 236.681 31.8105 236.336 31.9863C235.991 32.1556 235.695 32.4095 235.447 32.748C235.2 33.0866 235.008 33.5 234.871 33.9883C234.734 34.4766 234.666 35.0397 234.666 35.6777V36.0879C234.666 36.5892 234.734 37.0612 234.871 37.5039C235.014 37.9401 235.219 38.3242 235.486 38.6562C235.76 38.9883 236.089 39.2487 236.473 39.4375C236.863 39.6263 237.306 39.7207 237.801 39.7207C238.439 39.7207 238.979 39.5905 239.422 39.3301C239.865 39.0697 240.252 38.7214 240.584 38.2852L241.678 39.1543C241.45 39.4993 241.16 39.8281 240.809 40.1406C240.457 40.4531 240.024 40.707 239.51 40.9023C239.002 41.0977 238.4 41.1953 237.703 41.1953ZM251.101 25.834H252.586C252.586 26.472 252.488 26.9798 252.293 27.3574C252.097 27.7285 251.83 28.015 251.492 28.2168C251.16 28.4186 250.782 28.5716 250.359 28.6758C249.942 28.7799 249.509 28.8809 249.06 28.9785C248.5 29.0957 247.979 29.2812 247.498 29.5352C247.022 29.7826 246.612 30.1341 246.267 30.5898C245.929 31.0456 245.678 31.638 245.515 32.3672C245.359 33.0964 245.317 33.998 245.388 35.0723V35.9707H243.904V35.0723C243.904 33.8678 244.018 32.8164 244.246 31.918C244.48 31.0195 244.809 30.2611 245.232 29.6426C245.655 29.0241 246.157 28.5326 246.736 28.168C247.322 27.8034 247.966 27.5527 248.67 27.416C249.177 27.3184 249.614 27.2142 249.978 27.1035C250.343 26.9863 250.619 26.8301 250.808 26.6348C251.004 26.4395 251.101 26.1725 251.101 25.834ZM248.963 31.0391C249.653 31.0391 250.268 31.1595 250.808 31.4004C251.349 31.6413 251.808 31.9766 252.185 32.4062C252.563 32.8359 252.849 33.3438 253.045 33.9297C253.246 34.5091 253.347 35.1406 253.347 35.8242V36.0391C253.347 36.7747 253.24 37.4583 253.025 38.0898C252.817 38.7148 252.507 39.2617 252.097 39.7305C251.694 40.1927 251.199 40.554 250.613 40.8145C250.033 41.0749 249.373 41.2051 248.63 41.2051C247.888 41.2051 247.224 41.0749 246.638 40.8145C246.059 40.554 245.564 40.1927 245.154 39.7305C244.744 39.2617 244.431 38.7148 244.216 38.0898C244.008 37.4583 243.904 36.7747 243.904 36.0391V35.8242C243.904 35.6615 243.933 35.502 243.992 35.3457C244.05 35.1895 244.122 35.0299 244.207 34.8672C244.298 34.7044 244.379 34.5319 244.451 34.3496C244.692 33.7637 245.02 33.2201 245.437 32.7188C245.86 32.2174 246.365 31.8138 246.951 31.5078C247.543 31.1953 248.214 31.0391 248.963 31.0391ZM248.611 32.5137C247.947 32.5137 247.4 32.6667 246.97 32.9727C246.547 33.2786 246.231 33.6855 246.023 34.1934C245.815 34.6947 245.711 35.2383 245.711 35.8242V36.0391C245.711 36.5339 245.769 37.0026 245.886 37.4453C246.004 37.888 246.179 38.2819 246.414 38.627C246.655 38.9655 246.957 39.2324 247.322 39.4277C247.693 39.623 248.129 39.7207 248.63 39.7207C249.132 39.7207 249.565 39.623 249.929 39.4277C250.294 39.2324 250.593 38.9655 250.828 38.627C251.062 38.2819 251.238 37.888 251.355 37.4453C251.472 37.0026 251.531 36.5339 251.531 36.0391V35.8242C251.531 35.3815 251.472 34.9616 251.355 34.5645C251.238 34.1673 251.059 33.8158 250.818 33.5098C250.584 33.2038 250.281 32.9629 249.91 32.7871C249.545 32.6048 249.112 32.5137 248.611 32.5137ZM262.79 35.0137V36.4785H257.204V35.0137H262.79ZM257.585 30.4336V41H255.779V30.4336H257.585ZM264.255 30.4336V41H262.439V30.4336H264.255ZM269.05 34.0664H272.223C273.076 34.0664 273.796 34.2161 274.382 34.5156C274.968 34.8086 275.41 35.2155 275.71 35.7363C276.016 36.2507 276.169 36.8366 276.169 37.4941C276.169 37.9824 276.084 38.4414 275.915 38.8711C275.746 39.2943 275.492 39.6654 275.153 39.9844C274.821 40.3034 274.408 40.554 273.913 40.7363C273.425 40.9121 272.861 41 272.223 41H267.731V30.4336H269.538V39.5156H272.223C272.744 39.5156 273.161 39.4212 273.473 39.2324C273.786 39.0436 274.011 38.7995 274.147 38.5C274.284 38.2005 274.352 37.888 274.352 37.5625C274.352 37.2435 274.284 36.931 274.147 36.625C274.011 36.319 273.786 36.0651 273.473 35.8633C273.161 35.6549 272.744 35.5508 272.223 35.5508H269.05V34.0664ZM279.929 30.4336V41H278.122V30.4336H279.929ZM285.446 38.1387L290.319 30.4336H292.135V41H290.319V33.2949L285.446 41H283.649V30.4336H285.446V38.1387ZM289.332 26.6055H290.797C290.797 27.1133 290.68 27.5658 290.446 27.9629C290.211 28.3535 289.876 28.6595 289.44 28.8809C289.004 29.1022 288.486 29.2129 287.887 29.2129C286.982 29.2129 286.266 28.972 285.739 28.4902C285.218 28.002 284.957 27.3737 284.957 26.6055H286.422C286.422 26.9896 286.533 27.3281 286.754 27.6211C286.976 27.9141 287.353 28.0605 287.887 28.0605C288.408 28.0605 288.779 27.9141 289 27.6211C289.222 27.3281 289.332 26.9896 289.332 26.6055ZM119.533 65V54.4336H121.34V63.5156H126.203V54.4336H128.02V65H119.533ZM129.27 63.5156L129.094 68.1348H127.482V65H126.105V63.5156H129.27ZM136.017 65.1953C135.282 65.1953 134.614 65.0716 134.015 64.8242C133.423 64.5703 132.912 64.2155 132.482 63.7598C132.059 63.304 131.733 62.7637 131.505 62.1387C131.278 61.5137 131.164 60.8301 131.164 60.0879V59.6777C131.164 58.8184 131.291 58.0534 131.545 57.3828C131.798 56.7057 132.143 56.1328 132.58 55.6641C133.016 55.1953 133.511 54.8405 134.064 54.5996C134.617 54.3587 135.19 54.2383 135.783 54.2383C136.538 54.2383 137.189 54.3685 137.736 54.6289C138.289 54.8893 138.742 55.2539 139.093 55.7227C139.445 56.1849 139.705 56.7318 139.875 57.3633C140.044 57.9883 140.129 58.6719 140.129 59.4141V60.2246H132.238V58.75H138.322V58.6133C138.296 58.1445 138.198 57.6888 138.029 57.2461C137.866 56.8034 137.606 56.4388 137.248 56.1523C136.89 55.8659 136.401 55.7227 135.783 55.7227C135.373 55.7227 134.995 55.8105 134.65 55.9863C134.305 56.1556 134.009 56.4095 133.761 56.748C133.514 57.0866 133.322 57.5 133.185 57.9883C133.048 58.4766 132.98 59.0397 132.98 59.6777V60.0879C132.98 60.5892 133.048 61.0612 133.185 61.5039C133.328 61.9401 133.533 62.3242 133.8 62.6562C134.074 62.9883 134.403 63.2487 134.787 63.4375C135.177 63.6263 135.62 63.7207 136.115 63.7207C136.753 63.7207 137.293 63.5905 137.736 63.3301C138.179 63.0697 138.566 62.7214 138.898 62.2852L139.992 63.1543C139.764 63.4993 139.474 63.8281 139.123 64.1406C138.771 64.4531 138.338 64.707 137.824 64.9023C137.316 65.0977 136.714 65.1953 136.017 65.1953ZM149.806 59.0137V60.4785H144.22V59.0137H149.806ZM144.601 54.4336V65H142.794V54.4336H144.601ZM151.271 54.4336V65H149.454V54.4336H151.271ZM158.888 54.4336V65H157.071V54.4336H158.888ZM162.432 54.4336V55.8984H153.595V54.4336H162.432ZM166.416 56.4648V69.0625H164.6V54.4336H166.26L166.416 56.4648ZM173.536 59.6289V59.834C173.536 60.6022 173.444 61.3151 173.262 61.9727C173.08 62.6237 172.813 63.1901 172.461 63.6719C172.116 64.1536 171.69 64.528 171.182 64.7949C170.674 65.0618 170.092 65.1953 169.434 65.1953C168.763 65.1953 168.171 65.0846 167.657 64.8633C167.142 64.6419 166.706 64.3197 166.348 63.8965C165.99 63.4733 165.704 62.9655 165.489 62.373C165.28 61.7806 165.137 61.1133 165.059 60.3711V59.2773C165.137 58.4961 165.284 57.7962 165.498 57.1777C165.713 56.5592 165.996 56.0319 166.348 55.5957C166.706 55.153 167.139 54.8177 167.647 54.5898C168.155 54.3555 168.741 54.2383 169.405 54.2383C170.069 54.2383 170.658 54.3685 171.172 54.6289C171.687 54.8828 172.12 55.2474 172.471 55.7227C172.823 56.1979 173.086 56.7676 173.262 57.4316C173.444 58.0892 173.536 58.8216 173.536 59.6289ZM171.719 59.834V59.6289C171.719 59.1016 171.664 58.6068 171.553 58.1445C171.442 57.6758 171.27 57.2656 171.036 56.9141C170.808 56.556 170.515 56.276 170.157 56.0742C169.799 55.8659 169.372 55.7617 168.877 55.7617C168.422 55.7617 168.024 55.8398 167.686 55.9961C167.354 56.1523 167.071 56.3639 166.836 56.6309C166.602 56.8913 166.41 57.1908 166.26 57.5293C166.117 57.8613 166.01 58.2064 165.938 58.5645V61.0938C166.068 61.5495 166.25 61.9792 166.485 62.3828C166.719 62.7799 167.032 63.1022 167.422 63.3496C167.813 63.5905 168.304 63.7109 168.897 63.7109C169.385 63.7109 169.805 63.61 170.157 63.4082C170.515 63.1999 170.808 62.9167 171.036 62.5586C171.27 62.2005 171.442 61.7904 171.553 61.3281C171.664 60.8594 171.719 60.3613 171.719 59.834Z" fill="#0061FF"/>
</svg>
