<svg width="90" height="90" viewBox="0 0 90 90" fill="none" xmlns="http://www.w3.org/2000/svg">
<path fill-rule="evenodd" clip-rule="evenodd" d="M75.479 35.7788V33.0024C75.479 28.4153 71.6493 24.6968 66.9251 24.6968H45.1591L36.1071 17.3882C34.5709 16.1478 32.636 15.4688 30.638 15.4688H15.6002C10.8772 15.4688 7.04796 19.1856 7.04633 23.7715L7.03125 66.2226C7.02962 70.8108 10.8598 74.5311 15.5851 74.5311H15.6853C15.701 74.5312 15.7166 74.5312 15.7323 74.5312H69.6598C72.7126 74.5312 75.3736 72.514 76.1141 69.6384L77.8794 62.7838C78.2627 61.2952 77.3205 59.7892 75.7808 59.4296C74.2583 59.0741 72.7247 59.9745 72.3456 61.4465L70.5819 68.2952C70.4761 68.706 70.0959 68.9942 69.6598 68.9942H15.7323C15.114 68.9942 14.6603 68.43 14.8102 67.8475L21.1 43.4131C21.4173 42.1805 22.5578 41.3158 23.8662 41.3158H76.3125C76.9308 41.3158 77.3845 41.8801 77.2345 42.4626L76.181 46.5534C75.7952 48.0514 76.7518 49.565 78.3046 49.9133C79.8206 50.2533 81.3381 49.3533 81.7148 47.8907L82.7667 43.8058C83.8167 39.7285 80.6409 35.7788 76.3125 35.7788H75.479ZM15.6002 21.0058C14.0259 21.0058 12.7495 22.2448 12.7489 23.7734L12.7385 53.0609L15.5676 42.0704C16.5195 38.3728 19.941 35.7788 23.8662 35.7788H69.7764V33.0024C69.7764 31.4734 68.4998 30.2339 66.9251 30.2339H44.1285C43.4625 30.2339 42.8175 30.0075 42.3054 29.5941L32.4611 21.6457C31.949 21.2322 31.304 21.0058 30.638 21.0058H15.6002Z" fill="#0061FF"/>
</svg>
