<svg width="90" height="90" viewBox="0 0 90 90" fill="none" xmlns="http://www.w3.org/2000/svg">
<path d="M10.5473 13.418C10.5473 11.8323 11.8328 10.5469 13.4184 10.5469C15.0041 10.5469 16.2895 11.8323 16.2895 13.418V37.3734L30.2648 30.0179C31.1444 29.555 32.2009 29.5799 33.0577 30.0839L47.6787 38.6846L69.1174 22.6055C69.9874 21.953 71.1513 21.848 72.124 22.3344C73.0967 22.8207 73.7111 23.8149 73.7111 24.9023V42.7528C73.7111 44.3385 72.4257 45.6239 70.84 45.6239C69.2544 45.6239 67.9689 44.3385 67.9689 42.7528V30.6445L49.5941 44.4258C48.6675 45.1207 47.4141 45.1909 46.4157 44.6036L31.5244 35.8439L16.2895 43.8623V73.7109H67.9689V61.6068C67.9689 60.0211 69.2544 58.7357 70.84 58.7357C72.4257 58.7357 73.7111 60.0211 73.7111 61.6068V73.7109H76.5821C78.1677 73.7109 79.4531 74.9964 79.4531 76.582C79.4531 78.1677 78.1677 79.4531 76.5821 79.4531H13.4184C11.8328 79.4531 10.5473 78.1677 10.5473 76.582V42.1831C10.5467 42.1485 10.5467 42.1141 10.5473 42.0796V13.418Z" fill="#0061FF"/>
</svg>
