<?xml version="1.0" encoding="UTF-8"?>
<svg class="d-inline-block" fill="none" viewBox="0 0 30 30" xmlns="http://www.w3.org/2000/svg">
<path d="m14.433 4.0314c0.1654-0.20689 0.4172-0.33898 0.6992-0.33898h0.9518c0.0832 0 0.166 0.00207 0.2484 0.00616h1.9332c2.6671 0 5.1208 1.4898 6.3812 3.8812 0.8537 1.6198 1.079 3.5058 0.631 5.2862l-0.2061 0.819 1.0029 1.0174c1.0014 1.0159 1.0014 2.6632 0 3.6791-0.5786 0.587-1.365 0.8349-2.119 0.7436-0.1076 0.4472-0.3335 0.871-0.6778 1.2203-0.4394 0.4458-0.9981 0.6959-1.5716 0.7506-0.0489 0.5911-0.2963 1.1683-0.7422 1.6207-0.4449 0.4513-1.0122 0.7021-1.5932 0.7526-0.0509 0.5906-0.2991 1.167-0.7449 1.6192-1.0063 1.0209-2.6378 1.0209-3.6441 0l-0.465-0.4718c-1.0047 0.7675-2.4387 0.6872-3.3534-0.2409-0.4679-0.4746-0.7172-1.087-0.7479-1.7085-0.61267-0.0311-1.2165-0.284-1.6844-0.7587-0.44739-0.4539-0.69491-1.0338-0.74255-1.627-0.58466-0.0485-1.1561-0.2996-1.6034-0.7534-0.32908-0.3338-0.55003-0.7359-0.66283-1.1613-0.7655 0.1045-1.5686-0.1417-2.1569-0.7386-1.0014-1.016-1.0014-2.6632 0-3.6792l1.1517-1.1684 0.01807-0.0181c-0.42225-2.3826 0.27417-4.9292 2.0893-6.7706 2.0406-2.0702 4.9597-2.706 7.5399-1.9074l0.0687-0.05309zm-6.9576 13.441c-0.0753 0.2597-0.01193 0.5521 0.19009 0.7571 0.20203 0.2049 0.4902 0.2692 0.74627 0.1928 0.11273-0.0336 0.21924-0.0945 0.30944-0.1826l0.00992-0.0102 1.1517-1.1684 0.01028-0.0103c0.28437-0.2994 0.28097-0.7759-0.00997-1.0711-0.29435-0.2987-0.77158-0.2987-1.0659 0l-1.1517 1.1684c-0.09232 0.0936-0.15569 0.2055-0.19009 0.3243zm-0.21704-3.0506c-0.03182-0.1205-0.09315-0.2346-0.18398-0.3307l-0.01103-0.0114c-0.29435-0.2986-0.77158-0.2986-1.0659 0l-1.1517 1.1684c-0.29435 0.2986-0.29435 0.7828 0 1.0814s0.77158 0.2986 1.0659 0l1.1517-1.1684c0.19742-0.2003 0.26242-0.484 0.19501-0.7393zm5.931 8.8483c0.1172-0.0349 0.2278-0.0992 0.3203-0.1931l1.1516-1.1684c0.2944-0.2986 0.2944-0.7828 0-1.0814-0.2943-0.2986-0.7715-0.2986-1.0659 0l-1.1517 1.1684c-0.0924 0.0938-0.1559 0.206-0.1902 0.3249-0.075 0.2597-0.0116 0.5517 0.1902 0.7565 0.2019 0.2048 0.4898 0.2692 0.7457 0.1931zm-2.4314-2.4675c0.117-0.0349 0.2272-0.0992 0.3194-0.1928l1.1517-1.1684c0.2943-0.2986 0.2943-0.7828 0-1.0814-0.291-0.2952-0.7607-0.2986-1.0557-0.0102l-0.0099 0.0102-1.1517 1.1683-0.0103 0.0104c-0.08684 0.0915-0.14686 0.1994-0.18003 0.3137-0.07542 0.2599-0.01209 0.5524 0.19003 0.7574 0.2021 0.205 0.4904 0.2693 0.7465 0.1928zm5.5176-11.035h2.3752c0.3133 0.3178 0.8206 0.3107 1.1253-0.01563l0.0934-0.1001c0.3463-0.37092 0.3387-0.95699-0.017-1.3184l-0.1258-0.1278c-0.17-0.1795-0.4041-0.28086-0.6486-0.28086h-3.1058c-0.1967 0-0.3881 0.06566-0.5449 0.18698l-2.5144 1.945c-0.4374 0.3384-1.0643 0.2518-1.3979-0.19317-0.3315-0.44211-0.2481-1.0712 0.1866-1.4074l3.776-2.9211h0.6064c0.0595 0 0.1185 0.00163 0.1771 0.00483 0.0161 8.8e-4 0.0322 0.00133 0.0483 0.00133h1.9562c2.0072 0 3.8482 1.1212 4.7919 2.9116 0.5952 1.1294 0.782 2.4306 0.534 3.6797l-1.2457-1.2657c-0.3553-0.361-0.9277-0.3649-1.2876-0.0087-0.3703 0.3664-0.374 0.9724-0.0082 1.3435l1.7683 1.794 0.0047 5e-3 0.016 0.0167 1.9553 1.9836c0.2943 0.2987 0.2943 0.7828 0 1.0814-0.2944 0.2987-0.7716 0.2987-1.0659 0l-1.9553-1.9836c-0.3535-0.3587-0.9267-0.3587-1.2803 0l-0.0196 0.0199c-0.3535 0.3586-0.3535 0.9402 0 1.2988l1.5243 1.5464c0.2946 0.2989 0.2946 0.7835 0 1.0824-0.2685 0.2724-0.6906 0.2969-0.9855 0.0719-0.3618-0.2762-0.8691-0.2387-1.1876 0.0878-0.3185 0.3264-0.3504 0.8414-0.0745 1.2057 0.2267 0.2994 0.2042 0.7316-0.0662 1.0059-0.2726 0.2766-0.7033 0.2975-0.9986 0.0616-0.3595-0.2871-0.8736-0.257-1.1982 0.0702-0.3245 0.3271-0.3574 0.8485-0.0767 1.215 0.233 0.3042 0.2111 0.7454-0.0646 1.025-0.2992 0.3036-0.7843 0.3036-1.0835 0l-0.4472-0.4537 0.1266-0.1285c1.0015-1.016 1.0015-2.6632 0-3.6792-0.4679-0.4747-1.0717-0.7276-1.6844-0.7587-0.0307-0.6214-0.28-1.2338-0.7478-1.7085-0.4473-0.4537-1.0187-0.7048-1.6034-0.7533-0.0476-0.5933-0.2952-1.1731-0.7425-1.627-0.5884-0.5969-1.3915-0.8431-2.157-0.7387-0.1128-0.4254-0.33374-0.8274-0.66283-1.1613-0.519-0.5265-1.2051-0.7801-1.8851-0.7609-0.17663-1.6865 0.37212-3.4364 1.6462-4.729 1.1842-1.2014 2.7578-1.7671 4.3087-1.6971l-1.8017 1.3938c-1.232 0.95302-1.4693 2.7433-0.5298 3.9964 0.9374 1.2503 2.6918 1.4927 3.921 0.5419l2.2726-1.7581z" clip-rule="evenodd" fill="#0061FF" fill-rule="evenodd"/>
</svg>
