<svg width="90" height="90" viewBox="0 0 90 90" fill="none" xmlns="http://www.w3.org/2000/svg">
<path d="M67.0982 33.6418V37.6442H57.0536L56.585 37.6712C54.5868 37.9024 53.0357 39.5941 53.0357 41.6466V45.5022C53.0357 47.1665 54.3849 48.5156 56.0491 48.5156C57.7134 48.5156 59.0625 47.1665 59.0625 45.5022V43.6478H67.0982V53.6538L67.0658 54.0136C66.8957 54.9471 66.0755 55.655 65.0893 55.655H59.0625V54.044C59.0625 52.3798 57.7134 51.0306 56.0491 51.0306C54.3849 51.0306 53.0357 52.3798 53.0357 54.044V57.6562L53.0627 58.123C53.2948 60.1136 54.9931 61.6587 57.0536 61.6587H65.0893L65.689 61.6367C69.8469 61.3311 73.125 57.8738 73.125 53.6538V33.6418C73.125 18.1686 60.533 5.625 45 5.625C43.3096 5.625 41.6541 5.77355 40.0458 6.05826C38.0842 6.40551 37.0898 8.50864 37.8168 10.3633C38.3003 11.5967 39.646 12.2381 40.9488 11.9977C42.2621 11.7553 43.6162 11.6286 45 11.6286C57.2045 11.6286 67.0982 21.4843 67.0982 33.6418Z" fill="#0061FF"/>
<path fill-rule="evenodd" clip-rule="evenodd" d="M22.9018 37.6442V33.6418C22.9018 26.3408 26.4699 19.8699 31.9638 15.8652C33.1673 14.9878 33.6491 13.3595 32.9281 12.0563C32.0421 10.4548 30.0102 9.86145 28.5257 10.932C21.467 16.0221 16.875 24.2978 16.875 33.6418V62.6593L16.8959 63.4564C17.3118 71.375 23.8891 77.6683 31.942 77.6683L36.4731 77.6652C37.7133 81.1645 41.0627 83.6719 45 83.6719C49.9928 83.6719 54.0402 79.64 54.0402 74.6665C54.0402 69.6929 49.9928 65.6611 45 65.6611C41.0642 65.6611 37.7159 68.1665 36.4746 71.6637L31.942 71.6647L31.323 71.6439C26.619 71.327 22.9018 67.4256 22.9018 62.6593V61.6587H32.9464C35.1654 61.6587 36.9643 59.8667 36.9643 57.6562V41.6466C36.9643 39.4362 35.1654 37.6442 32.9464 37.6442H22.9018ZM30.9375 43.6478H22.9018V55.655H30.9375V43.6478ZM41.9866 74.6665C41.9866 73.0086 43.3357 71.6647 45 71.6647C46.6643 71.6647 48.0134 73.0086 48.0134 74.6665C48.0134 76.3243 46.6643 77.6683 45 77.6683C43.3357 77.6683 41.9866 76.3243 41.9866 74.6665Z" fill="#0061FF"/>
</svg>
