<?xml version="1.0" encoding="UTF-8"?>
<svg class="d-inline-block" fill="none" viewBox="0 0 30 30" xmlns="http://www.w3.org/2000/svg">
<path d="m2.3574 5.8134c0-1.1714 0.95143-2.121 2.1251-2.121h5.3552c2.8723 0 5.3664 1.6157 6.6198 3.9861 0.6755-0.1674 1.3822-0.25625 2.1096-0.25625h6.5435c1.205 0 2.1817 0.97492 2.1817 2.1775v1.8305c0 0.5156-0.4186 0.9335-0.935 0.9335s-0.935-0.4179-0.935-0.9335v-1.8305c0-0.1718-0.1396-0.31108-0.3117-0.31108h-6.5435c-3.7861 0-6.8553 3.0633-6.8553 6.842 0 1.5534 0.5187 2.9858 1.3925 4.1342l5.108-5.095c0.3652-0.3643 0.9573-0.3641 1.3223 4e-4 0.365 0.3646 0.3649 0.9555-4e-4 1.3198l-5.1073 5.0944c1.1503 0.8712 2.5848 1.3882 4.1402 1.3882 3.786 0 6.8552-3.0632 6.8552-6.842v-0.44c0-0.5155 0.4186-0.9334 0.935-0.9334s0.935 0.4179 0.935 0.9334v0.44c0 4.8096-3.9064 8.7085-8.7252 8.7085-2.0724 0-3.976-0.7211-5.4727-1.9256l-2.9055 2.8982c-0.36531 0.3643-0.95733 0.3642-1.3224-4e-4 -0.36504-0.3645-0.36487-0.9554 4e-4 -1.3198l2.9051-2.8977c-0.7036-0.8705-1.2426-1.8791-1.5699-2.9786-0.1208 0.0058-0.24221 0.0087-0.36436 0.0087-1.116 0-2.1749-0.2439-3.1261-0.6812-0.46595-0.2143-0.63661-0.7696-0.43351-1.2398 0.20576-0.4765 0.7965-0.6429 1.2709-0.4311 0.69892 0.3121 1.4735 0.4857 2.2887 0.4857l0.0263-1e-4c-0.01475-0.207-0.02225-0.416-0.02225-0.6268 0-1.0858 0.19911-2.1252 0.56291-3.0838l-2.7896-2.7842c-0.36515-0.36444-0.36515-0.95533 0-1.3198 0.36515-0.36445 0.95718-0.36445 1.3223 0l2.3658 2.3613c0.8436-1.2621 2.0085-2.2919 3.3782-2.9729-0.9739-1.6586-2.7785-2.7724-4.8438-2.7724h-5.3552c-0.14083 0-0.255 0.11395-0.255 0.25451v5.3448c0 1.2241 0.39356 2.3565 1.0613 3.2779 0.29893 0.4125 0.26312 1.0092-0.14692 1.312-0.42006 0.3101-1.0127 0.2629-1.3234-0.1565-0.91821-1.2398-1.4611-2.7733-1.4611-4.4334v-5.3448z" fill="#0061FF"/>
</svg>
