<?xml version="1.0" encoding="UTF-8"?>
<svg viewBox="0 0 125 108" xmlns="http://www.w3.org/2000/svg">
<path d="m33.646 54c-1.1381 0-2.2237 0.4788-2.991 1.3193-0.7674 0.8405-1.1456 1.9651-1.0423 3.0984 1.5132 16.597 13.769 30.682 32.387 30.682 18.618 0 30.874-14.086 32.387-30.682 0.1034-1.1334-0.2749-2.2579-1.0422-3.0984-0.7674-0.8406-1.8529-1.3194-2.991-1.3194h-56.708zm28.354 27c-12.189 0-20.906-7.9892-23.585-18.9h47.171c-2.6795 10.911-11.397 18.9-23.585 18.9z" fill="#0061FF"/>
<path d="m79.55 36.45c-2.206 0-3.8357 1.5508-4.0936 3.293-0.3275 2.2127-2.3868 3.7409-4.5994 3.4133-2.2126-0.3275-3.7408-2.3867-3.4133-4.5993 0.8718-5.8897 6.0647-10.207 12.106-10.207 6.0417 0 11.235 4.3173 12.106 10.207 0.3275 2.2126-1.2007 4.2718-3.4133 4.5993-2.2127 0.3276-4.2719-1.2006-4.5994-3.4133-0.2579-1.7422-1.8876-3.293-4.0937-3.293z" fill="#0061FF"/>
<path d="m40.357 39.743c0.2579-1.7422 1.8876-3.293 4.0936-3.293 2.2061 0 3.8358 1.5508 4.0937 3.293 0.3275 2.2127 2.3867 3.7409 4.5994 3.4133 2.2126-0.3275 3.7408-2.3867 3.4133-4.5993-0.8718-5.8897-6.0647-10.207-12.106-10.207-6.0416 0-11.234 4.3173-12.106 10.207-0.3275 2.2126 1.2007 4.2718 3.4133 4.5993 2.2126 0.3276 4.2719-1.2006 4.5994-3.4133z" fill="#0061FF"/>
<path d="m62 8.1c-25.35 0-45.9 20.55-45.9 45.9s20.55 45.9 45.9 45.9c15.552 0 29.298-7.7349 37.6-19.568 1.1708-1.6687 3.3838-2.322 5.1948-1.387 2.167 1.1185 2.971 3.8328 1.579 5.8352-9.7521 14.033-25.99 23.219-44.374 23.219-29.823 0-54-24.177-54-54s24.177-54 54-54 54 24.177 54 54c0 2.4202-0.159 4.8032-0.468 7.1392-0.314 2.3778-2.669 3.8441-5 3.2795-2.019-0.4891-3.266-2.4937-3.003-4.5541 0.245-1.9203 0.371-3.8777 0.371-5.8646 0-25.35-20.55-45.9-45.9-45.9z" fill="#0061FF"/>
</svg>
