<svg width="90" height="90" viewBox="0 0 90 90" fill="none" xmlns="http://www.w3.org/2000/svg">
<path d="M55.2487 62.8168C60.1249 62.8168 62.024 64.9896 63.4666 69.8081L63.7193 70.6931C64.3994 73.1447 64.806 73.8792 65.6296 74.219C66.5952 74.6173 67.2389 74.5607 68.2509 74.04L68.7983 73.7329C68.9953 73.6144 69.21 73.4779 69.4528 73.3173L71.9242 71.6336C74.2192 70.1225 76.2814 69.1239 78.7923 68.4955C80.2898 68.1208 81.8072 69.0321 82.1815 70.531C82.5559 72.03 81.6454 73.5489 80.148 73.9236C78.6312 74.3032 77.3227 74.8777 75.8801 75.749L74.7675 76.4609L72.9825 77.6844C72.1262 78.2673 71.4799 78.6695 70.8065 79.0161C68.4109 80.2489 66.0746 80.4543 63.4997 79.3921C60.7243 78.2471 59.605 76.4829 58.5575 72.97L57.9768 70.9491C57.301 68.7508 56.8405 68.412 55.2487 68.412C54.0959 68.412 52.9027 68.9892 51.2676 70.3627L50.5791 70.963L47.1476 74.2281C41.9004 79.1653 37.427 81.5625 31.0222 81.5625C29.1427 81.5625 27.339 81.4777 25.612 81.3075C21.9424 80.9458 22.0108 76.7094 25.5675 75.738C25.6721 75.7095 25.781 75.7009 25.8888 75.7122C27.5075 75.882 29.2183 75.9673 31.0222 75.9673C35.4296 75.9673 38.5933 74.4195 42.5227 70.8848L43.4849 69.9944L45.4666 68.0878C46.3485 67.2417 47.0092 66.6355 47.6745 66.0767C50.2219 63.9369 52.5371 62.8168 55.2487 62.8168Z" fill="#0061FF"/>
<path d="M71.1989 12.347C76.4063 17.5597 76.4063 26.0112 71.1989 31.2239L70.125 32.3008C74.4158 37.528 74.2607 43.0678 70.2701 47.074L62.8128 54.5389C61.7204 55.6305 59.9508 55.6289 58.8604 54.5354C57.7699 53.4419 57.7714 51.6706 58.8638 50.579L66.312 43.1234C68.1193 41.3089 68.3283 39.0563 66.1636 36.2661L34.0531 68.407C33.0214 69.4397 31.7383 70.1851 30.3306 70.5694L11.2676 75.7736C9.1813 76.3432 7.26695 74.4269 7.83594 72.3385L13.0349 53.2564C13.4188 51.8473 14.1635 50.5629 15.1952 49.5301L36.6496 28.0541C37.7678 26.9348 39.5928 26.9636 40.6749 28.1176C41.7055 29.2166 41.6784 30.9331 40.6135 31.9991L19.1476 53.4865C18.8037 53.8307 18.5555 54.2589 18.4275 54.7286L14.5154 69.0874L28.8599 65.1714C29.3291 65.0433 29.7568 64.7948 30.1007 64.4506L67.2464 27.2675C70.271 24.2399 70.271 19.3311 67.2464 16.3034C64.2218 13.2758 59.318 13.2758 56.2934 16.3034L49.541 23.0625C48.4934 24.1112 46.8079 24.1617 45.6992 23.1775C44.4973 22.1106 44.4415 20.2544 45.5772 19.1175L52.3409 12.347C57.5484 7.13432 65.9914 7.13432 71.1989 12.347Z" fill="#0061FF"/>
</svg>
