<?xml version="1.0" encoding="UTF-8"?>
<svg class="d-inline-block" viewBox="0 0 30 31" xmlns="http://www.w3.org/2000/svg">
<path d="m18.164 21.169c1.6011 0 2.2247 0.7134 2.6984 2.2954l0.083 0.2906c0.2233 0.8049 0.3568 1.0461 0.6273 1.1576 0.317 0.1308 0.5284 0.1122 0.8607-0.0588l0.1797-0.1008c0.0647-0.0389 0.1352-0.0837 0.215-0.1364l0.8115-0.5528c0.7536-0.4961 1.4307-0.824 2.2552-1.0303 0.4917-0.1231 0.9899 0.1762 1.1128 0.6683 0.123 0.4921-0.176 0.9908-0.6677 1.1138-0.498 0.1247-0.9277 0.3133-1.4014 0.5994l-0.3653 0.2337-0.5862 0.4017c-0.2811 0.1914-0.4933 0.3234-0.7145 0.4372-0.7866 0.4048-1.5537 0.4722-2.3992 0.1234-0.9113-0.3759-1.2789-0.9551-1.6228-2.1084l-0.1907-0.6635c-0.2219-0.7218-0.3731-0.8331-0.8958-0.8331-0.3785 0-0.7704 0.1896-1.3072 0.6405l-0.2261 0.1971-1.1268 1.072c-1.723 1.621-3.1918 2.4081-5.2949 2.4081-0.61718 0-1.2094-0.0279-1.7765-0.0838-1.205-0.1187-1.1825-1.5096-0.01461-1.8286 0.03433-0.0093 0.07011-0.0121 0.1055-0.0084 0.5315 0.0557 1.0933 0.0837 1.6856 0.0837 1.4472 0 2.486-0.5081 3.7763-1.6687l0.3159-0.2923 0.6508-0.626c0.2895-0.2778 0.5065-0.4768 0.7249-0.6603 0.8365-0.7025 1.5967-1.0703 2.4871-1.0703z" fill="#0061FF"/>
<path d="m23.402 4.599c1.7099 1.7114 1.7099 4.4862 0 6.1977l-0.3526 0.3536c1.4089 1.7162 1.358 3.535 0.0476 4.8503l-2.4487 2.4509c-0.3587 0.3584-0.9397 0.3579-1.2978-0.0011s-0.3575-0.9406 0.0011-1.299l2.4457-2.4478c0.5935-0.5958 0.6621-1.3354-0.0487-2.2514l-10.544 10.552c-0.3388 0.3391-0.7601 0.5838-1.2223 0.71l-6.2595 1.7086c-0.68506 0.187-1.3136-0.4421-1.1268-1.1278l1.7071-6.2651c0.12606-0.4626 0.37057-0.8843 0.70935-1.2234l7.0448-7.051c0.3672-0.36748 0.9664-0.35803 1.3217 0.02084 0.3385 0.36087 0.3295 0.92437-0.0201 1.2744l-7.0486 7.0548c-0.11292 0.113-0.19442 0.2536-0.23644 0.4078l-1.2846 4.7143 4.7101-1.2857c0.15408-0.0421 0.29452-0.1236 0.40745-0.2367l12.197-12.208c0.9931-0.99404 0.9931-2.6057 0-3.5998-0.9932-0.99404-2.6034-0.99404-3.5966 0l-2.2172 2.2192c-0.344 0.34431-0.8974 0.36087-1.2615 0.03776-0.3947-0.35029-0.413-0.95972-0.04-1.333l2.2209-2.2229c1.7099-1.7114 4.4823-1.7114 6.1922 0z" fill="#0061FF"/>
</svg>
