<svg width="26" height="27" viewBox="0 0 26 27" fill="none" xmlns="http://www.w3.org/2000/svg">
<path fill-rule="evenodd" clip-rule="evenodd" d="M14.0138 7.76495C14.2368 7.20972 14.8676 6.94033 15.4228 7.16325C16.2666 7.50203 17.0299 8.01407 17.6635 8.6663C18.297 9.31852 18.7867 10.0964 19.1008 10.9497C19.3075 11.5112 19.0199 12.1339 18.4584 12.3406C17.897 12.5473 17.2742 12.2597 17.0675 11.6982C16.8581 11.1294 16.5317 10.6108 16.1093 10.1759C15.687 9.74113 15.1781 9.39977 14.6155 9.17391C14.0603 8.951 13.7909 8.32018 14.0138 7.76495Z" fill="#333333"/>
<path fill-rule="evenodd" clip-rule="evenodd" d="M14.4786 3.49706C14.6334 2.91914 15.2275 2.57618 15.8054 2.73103C17.6422 3.22321 19.3172 4.19024 20.6618 5.5349C22.0065 6.87957 22.9735 8.55451 23.4657 10.3914C23.6206 10.9693 23.2776 11.5633 22.6997 11.7182C22.1218 11.873 21.5277 11.5301 21.3729 10.9521C20.9791 9.48265 20.2055 8.1427 19.1298 7.06697C18.054 5.99123 16.7141 5.21762 15.2446 4.82387C14.6667 4.66902 14.3237 4.07498 14.4786 3.49706Z" fill="#333333"/>
<path fill-rule="evenodd" clip-rule="evenodd" d="M5.38373 5.84514C8.00344 4.97134 10.6507 6.61233 11.3861 9.26914C11.8871 11.0795 11.4126 12.9779 10.2555 14.2778C10.4924 14.5847 10.7514 14.8798 11.0325 15.1612C11.3123 15.4411 11.6056 15.6991 11.9106 15.9353C13.2101 14.769 15.1141 14.2892 16.9298 14.7924C19.5861 15.5287 21.224 18.178 20.3515 20.7976C19.7791 22.5164 18.7118 23.5607 17.2882 23.9045C15.9655 24.2239 14.5393 23.8843 13.2814 23.3614C10.748 22.3083 8.24634 20.2338 7.10385 19.0905C5.93439 17.9202 3.8689 15.4149 2.8253 12.8863C2.30707 11.6306 1.97339 10.2097 2.29353 8.89299C2.63796 7.47644 3.67694 6.4144 5.38373 5.84514ZM9.2979 9.84708C8.85081 8.23174 7.36532 7.4682 6.06929 7.90049C4.93006 8.28045 4.53492 8.84528 4.39886 9.40489C4.23851 10.0644 4.37795 10.9689 4.8281 12.0597C5.72128 14.2239 7.57365 16.4954 8.63648 17.559C9.67359 18.5969 11.9427 20.4585 14.1131 21.3607C15.2071 21.8155 16.1161 21.9585 16.7796 21.7983C17.3423 21.6625 17.9122 21.265 18.2959 20.113C18.7285 18.8139 17.9637 17.3274 16.351 16.8804C15.1508 16.5477 13.9169 16.9331 13.1825 17.7196C12.7083 18.2275 11.8043 18.517 11.0352 17.9802C10.494 17.6025 9.9801 17.1732 9.49989 16.6926C9.01893 16.2113 8.5895 15.6962 8.21171 15.1538C7.67825 14.388 7.9629 13.4875 8.4671 13.0122C9.24778 12.2762 9.62941 11.0449 9.2979 9.84708Z" fill="#333333"/>
</svg>
