<svg width="300" height="128" viewBox="0 0 300 128" fill="none" xmlns="http://www.w3.org/2000/svg">
<path d="M159.25 16.4099H124.98L109.69 60.0899C108.64 57.7999 107.15 55.8999 105.17 54.3899C103.15 52.8699 100.68 51.8299 97.77 51.2599C102.32 50.4999 106 48.6999 108.78 45.8499C111.82 42.7499 113.34 38.8599 113.34 34.1699C113.34 26.8199 110.05 21.7699 103.47 18.9799C99.42 17.2699 93.78 16.4099 86.57 16.4099H46.79V82.8699H72.24V59.6899H77.94C79.84 59.6899 81.44 60.0799 82.78 60.8399C84.68 61.9099 85.81 63.7199 86.2 66.2499L88.66 82.8599H101.71H115.24H127.16L131.62 68.5299H151.55L156.11 82.8599H169.81V46.1099L159.25 16.4099ZM81.63 45.1699C80.74 45.3699 79.32 45.4599 77.36 45.4599H71.09V31.2199H77.74C81.16 31.2199 83.67 31.7999 85.28 32.9799C86.9 34.1499 87.71 35.8899 87.71 38.1499C87.71 41.9499 85.68 44.2899 81.63 45.1699ZM134.56 52.9599L141.4 32.1699H141.78L148.7 52.9599H134.56Z" fill="#12100B"/>
<path d="M271.07 48.78L293.29 16.4H266.42L255.88 36.06H255.51L245.92 16.4H228.91H216.48H175.5V82.86H182.88H213.64H229.58H241.36L252.85 60.36H253.23L265.38 82.86H295L271.07 48.78ZM224.46 67.2H196.35V56.85H227.5V41.66H196.35V32.07H226.51L237.2 48.78L224.46 67.2Z" fill="#E30613"/>
<path d="M40.8201 16.22H28.8701V82.84H40.8201V16.22Z" fill="#E30613"/>
<path d="M22.9801 16.22H15.0701V82.84H22.9801V16.22Z" fill="#E30613"/>
<path d="M9.37 16.22H5V82.84H9.37V16.22Z" fill="#E30613"/>
<path d="M293.51 25.72L277.35 49.03L293.71 72.15L293.51 25.72Z" fill="#12100B"/>
<path d="M15.7601 111.57V106.88C15.7601 104.15 15.7601 104.22 11.3501 104.22H8.2901V111.56H5.1001V93.5H11.4301C15.5201 93.5 18.8801 93.66 18.8801 98.7C18.8801 100.87 18.4401 102.16 17.1201 102.71C19.1201 103.31 18.8801 105.66 18.8801 107.15V111.56H15.7601V111.57ZM15.2001 96.91C14.7701 96.51 14.6101 96.34 11.3801 96.34H8.2901V101.35H11.5601C12.4001 101.35 14.2701 101.38 14.8101 101.13C15.2101 100.94 15.7301 100.43 15.7301 98.83C15.7401 97.78 15.4901 97.19 15.2001 96.91Z" fill="#12100B"/>
<path d="M42.6502 111.57L40.9702 106.96H33.9302L32.2702 111.57H28.9402L35.9202 93.5H39.1902L46.1302 111.57H42.6502ZM37.4802 97.05L34.9402 104.2H40.0002L37.4802 97.05Z" fill="#12100B"/>
<path d="M61.5 96.35V111.57H58.3V96.35H52.8V93.5H67V96.34H61.5V96.35Z" fill="#12100B"/>
<path d="M77.4602 111.57V93.5H80.6502V111.57H77.4602Z" fill="#12100B"/>
<path d="M103.15 111.57L95.6502 98.6V111.57H92.6702V93.5H95.9202L103.45 106.36V93.5H106.43V111.57H103.15Z" fill="#12100B"/>
<path d="M130.26 111.57V110.21C128.91 111.51 127.04 111.78 125.12 111.78C118.13 111.78 118.13 107.47 118.13 102.52C118.13 97.3499 118.21 93.3199 125.77 93.3199C129.77 93.3199 132.75 94.4299 132.75 98.5699H129.59C129.59 96.7799 128.61 96.2199 125.53 96.2199C121.9 96.2199 121.33 97.3899 121.33 102.56C121.33 107.73 121.87 108.85 125.39 108.87C129.56 108.9 129.67 107.03 129.7 103.67H125.26V100.91H132.79V111.58H130.26V111.57Z" fill="#12100B"/>
<path d="M169.41 111.57V106.88C169.41 104.15 169.41 104.22 164.99 104.22H161.93V111.56H158.74V93.5H165.07C169.16 93.5 172.52 93.66 172.52 98.7C172.52 100.87 172.09 102.16 170.76 102.71C172.77 103.31 172.52 105.66 172.52 107.15V111.56H169.41V111.57ZM168.85 96.91C168.42 96.51 168.25 96.34 165.03 96.34H161.94V101.35H165.21C166.05 101.35 167.92 101.38 168.46 101.13C168.87 100.94 169.38 100.43 169.38 98.83C169.39 97.78 169.14 97.19 168.85 96.91Z" fill="#12100B"/>
<path d="M184.44 111.57V93.5H196.87V96.34H187.58V100.92H196.6V103.74H187.58V108.7H196.87V111.57H184.44Z" fill="#12100B"/>
<path d="M216.37 111.57H213.23L206.49 93.5H209.9L214.86 107.53L219.82 93.5H223.18L216.37 111.57Z" fill="#12100B"/>
<path d="M233.21 111.57V93.5H236.41V111.57H233.21Z" fill="#12100B"/>
<path d="M248.43 111.57V93.5H260.86V96.34H251.57V100.92H260.59V103.74H251.57V108.7H260.86V111.57H248.43Z" fill="#12100B"/>
<path d="M289.53 111.57H286.17L282.51 97.05L278.8 111.57H275.47L271.35 93.5H274.46L277.39 107.23L280.86 93.5H284.24L287.73 107.23L290.68 93.5H293.71L289.53 111.57Z" fill="#12100B"/>
</svg>
