<svg width="90" height="90" viewBox="0 0 90 90" fill="none" xmlns="http://www.w3.org/2000/svg">
<path fill-rule="evenodd" clip-rule="evenodd" d="M33.7623 10.5469C38.0454 10.5469 42.0795 12.2865 45.001 15.2649C47.9205 12.2865 51.9546 10.5469 56.2377 10.5469H70.1552C71.6988 10.5469 72.9501 11.7976 72.9501 13.3404L72.9492 16.1488L79.4707 16.1509C80.8857 16.1509 82.055 17.2018 82.2401 18.5653L82.2656 18.9444V76.6596C82.2656 78.0739 81.2142 79.2426 79.85 79.4276L79.4707 79.4531H10.5293C9.11434 79.4531 7.94496 78.4022 7.75989 77.0387L7.73438 76.6596V41.8873C7.73438 40.3456 8.9857 39.0959 10.5293 39.0959C12.0729 39.0959 13.3242 40.3456 13.3242 41.8873V73.8661L41.0618 73.8655C39.2113 71.7085 36.5554 70.3605 33.6802 70.1659L32.9572 70.1415H19.8448C18.4298 70.1415 17.2604 69.0905 17.0754 67.727L17.0499 67.348L17.0471 21.7358H13.3242V27.6352C13.3242 29.1768 12.0729 30.4266 10.5293 30.4266C8.9857 30.4266 7.73438 29.1768 7.73438 27.6352V18.9444C7.73438 17.5302 8.78584 16.3614 10.15 16.1764L10.5293 16.1509L17.0471 16.1488L17.0499 13.3404C17.0499 11.9261 18.1013 10.7574 19.4655 10.5724L19.8448 10.5469H33.7623ZM70.1552 70.1415C71.6988 70.1415 72.9501 68.8908 72.9501 67.348L72.9499 57.3776C72.9499 55.8371 71.6994 54.5882 70.1569 54.5882C68.6143 54.5882 67.3638 55.8371 67.3639 57.3778L67.364 64.5508L57.0428 64.5545C53.7202 64.5545 50.544 65.5674 47.8828 67.3857L47.7958 67.4485V20.6482C49.5491 18.0325 52.3945 16.3822 55.5134 16.1597L56.2377 16.1339L67.364 16.1301L67.3631 18.7784L67.3545 18.9444L67.3631 19.1061L67.3635 42.0284C67.3635 43.569 68.614 44.8179 70.1565 44.8179C71.6991 44.8179 72.9496 43.569 72.9496 42.0283L72.9492 21.7358H76.6758V73.8661L48.9382 73.8655C50.9429 71.5288 53.8928 70.1415 57.0428 70.1415H70.1552ZM22.6369 16.1301L33.7623 16.1339L34.4866 16.1597L35.2011 16.2361C38.0368 16.6418 40.5855 18.2335 42.2013 20.6444V67.4448L41.3038 66.8646C38.8193 65.3749 35.9475 64.5545 32.9572 64.5545L22.6369 64.5508V19.0503L22.6455 18.9444L22.6369 16.1301Z" fill="#0061FF"/>
</svg>
