<?xml version="1.0" encoding="UTF-8"?>
<svg class="social-icon d-inline py-2" fill="none" viewBox="0 0 60 60" xmlns="http://www.w3.org/2000/svg">
<g clip-path="url(#a)">
<path d="m60 60h-60l-1.02e-12 -60h60v60zm-28.925-37.852c-2.9175 1.2125-8.75 3.725-17.495 7.535-1.42 0.565-2.165 1.1175-2.2325 1.6575-0.115 0.915 1.03 1.275 2.585 1.7625 0.2125 0.0675 0.4325 0.135 0.6575 0.21 1.5325 0.4975 3.5925 1.08 4.6625 1.1025 0.9725 0.02 2.0575-0.38 3.255-1.2 8.17-5.5175 12.388-8.305 12.652-8.365 0.1875-0.0425 0.4475-0.0975 0.6225 0.06 0.175 0.155 0.1575 0.45 0.14 0.53-0.115 0.4825-4.6 4.655-6.925 6.815-0.725 0.6725-1.2375 1.15-1.3425 1.26-0.235 0.2425-0.475 0.475-0.705 0.6975-1.425 1.37-2.49 2.4 0.06 4.08 1.1892 0.7839 2.1475 1.4358 3.0967 2.0817 0.0286 0.0194 0.0572 0.0389 0.0858 0.0583 1.0675 0.7275 2.1325 1.4525 3.5125 2.3575 0.35 0.23 0.685 0.4675 1.0125 0.7 1.2425 0.8875 2.36 1.6825 3.74 1.5575 0.8-0.075 1.63-0.8275 2.05-3.075 0.9925-5.315 2.9475-16.825 3.4-21.57 0.0275-0.394 0.0108-0.7898-0.05-1.18-0.0364-0.3152-0.1898-0.6052-0.43-0.8125-0.3575-0.2925-0.9125-0.355-1.1625-0.35-1.1275 0.02-2.8575 0.6225-11.19 4.0875z" clip-rule="evenodd" fill="#F6F9FF" fill-rule="evenodd"/>
<path d="m31.075 22.148c-2.9175 1.2125-8.75 3.725-17.495 7.535-1.42 0.565-2.165 1.1175-2.2325 1.6575-0.115 0.915 1.03 1.275 2.585 1.7625 0.2125 0.0675 0.4325 0.135 0.6575 0.21 1.5325 0.4975 3.5925 1.08 4.6625 1.1025 0.9725 0.02 2.0575-0.38 3.255-1.2 8.17-5.5175 12.388-8.305 12.652-8.365 0.1875-0.0425 0.4475-0.0975 0.6225 0.06 0.175 0.155 0.1575 0.45 0.14 0.53-0.115 0.4825-4.6 4.655-6.925 6.815-0.725 0.6725-1.2375 1.15-1.3425 1.26-0.235 0.2425-0.475 0.475-0.705 0.6975-1.425 1.37-2.49 2.4 0.06 4.08 1.1892 0.7839 2.1475 1.4358 3.0967 2.0817l0.0858 0.0583c1.0675 0.7275 2.1325 1.4525 3.5125 2.3575 0.35 0.23 0.685 0.4675 1.0125 0.7 1.2425 0.8875 2.36 1.6825 3.74 1.5575 0.8-0.075 1.63-0.8275 2.05-3.075 0.9925-5.315 2.9475-16.825 3.4-21.57 0.0275-0.394 0.0108-0.7898-0.05-1.18-0.0364-0.3152-0.1898-0.6052-0.43-0.8125-0.3575-0.2925-0.9125-0.355-1.1625-0.35-1.1275 0.02-2.8575 0.6225-11.19 4.0875z" fill="#0061FF"/>
</g>
<defs>
<clipPath id="a">
<rect width="60" height="60" rx="16" fill="#fff"/>
</clipPath>
</defs>
</svg>
