<?xml version="1.0" encoding="UTF-8"?>
<svg class="social-icon d-inline py-2" viewBox="0 0 60 60" xmlns="http://www.w3.org/2000/svg">
<path d="m4.2174 4.2174c-4.2174 4.2177-4.2174 11.006-4.2174 24.583v2.4c0 13.576 0 20.365 4.2174 24.582 4.2177 4.2175 11.006 4.2175 24.583 4.2175h2.4c13.576 0 20.365 0 24.582-4.2175s4.2175-11.006 4.2175-24.582v-2.4c0-13.576 0-20.365-4.2175-24.583-4.2175-4.2174-11.006-4.2174-24.582-4.2174h-2.4c-13.576 0-20.365 4.7684e-7 -24.583 4.2174zm5.9076 14.033h6.85c0.225 11.45 5.275 16.3 9.275 17.3v-17.3h6.45v9.875c3.95-0.425 8.1-4.925 9.5-9.875h6.45c-0.5277 2.5672-1.5794 4.9979-3.0893 7.1401-1.5098 2.1422-3.4454 3.9499-5.6857 5.3099 2.5014 1.2419 4.7107 3.0004 6.482 5.1596 1.7712 2.1591 3.064 4.6696 3.793 7.3654h-7.1c-0.6542-2.3417-1.9856-4.438-3.8269-6.0258s-4.1106-2.5964-6.5231-2.8992v8.925h-0.775c-13.675 0-21.475-9.3748-21.8-24.975z" fill="#F6F9FF"/>
<path d="m10.125 18.25h6.85c0.225 11.45 5.275 16.3 9.275 17.3v-17.3h6.45v9.875c3.95-0.425 8.1-4.925 9.5-9.875h6.45c-0.5277 2.5672-1.5794 4.9979-3.0893 7.1401-1.5098 2.1422-3.4454 3.9499-5.6857 5.3099 2.5014 1.2419 4.7107 3.0004 6.482 5.1596 1.7712 2.1591 3.064 4.6696 3.793 7.3654h-7.1c-0.6542-2.3417-1.9856-4.438-3.8269-6.0258s-4.1106-2.5964-6.5231-2.8992v8.925h-0.775c-13.675 0-21.475-9.3748-21.8-24.975z" fill="#0061FF"/>
</svg>
