<svg width="40" height="40" viewBox="0 0 40 40" fill="none" xmlns="http://www.w3.org/2000/svg">
<path d="M16.7468 23.9863L25.7896 14.9435C26.2783 14.4548 27.0707 14.4548 27.5595 14.9435C28.0038 15.3878 28.0441 16.0831 27.6806 16.573L27.5595 16.7133L17.5477 26.7251C17.0707 27.2021 16.3126 27.2093 15.8267 26.7717L15.7013 26.6414L11.5297 21.6355C11.0873 21.1045 11.159 20.3154 11.69 19.8729C12.1727 19.4707 12.8687 19.4934 13.3237 19.8998L13.4526 20.0331L16.7468 23.9863Z" fill="#0061FF"/>
<path d="M16.3892 3.37072C16.5769 3.43459 16.7604 3.51056 16.9383 3.59816L19.0787 4.65198C19.6596 4.93799 20.3404 4.93799 20.9213 4.65198L23.0617 3.59816C25.3354 2.47874 28.086 3.41444 29.2054 5.6881L29.3281 5.95895L29.4329 6.23718L30.2012 8.49584C30.3072 8.80741 30.4837 9.08498 30.7121 9.31C31.0814 9.67379 31.3688 10.1966 31.2019 10.6874C30.9236 11.5053 30.0084 11.96 29.3306 11.4243C28.6453 10.8826 28.1199 10.1494 27.8316 9.30192L27.0633 7.04326L27.0156 6.91679L26.9599 6.79367L26.856 6.6071C26.2956 5.71068 25.1362 5.36668 24.1673 5.8437L22.0269 6.89752C20.7489 7.52674 19.2511 7.52674 17.9731 6.89752L15.8327 5.8437C15.7518 5.80389 15.6685 5.76935 15.5831 5.74032C14.4925 5.36934 13.3077 5.95268 12.9367 7.04326L12.1684 9.30192C11.7096 10.6505 10.6505 11.7096 9.30192 12.1684L7.04326 12.9367C6.95792 12.9657 6.87455 13.0003 6.79367 13.0401C5.76019 13.5489 5.33488 14.7992 5.8437 15.8327L6.89752 17.9731C7.52674 19.2511 7.52674 20.7489 6.89752 22.0269L5.8437 24.1673C5.80389 24.2482 5.76935 24.3315 5.74032 24.4169C5.36934 25.5075 5.95268 26.6923 7.04326 27.0633L9.30192 27.8316C10.6505 28.2904 11.7096 29.3495 12.1684 30.6981L12.9367 32.9567C12.9657 33.0421 13.0003 33.1255 13.0401 33.2063C13.5489 34.2398 14.7992 34.6651 15.8327 34.1563L17.9731 33.1025C19.2511 32.4733 20.7489 32.4733 22.0269 33.1025L24.1673 34.1563C24.2482 34.1961 24.3315 34.2306 24.4169 34.2597C25.5075 34.6307 26.6923 34.0473 27.0633 32.9567L27.8316 30.6981C28.2904 29.3495 29.3495 28.2904 30.6981 27.8316L32.9567 27.0633C33.0421 27.0343 33.1255 26.9997 33.2063 26.9599C34.2398 26.4511 34.6651 25.2008 34.1563 24.1673L33.1025 22.0269C32.4733 20.7489 32.4733 19.2511 33.1025 17.9731L34.1563 15.8327C34.1961 15.7518 34.2306 15.6685 34.2597 15.5831C34.5259 14.8004 34.3006 13.9692 33.7491 13.4251C33.38 13.0611 33.0921 12.5389 33.259 12.0481C33.5373 11.2302 34.4532 10.7745 35.131 11.3103C36.6125 12.4811 37.2721 14.4995 36.6293 16.3892C36.5654 16.5769 36.4894 16.7604 36.4018 16.9383L35.348 19.0787C35.062 19.6596 35.062 20.3404 35.348 20.9213L36.4018 23.0617C37.5213 25.3354 36.5856 28.086 34.3119 29.2054C34.134 29.293 33.9506 29.369 33.7628 29.4329L31.5042 30.2012C30.8911 30.4097 30.4097 30.8911 30.2012 31.5042L29.4329 33.7628C28.6167 36.1621 26.0101 37.4454 23.6108 36.6293C23.4231 36.5654 23.2396 36.4894 23.0617 36.4018L20.9213 35.348C20.3404 35.062 19.6596 35.062 19.0787 35.348L16.9383 36.4018C14.6646 37.5213 11.914 36.5856 10.7946 34.3119C10.707 34.134 10.631 33.9506 10.5671 33.7628L9.79878 31.5042C9.59025 30.8911 9.10885 30.4097 8.49584 30.2012L6.23718 29.4329C3.83791 28.6167 2.55456 26.0101 3.37072 23.6108C3.43459 23.4231 3.51056 23.2396 3.59816 23.0617L4.65198 20.9213C4.93799 20.3404 4.93799 19.6596 4.65198 19.0787L3.59816 16.9383C2.47874 14.6646 3.41444 11.914 5.6881 10.7946C5.86602 10.707 6.04943 10.631 6.23718 10.5671L8.49584 9.79878C9.10885 9.59025 9.59025 9.10885 9.79878 8.49584L10.5671 6.23718C11.3833 3.83791 13.9899 2.55456 16.3892 3.37072Z" fill="#0061FF"/>
</svg>
