<?xml version="1.0" encoding="UTF-8"?>
<svg class="d-inline-block" fill="none" viewBox="0 0 30 30" xmlns="http://www.w3.org/2000/svg">
<g clip-path="url(#a)">
<path d="m14.148 3.8631c0.4202-0.22826 0.9277-0.22826 1.3479 0l12.443 6.76c0.9428 0.5122 0.989 1.8473 0.0814 2.4221l-0.1541 0.0976v7.4293c0 0.5099-0.4134 0.9234-0.9235 0.9234-0.51 0-0.9235-0.4135-0.9235-0.9234v-6.2595l-10.442 6.6135c-0.461 0.292-1.0495 0.292-1.5106 0l-3.7792-2.3935c-0.43087-0.2729-0.55892-0.8434-0.286-1.2742 0.2729-0.4308 0.8435-0.5589 1.2744-0.286l3.5461 2.246 11.575-7.3312-11.575-6.2884-11.575 6.2884 5.5717 3.5288c0.43087 0.2729 0.55892 0.8434 0.28599 1.2742-0.27292 0.4308-0.84347 0.5589-1.2743 0.286l-1.558-0.9867v2.5916c0 0.7871 0.38086 1.5284 1.027 1.991l0.25133 0.1799c4.3425 3.1085 10.201 3.1085 14.543 0l0.2514-0.1799c0.6461-0.4626 1.027-1.2039 1.027-1.991v-1.1158c0-0.51 0.4134-0.9234 0.9235-0.9234 0.51 0 0.9235 0.4134 0.9235 0.9234v1.1158c0 1.3858-0.6706 2.685-1.7989 3.4926l-0.2513 0.1799c-4.9854 3.5688-11.708 3.5688-16.694 0l-0.25134-0.1799c-1.1282-0.8076-1.7988-2.1068-1.7988-3.4926v-3.7615l-2.8017-1.7744c-0.90761-0.5748-0.86147-1.9099 0.08134-2.4221l12.443-6.76z" clip-rule="evenodd" fill="#0061FF" fill-rule="evenodd"/>
</g>
<defs>
<clipPath id="a">
<rect transform="translate(.03125)" width="29.552" height="29.549" fill="#fff"/>
</clipPath>
</defs>
</svg>
