<svg width="300" height="83" viewBox="0 0 300 83" fill="none" xmlns="http://www.w3.org/2000/svg">
<g clip-path="url(#clip0_1325_608)">
<path d="M49.6933 26.6072L41.6009 32.6071C38.4333 27.422 33.8798 24.8294 27.9405 24.8294C27.1981 24.8294 26.3568 24.9035 25.4164 25.0516C24.4759 25.1998 23.4118 25.496 22.224 25.9405C21.0361 26.3355 20.0463 27.0022 19.2543 27.9405C18.5119 28.8293 18.1407 29.9158 18.1407 31.1997C18.1407 31.9899 18.3139 32.7059 18.6604 33.3478C19.0068 33.9404 19.4028 34.4343 19.8483 34.8293C20.3432 35.175 21.0609 35.5207 22.0012 35.8663C22.9416 36.212 23.783 36.4836 24.5254 36.6812C25.2679 36.8787 26.332 37.1256 27.7178 37.4218L33.2117 38.6071C35.5874 39.1008 37.6414 39.6688 39.3737 40.3107C41.1555 40.9527 42.9373 41.8663 44.7191 43.0514C46.5008 44.1873 47.8619 45.6934 48.8024 47.5699C49.7427 49.3971 50.2129 51.5699 50.2129 54.0884C50.2129 56.5575 49.718 58.8044 48.7281 60.8291C47.7877 62.8044 46.5503 64.4093 45.016 65.6439C43.5312 66.8784 41.7741 67.9154 39.7449 68.7549C37.7652 69.5944 35.7853 70.1624 33.8056 70.4586C31.8754 70.8043 29.9203 70.9772 27.9405 70.9772C23.1396 70.9772 18.6604 70.0636 14.5029 68.2365C10.3454 66.4093 7.17775 63.5944 5 59.7921L13.2408 54.0884C16.7549 59.3229 22.1745 61.9402 29.4996 61.9402C32.4693 61.9402 34.8945 61.3476 36.7752 60.1624C38.656 58.9279 39.5964 57.2242 39.5964 55.0513C39.5964 53.076 38.854 51.6687 37.3692 50.8291C35.9338 49.9897 33.3107 49.1501 29.4996 48.3107L22.8179 46.8292C21.2341 46.4836 19.8483 46.1379 18.6604 45.7922C17.4725 45.3971 16.1362 44.8292 14.6514 44.0885C13.216 43.2984 12.0282 42.4095 11.0878 41.4218C10.1969 40.4342 9.42973 39.175 8.7863 37.6441C8.14287 36.0639 7.82117 34.2861 7.82117 32.3108C7.82117 27.5208 9.65245 23.6195 13.315 20.6072C17.0271 17.5455 22.1002 16.0146 28.5345 16.0146C37.4435 16.0146 44.4964 19.5455 49.6933 26.6072Z" fill="#00201E"/>
<path d="M86.739 69.6443H77.8301V65.8666C74.4645 68.9776 70.4554 70.5332 65.803 70.5332C60.8536 70.5332 57.29 68.9036 55.1123 65.6444C53.6769 63.5209 52.9592 60.2617 52.9592 55.8666V32.6075H61.9425V53.9407C61.9425 59.4222 64.3676 62.1629 69.2181 62.1629C71.0988 62.1629 72.6332 61.7184 73.8211 60.8296C75.0584 59.9406 75.9245 59.0024 76.4195 58.0147C77.3598 56.1876 77.8301 53.2247 77.8301 49.1259V32.6075H86.739V69.6443Z" fill="#00201E"/>
<path d="M91.9365 32.6075H100.845V35.9409C103.667 32.978 107.057 31.4965 111.016 31.4965C115.867 31.4965 119.826 33.2989 122.895 36.9038C126.211 40.8544 127.869 45.6939 127.869 51.4223C127.869 56.3111 126.632 60.4839 124.157 63.9406C120.94 68.4838 116.535 70.7554 110.942 70.7554C107.181 70.7554 103.815 69.3727 100.845 66.6072V81.7183H91.9365V32.6075ZM118.738 50.9778C118.738 47.4223 117.822 44.7063 115.991 42.8298C114.159 40.9532 112.031 40.0149 109.606 40.0149C106.686 40.0149 104.458 41.1014 102.924 43.2741C101.439 45.447 100.697 47.9901 100.697 50.9037C100.697 54.2124 101.489 56.953 103.072 59.1258C104.706 61.2493 106.958 62.311 109.828 62.311C110.818 62.311 111.784 62.1382 112.724 61.7925C113.664 61.4468 114.605 60.9036 115.545 60.1629C116.535 59.3728 117.303 58.1876 117.847 56.6074C118.44 55.0272 118.738 53.1506 118.738 50.9778Z" fill="#00201E"/>
<path d="M166.921 52.9037H139.452C139.501 53.3976 139.6 53.9654 139.749 54.6074C139.897 55.2494 140.218 56.0395 140.713 56.9777C141.208 57.8666 141.803 58.6814 142.496 59.4222C143.238 60.1629 144.252 60.8048 145.539 61.3481C146.827 61.8419 148.286 62.0889 149.92 62.0889C154.374 62.0889 157.615 60.3851 159.645 56.9777L167.217 61.3481C162.566 67.6196 156.527 70.7554 149.103 70.7554C143.461 70.7554 138.857 68.9776 135.294 65.4221C131.78 61.8172 130.023 56.9777 130.023 50.9037C130.023 44.6322 131.83 39.8421 135.442 36.5335C139.055 33.1755 143.461 31.4965 148.657 31.4965C152.023 31.4965 154.944 32.1384 157.418 33.4224C159.942 34.657 161.848 36.3606 163.134 38.5334C164.471 40.6569 165.436 42.9038 166.03 45.2742C166.624 47.6445 166.921 50.1876 166.921 52.9037ZM139.749 46.3853H157.121C157.071 45.7433 156.923 45.0766 156.676 44.3852C156.478 43.6446 156.107 42.805 155.562 41.8668C155.017 40.9285 154.151 40.1631 152.964 39.5704C151.825 38.9285 150.439 38.6076 148.806 38.6076C147.123 38.6076 145.638 38.9285 144.352 39.5704C143.115 40.1631 142.174 40.9779 141.53 42.0149C140.937 43.0519 140.516 43.8914 140.269 44.5334C140.07 45.126 139.897 45.7433 139.749 46.3853Z" fill="#00201E"/>
<path d="M169.484 32.6075H178.096V37.8668C180.026 33.8174 183.713 31.7927 189.158 31.7927H189.9V40.9038C183.912 40.9038 180.2 43.1754 178.764 47.7186C178.318 49.1013 178.096 51.126 178.096 53.7925V69.6443H169.484V32.6075Z" fill="#00201E"/>
<path d="M200.778 17.3484H210.429V57.0518C210.429 58.0394 210.33 59.0271 210.133 60.0147C209.984 61.0024 209.563 62.1875 208.87 63.5702C208.226 64.9035 207.336 66.0887 206.197 67.1257C205.059 68.1134 203.426 68.9529 201.297 69.6443C199.17 70.385 196.67 70.7554 193.799 70.7554C191.671 70.7554 189.641 70.5331 187.712 70.0886V60.4591C189.939 60.953 191.671 61.1999 192.908 61.1999C194.69 61.1999 196.15 60.953 197.288 60.4591C198.427 59.9159 199.219 59.1505 199.665 58.1629C200.159 57.1258 200.456 56.2122 200.555 55.4222C200.704 54.5826 200.778 53.5209 200.778 52.237V17.3484Z" fill="#006C5E"/>
<path d="M259.142 17.3484H268.05V35.7186C270.872 32.9038 274.41 31.4964 278.667 31.4964C283.122 31.4964 286.957 33.2989 290.174 36.9037C293.392 40.5087 295 45.1753 295 50.9037C295 57.0764 293.268 61.9406 289.803 65.4961C286.388 69.0023 282.503 70.7554 278.147 70.7554C274.237 70.7554 270.847 69.101 267.976 65.7924V69.6443H259.142V17.3484ZM267.902 50.237C267.902 54.1383 268.718 57.1258 270.352 59.1999C271.986 61.274 274.188 62.3109 276.959 62.3109C279.484 62.3109 281.588 61.2492 283.27 59.1258C285.002 57.0024 285.868 54.0395 285.868 50.237C285.868 47.4716 285.052 45.0025 283.418 42.8297C281.835 40.6568 279.558 39.5704 276.588 39.5704C273.965 39.5704 271.862 40.5828 270.278 42.6075C268.694 44.6322 267.902 47.1753 267.902 50.237Z" fill="#006C5E"/>
<path d="M245.216 31.8275C240.93 32.1468 237.068 35.5409 234.955 38.025C232.844 35.5593 228.982 32.1468 224.696 31.8275C217.175 31.2697 212.915 36.1574 212.915 43.8925C212.915 50.0791 216.97 56.0013 222.666 61.81C227.688 66.9472 234.943 72.2276 234.943 72.2276C234.943 72.2276 242.199 66.9325 247.224 61.81C252.916 56.0013 256.972 50.0791 256.972 43.8925C256.983 36.15 252.737 31.2624 245.216 31.8275Z" fill="#006C5E"/>
</g>
<defs>
<clipPath id="clip0_1325_608">
<rect width="290" height="65.7333" fill="white" transform="translate(5 16)"/>
</clipPath>
</defs>
</svg>
