<?xml version="1.0" encoding="UTF-8"?>
<svg class="mb-2 mx-2 big-icon" fill="none" viewBox="0 0 129 108" xmlns="http://www.w3.org/2000/svg">
<path d="m80.792 71.969c6.4203 0 11.625 5.1785 11.625 11.566v7.7211l-0.0408 0.5576c-1.6055 10.93-11.473 16.186-28.031 16.186-16.498 0-26.523-5.196-28.687-16l-0.0748-0.7535v-7.7109c0-6.388 5.2047-11.566 11.625-11.566h33.583zm0 7.711h-33.583c-2.1401 0-3.875 1.7262-3.875 3.8555v7.3016c1.4456 6.1709 8.0116 9.4519 21.012 9.4519 13 0 19.271-3.2454 20.322-9.3348v-7.4187c0-2.1293-1.7349-3.8555-3.875-3.8555zm-16.792-48.836c9.9872 0 18.083 8.0554 18.083 17.992 0 9.9369-8.0961 17.992-18.083 17.992-9.9871 0-18.083-8.0554-18.083-17.992 0-9.9368 8.0962-17.992 18.083-17.992zm0 7.7109c-5.7069 0-10.333 4.6031-10.333 10.281s4.6264 10.281 10.333 10.281 10.333-4.6031 10.333-10.281-4.6264-10.281-10.333-10.281zm33.583-38.555c9.9867 0 18.084 8.0554 18.084 17.992 0 9.9368-8.097 17.992-18.084 17.992-9.9871 0-18.083-8.0554-18.083-17.992 0-9.9369 8.0962-17.992 18.083-17.992zm-67.167 0c9.9871 0 18.083 8.0554 18.083 17.992 0 9.9368-8.0962 17.992-18.083 17.992-9.9872 0-18.083-8.0554-18.083-17.992 0-9.9369 8.0962-17.992 18.083-17.992zm67.167 7.711c-5.7069 0-10.333 4.6031-10.333 10.281s4.6264 10.281 10.333 10.281c5.7067 0 10.334-4.603 10.334-10.281s-4.627-10.281-10.334-10.281zm-67.167 0c-5.707 0-10.333 4.6031-10.333 10.281s4.6264 10.281 10.333 10.281c5.7069 0 10.333-4.603 10.333-10.281s-4.6264-10.281-10.333-10.281z" fill="url(#a)"/>
<path d="m13.625 41.125 23.267-0.0049c2.1489-4e-4 3.8881 1.7387 3.8774 3.8771-0.0106 2.1232-1.7431 3.8387-3.8766 3.8387h-23.268c-2.1401 0-3.875 1.7262-3.875 3.8555v7.3016c1.4456 6.1709 8.0116 9.452 21.012 9.452 0.0816 0 0.4258-2e-4 0.8957-4e-4 2.1459-0.0012 3.9009 1.7401 3.9009 3.8756 0 2.1131-1.7183 3.8276-3.8416 3.8332l-0.955 0.0025c-16.498 0-26.523-5.1956-28.687-16l-0.07472-0.7535v-7.711c0-6.388 5.2047-11.566 11.625-11.566z" fill="url(#a)"/>
<path d="m114.38 41.125c6.42 0 11.625 5.1784 11.625 11.566v7.7211l-0.041 0.5576c-1.605 10.93-11.473 16.186-28.031 16.186l-1.6711-0.0052c-2.1142-0.0067-3.8246-1.7142-3.8246-3.8183 0-2.1424 1.7721-3.8932 3.9249-3.8895 0.7634 0.0014 1.3847 0.0021 1.5708 0.0021 13 0 19.271-3.2455 20.322-9.3348v-7.4188c0-2.1293-1.735-3.8555-3.875-3.8555h-23.248c-2.1409 0-3.8765-1.7272-3.8765-3.8578 0-2.1308 1.736-3.8582 3.8773-3.8577l23.248 0.0046z" fill="url(#a)"/>
<defs>
<linearGradient id="a" x1="21.375" x2="111.02" y1="103.61" y2="-4.645" gradientUnits="userSpaceOnUse">
<stop stop-color="#0061FF" offset="0"/>
<stop stop-color="#0061FF" offset="1"/>
</linearGradient>
</defs>
</svg>
