<svg width="26" height="27" viewBox="0 0 26 27" fill="none" xmlns="http://www.w3.org/2000/svg">
<path fill-rule="evenodd" clip-rule="evenodd" d="M2.16797 13.1952C2.16797 7.21207 7.01822 2.36182 13.0013 2.36182C18.9844 2.36182 23.8346 7.21207 23.8346 13.1952C23.8346 19.1782 18.9844 24.0285 13.0013 24.0285C7.01822 24.0285 2.16797 19.1782 2.16797 13.1952ZM13.0013 4.52848C8.21483 4.52848 4.33464 8.40868 4.33464 13.1952C4.33464 17.9816 8.21483 21.8618 13.0013 21.8618C17.7878 21.8618 21.668 17.9816 21.668 13.1952C21.668 8.40868 17.7878 4.52848 13.0013 4.52848Z" fill="#333333"/>
<path fill-rule="evenodd" clip-rule="evenodd" d="M13.0013 8.86149C11.8047 8.86149 10.8346 9.83154 10.8346 11.0282C10.8346 12.2248 11.8047 13.1948 13.0013 13.1948C14.1979 13.1948 15.168 12.2248 15.168 11.0282C15.168 9.83154 14.1979 8.86149 13.0013 8.86149ZM8.66797 11.0282C8.66797 8.63492 10.6081 6.69482 13.0013 6.69482C15.3945 6.69482 17.3346 8.63492 17.3346 11.0282C17.3346 13.4214 15.3945 15.3615 13.0013 15.3615C10.6081 15.3615 8.66797 13.4214 8.66797 11.0282Z" fill="#333333"/>
<path fill-rule="evenodd" clip-rule="evenodd" d="M12.9997 18.6115C10.7349 18.6115 8.70306 19.6029 7.31193 21.1791L5.6875 19.7453C7.47247 17.723 10.0875 16.4448 12.9997 16.4448C15.9119 16.4448 18.527 17.723 20.3119 19.7453L18.6875 21.1791C17.2964 19.6029 15.2645 18.6115 12.9997 18.6115Z" fill="#333333"/>
</svg>
