<svg width="24" height="24" viewBox="0 0 24 24" fill="none" xmlns="http://www.w3.org/2000/svg">
<path fill-rule="evenodd" clip-rule="evenodd" d="M13.1038 1.3125C13.7025 1.3125 14.2767 1.55362 14.7001 1.98285L17.5221 4.84344L20.3398 7.70553C20.7626 8.13492 21 8.71691 21 9.32371V19.3795C21 20.6443 19.989 21.6696 18.7419 21.6696L17.7711 21.67C17.3553 21.6701 17.0181 21.3282 17.0181 20.9064C17.0181 20.4847 17.3551 20.1429 17.7709 20.1429H18.7419C19.1576 20.1429 19.4946 19.8011 19.4946 19.3795L19.4938 9.45841L15.2325 9.45932C14.0374 9.45932 13.0591 8.51763 12.9796 7.32594L12.9744 7.16914V2.83929H7.20375C6.78805 2.83929 6.45105 3.18107 6.45105 3.60268L6.45076 7.52863C6.45074 7.86518 6.22482 8.15216 5.91068 8.26046C5.46267 8.41491 4.94438 8.10505 4.94452 7.62506L4.94566 3.60268C4.94566 2.33785 5.95664 1.3125 7.20375 1.3125H13.1038ZM14.4798 7.16914V3.91821L18.435 7.93163L15.2325 7.93253L15.1304 7.92556C14.763 7.87501 14.4798 7.55561 14.4798 7.16914Z" fill="#0061FF"/>
<path d="M11.3775 10.4184C13.1061 12.1715 13.2869 14.9 11.92 16.8572L11.7782 17.0503L16.0107 21.344L16.0858 21.4322C16.3112 21.7403 16.2862 22.1776 16.0107 22.457C15.7352 22.7364 15.3041 22.7618 15.0003 22.5332L14.9132 22.457L10.6415 18.1246C8.71912 19.4391 6.08723 19.2339 4.38638 17.5089C4.25834 17.379 4.1388 17.2438 4.02775 17.104C3.73291 16.7327 3.87702 16.201 4.27982 15.9554C4.61126 15.7532 5.03822 15.8797 5.2877 16.1795C5.34948 16.2537 5.41485 16.3259 5.48381 16.3958C6.80826 17.7391 8.95562 17.7391 10.2801 16.3958C11.6045 15.0526 11.6045 12.8747 10.2801 11.5314C8.95562 10.1882 6.80826 10.1882 5.48381 11.5314C4.98535 12.037 4.67448 12.6607 4.55122 13.3137C4.48142 13.6835 4.18801 13.9933 3.81685 13.9933C3.33095 13.9933 2.92816 13.5923 3.01082 13.1065C3.17836 12.122 3.63688 11.1785 4.38638 10.4184C6.31692 8.46041 9.44696 8.46041 11.3775 10.4184Z" fill="#0061FF"/>
</svg>
