<?xml version="1.0" encoding="UTF-8"?>
<svg class="d-inline-block" fill="none" viewBox="0 0 30 30" xmlns="http://www.w3.org/2000/svg">
<path d="m18.773 4.6172h-7.7536l-0.1214 0.00818c-0.4367 0.05935-0.7733 0.43433-0.7733 0.88806v2.4942c0 0.49481 0.4006 0.89594 0.8947 0.89594s0.8946-0.40113 0.8946-0.89594v-1.5979h5.9643v2.9875h-9.8411c-2.1411 0-3.8768 1.7388-3.8768 3.8837v7.7675c0 2.1449 1.7357 3.8837 3.8768 3.8837h13.718c2.1411 0 3.8768-1.7388 3.8768-3.8837v-2.3462c0-0.4948-0.4006-0.896-0.8947-0.896s-0.8946 0.4012-0.8946 0.896v2.3462c0 1.1549-0.9346 2.0912-2.0875 2.0912h-13.718c-1.1529 0-2.0875-0.9363-2.0875-2.0912v-7.7675c0-1.155 0.93461-2.0912 2.0875-2.0912h13.718c1.1529 0 2.0875 0.9362 2.0875 2.0912v1.6917c0 0.4948 0.4005 0.8959 0.8946 0.8959s0.8947-0.4011 0.8947-0.8959v-1.6917c0-2.1449-1.7357-3.8837-3.8768-3.8837h-2.0875v-3.8837l-0.0082-0.12161c-0.0593-0.43746-0.4336-0.77463-0.8865-0.77463z" fill="#0061FF"/>
</svg>
